<svg xmlns="http://www.w3.org/2000/svg" viewBox="0 0 175 175"><defs><style>.cls-1{fill:#fcd6c8;}.cls-2{fill:#603813;}.cls-3{fill:#ffaa59;}.cls-4{fill:#cf8638;}.cls-5{fill:#242424;}.cls-6{fill:#57745e;}.cls-7{fill:#a67c52;}.cls-8,.cls-9{fill:#7a5733;}.cls-10,.cls-8{isolation:isolate;}.cls-8{opacity:0.34;}.cls-10{fill:#018a1a;opacity:0.48;}</style></defs><g id="Layer_1" data-name="Layer 1"><g id="Layer_27" data-name="Layer 27"><rect class="cls-1" x="3" y="3.03" width="169" height="168.95"/><path class="cls-2" d="M169,6V169H6V6H169m6-6H0V175H175V0Z"/></g></g><g id="Layer_6" data-name="Layer 6"><g id="beehive"><g id="Layer_7_copy_2" data-name="Layer 7 copy 2"><path class="cls-3" d="M122.78,136.36c1.86,10-9.36,26.45-26.2,29.61s-32.88-8.25-34.75-18.23S72.09,127.13,88.93,124,120.91,126.37,122.78,136.36Z"/><ellipse class="cls-4" cx="90.46" cy="130.14" rx="41.43" ry="22.22" transform="translate(-22.36 18.82) rotate(-10.58)"/><ellipse class="cls-3" cx="87.58" cy="109.81" rx="51.03" ry="26.61" transform="translate(-13.27 12.04) rotate(-7.31)"/><ellipse class="cls-4" cx="84.27" cy="92.9" rx="45.12" ry="25.1" transform="matrix(0.98, -0.2, 0.2, 0.98, -16.56, 18.3)"/><ellipse class="cls-3" cx="78.32" cy="72.48" rx="28.48" ry="13.68" transform="translate(-15.11 20.93) rotate(-13.89)"/></g><g id="Layer_19" data-name="Layer 19"><ellipse cx="89.72" cy="130.23" rx="10.97" ry="17.56" transform="translate(-16.81 13.35) rotate(-7.78)"/></g><g id="Layer_19_copy" data-name="Layer 19 copy"><ellipse class="cls-5" cx="91.22" cy="129.53" rx="9.33" ry="16.58" transform="translate(-22.55 19.27) rotate(-10.74)"/></g><g id="Layer_23" data-name="Layer 23"><path class="cls-6" d="M62.21,17.38c6.39,4.58,14.28,15.33,10.93,20s-19.39-1.93-25.79-6.5S33.29,11.05,34.59,9.05C36.17,6.62,55.82,12.81,62.21,17.38Z"/></g><g id="Layer_9_copy_2" data-name="Layer 9 copy 2"><path class="cls-7" d="M79.48,65.53c-4.47,8-6.54-.31-7.31-4.55a38.23,38.23,0,0,0-2-7.12,35,35,0,0,0-2-4.3,35.41,35.41,0,0,0-3.24-4.83c-1-1.24-2.16-2.77-1.58-4.26a2.82,2.82,0,0,1,.55-.89c1.77-2,5-2.3,7.4-1.24A13.34,13.34,0,0,1,77,43.91,27,27,0,0,1,78.61,47,28.12,28.12,0,0,1,81,58.42,14.05,14.05,0,0,1,79.48,65.53Z"/><g id="Layer_21_copy" data-name="Layer 21 copy"><path class="cls-8" d="M80,50.91a24.55,24.55,0,0,1-2.4.63c-2.79.58-5.53,1.1-7.92,1.37a35.82,35.82,0,0,0-2.09-4.32,76.43,76.43,0,0,1,9.65-2.31c.36-.05.72-.12,1.06-.18A27.79,27.79,0,0,1,80,50.91Z"/></g><path class="cls-7" d="M98.49,36.31a5.48,5.48,0,0,1-.86,1.85c-2.6,3.73-10.21,8-14.71,9.72a55.64,55.64,0,0,1-27,3.26c-4.36-.55-8.75-1.69-12.21-4.08-12.94-8.93,2.38-10.43,10.16-10.72C64.73,36,78.14,34.2,86.18,27.2a8.56,8.56,0,0,1,2.7-1.79c1.45-.48,2.28.42,4,1.26a5.35,5.35,0,0,1,1.42,1.1C96.85,30.49,99.27,33.3,98.49,36.31Z"/></g><g id="Layer_21" data-name="Layer 21"><path class="cls-9" d="M98.49,36.31a.37.37,0,0,1-.13.12c-.81.69-3.58-1.22-6.19-4.26s-4-6-3.29-6.76c1.45-.48,2.28.42,4,1.26a5.35,5.35,0,0,1,1.42,1.1C96.85,30.49,99.27,33.3,98.49,36.31Z"/></g><path class="cls-10" d="M67.43,31.57C64.57,27.11,59.76,23.22,54.38,20a157.67,157.67,0,0,0-17.25-8.46A37.63,37.63,0,0,1,47,15.28c7,3.49,13.74,7.43,18.71,12.38,1.55,1.54,3,3.41,2.42,5.05C67.58,31.9,67,31.1,67.43,31.57Z"/></g></g></svg>