<svg xmlns="http://www.w3.org/2000/svg" viewBox="0 0 175 175"><defs><style>.cls-1{isolation:isolate;}.cls-2,.cls-4{fill:#ffaa59;}.cls-2{stroke:#cc7a2d;}.cls-2,.cls-3,.cls-4,.cls-6,.cls-7{stroke-miterlimit:10;stroke-width:1.13px;}.cls-3{fill:#cf8638;stroke:#a65a08;}.cls-4{stroke:#cb792b;}.cls-5{fill:#242424;}.cls-6{fill:#57745e;stroke:#2e5b36;}.cls-7{fill:#a67c52;stroke:#47311a;}.cls-8,.cls-9{fill:#7a5733;}.cls-10,.cls-8{mix-blend-mode:multiply;}.cls-8{opacity:0.34;}.cls-10{fill:#018a1a;opacity:0.48;}</style></defs><g class="cls-1"><g id="beehive"><g id="Layer_7_copy_2" data-name="Layer 7 copy 2"><path class="cls-2" d="M116.69,126.88c1.68,9-8.41,23.75-23.52,26.57S63.65,146.06,62,137.1s9.22-18.51,24.33-21.33S115,117.92,116.69,126.88Z"/><ellipse class="cls-3" cx="87.68" cy="121.29" rx="37.19" ry="19.95" transform="translate(-20.78 18.16) rotate(-10.58)"/><ellipse class="cls-4" cx="85.09" cy="103.04" rx="45.81" ry="23.89" transform="translate(-12.42 11.67) rotate(-7.31)"/><ellipse class="cls-3" cx="82.13" cy="87.87" rx="40.52" ry="22.54" transform="translate(-15.61 17.78) rotate(-11.29)"/><ellipse class="cls-2" cx="76.78" cy="69.52" rx="25.58" ry="12.29" transform="translate(-14.45 20.47) rotate(-13.89)"/></g><g id="Layer_19" data-name="Layer 19"><ellipse cx="87.01" cy="121.37" rx="9.85" ry="15.76" transform="translate(-15.63 12.9) rotate(-7.78)"/></g><g id="Layer_19_copy" data-name="Layer 19 copy"><ellipse class="cls-5" cx="88.36" cy="120.74" rx="8.38" ry="14.88" transform="translate(-20.96 18.59) rotate(-10.75)"/></g><g id="Layer_23" data-name="Layer 23"><path class="cls-6" d="M62.32,20.06c5.73,4.1,12.81,13.75,9.8,18S54.71,36.29,49,32.19,36.35,14.37,37.51,12.58C38.93,10.4,56.58,16,62.32,20.06Z"/></g><g id="Layer_9_copy_2" data-name="Layer 9 copy 2"><path class="cls-7" d="M77.83,63.29c-4,7.17-5.87-.28-6.56-4.09a32.87,32.87,0,0,0-1.79-6.38A31.57,31.57,0,0,0,67.67,49a30.53,30.53,0,0,0-2.91-4.32c-.91-1.11-1.94-2.5-1.43-3.83a2.42,2.42,0,0,1,.51-.8c1.58-1.81,4.45-2.07,6.65-1.11a12.09,12.09,0,0,1,5.13,5,25.69,25.69,0,0,1,1.46,2.8,25,25,0,0,1,2.16,10.23A13.13,13.13,0,0,1,77.83,63.29Z"/><g id="Layer_21_copy" data-name="Layer 21 copy"><path class="cls-8" d="M78.32,50.16a20.29,20.29,0,0,1-2.15.57c-2.51.51-5,1-7.12,1.22a31.36,31.36,0,0,0-1.87-3.87A68.41,68.41,0,0,1,75.84,46l1-.16A23.47,23.47,0,0,1,78.32,50.16Z"/></g><path class="cls-7" d="M94.9,37.05a5.13,5.13,0,0,1-.78,1.65c-2.33,3.35-9.16,7.16-13.2,8.74a50.1,50.1,0,0,1-24.2,2.93c-3.91-.51-7.85-1.52-11-3.67-11.62-8,2.14-9.36,9.12-9.61,9.71-.35,21.77-1.93,29-8.22a7.65,7.65,0,0,1,2.43-1.6c1.31-.44,2,.37,3.55,1.12a4.8,4.8,0,0,1,1.27,1C93.42,31.84,95.58,34.35,94.9,37.05Z"/></g><g id="Layer_21" data-name="Layer 21"><path class="cls-9" d="M93.9,37.26h0a2.46,2.46,0,0,1-1.23-.43c-1.11-.75-1.39-1.15-3.42-3.51-2.33-2.71-3.08-5.08-2.39-5.73,1.24-.41,1.72.09,2.78.86a3.87,3.87,0,0,0,.37.24,9.87,9.87,0,0,1,2.89,3.2c1.65,2.56,2,2.71,1.83,4.65A.76.76,0,0,1,93.9,37.26Z"/></g><path class="cls-10" d="M67,32.8c-2.58-4-6.89-7.5-11.72-10.39a137.92,137.92,0,0,0-15.47-7.6,34.14,34.14,0,0,1,8.85,3.36C54.9,21.31,61,24.85,65.46,29.28c1.39,1.39,2.67,3.06,2.16,4.53C67.13,33.1,66.65,32.38,67,32.8Z"/></g></g></svg>