<?xml version="1.0" encoding="UTF-8"?>
<svg id="Layer_4" data-name="Layer 4" xmlns="http://www.w3.org/2000/svg" viewBox="0 0 175 175">
  <defs>
    <style>
      .cls-1 {
        fill: #2d2524;
      }
    </style>
  </defs>
  <path class="cls-1" d="m115.1,65.66c5.65,1.08,11.01,2.86,15.73,6.26,1.66,1.19,3.13,2.58,4.35,4.23,2.64,3.56,3.66,7.51,2.87,11.9-.03.15-.04.3-.09.55-.61,1.66-1.05,3.3-1.79,4.78-1.64,3.26-3.9,6.09-6.7,8.43-2.01,1.69-4.07,3.35-6.22,4.84-2.96,2.05-6.16,3.73-9.49,5.07-3.27,1.31-6.64,2.35-10,3.5-1.23-1.22-2.51-2.29-4.17-2.88-3.22-1.21-6.46-.4-8.73,2.29-.86,1.02-1.5,2.23-2.3,3.36-.96.09-1.87.25-2.78.24-3.42-.05-6.84-.08-10.26-.27-2.01-.11-4.02-.44-5.99-.83-4.59-.91-9.01-2.35-13.05-4.79-2.66-1.6-5.03-3.53-6.77-6.13-.7-1.04-1.24-2.19-1.85-3.29-.27-1.25-.63-2.49-.8-3.76-.39-2.91.24-5.69,1.41-8.34,1.83-4.19,4.76-7.54,8.16-10.51.57-.5,1.18-.97,1.84-1.46,1.44,2.43,3.56,3.98,6.08,5.02,3.32,1.36,6.82,1.86,10.38,2,1.5.06,3.01,0,4.5-.12,2.35-.21,4.72-.39,7.04-.82,5.98-1.12,11.71-3.02,17.04-6.02,3.46-1.95,6.66-4.22,9.11-7.41,1.32-1.72,2.31-3.59,2.47-5.81Z"/>
  <path class="cls-1" d="m115.1,65.6c-.16,2.28-1.15,4.15-2.47,5.87-2.45,3.19-5.65,5.46-9.11,7.41-5.33,3-11.06,4.91-17.04,6.02-2.32.43-4.69.61-7.04.82-1.49.13-3.01.18-4.5.12-3.56-.14-7.06-.64-10.38-2-2.52-1.03-4.64-2.58-6.04-5.04-.13-.38-.22-.73-.31-1.09-.68-2.5.04-4.74,1.31-6.85,1.3-2.16,3.07-3.9,5.04-5.44,4.58-3.58,9.76-5.96,15.38-7.61.33,1.18.55,2.33.83,3.47.38,1.54.8,3.09,1.71,4.42.97,1.41,2.25,1.58,3.35.29.92-1.08,1.74-2.29,2.37-3.56,1.06-2.13,1.19-4.47,1.2-6.82,3.1-.38,6.21-.57,9.33-.41,3.76.19,7.46.77,10.86,2.5,1.08.55,2.1,1.25,3.01,2.05,1.73,1.51,2.6,3.46,2.5,5.85Z"/>
  <path class="cls-1" d="m70.47,150.38c-1.59-.77-3.21-1.47-4.75-2.32-2.7-1.51-5.04-3.46-6.71-6.12-1.95-3.09-2.47-6.43-1.64-9.99.07-.3.12-.6.25-.94.78.25,1.5.56,2.22.86,4.32,1.78,8.79,3.04,13.42,3.68,2.98.42,5.98.76,8.98,1.01,2.01.17,4.05.11,6.1.2.11.27.2.49.28.71,1.28,3.23,3.03,6.14,5.85,8.27,3.86,2.92,8.46,2.39,11.4-1.29.05-.03.06-.05.08-.11.05-.07.08-.11.14-.17,1.36-1.73,2.42-3.58,2.88-5.7.32-1.49.5-3,.8-4.5,1.21-.3,2.37-.59,3.52-.9,5.77-1.56,11.3-3.72,16.55-6.57,1.81-.98,3.57-2.1,5.26-3.28,1.69-1.18,3.27-2.53,4.89-3.8.93,2,1.12,4.12.85,6.27-.55,4.32-2.81,7.77-5.71,10.87-.89.95-1.88,1.82-2.89,2.78-.44.35-.81.65-1.19.95-3.51,2.73-7.35,4.89-11.41,6.7-3.65,1.63-7.4,2.97-11.28,3.88-3.25.76-6.55,1.35-9.85,1.84-2.4.36-4.84.6-7.26.63-2.95.03-5.92-.08-8.86-.38-2.62-.27-5.22-.83-7.81-1.36-1.4-.29-2.75-.79-4.12-1.2Z"/>
  <path class="cls-1" d="m140.02,119.38c-1.65,1.31-3.23,2.65-4.92,3.84-1.69,1.18-3.45,2.3-5.26,3.28-5.25,2.85-10.78,5.01-16.55,6.57-1.15.31-2.31.6-3.53.84.08-6.93-1.36-13.31-5.97-18.68,3.33-1.16,6.7-2.2,9.96-3.51,3.33-1.34,6.54-3.01,9.49-5.07,2.16-1.5,4.21-3.15,6.22-4.84,2.8-2.34,5.06-5.17,6.7-8.43.75-1.48,1.19-3.12,1.79-4.72,3.02,1.86,5.7,4.11,7.62,7.14,2.99,4.72,3.2,9.66,1.01,14.73-1.19,2.76-2.96,5.13-5.03,7.28-.5.52-1.01,1.02-1.54,1.57Z"/>
  <path class="cls-1" d="m77.07,48.91c-.69.02-1.37,0-2.06.05-6.72.43-13.35.07-19.73-2.31-3.2-1.19-5.94-3.1-8.21-5.67-.14-.16-.27-.34-.39-.52-1.22-1.82-.91-3.34.97-4.47,1.69-1.02,3.59-1.51,5.52-1.74,3.03-.36,6.07-.56,9.11-.82.8-.07,1.61-.11,2.5-.18,1.34-.09,2.6-.09,3.84-.23,2.17-.25,4.35-.5,6.5-.91,2.3-.43,4.57-1.04,6.85-1.57,4.82-1.41,9.28-3.48,13.09-6.84.58-.51,1.3-.87,2.01-1.24.01,1.47.73,2.61,1.43,3.74,1.37,2.21,3.05,4.18,5.06,5.83,1.03.84,2.05,1.81,3.55,1.68-.29.6-.49,1.26-.87,1.79-1.32,1.83-3.09,3.19-4.93,4.45-4.01,2.74-8.28,4.95-12.93,6.42-.18.06-.35.15-.6.28-.29.07-.51.06-.72.11-2.4.54-4.8,1.1-7.21,1.64-.92.2-1.85.36-2.77.54Z"/>
  <path class="cls-1" d="m88.32,136.72c-2.03-.04-4.06.01-6.07-.15-3-.25-6-.6-8.98-1.01-4.63-.64-9.1-1.9-13.42-3.68-.72-.3-1.44-.61-2.21-.91-1.14-.63-2.25-1.23-3.32-1.89-3.34-2.06-6.28-4.54-8.27-8-2.52-4.38-2.72-8.95-.79-13.57.66-1.59,1.67-3.04,2.56-4.58.65,1.08,1.19,2.22,1.88,3.27,1.73,2.61,4.11,4.53,6.77,6.13,4.04,2.44,8.46,3.88,13.05,4.79,1.97.39,3.98.71,5.99.83,3.41.19,6.84.22,10.26.27.91.01,1.81-.15,2.77-.19-1.38,3.36-1.89,6.84-1.76,10.44.11,2.82.66,5.57,1.53,8.25Z"/>
  <path class="cls-1" d="m70.48,150.43c1.36.36,2.72.86,4.11,1.15,2.59.53,5.19,1.09,7.81,1.36,2.94.3,5.91.42,8.86.38,2.42-.03,4.86-.27,7.26-.63,3.3-.5,6.6-1.09,9.85-1.84,3.88-.91,7.63-2.25,11.28-3.88,4.06-1.81,7.9-3.97,11.41-6.7.38-.29.75-.59,1.16-.91-.05,2.35-.7,4.58-1.64,6.73-3.25,7.36-8.55,12.84-15.52,16.75-3.44,1.93-7.13,3.18-11.03,3.74-5.61.8-11.1.19-16.43-1.74-4.87-1.76-9.21-4.4-12.84-8.12-1.78-1.83-3.29-3.85-4.28-6.28Z"/>
  <path class="cls-1" d="m81.96,30.47c-2.27.58-4.54,1.19-6.84,1.62-2.15.4-4.33.66-6.5.91-1.24.14-2.5.14-3.8.2-3.56-1.43-6.93-3.1-10.03-5.29-2.24-1.58-3.94-3.7-5.54-5.89-2.02-2.77-3.82-5.67-5.26-8.78-.89-1.93-1.68-3.93-2.3-5.96-.56-1.83-.03-2.47,1.9-2.36,1.75.1,3.52.35,5.23.74,6.24,1.44,12.26,3.57,18,6.44,4.76,2.38,8.31,6.09,11.37,10.33,1.64,2.27,3.01,4.7,3.65,7.47.04.17.06.34.1.57ZM48.57,9.96c3.12,1.5,6.27,2.96,9.36,4.53,3.87,1.97,7.55,4.25,10.89,7.05,2.54,2.14,4.94,4.41,6.63,7.32.16.27.36.51.54.76.07-.02.15-.04.22-.06,0-.3.03-.61,0-.91-.16-1.43-1.03-2.49-1.95-3.47-2.13-2.26-4.54-4.2-7.08-5.96-4.98-3.45-10.3-6.31-15.79-8.84-1.99-.91-4.13-1.49-6.2-2.21-.11-.04-.25,0-.38,0v.1c1.22.55,2.45,1.11,3.77,1.69Z"/>
  <path class="cls-1" d="m89.39,55.55c0,2.4-.13,4.75-1.19,6.88-.63,1.27-1.44,2.49-2.37,3.56-1.11,1.29-2.39,1.12-3.35-.29-.92-1.33-1.33-2.88-1.71-4.42-.28-1.14-.5-2.29-.78-3.47-.32-1.25-.55-2.49-.9-3.68-.35-1.2-.83-2.36-1.21-3.59.21-.1.38-.16.55-.19,2.01-.34,4.02-.64,6.02-1.01,1.3-.24,2.58-.56,3.87-.84.71,2.28.95,4.63,1.06,7.06Z"/>
  <path class="cls-1" d="m107.13,33.65c-1.53.17-2.55-.79-3.58-1.64-2.01-1.65-3.69-3.62-5.06-5.83-.69-1.12-1.42-2.27-1.38-3.74-.01-.06,0-.06.03-.06.07-.03.1-.06.13-.09.67-.38,1.35-.27,2,.02,3.55,1.56,5.93,4.33,7.64,7.7.57,1.11.74,2.36.21,3.63Z"/>
  <path class="cls-1" d="m88.33,48.45c-1.29.33-2.58.65-3.88.89-2,.37-4.01.67-6.02,1.01-.17.03-.34.09-.56.14-.3-.49-.54-.99-.79-1.53.92-.22,1.85-.38,2.76-.58,2.41-.53,4.81-1.09,7.21-1.64.21-.05.43-.05.7-.07.23.58.41,1.15.58,1.78Z"/>
  <path class="cls-1" d="m97.23,22.29s-.03.06-.1.09c0-.03.03-.06.1-.09Z"/>
  <path class="cls-1" d="m105.95,144.35s.02-.12.08-.17c0,.06-.02.11-.08.17Z"/>
  <path class="cls-1" d="m48.52,9.95c-1.27-.57-2.5-1.12-3.73-1.68v-.1c.13,0,.27-.03.38,0,2.07.72,4.21,1.3,6.2,2.21,5.49,2.52,10.81,5.38,15.79,8.84,2.55,1.77,4.95,3.71,7.08,5.96.93.98,1.79,2.04,1.95,3.47.03.3,0,.61,0,.91-.07.02-.15.04-.22.06-.18-.25-.38-.49-.54-.76-1.69-2.91-4.09-5.18-6.63-7.32-3.34-2.8-7.02-5.08-10.89-7.05-3.09-1.57-6.24-3.02-9.41-4.54Z"/>
</svg>