<svg xmlns="http://www.w3.org/2000/svg" viewBox="0 0 175 175"><defs><style>.cls-1{isolation:isolate;}.cls-2,.cls-4{fill:#faa95c;}.cls-2{stroke:#cd7b2b;}.cls-2,.cls-3,.cls-4,.cls-7,.cls-8{stroke-miterlimit:10;stroke-width:1.69px;}.cls-3{fill:#cf8635;stroke:#a65c26;}.cls-4{stroke:#cb7a29;}.cls-5{fill:#010101;}.cls-6{fill:#242424;}.cls-7{fill:#58755f;stroke:#2f5c37;}.cls-8{fill:#a77d52;stroke:#48321c;}.cls-10,.cls-9{fill:#7a5834;}.cls-11,.cls-9{mix-blend-mode:multiply;}.cls-9{opacity:0.34;}.cls-11{fill:#128b44;opacity:0.48;}</style></defs><g class="cls-1"><g id="Layer_1" data-name="Layer 1"><path class="cls-2" d="M130.7,141.55c2,10.41-9.78,27.61-27.34,30.89s-34.31-8.6-36.25-19,10.71-21.52,28.28-24.8S128.76,131.14,130.7,141.55Z"/><ellipse class="cls-3" cx="96.98" cy="135.05" rx="43.23" ry="23.19" transform="translate(-23.15 20.1) rotate(-10.58)"/><ellipse class="cls-4" cx="93.97" cy="113.84" rx="53.25" ry="27.77" transform="translate(-13.73 12.89) rotate(-7.31)"/><ellipse class="cls-3" cx="90.53" cy="96.21" rx="47.09" ry="26.2" transform="translate(-17.08 19.58) rotate(-11.29)"/><ellipse class="cls-2" cx="84.31" cy="74.89" rx="29.73" ry="14.29" transform="translate(-15.51 22.43) rotate(-13.89)"/><ellipse class="cls-5" cx="96.2" cy="135.15" rx="11.45" ry="18.32" transform="translate(-17.42 14.27) rotate(-7.78)"/><ellipse class="cls-6" cx="97.77" cy="134.41" rx="9.74" ry="17.3" transform="translate(-23.35 20.59) rotate(-10.75)"/><path class="cls-7" d="M67.5,17.4c6.67,4.76,14.9,16,11.4,20.88s-20.24-2-26.9-6.78S37.32,10.78,38.67,8.71C40.33,6.17,60.83,12.63,67.5,17.4Z"/><path class="cls-8" d="M85.53,67.65c-4.66,8.32-6.82-.33-7.62-4.76a38.45,38.45,0,0,0-2.09-7.42A35.13,35.13,0,0,0,73.72,51a34.55,34.55,0,0,0-3.38-5c-1-1.29-2.25-2.89-1.66-4.45a2.79,2.79,0,0,1,.59-.92c1.84-2.11,5.17-2.41,7.73-1.3a14,14,0,0,1,6,5.81,27.72,27.72,0,0,1,1.69,3.24,29.65,29.65,0,0,1,1.7,5,29.25,29.25,0,0,1,.81,6.9A15.25,15.25,0,0,1,85.53,67.65Z"/><path class="cls-9" d="M86.11,52.38A23.45,23.45,0,0,1,83.6,53c-2.91.6-5.77,1.14-8.27,1.42A37.32,37.32,0,0,0,73.15,50a80.65,80.65,0,0,1,10.07-2.4l1.12-.19A29,29,0,0,1,86.11,52.38Z"/><path class="cls-8" d="M105.37,37.14a6.07,6.07,0,0,1-.9,1.93C101.75,43,93.81,47.39,89.12,49.21A58,58,0,0,1,61,52.62c-4.55-.58-9.12-1.76-12.74-4.26-13.51-9.31,2.49-10.88,10.6-11.17,11.28-.41,25.3-2.24,33.67-9.55a9.07,9.07,0,0,1,2.82-1.87c1.53-.5,2.38.44,4.13,1.31A5.64,5.64,0,0,1,101,28.24C103.65,31.09,106.17,34,105.37,37.14Z"/><path class="cls-10" d="M104.21,37.39h0a2.89,2.89,0,0,1-1.42-.5c-1.3-.88-1.62-1.34-4-4.08-2.71-3.15-3.57-5.9-2.77-6.66,1.44-.47,2,.11,3.23,1l.43.28A11.54,11.54,0,0,1,103,31.15c1.91,3,2.26,3.14,2.12,5.4A.89.89,0,0,1,104.21,37.39Z"/><path class="cls-11" d="M73,32.2c-3-4.65-8-8.71-13.62-12.08a161.37,161.37,0,0,0-18-8.82,39.2,39.2,0,0,1,10.29,3.9C58.89,18.85,66,23,71.15,28.12c1.62,1.6,3.11,3.55,2.52,5.26C73.1,32.55,72.54,31.72,73,32.2Z"/></g></g></svg>