<svg xmlns="http://www.w3.org/2000/svg" viewBox="0 0 210 175"><defs><style>.cls-1{fill:#fdd8c9;}.cls-2{fill:#603913;}.cls-3{fill:#ffaa59;}.cls-4{fill:#cf8638;}.cls-5{fill:#242424;}.cls-6{fill:#57745e;}.cls-7,.cls-9{fill:#7a5733;}.cls-10,.cls-7{isolation:isolate;}.cls-7{opacity:0.34;}.cls-8{fill:#a67c52;}.cls-10{fill:#018a1a;opacity:0.48;}</style></defs><g id="Layer_1" data-name="Layer 1"><g id="Layer_27" data-name="Layer 27"><rect class="cls-1" x="3.18" y="3" width="204" height="168.9"/><path class="cls-2" d="M204.18,6.1V169H6.18V6.1h198m6-6H.18V175h210V.1Z"/></g></g><g id="Layer_9" data-name="Layer 9"><g id="beehive"><g id="Layer_7_copy_2" data-name="Layer 7 copy 2"><path class="cls-3" d="M191.08,156.82c-.56,7.43-11.67,17-24.2,16.05s-21.79-12.08-21.22-19.52,11.19-12.69,23.74-11.73S191.66,149.39,191.08,156.82Z"/><ellipse class="cls-4" cx="169.31" cy="146.28" rx="16.33" ry="30.44" transform="translate(10.59 303.99) rotate(-85.64)"/><ellipse class="cls-3" cx="171.12" cy="131.31" rx="19.55" ry="37.5" transform="translate(18.25 283.48) rotate(-82.37)"/><ellipse class="cls-4" cx="171.98" cy="118.68" rx="18.45" ry="33.16" transform="translate(42.59 282.76) rotate(-86.35)"/><ellipse class="cls-3" cx="171.62" cy="103.05" rx="10.06" ry="20.93" transform="translate(65.45 272.75) rotate(-88.95)"/></g><g id="Layer_19" data-name="Layer 19"><ellipse cx="168.76" cy="146.2" rx="12.9" ry="8.07" transform="translate(2.67 295.43) rotate(-82.84)"/></g><g id="Layer_19_copy" data-name="Layer 19 copy"><ellipse class="cls-5" cx="169.98" cy="145.98" rx="12.18" ry="6.86" transform="translate(11.97 304.85) rotate(-85.81)"/></g><g id="Layer_23" data-name="Layer 23"><path class="cls-6" d="M170.62,60.88c3.67,4.45,7.23,13.57,4,16.27s-13.4-5.05-17.07-9.5-6.22-16.75-4.93-17.92c1.59-1.43,14.37,6.69,18,11.14Z"/></g><g id="Layer_9_copy_2" data-name="Layer 9 copy 2"><g id="Layer_21_copy" data-name="Layer 21 copy"><path class="cls-7" d="M176.93,88.06c-.65,0-1.25,0-1.83,0-2.08-.13-4.14-.28-5.89-.54a25.15,25.15,0,0,0-.66-3.46,56.29,56.29,0,0,1,7.29.19l.79.08a20.28,20.28,0,0,1,.29,3.72Z"/></g><path class="cls-8" d="M173.76,98.34c-4.67,4.82-4.59-1.45-4.32-4.61a27.38,27.38,0,0,0-.07-5.43,25.66,25.66,0,0,0-2-7.46c-.48-1.07-1-2.38-.32-3.34a2,2,0,0,1,.57-.52,4.8,4.8,0,0,1,5.49.52,9.93,9.93,0,0,1,3,5,19.9,19.9,0,0,1,.56,2.52,21.9,21.9,0,0,1,.25,3.71,20.12,20.12,0,0,1-.7,4.83,10.58,10.58,0,0,1-2.46,4.74Z"/><path class="cls-8" d="M192.8,81.19a3.79,3.79,0,0,1-1,1.15c-2.55,2.15-8.76,3.73-12.28,4.12a40.93,40.93,0,0,1-19.75-2.78,20.48,20.48,0,0,1-7.89-5.21c-7.5-8.79,3.67-7,9.25-5.69,7.75,1.77,17.62,3.07,24.64-.39a6.41,6.41,0,0,1,2.25-.75c1.13-.06,1.53.73,2.57,1.64a3.71,3.71,0,0,1,.8,1.06c1.32,2.42,2.5,4.87,1.39,6.85Z"/></g><g id="Layer_21" data-name="Layer 21"><path class="cls-9" d="M192.8,81.19a.48.48,0,0,1-.11.06c-.7.34-2.31-1.55-3.59-4.2s-1.73-5-1.06-5.42c1.13-.07,1.54.73,2.57,1.64a3.71,3.71,0,0,1,.8,1.06c1.32,2.42,2.5,4.86,1.39,6.85Z"/></g><path class="cls-10" d="M171.64,71.94c-1.2-3.71-3.87-7.38-7.07-10.69A114.13,114.13,0,0,0,153.92,52a28.19,28.19,0,0,1,6.29,4.52c4.28,3.8,8.35,7.88,10.94,12.33.8,1.39,1.47,3,.75,4-.23-.66-.46-1.34-.27-.93Z"/></g></g></svg>