<?xml version="1.0" encoding="UTF-8"?>
<svg id="BottomBorder" xmlns="http://www.w3.org/2000/svg" viewBox="0 0 1152 60">
  <defs>
    <style>
      .cls-1 {
        stroke: #8c8e3e;
        stroke-width: 5px;
      }

      .cls-1, .cls-2 {
        fill: none;
        stroke-miterlimit: 10;
      }

      .cls-3 {
        fill: #1d351a;
      }

      .cls-4 {
        fill: #8c8e3e;
      }

      .cls-5 {
        fill: #794029;
      }

      .cls-2 {
        stroke: #1d351a;
        stroke-width: 9px;
      }

      .cls-6 {
        fill: #99513c;
      }

      .cls-7 {
        fill: #cebe48;
      }
    </style>
  </defs>
  <g id="BGBottom">
    <rect class="cls-6" width="1152" height="60"/>
    <g>
      <path class="cls-5" d="m1151.59,10.11c-43.59-7.11-89.59-1.11-133.59,1.89,41-2,83,4,124.49-.32,3.21-.45,6.29-.98,9.1-1.57Z"/>
      <path class="cls-5" d="m1164.59,25.48c-13.59-.48-26.59-4.48-40.59-1.48-21,5-42,1-63,4,33,2,65,4,98.13-1.88,3.29-.38,5.46-.64,5.46-.64Z"/>
      <path class="cls-5" d="m1169.9,33.86c-12.9,2.14-24.9,2.14-37.9,4.14,0-1,1-1,2-1-41,5-83-1-124-8,51,16,102,32,157,22v-5c-17,3-37,8-53,0,21-4,43-2,62.02-12.47-2.04-.16-6.12.34-6.12.34h0Z"/>
      <path class="cls-5" d="m1104.69,64.5c-34.69-16.5-73.69-11.5-110.69-11.5,34-1,66,8,100.24,11.92,5.22-.21,10.45-.42,10.45-.42Z"/>
      <path class="cls-5" d="m1069.26,17.6c-59.26,2.4-121.26-3.6-179.26,3.4,74,2,148,3,222,1-33-5-67,2-100-2,17-1,35-2,52.08-2.26,3.22-.09,5.18-.15,5.18-.15h0Z"/>
      <path class="cls-5" d="m1032.68,42.17c-49.68-24.17-106.68-11.17-159.68-12.17,33,1,66,1,100,5,18,1,34,13,52.05,8.32,4.63-.52,7.62-1.16,7.62-1.16h.01Z"/>
      <path class="cls-5" d="m992.59,46.97c-9.59.03-19.59-.97-29.59.03-51,7-100,8-150,4,57,9,115,3,172.25-3.47,4.36-.31,7.34-.56,7.34-.56Z"/>
      <path class="cls-5" d="m1056.22-1.28c-62.22,14.28-127.22,3.28-190.22.28,60,2,121,6,180.75.34,5.75-.37,9.48-.62,9.48-.62h-.01Z"/>
      <path class="cls-5" d="m760.14-2.42c45.86,1.42,91.86,12.42,137.86,12.42-45,6-89-7-135,0-16,3-33,6-44,18,13-13,28-24,47-25-5-3-11-4-17-4,1,0,2-1,3.24-.83,3.4-.36,7.9-.59,7.9-.59Z"/>
      <path class="cls-5" d="m861.27,26.85c-15.27-2.85-29.27-8.85-44.27-4.85-26,8-51,5-75-5,41,17,94,35,134,10-3,0-5,0-7.58-.02-3.56-.03-7.15-.13-7.15-.13h0Zm-37.73,5.47c-6.54.68-12.54-.32-19.54-2.32,19-10,38,1,57,2-10,0-19,0-29.24.12-3.25.08-6.13.16-8.23.2h0Z"/>
      <path class="cls-5" d="m730.62,50.4c-19.62,2.6-39.62,4.6-59.62-1.4-15-4-30-12-46-10-53,9-106,29-157,10,10,6,21,9,32,10,37,2,73-13,111-8,45,6,90,3,135-1-2,0-4,0-5.71.07-2.32,0-5.49.11-9.67.32h0Zm-96.14.61c-8.48-.99-16.48-1.99-23.48-5.99,18-4,35-1,52,5-7,2-14,0-20.59,1.15-3.09.05-5.91,0-7.93-.16Z"/>
      <path class="cls-5" d="m793.46,63.09c-22.46-25.09-59.46-17.09-88.46-20.09,36-1,76-7,105,20-3,0-5,0-8.04-.17-4.24.11-8.51.26-8.51.26h.01Z"/>
      <path class="cls-5" d="m731.64-2.36c-19.64,45.36-67.64,45.36-108.64,31.36,2-1,5-2,7-2,33,13,76,6,91.32-29.44l10.32.09h0Z"/>
      <path class="cls-5" d="m694.87,13.53c-9.87-7.53-23.87-10.53-35.87-7.53-18,4-35,16-53,10,18,8,39,11,56-4,7-7,16,2,25,3-10,7-21,9-33,7-1,0-2,3-3,4,16,6,35-1,45-14-1,0-1,1-1.13,1.53"/>
      <path class="cls-5" d="m-2.33,5.68c.33,3.32.33,5.32.33,8.32,30-9,56,12,85,12C59,17,35,9,9.61,5.25c-6.96-.18-11.94.43-11.94.43Z"/>
      <path class="cls-5" d="m139.51,55.54c-17.51-5.54-34.51-18.54-52.51-17.54-34,3-65,16-100,18,30,0,60,3,90,1,21-1,41-6,62.5-.95,2.25.37,2.69.29,0-.51h0Zm-88-2.19c14.49-7.34,31.49-14.34,46.49-5.34-10,6-22,7-34.16,6.95-3.98-.2-8.13-.73-12.33-1.61Z"/>
      <path class="cls-5" d="m-4.25,19.7c17.25,15.3,41.25,25.3,63.25,14.3-19,18-46,15-68,8,0-1,3-7,2.47-10.79,1.15-5.74,2.28-11.5,2.28-11.5h0Z"/>
      <path class="cls-5" d="m520.28,5.84c-18.28-.84-38.28-4.84-53.28,5.16-18,11-29,35-53,34,23,9,40-23,62-23,33,1,65,10,98,12-14-9-28-18-44.5-25.24-3.4-1.5-6.55-2.57-9.22-2.92Zm-44.07,8.84c25.79-9.68,51.79,1.32,75.79,12.32-23,0-45-7-67.86-11.13-4.68-.75-7.93-1.19-7.93-1.19Z"/>
      <path class="cls-5" d="m79.9,7.23c6.1,8.77,14.1,5.77,23.04,3.68,3.06-.41,6.43-.8,9.93-1.18s7.13-.75,10.76-1.07c24.36-4.66,47.36,4.34,69.36,12.34,1,1,4-2,4-3C178-3,148,1,122.54,3.99c-2.92.24-5.92.47-8.94.7s-6.05.43-9.05.61c-5.55,1.7-11.55.7-17.13,1.2-2.65.27-5.17.53-7.51.73h0Z"/>
      <path class="cls-5" d="m546.08,4.8c3.92,5.2,9.92,8.2,15.92,8.2,22-3,44-6,66-1,6,2,9-2,13-3-28-4-57-8-86.36-4.99-5.13.42-8.56.79-8.56.79Z"/>
      <path class="cls-5" d="m603.87,20.79c6.13,3.21,11.13,5.21,17.13,8.21-13-2-26-3-39-1,0-7,7-6,12.31-6.75,4.77-.26,9.56-.46,9.56-.46Z"/>
      <path class="cls-5" d="m141.28,62.4c55.72-22.4,114.72-18.4,173.72-4.4,15,4,29-1,43-7-15,13-35,11-53,8-31-5-62-9-93-7,14,0,27,4,41,4-33,6-68,6-102.07,6.81-5.94-.25-9.65-.41-9.65-.41Z"/>
      <path class="cls-5" d="m250.43,3.18c17.57,6.82,36.57,12.82,55.57,11.82,54-5,107-8,160-12-5,1-9,3-14,3-40,6-78,2-119,11-27,6-53,0-77.88-8.03,0,0-4.69-5.79-4.69-5.79Z"/>
      <path class="cls-5" d="m262.63-4.85c20.37,11.85,41.37,18.85,65.37,13.85,24-6,47-8,71-9-41-4-83-14-124.11-6.36-6.98.79-12.26,1.51-12.26,1.51Z"/>
      <path class="cls-5" d="m444.11,21.02c-3.11,10.98-15.11,16.98-20.11,14.98-36-13-71-1-107,5-17,4-35,1-47-12,16,2,32,9,49,5,39-10,76-18,114.68-13.08,6.29.13,10.43.1,10.43.1Z"/>
      <path class="cls-5" d="m358.39,61.47c32.61-15.47,70.61-4.47,104.61,1.53-34,4-67-5-100.91-1.79-2.36.16-3.7.25-3.7.25h0Z"/>
      <path class="cls-5" d="m126.64,19.45c.36,2.55,5.36,3.55,4.36,4.55-5,3-2,9,1,10,12,3,24,4,36,3,34-3,66-18,100-14-33,0-63,14-95,17-16,2-42,7-48.86-13.08.31-1.88,1.11-4.28,2.5-7.47Z"/>
    </g>
  </g>
  <g id="LeavesBottom">
    <g>
      <g>
        <path class="cls-4" d="m196.13,46.91c0-.06,1.22-5.65.03-8.98-1.86-7.05-.77-10.15-.24-11.64.08-.22.18-.5.18-.59l.02-.19.09-.25c4.01-8.03,17.51-13.11,18.08-13.32l.63-.24.45.5c.49.54,11.99,13.43,4.43,24.08-7.36,10.38-22,11.78-22.62,11.83l-1.36.12.29-1.33h.02Z"/>
        <path class="cls-3" d="m214.64,12.88s11.53,12.71,4.35,22.83-21.89,11.42-21.89,11.42c0,0,1.29-5.88,0-9.53-2.24-8.47,0-10.8,0-11.89,3.88-7.77,17.54-12.83,17.54-12.83m.57-2.35l-1.27.47c-.59.22-14.44,5.43-18.63,13.81l-.21.42v.35c-.03.09-.08.24-.13.37-.56,1.59-1.72,4.89.19,12.15l.02.08.03.08c.9,2.54.26,6.95-.07,8.44l-.58,2.66,2.71-.24c.64-.06,15.72-1.5,23.35-12.25,8.02-11.3-3.99-24.77-4.5-25.33l-.91-1h0Z"/>
      </g>
      <g>
        <path class="cls-4" d="m445.16,50.35s-.08-5.5-1.88-8.33c-3.25-6.16-2.89-9.29-2.72-10.8.02-.22.06-.49.04-.57l-.02-.18.03-.26c2.02-8.34,13.49-15.95,13.97-16.27l.56-.37.55.39c.58.4,14.04,9.94,9.28,21.49-4.63,11.24-17.95,15.67-18.52,15.86l-1.29.42v-1.38Z"/>
        <path class="cls-3" d="m455.13,14.76s13.43,9.34,8.93,20.28c-4.51,10.94-17.9,15.29-17.9,15.29,0,0-.06-5.74-2.04-8.86-3.89-7.4-2.31-10.04-2.54-11.04,1.95-8.05,13.55-15.67,13.55-15.67m.03-2.41l-1.13.74c-.5.33-12.29,8.15-14.4,16.87l-.11.46.08.33c0,.09-.02.23-.04.35-.18,1.6-.56,4.94,2.79,11.3l.04.07.04.07c1.37,2.15,1.71,6.36,1.73,7.8l.03,2.72,2.59-.84c.58-.19,14.33-4.77,19.13-16.43,5.06-12.28-9.03-22.27-9.63-22.69l-1.11-.77h0v.02Z"/>
      </g>
      <g>
        <path class="cls-4" d="m335.73,39.94c-.57-.21-14.07-5.29-18.08-13.32l-.11-.21v-.24c0-.08-.1-.36-.18-.58-.53-1.49-1.62-4.6.22-11.56,1.21-3.42,0-9.01,0-9.06l-.29-1.33,1.36.12c.62.05,15.26,1.45,22.62,11.83,7.56,10.66-3.94,23.54-4.43,24.08l-.45.5-.63-.24h-.03Z"/>
        <path class="cls-3" d="m318.54,4.75s14.71,1.29,21.89,11.42c7.18,10.12-4.35,22.83-4.35,22.83,0,0-13.65-5.06-17.54-12.83,0-1.09-2.24-3.41,0-11.89,1.29-3.65,0-9.53,0-9.53m-2.54-2.23l.59,2.66h0c.32,1.49.97,5.9.07,8.44l-.03.08-.02.08c-1.92,7.26-.75,10.57-.19,12.15.04.13.1.28.13.37v.35l.21.42c4.19,8.38,18.04,13.59,18.63,13.81l1.27.47.91-1c.52-.57,12.52-14.03,4.51-25.33-7.63-10.75-22.71-12.2-23.35-12.25l-2.71-.24h-.02Z"/>
      </g>
      <g>
        <path class="cls-4" d="m531.14,44.97c-.48-.37-11.83-9.27-13.25-18.13l-.04-.23.07-.23c.02-.08,0-.37,0-.61-.05-1.58-.17-4.87,3.68-10.97,2.17-2.89,2.71-8.59,2.71-8.65l.12-1.36,1.26.52c.57.24,14.12,5.97,18.03,18.08,4.01,12.43-10.82,21.27-11.45,21.64l-.58.34-.53-.41h-.02Z"/>
        <path class="cls-3" d="m525.3,6.25s13.65,5.65,17.46,17.46c3.81,11.81-11.01,20.47-11.01,20.47,0,0-11.5-8.92-12.88-17.5.33-1.04-1.11-3.93,3.57-11.34,2.33-3.09,2.86-9.09,2.86-9.09m-1.75-2.89l-.24,2.71c-.14,1.52-.85,5.92-2.47,8.07l-.05.07-.04.07c-4.01,6.35-3.89,9.85-3.83,11.54,0,.13.01.29,0,.39l-.1.33.07.47c1.48,9.25,13.13,18.38,13.63,18.76l1.07.83,1.17-.68c.66-.39,16.16-9.63,11.9-22.81-4.05-12.55-18-18.45-18.6-18.69l-2.52-1.04h0v-.02Z"/>
      </g>
      <g>
        <path class="cls-7" d="m590.28,37.54c-.47-.14-11.44-3.39-15.1-9.55l-.12-.2-.02-.24c-.02-.08-.09-.21-.16-.37-.51-1.16-1.56-3.58-.5-9.23.74-2.71-.5-6.98-.52-7.03l-.39-1.3,1.36.02c.49,0,12.18.28,18.62,8.1,6.65,8.08-1.76,18.99-2.12,19.45l-.42.53-.65-.19h.02Z"/>
        <path class="cls-3" d="m574.83,10.64s11.64.19,17.86,7.74c6.22,7.55-2.13,18.2-2.13,18.2,0,0-11.02-3.21-14.51-9.1-.06-.85-1.95-2.56-.67-9.35.81-2.94-.54-7.5-.54-7.5m-2.69-2.04l.77,2.61c.33,1.12,1.07,4.45.53,6.4l-.02.08-.02.08c-1.12,5.95.02,8.56.56,9.81.03.08.06.14.09.21l.02.31.24.41c3.85,6.49,15.2,9.86,15.68,10l1.3.38.83-1.06c.38-.49,9.26-12.01,2.1-20.71-6.73-8.17-18.86-8.46-19.37-8.47l-2.72-.04h0Z"/>
      </g>
      <g>
        <path class="cls-4" d="m734.19,49.95s1.08-5.02.03-7.97c-1.68-6.34-.69-9.13-.21-10.48.07-.19.15-.42.16-.5v-.24l.1-.19c3.61-7.21,15.7-11.76,16.22-11.95l.63-.24.45.5c.44.49,10.77,12.06,3.97,21.65-6.61,9.32-19.73,10.57-20.29,10.62l-1.36.12.29-1.33h.01Z"/>
        <path class="cls-3" d="m750.83,19.56s10.31,11.36,3.89,20.4-19.56,10.2-19.56,10.2c0,0,1.16-5.26,0-8.52-2-7.57,0-9.65,0-10.62,3.47-6.94,15.67-11.46,15.67-11.46m.57-2.35l-1.27.47c-.53.2-12.98,4.88-16.76,12.44l-.21.42v.33c-.03.08-.06.18-.1.29-.51,1.44-1.56,4.43.17,10.98l.02.08.03.08c.79,2.23.22,6.11-.07,7.42l-.59,2.66,2.71-.24c.57-.05,14.15-1.35,21.02-11.04,7.26-10.24-3.58-22.39-4.04-22.9l-.91-1h0Z"/>
      </g>
      <g>
        <path class="cls-7" d="m694.56,51.74s-1.76-5.51-4.44-7.81c-5.12-5.19-5.71-8.42-6-9.98-.04-.23-.1-.52-.13-.6l-.08-.17-.04-.26c-.51-8.96,8.67-20.08,9.06-20.55l.43-.52.64.21c.7.23,17.08,5.69,15.82,18.69-1.22,12.67-13.23,21.16-13.74,21.52l-1.12.78-.41-1.3h0Z"/>
        <path class="cls-3" d="m693.69,13s16.33,5.29,15.14,17.64-13.31,20.79-13.31,20.79c0,0-1.8-5.75-4.74-8.27-6.16-6.24-5.37-9.37-5.91-10.31-.49-8.67,8.83-19.85,8.83-19.85m-.67-2.32l-.87,1.04c-.4.48-9.83,11.9-9.29,21.25l.03.47.17.3c.02.09.05.25.07.38.3,1.66.94,5.1,6.21,10.45l.06.06.06.05c2.04,1.75,3.68,5.9,4.14,7.35l.82,2.59,2.23-1.55c.53-.37,12.89-9.12,14.16-22.24,1.33-13.79-15.78-19.5-16.51-19.74l-1.29-.42h0Z"/>
      </g>
      <g>
        <path class="cls-4" d="m652.5,52.21s-3.34-3.54-6.2-4.31c-5.88-2.11-7.55-4.4-8.35-5.5-.11-.15-.24-.34-.3-.38l-.19-.13-.09-.19c-3.72-6.73-.75-18.68-.63-19.19l.17-.66.67-.09s1.24-.16,3.03-.16c4.83,0,13.34,1.14,16.13,8.77,3.74,10.22-2.36,21.2-2.62,21.66l-.67,1.18-.93-.99h-.02Z"/>
        <path class="cls-3" d="m640.6,22.59c4.41,0,12.59,1,15.19,8.11,3.63,9.9-2.56,20.83-2.56,20.83,0,0-3.5-3.74-6.67-4.59-7.01-2.52-7.56-5.2-8.32-5.73-3.57-6.46-.53-18.46-.53-18.46,0,0,1.15-.16,2.89-.16m0-2c-1.85,0-3.11.17-3.16.17l-1.34.18-.33,1.31c-.13.52-3.18,12.84.72,19.92l.23.41.27.18c.05.06.1.14.16.22.86,1.18,2.65,3.64,8.74,5.83l.08.03.08.02c2.14.57,4.86,3.1,5.73,4.03l1.86,1.98,1.34-2.36c.27-.48,6.59-11.85,2.69-22.5-3-8.2-11.98-9.42-17.07-9.42h0Z"/>
      </g>
      <g>
        <path class="cls-7" d="m403.3,50.09s-2.4-4.68-5.14-6.33c-5.42-3.92-6.44-6.77-6.94-8.13-.07-.19-.16-.44-.2-.5l-.15-.18-.04-.22c-1.81-8.03,4.81-19.45,5.09-19.93l.34-.58.67.1c.67.1,16.3,2.57,17.13,14.54.8,11.63-8.76,21.11-9.17,21.51l-.97.95-.62-1.21v-.02Z"/>
        <path class="cls-3" d="m396.78,15.29s15.5,2.31,16.28,13.62c.78,11.3-8.87,20.72-8.87,20.72,0,0-2.49-4.91-5.51-6.74-6.48-4.7-6.24-7.63-6.87-8.4-1.75-7.73,4.98-19.2,4.98-19.2m-1.04-2.18l-.68,1.17c-.29.5-7.1,12.25-5.2,20.66l.1.46.21.26c.03.08.07.19.11.3.53,1.46,1.63,4.5,7.22,8.56l.07.05.07.04c2.07,1.25,4.14,4.71,4.76,5.93l1.23,2.42,1.95-1.9c.42-.41,10.3-10.21,9.47-22.29-.88-12.76-17.28-15.35-17.98-15.46l-1.34-.2h0Z"/>
      </g>
      <g>
        <path class="cls-4" d="m92.23,41.32s1.1-4.52.22-7.21c-1.39-5.84-.42-8.38.05-9.6.06-.16.14-.37.15-.43v-.24l.11-.18c3.47-6.51,14.62-10.39,15.1-10.55l.64-.22.44.51c.39.46,9.57,11.29,3.11,19.92-6.26,8.36-18.28,9.2-18.79,9.23l-1.36.08.33-1.32h0Z"/>
        <path class="cls-3" d="m108.19,14.05s9.12,10.58,3.07,18.67-18.05,8.83-18.05,8.83c0,0,1.18-4.76.2-7.76-1.64-6.94.23-8.79.25-9.67,3.32-6.24,14.54-10.07,14.54-10.07m.63-2.33l-1.28.44c-.49.17-12,4.17-15.66,11.02l-.22.42v.32c-.03.07-.06.14-.1.23-.5,1.31-1.55,4.05-.11,10.11l.02.08.03.08c.65,2,.03,5.57-.24,6.66l-.65,2.64,2.72-.17c.53-.03,13-.9,19.53-9.63,6.94-9.27-2.74-20.69-3.15-21.17l-.88-1.02h0Z"/>
      </g>
      <g>
        <path class="cls-4" d="m1005.13,52.27c-1.62,0-2.63-.12-2.67-.12l-1.35-.16.55-1.24s1.88-4.26,1.49-7.06c-.33-5.99,1.07-8.32,1.75-9.44.09-.15.2-.34.22-.4l.05-.23.14-.16c4.57-5.8,16.23-7.64,16.72-7.72l.67-.1.34.58c.31.52,7.42,12.81-.46,20.16-5.49,5.12-13.29,5.89-17.45,5.89h0Z"/>
        <path class="cls-3" d="m1022.18,26.73s7.11,12.03-.28,18.92c-5.27,4.91-12.85,5.62-16.77,5.62-1.58,0-2.56-.11-2.56-.11,0,0,2-4.48,1.57-7.6-.39-7.12,1.78-8.61,1.95-9.48,4.37-5.55,16.09-7.35,16.09-7.35m1.03-2.18l-1.34.2c-.51.08-12.55,1.98-17.36,8.09l-.29.37-.06.31c-.04.06-.08.13-.13.21-.73,1.2-2.24,3.71-1.9,9.93v.08l.02.08c.29,2.09-.95,5.48-1.41,6.51l-1.11,2.49,2.71.31s1.12.13,2.79.13c4.31,0,12.39-.8,18.13-6.16,8.46-7.89.96-20.85.64-21.4l-.69-1.16h0Z"/>
      </g>
      <g>
        <path class="cls-4" d="m883.33,44.64c-.55-.28-13.39-6.84-16.48-15.26l-.08-.22.03-.23c0-.08-.06-.37-.12-.59-.36-1.54-1.1-4.75,1.51-11.47,1.58-3.25,1.01-8.95,1.01-9.01l-.14-1.35,1.33.27c.61.12,15,3.16,21.15,14.3,6.32,11.44-6.55,22.95-7.1,23.44l-.51.45-.6-.3v-.03Z"/>
        <path class="cls-3" d="m870.19,7.75s14.47,2.94,20.47,13.8c6,10.86-6.89,22.2-6.89,22.2,0,0-13-6.56-15.99-14.72.12-1.08-1.84-3.64,1.33-11.81,1.7-3.48,1.07-9.47,1.07-9.47m-2.27-2.5l.28,2.71c.16,1.51.3,5.97-.88,8.39l-.04.07-.03.08c-2.72,7-1.93,10.41-1.55,12.05.03.13.07.29.08.38l-.04.35.16.44c3.22,8.8,16.4,15.53,16.96,15.81l1.21.61,1.02-.89c.58-.51,14.02-12.54,7.32-24.67-6.37-11.54-21.2-14.67-21.83-14.79l-2.67-.54h0Z"/>
      </g>
      <g>
        <path class="cls-7" d="m962.83,51.25c0-.06-.5-5.76-2.61-8.6-3.86-6.18-3.72-9.48-3.66-11.06,0-.24.02-.53,0-.62l-.04-.19v-.26c1.48-8.86,12.88-17.69,13.37-18.06l.54-.41.58.34c.63.37,15.41,9.3,11.33,21.71-3.98,12.09-17.55,17.74-18.13,17.97l-1.26.51-.11-1.36v.03Z"/>
        <path class="cls-3" d="m970.49,13.27s14.77,8.75,10.89,20.54-17.56,17.36-17.56,17.36c0,0-.5-6.01-2.81-9.11-4.63-7.44-3.18-10.32-3.5-11.36,1.42-8.57,12.98-17.43,12.98-17.43m-.14-2.41l-1.07.82c-.5.38-12.2,9.45-13.73,18.69l-.08.47.1.33c0,.09,0,.25-.01.39-.07,1.68-.21,5.18,3.76,11.56l.04.07.05.07c1.61,2.16,2.29,6.57,2.42,8.08l.23,2.71,2.52-1.02c.59-.24,14.58-6.07,18.7-18.59,4.33-13.16-11.11-22.49-11.77-22.88l-1.16-.69h0Z"/>
      </g>
      <g>
        <path class="cls-4" d="m1087.35,45.62c-.55-.28-13.39-6.83-16.48-15.26l-.08-.22.03-.23c0-.08-.06-.37-.12-.6-.36-1.54-1.1-4.75,1.51-11.47,1.59-3.26,1.01-8.95,1.01-9.01l-.14-1.35,1.33.27c.61.12,15,3.16,21.15,14.3,6.32,11.44-6.55,22.95-7.1,23.44l-.51.45-.6-.3v-.02Z"/>
        <path class="cls-3" d="m1074.22,8.73s14.47,2.94,20.47,13.8c6,10.86-6.89,22.2-6.89,22.2,0,0-13-6.56-15.99-14.72.12-1.08-1.84-3.64,1.33-11.81,1.7-3.48,1.07-9.47,1.07-9.47m-2.27-2.5l.28,2.71c.16,1.51.3,5.97-.88,8.39l-.04.07-.03.08c-2.72,7-1.93,10.41-1.55,12.05.03.13.07.29.08.38l-.04.35.16.44c3.22,8.8,16.4,15.53,16.96,15.81l1.21.61,1.02-.89c.58-.51,14.02-12.54,7.32-24.67-6.37-11.54-21.2-14.67-21.83-14.79l-2.67-.54h.01Z"/>
      </g>
      <g>
        <path class="cls-4" d="m240.74,50.79l.43-1.29s1.55-4.64.87-7.53c-.93-6.2.31-8.76.9-9.99.08-.17.18-.38.2-.45l.03-.24.12-.17c4.19-6.47,16.15-9.53,16.66-9.65l.66-.16.4.55c.37.51,8.97,12.6,1.49,21.01-6.88,7.73-18.86,7.96-20.2,7.96l-1.54-.03h-.02Z"/>
        <path class="cls-3" d="m260.19,22.45s8.58,11.85,1.55,19.75c-6.56,7.38-17.97,7.62-19.46,7.62h-.16s1.65-4.86.89-8.08c-1.1-7.39,1.01-9.15,1.11-10.07,4.02-6.22,16.06-9.23,16.06-9.23m.83-2.27l-1.31.33c-.52.13-12.86,3.28-17.26,10.08l-.26.4-.04.32c-.03.07-.07.15-.12.25-.64,1.32-1.96,4.06-1,10.49v.08l.03.08c.51,2.17-.44,5.77-.84,6.98l-.87,2.57,2.72.07h.21c2.27,0,13.93-.4,20.95-8.29,8.01-9-1.03-21.72-1.42-22.26l-.79-1.1h0Z"/>
      </g>
    </g>
  </g>
  <g id="VineBottom">
    <path class="cls-2" d="m5.43,62.81s.8-35.09,41.57-49.81c33.44-11.41,35.33,31,0,31-25,0-7.5-31,62.5-31s57.67,31,31,31-7.5-31,62.5-31,68.5,31,106,31,55-31,122-31,49,31,109.5,31,87-31,161-31,63,31,107.5,31,39.83-31,6.83-31c-18.83,0-33.83,31,52.67,31,68.17,0,62-31,108.17-31,41,0,53.33,31,104.33,31s68.43,20.92,68.43,20.92"/>
    <path class="cls-1" d="m5.43,62.81s.8-35.09,41.57-49.81c33.44-11.41,35.33,31,0,31-25,0-7.5-31,62.5-31s57.67,31,31,31-7.5-31,62.5-31,68.5,31,106,31,55-31,122-31,49,31,109.5,31,87-31,161-31,63,31,107.5,31,39.83-31,6.83-31c-18.83,0-33.83,31,52.67,31,68.17,0,62-31,108.17-31,41,0,53.33,31,104.33,31s68.43,20.92,68.43,20.92"/>
  </g>
</svg>