<?xml version="1.0" encoding="UTF-8"?><svg id="Layer_5" xmlns="http://www.w3.org/2000/svg" viewBox="0 0 35 40"><defs><style>.cls-1{fill:#2d2524;}</style></defs><path class="cls-1" d="M30.55,23.17c-.18-.1-.46,0-.78,.22,.02-.94-.32-1.93-.99-2.46-.09-.8-.27-1.33-.27-1.33,0,0-1.98-8.05-11.69-8.05-10.99,0-13.76,6.91-13.76,6.91,0,0,.95,5.13,7.32,7.9-.45,.7-.57,1.45-.29,1.73,.37,.37,1.67-.23,2.56-.92,.1,.03,.2,.06,.31,.08-.4,.66-.5,1.33-.22,1.59,.41,.39,1.94-.3,2.87-1.05,.8,.12,1.66,.2,2.56,.25,.74,.04,1.43,.05,2.07,.03h0s3.94,.14,6.2-.97c-.43,.61-.71,1.15-.49,1.37,.61,.61,2.4-.33,3.67-1.39,1.41-1.18,1.49-3.6,.94-3.91ZM7.95,17.44s.04-.99,.26-2.2l4.33,.79c-.21,1.03-.61,2-.61,2l-3.98-.59Z"/><path class="cls-1" d="M9,16.5c-.27,.02-.51-.29-.54-.68-.03-.39,.17-.73,.45-.74,.12,0,.24,.05,.33,.16-.13-.3-.32-.5-.56-.52-.49-.05-.96,.64-1.06,1.55-.1,.91,.21,1.69,.7,1.74s.96-.64,1.06-1.55c.01-.11,.02-.23,.02-.33-.07,.22-.22,.37-.4,.38Z"/></svg>