<?xml version="1.0" encoding="UTF-8"?>
<svg id="CardTemplate" xmlns="http://www.w3.org/2000/svg" xmlns:xlink="http://www.w3.org/1999/xlink" viewBox="0 0 200 280">
  <defs>
    <style>
      .cls-1 {
        fill: #603913;
      }

      .cls-2 {
        fill: #b89279;
      }

      .cls-3 {
        clip-path: url(#clippath);
      }

      .cls-4 {
        fill: none;
      }

      .cls-5 {
        fill: #fdd8c9;
      }
    </style>
    <clipPath id="clippath">
      <rect class="cls-4" width="200" height="280" rx="10" ry="10"/>
    </clipPath>
  </defs>
  <g class="cls-3">
    <g>
      <rect class="cls-1" x="0" y="-4.11" width="200" height="287.34"/>
      <g>
        <rect class="cls-5" x="2.5" y="195.46" width="195" height="81.05" rx="7.5" ry="7.5"/>
        <path class="cls-1" d="m190,197.96c2.76,0,5,2.24,5,5v66.05c0,2.76-2.24,5-5,5H10c-2.76,0-5-2.24-5-5v-66.05c0-2.76,2.24-5,5-5h180m0-5H10c-5.5,0-10,4.5-10,10v66.05c0,5.5,4.5,10,10,10h180c5.5,0,10-4.5,10-10v-66.05c0-5.5-4.5-10-10-10h0Z"/>
      </g>
      <g>
        <rect class="cls-5" x="2.5" y="115.5" width="195" height="79.96" rx="7.5" ry="7.5"/>
        <path class="cls-1" d="m190,118c2.76,0,5,2.24,5,5v64.96c0,2.76-2.24,5-5,5H10c-2.76,0-5-2.24-5-5v-64.96c0-2.76,2.24-5,5-5h180m0-5H10c-5.5,0-10,4.5-10,10v64.96c0,5.5,4.5,10,10,10h180c5.5,0,10-4.5,10-10v-64.96c0-5.5-4.5-10-10-10h0Z"/>
      </g>
      <g>
        <rect class="cls-5" x="2.5" y="4.41" width="195" height="111.08" rx="7.5" ry="7.5"/>
        <path class="cls-1" d="m190,6.91c2.76,0,5,2.24,5,5v96.08c0,2.76-2.24,5-5,5H10c-2.76,0-5-2.24-5-5V11.91c0-2.76,2.24-5,5-5h180m0-5H10C4.5,1.91,0,6.41,0,11.91v96.08c0,5.5,4.5,10,10,10h180c5.5,0,10-4.5,10-10V11.91c0-5.5-4.5-10-10-10h0Z"/>
      </g>
      <g>
        <path class="cls-2" d="m182.09,275.46c-22.07,0-40.31-17.63-40.67-39.3-.18-10.81,3.89-21.01,11.47-28.72,7.58-7.71,17.7-11.95,28.51-11.95,3.39,0,6.25,0,8.62,0,4.13,0,7.49,3.38,7.49,7.5v64.95c0,4.14-3.36,7.5-7.5,7.5h-7.91Z"/>
        <path class="cls-1" d="m181.39,198c3.39,0,6.24,0,8.62,0,2.75,0,4.99,2.25,4.99,5v64.95c0,2.76-2.24,5-5,5h-7.91c-20.71,0-37.84-16.53-38.17-36.84-.17-10.14,3.65-19.7,10.75-26.92,7.1-7.22,16.6-11.2,26.73-11.2m0-5c-23.7,0-42.87,19.41-42.48,43.21.39,23.29,19.88,41.75,43.17,41.75h7.91c5.52,0,10-4.48,10-10v-64.95c0-5.52-4.47-9.99-9.98-10-2.38,0-5.24,0-8.63,0h0Z"/>
      </g>
      <g>
        <path class="cls-2" d="m182.09,195.46c-22.07,0-40.31-17.63-40.67-39.3-.18-10.81,3.89-21.01,11.47-28.72,7.58-7.71,17.7-11.95,28.51-11.95,3.39,0,6.25,0,8.62,0,4.13,0,7.49,3.38,7.49,7.5v64.95c0,4.14-3.36,7.5-7.5,7.5h-7.91Z"/>
        <path class="cls-1" d="m181.39,118c3.39,0,6.24,0,8.62,0,2.75,0,4.99,2.25,4.99,5v64.95c0,2.76-2.24,5-5,5h-7.91c-20.71,0-37.84-16.53-38.17-36.84-.17-10.14,3.65-19.7,10.75-26.92,7.1-7.22,16.6-11.2,26.73-11.2m0-5c-23.7,0-42.87,19.41-42.48,43.21.39,23.29,19.88,41.75,43.17,41.75h7.91c5.52,0,10-4.48,10-10v-64.95c0-5.52-4.47-9.99-9.98-10-2.38,0-5.24,0-8.63,0h0Z"/>
      </g>
    </g>
  </g>
</svg>