<?xml version="1.0" encoding="UTF-8"?>
<svg xmlns="http://www.w3.org/2000/svg" xmlns:xlink="http://www.w3.org/1999/xlink" viewBox="0 0 962.4 648.19">
  <defs>
    <style>
      .cls-1 {
        fill: #522313;
      }

      .cls-1, .cls-2 {
        opacity: .17;
      }

      .cls-3 {
        clip-path: url(#clippath-2);
      }

      .cls-4 {
        fill: #3a2213;
      }

      .cls-4, .cls-5 {
        opacity: .53;
      }

      .cls-6 {
        fill: #dbb25d;
      }

      .cls-7 {
        clip-path: url(#clippath-1);
      }

      .cls-2 {
        fill: #522315;
      }

      .cls-8 {
        fill: #92603c;
      }

      .cls-9 {
        clip-path: url(#clippath);
      }

      .cls-10 {
        fill: none;
      }

      .cls-11 {
        clip-path: url(#clippath-3);
      }

      .cls-5 {
        fill: #3c2111;
      }

      .cls-12 {
        opacity: .56;
      }
    </style>
    <clipPath id="clippath">
      <path class="cls-10" d="m18.7,12.6c18.67,12.46,37.33,24.92,56,37.38v548.24c-18.67,12.46-37.33,24.92-56,37.38V12.6Z"/>
    </clipPath>
    <clipPath id="clippath-1">
      <path class="cls-10" d="m944.62,635.6c-18.67-12.46-37.33-24.92-56-37.38V49.98c18.67-12.46,37.33-24.92,56-37.38v623Z"/>
    </clipPath>
    <clipPath id="clippath-2">
      <path class="cls-10" d="m943.7,12.6c-18.5,18.67-37,37.33-55.5,56H74.2C55.7,49.93,37.2,31.26,18.7,12.6h925Z"/>
    </clipPath>
    <clipPath id="clippath-3">
      <path class="cls-10" d="m18.7,635.6c18.5-18.67,37-37.33,55.5-56h814c18.5,18.67,37,37.33,55.5,56H18.7Z"/>
    </clipPath>
  </defs>
  <g id="Layer_1" data-name="Layer 1">
    <rect class="cls-6" x="18.7" y="12.6" width="925" height="623"/>
    <path class="cls-1" d="m35.7,56.6c15.51-27.48,124.76,6.63,174,22,91.56,28.58,89.11,40.62,147,54,102.55,23.7,182.55,2.65,183,7,.44,4.22-75.18,22.92-173,23-76.2.07-74.28-11.24-154-12-103.56-.99-172.68,17.47-181-4-2.63-6.78.88-17.36,7-21,8.66-5.15,19.82,5.22,38,11,14.29,4.55,22.43,2.92,56.18.29,38.97-3.05,58.67-4.58,76.82-4.29,53.33.87,84.71,17.44,86,14,1.87-5-59.64-53.53-142-59-54.84-3.64-101.9,12.95-116-10-3.23-5.25-5.79-14.29-2-21Z"/>
    <path class="cls-1" d="m290.7,235.6c-1.05-4.54,90.51-46.66,206-37,50.26,4.21,51.43,13.73,107,21,131.93,17.26,231.94-22.48,233-18,.89,3.75-67.88,37.3-162,39-78.6,1.42-95.89-20.81-182-27-119.95-8.63-201.02,26.26-202,22Z"/>
    <path class="cls-1" d="m902.7,302.6c-14.18-18.63-46.34-14.99-113-4-154.89,25.54-153.6,34.31-193,33-81.25-2.7-83.33-36.49-170-47-130.92-15.87-230.85,53.43-231,53-.15-.44,109.65-61.26,195-25,1.75.74,16.2,7.75,45,22,92.26,45.66,90.21,44.87,93,46,55.77,22.69,105.48,25.09,145,27,48.17,2.33,79.02-2.46,79-3-.02-.73-56.75,5.45-123-14-11.32-3.32-45.91-13.48-45-22,.85-7.93,31.65-7.6,87-16,83.39-12.66,80.84-23.63,115-21,61.98,4.78,90,42.41,111,27,14.5-10.64,17.01-40.23,5-56Z"/>
    <path class="cls-1" d="m780.7,407.6c.04-2.09,13.13-2.14,45-7,57.61-8.78,70.59-17.13,76-21,8.76-6.27,14.35-12.73,17-11,3.82,2.5.21,21.29-11,33-13.84,14.46-35.43,14.12-73,13-24.02-.72-54.05-3.83-54-7Z"/>
    <path class="cls-1" d="m894.7,107.6c-15.97,15.45-31.33,26.37-37.58,30.21-34.82,21.4-78.41,2.16-133.42-1.21-87.03-5.33-143.97,32.67-146,27-2.11-5.89,59.13-47.68,134-47,40.64.37,43.13,9.03,80,11,69.02,3.69,122.36-55.26,127-49,2.5,3.38-14.78,20.08-24,29Z"/>
    <path class="cls-1" d="m368.7,107.6c.92,4.99,68.81-10.73,186-16,137.66-6.19,234.87,6.91,235,5,.17-2.44-159.53-13.35-213-17-24.08-1.64-38.46-2.56-59-2-81.8,2.24-149.93,24.95-149,30Z"/>
    <path class="cls-1" d="m49.7,389.6c5.51-8.57,25.17-30.42,161-8,104.71,17.28,124.59,35.48,214,45,64.19,6.83,105.89,2.99,106,6,.14,4.01-73.42,18.73-160,10-93.03-9.38-95.57-35.2-166-34-83.9,1.43-140.03,39.1-157,16-6.96-9.47-4.36-25.12,2-35Z"/>
    <path class="cls-1" d="m74.2,222.6c-2.29-6.79,45.2-36.43,101.5-44,20.78-2.79,41.85-1.2,84,2,26.27,1.99,83.06,6.3,83,11-.07,5.13-67.78,2.05-171,17-66,9.56-95.76,19.15-97.5,14Z"/>
    <path class="cls-1" d="m325.7,247.6c-1.18-2.94-44.35,21.41-114,28-67.66,6.4-114.38-8.3-115-5-.65,3.43,48.87,24.94,109,21,69.17-4.53,121.32-40.7,120-44Z"/>
    <path class="cls-1" d="m478.7,253.6c-1.93,4.95,46.38,39.32,106,38,24.75-.55,41.93-7.03,54-11,104.53-34.34,209.61-5.63,210-10,.28-3.19-55.69-19.18-127-14-60.57,4.4-69.23,19.5-122,20-73.2.7-119.15-27.76-121-23Z"/>
    <path class="cls-1" d="m123.7,497.6c1.17-4.5,56.91,14.71,129,17,81.14,2.58,97.52-19,196-31,56.21-6.85,103.81-4.57,199,0,121.05,5.81,199.2,18.68,199,21-.24,2.73-108.9-12.55-203,10-5.32,1.28-16.68,4.13-33,7-61.66,10.84-112.87,7.62-113,5-.19-3.74,103.84-7.01,104-17,.1-6.28-40.95-12.02-66-14-47.63-3.76-93.87,1.64-94,7-.13,5.33,45.29,8.75,45,13-.23,3.35-28.7,3.68-63,5-56.43,2.17-46.86,3.91-101,6-63.69,2.46-96.19,3.56-128-3-38.32-7.9-71.92-22.47-71-26Z"/>
    <path class="cls-1" d="m294.7,461.6c.89-9.77-40.16-25.2-80-27-55.46-2.5-110.6,21.33-109,33,1.85,13.55,80.45,12.57,123,9,24.39-2.05,65.13-5.47,66-15Z"/>
    <path class="cls-2" d="m850.7,546.6c29.91.91,47.95-14.33,59-5,6.96,5.88,9.34,19.97,4,28-12.94,19.46-66.11-4.45-135-15-110.41-16.91-181.74,12.65-183,6-1.78-9.43,143.48-58.44,209-28,9.09,4.22,23.86,13.33,46,14Z"/>
    <path class="cls-2" d="m124.7,540.6c20.76,11.36,51.5,22.62,229,9,81.34-6.24,121.67-12.19,122-10,.48,3.13-81.05,19.03-166,30-144.6,18.67-233.77,29.25-260-13-12.49-20.12-9.98-51.07,2-58,14.3-8.26,35.49,21.48,73,42Z"/>
    <path class="cls-2" d="m911.7,492.6c-3.13,8.72-113.02-43.29-274-40-50.7,1.04-79.51,7.01-80,4-.93-5.65,97.53-43.65,208-26,84.52,13.5,148.45,55.17,146,62Z"/>
    <path class="cls-2" d="m345.83,373.7c-54.13-8.82-71.89-10.17-72.13-15.11-.34-7.01,34.74-18.43,70-17,58.63,2.38,108.16,39.92,105,48-1.71,4.37-17.97-2.07-102.87-15.89Z"/>
    <path class="cls-2" d="m746.7,180.6c.03-7.3-22.76-13.85-39-16-35.78-4.73-77.16,7.02-77,17,.18,11.21,52.73,23.19,95,11,5.78-1.67,20.97-6.05,21-12Z"/>
    <path class="cls-2" d="m60.7,309.6c26.32-22.15,79.84,7.72,79,23-.96,17.56-74.89,37.25-90,17-7.56-10.12-.48-30.34,11-40Z"/>
    <path class="cls-2" d="m915.7,246.6c3.81-4.84-3.3-20.1-15-26-7.99-4.02-15.55-2.39-30,1-37.57,8.82-56.35,13.24-56,15,.43,2.17,19.93-4.57,49-1,31.6,3.88,47.56,16.65,52,11Z"/>
  </g>
  <g id="Layer_2_copy_4" data-name="Layer 2 copy 4">
    <path class="cls-8" d="m18.7,12.6c18.67,12.46,37.33,24.92,56,37.38v548.24c-18.67,12.46-37.33,24.92-56,37.38V12.6Z"/>
    <g class="cls-12">
      <g class="cls-9">
        <path class="cls-5" d="m31.7,646.37c-12.54-5.79-3.07-28.13,2-41.76,11.69-31.41,12.52-64.22,19-96.31,14.66-72.57-10.83-128.29-7-128.64,2.35-.21,9.4,20.81,13.53,41.6,7.45,37.52,3.86,66.57,0,95.67-6.73,50.76-10.09,76.14-16,87.05-2.16,3.99-6.9,11.63-3.84,20.69,3.75,11.09,16.49,16.22,13.31,20.35-2.58,3.35-14.35,4.42-21,1.35Z"/>
        <path class="cls-5" d="m45.7,21.35c.13,0,8.55,42.65,9,104.39.32,44.5-3.1,104.99-9,105.07-6.44.09-14.08-71.97-17-119.21-3.44-55.66-2.32-109.07,0-109.11,3.82-.06,8.48,191.3,16,191.28,3.33,0,5.78-37.52,6.57-54.8,3.08-67.25-5.71-117.62-5.57-117.62Z"/>
        <path class="cls-5" d="m34.7,533.89c2.43.2,14.7-31.24,15-69.37.35-44.06-15.4-79.74-18-79.47-2.35.24,6.61,29.67,7,78.8.34,43.31-6.22,69.86-4,70.05Z"/>
        <path class="cls-5" d="m63.7,371.58c-1.58.12-14.23-36.87-12-82.84,1.79-36.8,12.47-66.14,14-66,1.61.14-7.5,32.88-7.44,81.43.05,41.47,6.75,67.32,5.44,67.42Z"/>
        <path class="cls-5" d="m37.87,239.06c-8.71-15.03-6.76-24.86-8.56-51.64-.69-10.31-1.42-21.15-2.45-21.15-1.36,0-3.93,19.04-2.45,39.28,1.43,19.49,5.82,29.31,8.97,42.58,10.97,46.08-13.1,49.07-1.63,84.88,8.41,26.26,22.8,29.19,30.59,62.9,4.22,18.29,3.58,32.97,4.89,32.96,1.46-.01,6.19-18.15.82-39.01-6.44-25.03-20.45-26.88-27.33-51.37-6.31-22.48-1.01-44.09-.41-46.42,3.72-14.49,11.3-28.77,2.04-46.15-1.87-3.51-1.91-2.41-4.49-6.87Z"/>
        <path class="cls-5" d="m70.11,610.88c-.76.06-3.08-8.56-4.48-15.95-4.53-23.96-1.14-44.83,0-44.82.6,0,.22,5.89,1.92,27.58,1.69,21.6,3.43,33.12,2.56,33.18Z"/>
        <path class="cls-5" d="m26.6,494.95c2.99,21.66,4.6,45.47,3.84,71.11-.43,14.31-1.56,27.98-3.2,40.94"/>
        <path class="cls-4" d="m61.73,181.63c-1.55-.04.98-30.89-1.16-81.01-1.57-36.85-2.36-55.27-3.49-57.92-1.27-3-5.66-12.52-1.16-14.48,2.19-.96,6.58-.15,8.14,1.57,1.8,1.99-.44,4.93-.88,5.56-6.57,9.44,3.47,60.35,5.14,89.42,1.83,31.74-5.19,56.91-6.59,56.87Z"/>
        <path class="cls-4" d="m37.32,20h0c4.4,83.1,5.89,101.37,6.39,101.36.43,0,.04-13.33.38-36.42.35-23.02,1.16-69.85,6.59-70.04,1.76-.06,3.55,4.81,4.07,4.7.57-.13-1.87-6.09-5.23-13.7"/>
        <path class="cls-4" d="m28.63,342.95c1.55.09-2.14,23.54-1.88,58.77.33,44.91,6.83,76.45,5.65,76.53-.97.06-5.29-21.47-8.09-42.66-2.55-19.27-4.33-33.23-3.21-51.63,1.31-21.58,6.11-41.09,7.53-41.01Z"/>
        <path class="cls-4" d="m49.97,625.38c-5.5-6.35.63-13.32,4.39-24.52,5.21-15.51,1.39-25.75,2.51-25.79,2.54-.09,13.23,52.91,1.88,54.96-3.01.54-7.01-2.59-8.79-4.65Z"/>
      </g>
    </g>
  </g>
  <g id="Layer_2_copy_5" data-name="Layer 2 copy 5">
    <path class="cls-8" d="m944.62,635.6c-18.67-12.46-37.33-24.92-56-37.38V49.98c18.67-12.46,37.33-24.92,56-37.38v623Z"/>
    <g class="cls-12">
      <g class="cls-7">
        <path class="cls-5" d="m931.62,1.82c12.54,5.79,3.07,28.13-2,41.76-11.69,31.41-12.52,64.22-19,96.31-14.66,72.57,10.83,128.29,7,128.64-2.35.21-9.4-20.81-13.53-41.6-7.45-37.52-3.86-66.57,0-95.67,6.73-50.76,10.09-76.14,16-87.05,2.16-3.99,6.9-11.63,3.84-20.69-3.75-11.09-16.49-16.22-13.31-20.35,2.58-3.35,14.35-4.42,21-1.35Z"/>
        <path class="cls-5" d="m917.62,626.84c-.13,0-8.55-42.65-9-104.39-.32-44.5,3.1-104.99,9-105.07,6.44-.09,14.08,71.97,17,119.21,3.44,55.66,2.32,109.07,0,109.11-3.82.06-8.48-191.3-16-191.28-3.33,0-5.78,37.52-6.57,54.8-3.08,67.25,5.71,117.62,5.57,117.62Z"/>
        <path class="cls-5" d="m928.62,114.3c-2.43-.2-14.7,31.24-15,69.37-.35,44.06,15.4,79.74,18,79.47,2.35-.24-6.61-29.67-7-78.8-.34-43.31,6.22-69.86,4-70.05Z"/>
        <path class="cls-5" d="m899.62,276.61c1.58-.12,14.23,36.87,12,82.84-1.79,36.8-12.47,66.14-14,66-1.61-.14,7.5-32.88,7.44-81.43-.05-41.47-6.75-67.32-5.44-67.42Z"/>
        <path class="cls-5" d="m925.45,409.13c8.71,15.03,6.76,24.86,8.56,51.64.69,10.31,1.42,21.15,2.45,21.15,1.36,0,3.93-19.04,2.45-39.28-1.43-19.49-5.82-29.31-8.97-42.58-10.97-46.08,13.1-49.07,1.63-84.88-8.41-26.26-22.8-29.19-30.59-62.9-4.22-18.29-3.58-32.97-4.89-32.96-1.46.01-6.19,18.15-.82,39.01,6.44,25.03,20.45,26.88,27.33,51.37,6.31,22.48,1.01,44.09.41,46.42-3.72,14.49-11.3,28.77-2.04,46.15,1.87,3.51,1.91,2.41,4.49,6.87Z"/>
        <path class="cls-5" d="m893.21,37.31c.76-.06,3.08,8.56,4.48,15.95,4.53,23.96,1.14,44.83,0,44.82-.6,0-.22-5.89-1.92-27.58-1.69-21.6-3.43-33.12-2.56-33.18Z"/>
        <path class="cls-5" d="m936.72,153.24c-2.99-21.66-4.6-45.47-3.84-71.11.43-14.31,1.56-27.98,3.2-40.94"/>
        <path class="cls-4" d="m901.59,466.56c1.55.04-.98,30.89,1.16,81.01,1.57,36.85,2.36,55.27,3.49,57.92,1.27,3,5.66,12.52,1.16,14.48-2.19.96-6.58.15-8.14-1.57-1.8-1.99.44-4.93.88-5.56,6.57-9.44-3.47-60.35-5.14-89.42-1.83-31.74,5.19-56.91,6.59-56.87Z"/>
        <path class="cls-4" d="m925.99,628.19h0c-4.4-83.1-5.89-101.37-6.39-101.36-.43,0-.04,13.33-.38,36.42-.35,23.02-1.16,69.85-6.59,70.04-1.76.06-3.55-4.81-4.07-4.7-.57.13,1.87,6.09,5.23,13.7"/>
        <path class="cls-4" d="m934.69,305.24c-1.55-.09,2.14-23.54,1.88-58.77-.33-44.91-6.83-76.45-5.65-76.53.97-.06,5.29,21.47,8.09,42.66,2.55,19.27,4.33,33.23,3.21,51.63-1.31,21.58-6.11,41.09-7.53,41.01Z"/>
        <path class="cls-4" d="m913.35,22.81c5.5,6.35-.63,13.32-4.39,24.52-5.21,15.51-1.39,25.75-2.51,25.79-2.54.09-13.23-52.91-1.88-54.96,3.01-.54,7.01,2.59,8.79,4.65Z"/>
      </g>
    </g>
  </g>
  <g id="Layer_2_copy_2" data-name="Layer 2 copy 2">
    <path class="cls-8" d="m943.7,12.6c-18.5,18.67-37,37.33-55.5,56H74.2C55.7,49.93,37.2,31.26,18.7,12.6h925Z"/>
    <g class="cls-12">
      <g class="cls-3">
        <path class="cls-5" d="m2.7,25.6c8.6-12.54,41.76-3.07,62,2,46.64,11.69,95.35,12.52,143,19,107.74,14.66,190.48-10.83,191-7,.32,2.35-30.9,9.4-61.76,13.53-55.71,7.45-98.84,3.86-142.05,0-75.36-6.73-113.05-10.09-129.25-16-5.93-2.16-17.27-6.9-30.71-3.84-16.46,3.75-24.08,16.49-30.21,13.31-4.98-2.58-6.56-14.35-2-21Z"/>
        <path class="cls-5" d="m930.7,39.6c0,.13-63.32,8.55-155,9-66.07.32-155.88-3.1-156-9-.13-6.44,106.86-14.08,177-17,82.64-3.44,161.95-2.32,162,0,.08,3.82-284.03,8.48-284,16,.01,3.33,55.71,5.78,81.36,6.57,99.85,3.08,174.63-5.71,174.64-5.57Z"/>
        <path class="cls-5" d="m169.7,28.6c-.3,2.43,46.38,14.7,103,15,65.41.35,118.39-15.4,118-18-.35-2.35-44.05,6.61-117,7-64.3.34-103.72-6.22-104-4Z"/>
        <path class="cls-5" d="m410.7,57.6c-.18-1.58,54.74-14.23,123-12,54.65,1.79,98.2,12.47,98,14-.21,1.61-48.81-7.5-120.9-7.44-61.57.05-99.95,6.75-100.1,5.44Z"/>
        <path class="cls-5" d="m607.46,31.76c22.31-8.71,36.91-6.76,76.67-8.56,15.31-.69,31.4-1.42,31.4-2.45,0-1.36-28.26-3.93-58.32-2.45-28.93,1.43-43.52,5.82-63.22,8.97-68.42,10.97-72.85-13.1-126.02-1.63-38.99,8.41-43.34,22.8-93.4,30.59-27.15,4.22-48.96,3.58-48.94,4.89.02,1.46,26.94,6.19,57.91.82,37.16-6.44,39.92-20.45,76.27-27.33,33.37-6.31,65.46-1.01,68.93-.41,21.51,3.72,42.72,11.3,68.52,2.04,5.21-1.87,3.58-1.91,10.2-4.49Z"/>
        <path class="cls-5" d="m55.39,64c-.09-.76,12.7-3.08,23.68-4.48,35.58-4.53,66.57-1.14,66.55,0-.01.6-8.74.22-40.95,1.92-32.08,1.69-49.17,3.43-49.27,2.56Z"/>
        <path class="cls-5" d="m227.52,20.49c-32.16,2.99-67.51,4.6-105.58,3.84-21.25-.43-41.54-1.56-60.79-3.2"/>
        <path class="cls-4" d="m692.72,55.62c.07-1.55,45.86.98,120.28-1.16,54.71-1.57,82.06-2.36,86-3.49,4.46-1.27,18.59-5.66,21.5-1.16,1.42,2.19.23,6.58-2.32,8.14-2.96,1.8-7.32-.44-8.26-.88-14.01-6.57-89.61,3.47-132.76,5.14-47.13,1.83-84.5-5.19-84.44-6.59Z"/>
        <path class="cls-4" d="m932.71,31.22h0c-123.38,4.4-150.52,5.89-150.5,6.39.01.43,19.79.04,54.07.38,34.18.35,103.71,1.16,103.98,6.59.09,1.76-7.15,3.55-6.97,4.07.19.57,9.04-1.87,20.34-5.23"/>
        <path class="cls-4" d="m453.2,22.52c-.13,1.55-34.95-2.14-87.26-1.88-66.68.33-113.51,6.83-113.62,5.65-.1-.97,31.88-5.29,63.33-8.09,28.61-2.55,49.34-4.33,76.65-3.21,32.05,1.31,61.01,6.11,60.89,7.53Z"/>
        <path class="cls-4" d="m33.87,43.86c9.43-5.5,19.78.63,36.41,4.39,23.02,5.21,38.24,1.39,38.29,2.51.13,2.54-78.56,13.23-81.61,1.88-.81-3.01,3.85-7.01,6.91-8.79Z"/>
      </g>
    </g>
  </g>
  <g id="Layer_2_copy_3" data-name="Layer 2 copy 3">
    <path class="cls-8" d="m18.7,635.6c18.5-18.67,37-37.33,55.5-56h814c18.5,18.67,37,37.33,55.5,56H18.7Z"/>
    <g class="cls-12">
      <g class="cls-11">
        <path class="cls-5" d="m959.7,622.6c-8.6,12.54-41.76,3.07-62-2-46.64-11.69-95.35-12.52-143-19-107.74-14.66-190.48,10.83-191,7-.32-2.35,30.9-9.4,61.76-13.53,55.71-7.45,98.84-3.86,142.05,0,75.36,6.73,113.05,10.09,129.25,16,5.93,2.16,17.27,6.9,30.71,3.84,16.46-3.75,24.08-16.49,30.21-13.31,4.98,2.58,6.56,14.35,2,21Z"/>
        <path class="cls-5" d="m31.7,608.6c0-.13,63.32-8.55,155-9,66.07-.32,155.88,3.1,156,9,.13,6.44-106.86,14.08-177,17-82.64,3.44-161.95,2.32-162,0-.08-3.82,284.03-8.48,284-16-.01-3.33-55.71-5.78-81.36-6.57-99.85-3.08-174.63,5.71-174.64,5.57Z"/>
        <path class="cls-5" d="m792.7,619.6c.3-2.43-46.38-14.7-103-15-65.41-.35-118.39,15.4-118,18,.35,2.35,44.05-6.61,117-7,64.3-.34,103.72,6.22,104,4Z"/>
        <path class="cls-5" d="m551.7,590.6c.18,1.58-54.74,14.23-123,12-54.65-1.79-98.2-12.47-98-14,.21-1.61,48.81,7.5,120.9,7.44,61.57-.05,99.95-6.75,100.1-5.44Z"/>
        <path class="cls-5" d="m354.94,616.43c-22.31,8.71-36.91,6.76-76.67,8.56-15.31.69-31.4,1.42-31.4,2.45,0,1.36,28.26,3.93,58.32,2.45,28.93-1.43,43.52-5.82,63.22-8.97,68.42-10.97,72.85,13.1,126.02,1.63,38.99-8.41,43.34-22.8,93.4-30.59,27.15-4.22,48.96-3.58,48.94-4.89-.02-1.46-26.94-6.19-57.91-.82-37.16,6.44-39.92,20.45-76.27,27.33-33.37,6.31-65.46,1.01-68.93.41-21.51-3.72-42.72-11.3-68.52-2.04-5.21,1.87-3.58,1.91-10.2,4.49Z"/>
        <path class="cls-5" d="m907.01,584.19c.09.76-12.7,3.08-23.68,4.48-35.58,4.53-66.57,1.14-66.55,0,.01-.6,8.74-.22,40.95-1.92,32.08-1.69,49.17-3.43,49.27-2.56Z"/>
        <path class="cls-5" d="m734.88,627.7c32.16-2.99,67.51-4.6,105.58-3.84,21.25.43,41.54,1.56,60.79,3.2"/>
        <path class="cls-4" d="m269.68,592.57c-.07,1.55-45.86-.98-120.28,1.16-54.71,1.57-82.06,2.36-86,3.49-4.46,1.27-18.59,5.66-21.5,1.16-1.42-2.19-.23-6.58,2.32-8.14,2.96-1.8,7.32.44,8.26.88,14.01,6.57,89.61-3.47,132.76-5.14,47.13-1.83,84.5,5.19,84.44,6.59Z"/>
        <path class="cls-4" d="m29.69,616.97h0c123.38-4.4,150.52-5.89,150.5-6.39-.01-.43-19.79-.04-54.07-.38-34.18-.35-103.71-1.16-103.98-6.59-.09-1.76,7.15-3.55,6.97-4.07-.19-.57-9.04,1.87-20.34,5.23"/>
        <path class="cls-4" d="m509.2,625.67c.13-1.55,34.95,2.14,87.26,1.88,66.68-.33,113.51-6.83,113.62-5.65.1.97-31.88,5.29-63.33,8.09-28.61,2.55-49.34,4.33-76.65,3.21-32.05-1.31-61.01-6.11-60.89-7.53Z"/>
        <path class="cls-4" d="m928.53,604.33c-9.43,5.5-19.78-.63-36.41-4.39-23.02-5.21-38.24-1.39-38.29-2.51-.13-2.54,78.56-13.23,81.61-1.88.81,3.01-3.85,7.01-6.91,8.79Z"/>
      </g>
    </g>
  </g>
</svg>