<?xml version="1.0" encoding="UTF-8"?><svg id="Layer_3" xmlns="http://www.w3.org/2000/svg" viewBox="0 0 35 40"><defs><style>.cls-1{fill:#2d2524;}</style></defs><path class="cls-1" d="M30.61,22.5c-.64-2.24-1.75-3.14-3.54-3.54-.25-1.77-.59-4.01-.91-5.78-.63-3.48-4.52-7.93-10.72-6.82-8.54,1.53-6.54,10.51-6.54,10.51,0,0-5.64,.97-4.73,5.15,.9,4.17,3.76,3.62,6.19,3.55,.09,0,.2-.01,.32-.02-.36,1.04-.37,2.39,.44,4.06,1.25,2.57,2.82,3.34,4.65,3.2s5.34-2.44,7.95-2.85c2.21-.35,3.78-.8,5.22-1.6,1.47-.81,2.58-2.66,1.67-5.84Zm-13.96-11.48c2.16,0,3.71,1.58,4.05,3.34,.29,1.54,0,3.55,0,3.55l-4.92,1.53s-2.07-1.11-2.63-3.54c-.59-2.57,1.35-4.88,3.5-4.88Z"/><path class="cls-1" d="M18.13,15.4c-1.08,.24-2.04,.02-2.15-.48-.11-.5,.67-1.09,1.74-1.33-.17-.25-.37-.51-.62-.74-.98-.91-2.77-1.74-4.19-1.03-1.78,.89-1.93,3.69-1.29,5.48,.54,1.51,2.11,3.55,4,3.29,1.91-.27,2.97-2.74,2.9-4.58,0-.11-.02-.36-.08-.69-.1,.03-.2,.06-.3,.08Z"/></svg>