<?xml version="1.0" encoding="UTF-8"?><svg id="Layer_4" xmlns="http://www.w3.org/2000/svg" viewBox="0 0 35 40"><defs><style>.cls-1{fill:#2d2524;}</style></defs><path class="cls-1" d="M20.02,22.3c-.8,.14-1.5-.1-1.57-.52s.52-.87,1.31-1.01c.09-.01,.17-.02,.26-.03-.49-.99-1.35-1.65-2.33-1.65-1.52,0-2.75,1.56-2.75,3.49s1.23,3.49,2.75,3.49,2.75-1.56,2.75-3.49c0-.13,0-.26-.02-.39-.13,.04-.26,.08-.4,.1Z"/><path class="cls-1" d="M32.62,14.55c.03-1.62-.9-4.41-2.48-5.68-.57-.46-1.21-.92-1.77-.43-.47,.41-3.76,6-4.92,7.97-1.23-.48-2.89-.51-4.72-.24,.18-1.2,.02-2.58,.02-2.58,0,0,2.82,.57,2.64-1.11-.16-1.56-2.95-.68-2.95-.68,0,0-.01-3.4-2.51-2.86-1.94,.41-1.23,4.09-1.23,4.09,0,0-.99,.29-1.89-.73-.68-.77-.8-4.64-3.32-3.06-1.81,1.13-.81,4.48,1.72,5.14,2.4,.63,3.51,.02,3.51,.02,0,0,.14,1.59,.56,2.54-4.25,1.21-8.51,3.31-9.97,4.5-.99,.81-1.14,3.66-.5,4.63,.64,.97,7.28,4.45,18.17,3.1,4.91-.61,5.04-4.95,3.82-8.37,3.46-.65,5.77-3.5,5.83-6.25Zm-10.81,10.3l-3.96,.46s-2.08-1.13-1.39-4.37c.32-1.51,1.89-2.25,3.26-2.19,1.38,.06,2.22,.78,2.69,2.69s-.61,3.41-.61,3.41Z"/></svg>