<?xml version="1.0" encoding="UTF-8"?><svg id="Layer_2" xmlns="http://www.w3.org/2000/svg" viewBox="0 0 35 40"><defs><style>.cls-1{fill:#2d2524;}</style></defs><path class="cls-1" d="M32.99,16.73l-4.27,1.36-1.31-9.27h-1.9l-2.75,7.08h-.61l-1.29-7.08h-.98l-2.75,7.32h-.77l-2.31,2.38H1.38l2.23,6.69,.35,.06,1,2.09,.71-1.78,1,.18,.99,1.61,.84-1.28,12.55,2.22,11.8-3.34v-2.21l-1.95-.2,1.97-1.19,.12-4.61Zm-11.19,5.21l-4.57-2.49,4.57-1.8,3.26,1.56-3.26,2.74Z"/><path class="cls-1" d="M18.63,18.09s-.03,1.05,.28,1.95c.18,.52,.78,1.63,.78,1.63,0,0,.28-.64,0-1.92s-.94-2.11-.94-2.11l-.11,.46Z"/></svg>