<svg xmlns="http://www.w3.org/2000/svg" viewBox="0 0 175 175"><defs><style>.cls-1{fill:#fcd6c8;}.cls-2{fill:#603813;}.cls-3{fill:#d1813e;}.cls-3,.cls-4{stroke:#662f08;}.cls-3,.cls-4,.cls-6{stroke-miterlimit:10;stroke-width:1.28px;}.cls-4,.cls-5{fill:#feecba;}.cls-6{fill:#fff;stroke:#000;opacity:0.86;}.cls-7{fill:#141414;}.cls-8{fill:#f8ede4;}</style></defs><g id="Layer_1" data-name="Layer 1"><g id="Layer_27" data-name="Layer 27"><rect class="cls-1" x="3" y="3.03" width="169" height="168.95"/><path class="cls-2" d="M169,6V169H6V6H169m6-6H0V175H175V0Z"/></g></g><g id="Layer_3" data-name="Layer 3"><path class="cls-3" d="M138.64,88.62l7.67-21.45a2.4,2.4,0,0,1,3.87-.66c3.25,3.34,8.48,9.91,7.75,17-1.44,13.93-15.32,16.24-15.32,16.24Z"/><path class="cls-3" d="M76.88,33,89.11,9.93a3.21,3.21,0,0,1,4.94-.22c3.68,4.2,9.44,12.28,7.66,20.13C98.22,45.31,80.52,46,80.52,46Z"/><path class="cls-4" d="M68.67,21c-.19-1.18-2.75-3-6.29-2.73a8.61,8.61,0,0,0-2.4.59c-1.38-5.32-4-8.7-6.68-8.22C51.19,11,48.12,15.86,48,22.82a5.86,5.86,0,0,1-4.38-.57A6.9,6.9,0,0,1,41,18.3a36.48,36.48,0,0,0-1.41-4.6,5,5,0,0,0-3.47-3.06A4.39,4.39,0,0,0,32,12.58a8.26,8.26,0,0,0-1.3,4.54,10,10,0,0,0,1.52,5.95,10.39,10.39,0,0,0,5.15,3.66,17.07,17.07,0,0,0,10.85.15C49.5,34.6,55,41.63,55.78,40.69c.85.4,5.65-7.9,5.11-16.1a7.5,7.5,0,0,0,2,.11C66.43,24.42,69,22.79,68.67,21Z"/><path class="cls-3" d="M54.77,63.77c-2.72,1.3-4.74,4.09-4.36,7.09C50.75,73.57,52.59,120.92,65,126c9.22,3.74,57.64-2.58,77-11.22,1.58-.71,2.5-10.53,2.07-17.79a11.88,11.88,0,0,0-8.8-10.75c-13.65-3.65-47.64-9-48.79-9.65-.4-.23-4.19-7.79-6.51-11.08S62,60.3,54.77,63.77Z"/><path class="cls-5" d="M55.3,104.37c3.33-1.89,7.54-1.42,11.12-.05s6.79,3.56,10.29,5.12c8.9,4,19.17,3.72,28.74,1.82s18.76-5.35,28.27-7.55c2.21-.51,4.73-.91,6.62.37,2.09,1.41,2.53,4.5,1.55,6.83a12.69,12.69,0,0,1-5.16,5.41c-9.87,6.36-21.91,6.12-33.87,7.89a195.22,195.22,0,0,1-30.66,2c-2.94,0-6.1,0-8.46-1.74-1.72-1.29-4-5.28-4.62-7A87.46,87.46,0,0,1,55.3,104.37Z"/><path class="cls-3" d="M89.88,166.35a5.23,5.23,0,0,1-4.85-3c-4.66-9.91-19.23-40.55-18.85-51.82.44-13.49,7.73-21.06,15-18.72s12.34,8.66,13.5,32.73a231.07,231.07,0,0,1-1.12,37.72,3.52,3.52,0,0,1-3.42,3.1Z"/><ellipse class="cls-3" cx="125.77" cy="112.01" rx="26.37" ry="16.4" transform="translate(-5.54 217.48) rotate(-80.46)"/><path class="cls-3" d="M130.33,166.35a5.14,5.14,0,0,0,4.34-1.89c4.16-6.25,17.16-25.56,16.82-32.67-.4-8.5-6.9-13.28-13.41-11.8s-11,5.46-12.05,20.63a103.76,103.76,0,0,0,1,23.77c.19,1.1,1.49,1.94,3.06,2Z"/><path class="cls-3" d="M87,55.24c.12-4.93-2-12.31-4.91-16.31S75.93,32.62,68,31.87c-13.21-1.26-47,16-48.55,18.73-1.32,2.38-3.47,9.84,4,14.54S63.89,75.24,76.9,71C84.94,68.42,86.76,63.64,87,55.24Z"/><path class="cls-6" d="M60.49,60.2l8.06-1.28a3.26,3.26,0,0,0,2.63-2.35c1.38-5,2.15-17.73-10.66-15.59-11.07,1.84-8,14.1-3.79,17.63C57.86,59.55,59,60.44,60.49,60.2Z"/><ellipse class="cls-7" cx="59.47" cy="50.9" rx="6.4" ry="9" transform="translate(-7.27 9.99) rotate(-9.05)"/><ellipse class="cls-8" cx="64.72" cy="48.81" rx="4.5" ry="2.25" transform="translate(-6.87 10.78) rotate(-9.05)"/><path d="M17.05,57.22c-.35-4.73,1.08-9,4.9-9.12,2.89-.12,5.5,3.46,5.85,8.2s-1.71,8.75-4.59,9S17.4,62,17.05,57.22Z"/></g></svg>