<svg xmlns="http://www.w3.org/2000/svg" viewBox="0 0 210 175"><defs><style>.cls-1{fill:#fdd8c9;}.cls-2{fill:#603913;}.cls-3{fill:#d1813e;}.cls-3,.cls-4{stroke:#662f08;}.cls-3,.cls-4,.cls-6{stroke-miterlimit:10;stroke-width:0.98px;}.cls-4,.cls-5{fill:#feecba;}.cls-6{fill:#fff;stroke:#000;opacity:0.86;}.cls-7{fill:#141414;}.cls-8{fill:#f8ede4;}</style></defs><g id="Layer_1" data-name="Layer 1"><g id="Layer_27" data-name="Layer 27"><rect class="cls-1" x="3.18" y="3" width="204" height="168.9"/><path class="cls-2" d="M204.18,6.1V169H6.18V6.1h198m6-6H.18V175h210V.1Z"/></g></g><g id="Layer_7" data-name="Layer 7"><path class="cls-3" d="M190.91,109.85l5.85-16.37a1.84,1.84,0,0,1,3-.5c2.48,2.55,6.47,7.56,5.91,13-1.1,10.62-11.69,12.39-11.69,12.39Z"/><path class="cls-3" d="M143.79,67.42l9.33-17.61a2.44,2.44,0,0,1,3.77-.16c2.8,3.2,7.2,9.36,5.85,15.36-2.67,11.8-16.18,12.34-16.18,12.34Z"/><path class="cls-4" d="M132.73,56.19a6.51,6.51,0,0,0-1.84.44c-1-4.06-3-6.63-5.09-6.27-1.61.28-4,4-4.06,9.29a4.48,4.48,0,0,1-3.34-.44,5.29,5.29,0,0,1-2-3,26.35,26.35,0,0,0-1.07-3.51,3.83,3.83,0,0,0-2.65-2.34,3.34,3.34,0,0,0-3.14,1.48,6.21,6.21,0,0,0-1,3.47,7.64,7.64,0,0,0,1.15,4.54,7.93,7.93,0,0,0,3.93,2.79,13.1,13.1,0,0,0,8.28.1c1,5.9,5.17,11.27,5.75,10.55.65.31,4.31-6,3.9-12.28a6,6,0,0,0,1.53.08c2.69-.21,4.62-1.46,4.4-2.81C137.38,57.37,135.42,56,132.73,56.19Z"/><path class="cls-3" d="M126.92,90.89a5.49,5.49,0,0,0-3.33,5.41c.26,2.07,1.67,38.2,11.1,42,7,2.86,44-2,58.74-8.56,1.21-.54,1.91-8,1.58-13.57a9.06,9.06,0,0,0-6.71-8.2c-10.42-2.79-36.35-6.84-37.23-7.37-.3-.17-3.19-5.94-5-8.45S132.46,88.24,126.92,90.89Z"/><path class="cls-5" d="M127.32,121.86c2.55-1.43,5.76-1.08,8.49,0s5.18,2.71,7.85,3.91c6.79,3,14.62,2.84,21.92,1.38s14.32-4.08,21.57-5.75c1.7-.4,3.61-.7,5,.27a4.37,4.37,0,0,1,1.19,5.22,9.79,9.79,0,0,1-3.94,4.13c-7.52,4.85-16.71,4.67-25.84,6a148.72,148.72,0,0,1-23.39,1.51c-2.25,0-4.66,0-6.46-1.33a15.29,15.29,0,0,1-3.52-5.32A66.87,66.87,0,0,1,127.32,121.86Z"/><path class="cls-3" d="M153.71,169.16a4,4,0,0,1-3.7-2.3c-3.56-7.56-14.67-30.94-14.39-39.53.34-10.3,5.9-16.08,11.47-14.29s9.41,6.61,10.3,25a176.73,176.73,0,0,1-.86,28.78,2.69,2.69,0,0,1-2.61,2.37Z"/><ellipse class="cls-3" cx="181.09" cy="127.7" rx="20.12" ry="12.51" transform="translate(25.14 285.12) rotate(-80.46)"/><path class="cls-3" d="M184.57,169.16a3.93,3.93,0,0,0,3.31-1.45c3.17-4.76,13.09-19.5,12.84-24.92-.31-6.49-5.27-10.13-10.24-9s-8.4,4.16-9.19,15.74a79.18,79.18,0,0,0,.76,18.14,2.25,2.25,0,0,0,2.33,1.49Z"/><path class="cls-3" d="M151.49,84.39a23.83,23.83,0,0,0-3.74-12.45c-2.12-2.94-4.69-4.81-10.73-5.39-10.08-1-35.87,12.17-37.05,14.3A8.2,8.2,0,0,0,103,91.94c5.78,3.63,30.85,7.7,40.78,4.49C149.94,94.44,151.33,90.79,151.49,84.39Z"/><path class="cls-6" d="M131.28,88.17l6.15-1a2.47,2.47,0,0,0,2-1.79c1.05-3.79,1.64-13.53-8.14-11.9-8.44,1.4-6.1,10.76-2.88,13.45A3.65,3.65,0,0,0,131.28,88.17Z"/><ellipse class="cls-7" cx="130.5" cy="81.07" rx="4.88" ry="6.87" transform="translate(-11.13 21.53) rotate(-9.05)"/><ellipse class="cls-8" cx="134.51" cy="79.47" rx="3.43" ry="1.72" transform="translate(-10.82 22.14) rotate(-9.05)"/><path d="M98.14,85.9c-.27-3.62.82-6.84,3.74-7,2.2-.1,4.19,2.63,4.46,6.25s-1.3,6.67-3.5,6.84S98.4,89.51,98.14,85.9Z"/></g></svg>