<?xml version="1.0" encoding="UTF-8"?>
<svg id="Layer_11" data-name="Layer 11" xmlns="http://www.w3.org/2000/svg" xmlns:xlink="http://www.w3.org/1999/xlink" viewBox="0 0 205.78 284.08">
  <defs>
    <style>
      .cls-1, .cls-2 {
        fill: #fff;
      }

      .cls-3 {
        fill: #05281a;
      }

      .cls-3, .cls-4, .cls-5, .cls-6, .cls-7, .cls-2 {
        stroke-miterlimit: 10;
      }

      .cls-3, .cls-6, .cls-7, .cls-2 {
        stroke: #04281a;
        stroke-width: 2px;
      }

      .cls-4 {
        stroke: #2d645b;
        stroke-width: 4px;
      }

      .cls-4, .cls-8 {
        fill: none;
      }

      .cls-9 {
        fill: #022f29;
      }

      .cls-5 {
        fill: #8e3b1e;
        stroke: #1c0e0a;
      }

      .cls-10 {
        clip-path: url(#clippath-1);
      }

      .cls-11 {
        fill: #d8e47d;
      }

      .cls-6 {
        fill: #6aa142;
      }

      .cls-12 {
        clip-path: url(#clippath);
      }

      .cls-13 {
        fill: #04281a;
      }

      .cls-14 {
        fill: #2d645b;
      }

      .cls-7 {
        fill: #2e655c;
      }
    </style>
    <clipPath id="clippath">
      <path class="cls-8" d="m157.41,134.16c-1.97-4.97-6.86-9.72-27.71-15.79-19.86-5.79-29.79-8.68-41.59-7.92-4.87.32-41.63,2.7-57.28,30.82-2.03,3.64-11.13,20.01-4.7,37.35,5.94,16.02,21.36,22.72,26.62,25.01,33.79,14.7,74.83-6.32,90.82-26.49,8.88-11.2,12.63-25.38,12.63-25.38,1.94-7.33,3.28-12.38,1.21-17.61Z"/>
    </clipPath>
    <clipPath id="clippath-1">
      <path class="cls-8" d="m158.95,134.97c-1.97-4.97-6.86-9.72-27.71-15.79-19.86-5.79-29.79-8.68-41.59-7.92-4.87.32-41.63,2.7-57.28,30.82-2.03,3.64-11.13,20.01-4.7,37.35,5.94,16.02,21.36,22.72,26.62,25.01,33.79,14.7,74.83-6.32,90.82-26.49,8.88-11.2,12.63-25.38,12.63-25.38,1.94-7.33,3.28-12.38,1.21-17.61Z"/>
    </clipPath>
  </defs>
  <g id="Layer_6_copy" data-name="Layer 6 copy">
    <path class="cls-3" d="m91.06,221.79c-1.18,2.85-12.12.79-17.02-.53-4.55-1.22-13.96-3.75-18.87-12.02-1.65-2.79-3.99-8.24-2.09-10.11,2.2-2.16,9.03,1.55,15.68,5.23,3.7,2.05,24.01,13.28,22.3,17.42Z"/>
    <path class="cls-3" d="m91.76,212.03c-12.15,3.78-24.87-1.27-32.41-9.41-5.88-6.35-13.3-19.65-7.32-30.32,6.12-10.92,22.02-11.47,31.36-9.06,15.2,3.91,29.5,19.86,25.76,33.44-2.92,10.61-15.47,14.74-17.4,15.34Z"/>
  </g>
  <g id="Layer_4_copy" data-name="Layer 4 copy">
    <path class="cls-3" d="m158.21,181.57c-1.69-2.14-10.57,6.61-19.22,3.54-7.49-2.65-6.96-11.37-13.77-12.89-5.87-1.31-14.09,3.4-15.22,9.82-1.23,7.01,6.63,12.63,8.07,13.66,8.84,6.32,21.29,4.94,29.57-.16,7.27-4.47,11.96-12.2,10.56-13.97Z"/>
  </g>
  <g id="Body">
    <path class="cls-6" d="m158.22,134.16c-1.97-4.97-6.86-9.72-27.71-15.79-19.86-5.79-29.79-8.68-41.59-7.92-4.87.32-41.63,2.7-57.28,30.82-2.03,3.64-11.13,20.01-4.7,37.35,5.94,16.02,21.36,22.72,26.62,25.01,33.79,14.7,74.83-6.32,90.82-26.49,8.88-11.2,12.63-25.38,12.63-25.38,1.94-7.33,3.28-12.38,1.21-17.61Z"/>
    <g class="cls-12">
      <path class="cls-11" d="m166.94,135.79c-4.96-4.47-22.91,7.76-25.09,9.27-18.36,12.7-15.55,24.09-35.96,39.75-7.5,5.76-17.33,13.3-27.39,12.16-1.42-.16-4.4-.67-8.08.36-5.87,1.65-11.94,6.78-11.5,10.11.88,6.65,27.65,13.07,49.48,7.32,43.7-11.52,66.71-71.6,58.55-78.96Z"/>
    </g>
    <g class="cls-10">
      <path class="cls-14" d="m23.53,122.53c10.01-5.78,25.08-7.04,36.33.67,8.92,6.12,13.64,16.66,13.46,24.86-.09,4.37-1.62,10-4.13,11.94-1.95,1.51-3.49,2.35-3.49,2.35-1.61.87-2.89,1.31-2.83,1.55.05.19.93.04,2.74.03,0,0,.94,0,2.5.08,0,0,2.62.15,5.96,1.93,3.61,1.93,11.51,9.82,10.52,17.3-1.47,11.08-20.11,15.96-29.87,16.9-2.48.24-30.35,2.47-43.74-18.25-12.57-19.46-5.95-48.68,12.55-59.36Z"/>
    </g>
    <circle class="cls-4" cx="98.43" cy="150.71" r="8.25"/>
    <g id="Layer_8" data-name="Layer 8">
      <path class="cls-9" d="m39.15,140.43c-.35.58-.73,1.14-1.15,1.68l.39-.51c-.48.62-1,1.3-1.62,1.8l.51-.39-.1.06.6-.25-.11.04.66-.09h-.11c.22.04.44.07.66.1l-.11-.02.6.25-.08-.05.51.39-.06-.07.39.51-.04-.09.25.6-.03-.1.09.66c-.01-.11-.01-.21,0-.32l-.09.66c.06-.43.19-.83.36-1.24l-.25.6c.6-1.41,1.42-2.74,2.36-3.96l-.39.51c.51-.65,1.04-1.32,1.68-1.84l-.51.39c.21-.16.43-.29.67-.4l-.6.25c.08-.04.17-.06.26-.09l-.66.09h.14c-.22-.04-.44-.07-.66-.1l.14.03-.6-.25.08.05-.51-.39.06.06-.39-.51.05.08-.25-.6c.04.1.06.18.08.28l-.09-.66c0,.13,0,.25,0,.37l.09-.66c-.04.28-.11.54-.21.8l.25-.6c-.52,1.21-1.37,2.29-2.17,3.33l.39-.51c-.75.97-1.49,2.05-2.45,2.82l.51-.39c-.11.08-.22.16-.34.24h2.52l-.08-.06.51.39-.06-.07.39.51-.05-.08.25.6c-.03-.06-.04-.12-.05-.19l.09.66c0-.11,0-.21.01-.32l-.09.66c.05-.24.13-.45.22-.67l-.25.6c.46-1.08,1.05-2.09,1.75-3.02l-.39.51c.52-.67,1.09-1.32,1.74-1.87l-.51.39c.11-.08.21-.15.33-.21l-.6.25c.07-.03.14-.05.22-.07l-.66.09c.07,0,.13-.01.2,0l-.66-.09c.07,0,.13.02.19.05l-.6-.25.08.05-.51-.39c.05.04.1.08.14.14l-.39-.51.05.11-.25-.6.02.12-.09-.66v.12c.03-.22.06-.44.09-.66-.02.13-.06.24-.11.37l.25-.6c-.33.67-.79,1.29-1.24,1.88l.39-.51c-.55.71-1.16,1.38-1.81,2-.95.9-.98,2.64,0,3.54s2.52.96,3.54,0,1.88-2.01,2.66-3.14c.42-.61.85-1.25,1.08-1.97.42-1.35-.13-2.92-1.39-3.6-1.06-.57-2.42-.51-3.42.19-.62.43-1.15.96-1.65,1.52-.87.98-1.66,2.05-2.27,3.21-.36.68-.73,1.41-.94,2.15-.18.61-.2,1.3-.05,1.92.2.83.73,1.35,1.38,1.86s1.86.44,2.52,0c.97-.64,1.69-1.44,2.41-2.34s1.49-1.86,2.17-2.83,1.28-1.9,1.62-2.98c.57-1.78-.01-3.99-2.03-4.49-1.63-.4-3.17.69-4.21,1.83-.77.85-1.48,1.76-2.12,2.72-.54.8-1.01,1.64-1.42,2.51-.65,1.39-1.32,3.1-.5,4.58.73,1.31,2.29,1.78,3.64,1.21.73-.31,1.27-.9,1.79-1.48.84-.96,1.62-1.99,2.28-3.08s.28-2.8-.9-3.42-2.7-.3-3.42.9h0Z"/>
      <path class="cls-9" d="m44.96,153.07c.04-.18.09-.35.16-.52l-.25.6c.09-.2.19-.39.32-.57l-4.57-1.93c-.19.5-.39,1-.58,1.51l4.82,1.33c.03-.15.08-.29.14-.43l-.25.6c.09-.21.21-.41.35-.6l-.39.51c.13-.17.29-.32.46-.46l-.51.39s.03-.02.04-.03c.29-.16.53-.37.7-.64.22-.24.37-.52.45-.85.1-.33.12-.66.04-1-.02-.33-.11-.64-.3-.93l-.39-.51c-.31-.31-.68-.52-1.1-.64l-.66-.09c-.45,0-.87.12-1.26.34-.29.22-.6.43-.85.7-.05.06-.11.12-.16.18-.18.22-.36.44-.52.68-.09.13-.16.27-.22.41-.15.34-.31.68-.4,1.04-.1.33-.12.66-.04,1,.02.33.11.64.3.93.16.29.37.53.64.7.24.22.52.37.85.45l.66.09c.45,0,.87-.12,1.26-.34l.51-.39c.31-.31.52-.68.64-1.1.19-.5.39-1,.58-1.51.1-.33.12-.66.04-1-.02-.33-.11-.64-.3-.93l-.39-.51c-.23-.24-.49-.42-.8-.52-.19-.11-.41-.17-.63-.17-.33-.07-.66-.06-1,.04l-.6.25c-.38.22-.67.52-.9.9-.12.17-.22.35-.3.53-.16.38-.34.75-.43,1.16-.1.33-.12.66-.04,1,.02.33.11.64.3.93.16.29.37.53.64.7.24.22.52.37.85.45l.66.09c.45,0,.87-.12,1.26-.34l.51-.39c.31-.31.52-.68.64-1.1h0Z"/>
      <path class="cls-9" d="m35.35,154.84l.79-2.12-4.82-1.33c-.03.24-.07.48-.1.72-.1.33-.12.66-.04,1,.02.33.11.64.3.93.16.29.37.53.64.7.24.22.52.37.85.45l.66.09c.45,0,.87-.12,1.26-.34l.51-.39c.31-.31.52-.68.64-1.1.03-.24.07-.48.1-.72.1-.33.12-.66.04-1-.02-.33-.11-.64-.3-.93-.16-.29-.37-.53-.64-.7-.24-.22-.52-.37-.85-.45l-.66-.09c-.45,0-.87.12-1.26.34l-.51.39c-.31.31-.52.68-.64,1.1l-.79,2.12c-.1.33-.12.66-.04,1,.02.33.11.64.3.93.16.29.37.53.64.7.24.22.52.37.85.45l.66.09c.45,0,.87-.12,1.26-.34l.51-.39c.31-.31.52-.68.64-1.1h0Z"/>
    </g>
  </g>
  <g id="Eye">
    <path class="cls-2" d="m117.37,121.24c-.87-.43-5.46-2.68-10.29-.64-4.52,1.91-6.16,6.28-6.54,7.3-.92,2.46-1.11,5.18-.76,7.78.27.42.49.88.63,1.38.06.44.12.89.18,1.33,0,.22,0,.44-.04.66,1.36,4.23,4.06,7.64,7.01,8.27,1.61.35,1.98-.41,8.69-2.59,7.14-2.32,7.99-1.87,9.06-3.14,3.57-4.25.14-16.37-7.95-20.34Z"/>
    <path class="cls-13" d="m121.45,140.48l.05.03-.51-.39s.05.05.08.08l-.39-.51s.04.06.06.1l-.25-.6c.02.06.04.11.05.16l-.09-.66c0,.08,0,.16,0,.24l.09-.66c-.01.06-.03.12-.05.17l.25-.6c-.03.08-.07.14-.12.21l.39-.51c-.05.06-.1.11-.16.16l.51-.39c-.12.09-.25.16-.39.23l.6-.25c-.19.08-.38.15-.58.2l.66-.09s-.1.01-.15,0l.66.09-.05-.02.6.25-.05-.03.51.39s-.05-.05-.07-.08l.39.51s-.04-.07-.05-.1l.25.6c-.02-.06-.03-.12-.04-.18l.09.66c-.01-.14,0-.28.02-.41l-.09.66c.09-.67.27-1.31.52-1.94l-.25.6c.26-.62.6-1.2,1.01-1.73l-.39.51c.08-.11.17-.2.27-.28l-.51.39s.08-.05.13-.07l-.6.25.07-.02-.66.09s.09-.01.14,0l-.66-.09.07.02-.6-.25.05.03-.51-.39.05.04-.39-.51s.05.07.07.11l-.25-.6c.03.09.05.17.07.26l-.09-.66c.04.36.04.72,0,1.08l.09-.66c-.06.38-.16.75-.31,1.11l.25-.6c-.16.35-.35.69-.59.99l.39-.51c-.21.26-.45.5-.71.71l.51-.39c-.17.13-.34.25-.53.34l.6-.25c-.08.03-.17.06-.25.07l.66-.09c-.06,0-.12,0-.18,0l.66.09h-.06c.2.07.4.15.6.24-.04-.01-.07-.03-.1-.05l.51.39-.04-.04.39.51s-.05-.07-.07-.11l.25.6-.02-.07.09.66c-.04-.29,0-.6.05-.89l-.09.66c.08-.59.24-1.16.47-1.7l-.25.6c.2-.46.44-.9.75-1.3l-.39.51c.08-.1.16-.18.26-.26l-.51.39c.08-.06.15-.11.24-.15l-.6.25c.06-.02.12-.04.19-.05l-.66.09s.08,0,.12,0l-.66-.09.06.02-.6-.25s.08.04.11.06l-.51-.39s.07.06.1.11l-.39-.51s.05.08.07.13l-.25-.6c.07.18.1.37.13.56l-.09-.66c.04.35.04.69,0,1.04l.09-.66c-.05.37-.15.73-.3,1.07l.25-.6c-.14.32-.32.62-.53.9l.39-.51c-.2.26-.43.49-.69.69l.51-.39c-.11.08-.23.16-.35.24-.54.33-.98.88-1.15,1.49s-.09,1.4.25,1.93.86,1,1.49,1.15,1.35.1,1.93-.25c.55-.34,1.09-.76,1.5-1.26.26-.31.52-.64.73-.99.22-.38.38-.79.54-1.19.24-.61.33-1.28.37-1.92.01-.22,0-.44-.02-.66-.05-.43-.09-.88-.23-1.29-.34-.96-1.03-1.75-2.03-2.04-.79-.23-1.64-.08-2.36.31-.79.43-1.35,1.2-1.78,1.97-.71,1.28-1.15,2.77-1.17,4.25-.01.79.26,1.65.87,2.2.79.71,1.75.92,2.77.71.82-.16,1.57-.73,2.16-1.28.47-.44.89-.99,1.21-1.56s.58-1.2.72-1.84.22-1.35.15-2.03c-.03-.29-.05-.64-.15-.93-.16-.47-.38-.85-.71-1.21s-.81-.61-1.27-.74c-.7-.21-1.51-.07-2.13.28-.78.43-1.32,1.2-1.78,1.94-.39.63-.69,1.33-.94,2.03-.27.76-.41,1.58-.48,2.38-.05.63.14,1.24.43,1.79.31.59.98,1.07,1.62,1.25.5.15,1.03.14,1.53.02.44-.1.92-.31,1.31-.51.58-.3,1.06-.79,1.39-1.34.38-.63.49-1.37.39-2.09-.06-.41-.15-.78-.37-1.14-.27-.47-.62-.74-1.05-1.06-.49-.36-1.37-.41-1.93-.25s-1.21.61-1.49,1.15c-.31.58-.46,1.28-.25,1.93l.25.6c.22.38.52.67.9.9h0Z"/>
    <path class="cls-1" d="m120.14,133.99c-.09,0-.18-.01-.27-.02l.66.09c-.27-.04-.54-.11-.8-.22l.6.25c-.23-.1-.44-.22-.64-.37l.51.39c-.1-.08-.2-.17-.28-.28l.39.51c-.04-.06-.08-.12-.11-.18l.25.6c-.02-.06-.04-.12-.05-.18l.09.66c0-.06,0-.12,0-.18l-.09.66c0-.05.02-.1.04-.14l-.25.6s.04-.07.06-.1l-.39.51s.05-.06.08-.08l-.51.39s.05-.03.08-.05l-.6.25s.09-.03.13-.04l-.66.09s.09,0,.14,0l-.66-.09c.07.01.14.03.21.06l-.6-.25c.14.06.26.14.38.24l-.51-.39c.4.31.79.67,1.11,1.08l-.39-.51s.07.1.09.15l-.25-.6s.02.07.02.1l-.09-.66s0,.04,0,.07l.09-.66s-.01.06-.02.09l.25-.6s-.03.06-.05.08l.39-.51s-.06.07-.09.1l.51-.39s-.07.05-.12.07l.6-.25c-.06.02-.11.04-.18.05l.66-.09c-.08,0-.17,0-.25,0l.66.09c-.1-.01-.19-.04-.29-.06-.33-.1-.66-.12-1-.04-.33.02-.64.11-.93.3-.29.16-.53.37-.7.64-.22.24-.37.52-.45.85l-.09.66c0,.45.12.87.34,1.26l.39.51c.31.31.68.52,1.1.64.35.08.72.15,1.08.16.54.01,1.12-.14,1.59-.41.03-.02.06-.04.08-.06.16-.11.4-.28.53-.41.19-.18.36-.39.48-.62s.24-.48.3-.73c.04-.19.08-.51.09-.7,0-.26-.04-.52-.1-.77v-.03c-.1-.2-.18-.4-.26-.6-.02-.03-.03-.06-.05-.09-.14-.22-.31-.42-.48-.62-.1-.12-.21-.24-.31-.35-.2-.21-.42-.41-.65-.6-.54-.43-1.06-.86-1.76-1.01-.52-.11-1.08-.15-1.6.02-.49.16-.61.24-.96.51s-.47.37-.73.8c-.32.52-.37.91-.43,1.5-.03.32.01.66.11.96.2.6.39.9.8,1.38.21.25.52.46.77.64.41.31.9.5,1.38.68.15.05.3.1.45.13.28.06.57.09.86.12.09.01.18.02.27.02.34.01.67-.06.96-.22.31-.1.58-.27.8-.52.24-.23.42-.49.52-.8.16-.3.23-.62.22-.96l-.09-.66c-.12-.42-.33-.79-.64-1.1l-.51-.39c-.39-.23-.81-.34-1.26-.34h0Z"/>
    <path class="cls-13" d="m100.48,134.59c-.55.31-1.06.66-1.4,1.22-.64,1.07-.33,2.87.9,3.42,1.56.7,2.74-.03,4.16-.67,1.89-.84,3.77-1.69,5.66-2.52,4.45-1.95,8.95-3.77,13.52-5.43,1.27-.46,2.12-1.7,1.75-3.08-.34-1.23-1.8-2.21-3.08-1.75-4.45,1.61-8.83,3.38-13.17,5.26-1.96.85-3.9,1.71-5.85,2.59-.64.29-1.29.58-1.93.86-.68.3.19-.02-.11.05-.36.08-.56.1.32.03l1.26.34h0c.3,1.14.6,2.28.9,3.42v-.02c-.29.3-.58.6-.88.9.15-.12.32-.21.49-.3,2.79-1.6.27-5.92-2.52-4.32h0Z"/>
    <path class="cls-13" d="m123.63,124.89c-2.07-2.22-4.7-3.26-7.49-4.27s-5.56-1.16-8.36.13c-5.35,2.47-7.21,8.55-7.22,14.02h5c-.02-2.06.47-3.98,1.5-5.77l-4.57-1.93c-.44,1.65-1.14,3.27-2.2,4.63l4.18,1.1c-.25-.66.39-2,.71-2.75s.75-1.63,1.31-2.06c0,0,.43-.13.11-.04.32-.09.17-.14.03-.04-.12-.03-.1-.03.05.01.17.05.16.04-.02-.01-.03-.03-.18-.14-.21-.14-.13,0,.1-.64-.03.17-.05.32,0,.15-.05.35-.11.47-.14.5-.44.77l4.27,1.77c.03-.56.26-1.28.64-1.89.22-.35.29-.42.61-.73.18-.18.51-.26.69-.54l-1.39-2.15-.16.23c-.13.1-.24.29-.34.41-.33.38-.67.75-1.04,1.1-.52.5-1.59,1.53-2.11,1.6h1.33l-.18-.07,1.1.64.38.57v1.33c.05-.29.07-.28.36-.65.04-.05.44-.46.59-.6.48-.44,1.03-.8,1.71-1.09.36-.15,1.24-.36,1.6-.38.2-.01.4-.02.59-.01.32.01.4.01.23,0-1.04-.69-1.29-1.38-.75-2.07.14-.06.07-.02-.2.13l3.76,2.16c-.04.43-.06-.01.05.04-.02.05-.05.08-.11.1-.55.13-1.08-.02-1.6-.43l-.64-1.1.06.25v-1.33l.03-.12.9-.9c-.25.17-.29.2-.12.1-.24.08-.49.15-.74.22-.37.1-.74.2-1.12.29-.8.19-1.61.33-2.42.48-2.01.36-3.36,1.67-3.55,3.73-.13,1.35,1.24,2.5,2.5,2.5,1.46,0,2.37-1.15,2.5-2.5-.12,1.24-1.19,1.29.04,1.07.38-.07.76-.13,1.14-.2.88-.17,1.75-.39,2.61-.65,1.9-.57,3.68-2.05,2.99-4.27-.65-2.1-3.11-2.51-4.87-1.58-1.65.87-2.49,2.5-2.65,4.3-.17,1.93,2.24,3.06,3.76,2.16,1.66-.99,2.82-2.78,2.26-4.77-.6-2.13-2.84-2.75-4.81-2.59-3.34.27-6.38,1.98-8.25,4.78-1.18,1.77-.99,4.47,1.31,5.21,1.93.62,3.71-.98,5.08-2.14,1.25-1.06,2.69-2.46,3.34-3.98.93-2.17-.51-4.53-2.84-4.79-2.13-.24-4.11,1.27-5.35,2.87s-1.82,3.32-1.94,5.26c-.14,2.29,2.76,3.13,4.27,1.77,1.63-1.47,2.32-4.07,1.78-6.19-.65-2.51-3.11-3.85-5.58-3.36-2.12.42-3.65,2.1-4.56,3.97-.97,2-2.28,4.86-1.44,7.1.57,1.54,2.91,2.74,4.18,1.1,1.6-2.07,2.81-4.3,3.48-6.84.72-2.72-3.14-4.41-4.57-1.93s-2.21,5.37-2.18,8.29c.03,3.22,4.99,3.22,5,0,0-3.73.94-7.88,4.47-9.57.59-.29,1.38-.47,2.04-.46,1,0,1.97.43,2.91.77,1.94.71,3.67,1.38,5.11,2.92,2.2,2.36,5.73-1.19,3.54-3.54h0Z"/>
    <path class="cls-14" d="m106.29,122.91c1.54,3.31,3.08,6.62,4.62,9.93.55,1.19,2.36,1.58,3.42.9,1.23-.79,1.49-2.15.9-3.42-1.54-3.31-3.08-6.62-4.62-9.93-.55-1.19-2.36-1.58-3.42-.9-1.23.79-1.49,2.15-.9,3.42h0Z"/>
  </g>
  <g id="Layer_10" data-name="Layer 10">
    <rect class="cls-5" x="146.7" y="165.36" width="17.92" height="26.2" transform="translate(67.54 -41.34) rotate(19.25)"/>
    <rect class="cls-5" x="132.37" y="162.88" width="17.92" height="26.2" transform="translate(-2.29 1.86) rotate(-.75)"/>
    <rect class="cls-5" x="141.75" y="161.65" width="17.92" height="26.2" transform="translate(39.44 -27.42) rotate(11.95)"/>
  </g>
  <g id="Layer_4" data-name="Layer 4">
    <path class="cls-6" d="m139.5,185.22c-1.69-2.14-10.57,6.61-19.22,3.54-7.49-2.65-6.96-11.37-13.77-12.89-5.87-1.31-14.09,3.4-15.22,9.82-1.23,7.01,6.63,12.63,8.07,13.66,8.84,6.32,21.29,4.94,29.57-.16,7.27-4.47,11.96-12.2,10.56-13.97Z"/>
  </g>
  <g id="Layer_6" data-name="Layer 6">
    <path class="cls-7" d="m59.5,221.88c-1.18,2.85-12.12.79-17.02-.53-4.55-1.22-13.96-3.75-18.87-12.02-1.65-2.79-3.99-8.24-2.09-10.11,2.2-2.16,9.03,1.55,15.68,5.23,3.7,2.05,24.01,13.28,22.3,17.42Z"/>
    <path class="cls-7" d="m60.2,212.12c-12.15,3.78-24.87-1.27-32.41-9.41-5.88-6.35-13.3-19.65-7.32-30.32,6.12-10.92,22.02-11.47,31.36-9.06,15.2,3.91,29.5,19.86,25.76,33.44-2.92,10.61-15.47,14.74-17.4,15.34Z"/>
    <path class="cls-9" d="m64.43,187.55c-.28-.48-.23-1.07.02-1.54-.13.22-.08.16.15-.18.34-.23.4-.28.18-.14.22-.13.45-.2.7-.2.38.08.43.08.15.02.72.33-.03.03-.04-.05.26.22.29.23.08.05-.09-.08-.17-.17-.25-.26-.18-.21-.16-.18.05.08-.07-.1-.14-.2-.2-.3-.13-.2-.25-.42-.36-.63-.03-.06-.35-.72-.18-.37s-.13-.35-.16-.42c-.09-.25-.18-.51-.26-.77-.15-.49-.28-.98-.39-1.48-.05-.23-.1-.47-.14-.7-.02-.13-.04-.27-.06-.4.04.33.05.35.01.06-.02-.27-.06-.54-.07-.81-.01-.11-.01-.22-.01-.34-.35.86-.41,1.12-.17.78l-.9.9-.39.17h-1.33c-.13-.03-.72-.51-.39-.17.13.13.27.25.39.38s.24.27.36.41c.41.46-.28-.44.06.08.42.65.85,1.28,1.22,1.96.35.63.66,1.28.96,1.94.27.58-.13-.34.02.04.06.15.12.3.18.46.16.43.32.86.46,1.3.09.29.16.6.26.88.16.46.01-.61,0-.12,0,.28-.13.5.05-.14.19-.68.9-1.19,1.62-1.21-.02,0,.53.12.55.11-.04.01-.42-.24-.45-.28.27.21.3.23.1.06-.09-.08-.17-.16-.25-.24-.12-.13-.24-.26-.36-.39-.3-.33.01.05.06.09-.24-.22-.43-.61-.61-.89-.42-.66-.82-1.34-1.18-2.04-.18-.34-.4-.7-.51-1.07.02.08.19.49.02.05-.07-.18-.14-.37-.21-.55-.13-.37-.24-.75-.33-1.13-.04-.16-.07-.32-.11-.48-.03-.17-.1-.9-.04-.17v-.15c-.35,1.38-1.1,1.96-2.23,1.75-.14-.04-.67-.47-.34-.14.24.24.49.46.73.69.57.57,1.12,1.16,1.63,1.79.13.16.26.31.38.47-.36-.48.04.07.09.14.19.26.37.52.54.78.2.31.4.64.57.97.09.17.17.33.25.5.23.45-.15-.44.06.18.07.19.34.79.26.98l-.04-.3c.01.12.02.25.03.37,0,.12-.04.3-.01.41,0-.03.1-.66.02-.26-.11.48.31-.5.05-.11.23-.34.53-.58.93-.68.25-.06.5-.06.74,0,.35.16.41.18.18.04.48.3.23.19.13.06-.1-.14-.64-.58-.16-.17-.29-.24-.51-.74-.7-1.07-.16-.27-.45-.66-.5-.97l.11.26c-.05-.11-.09-.23-.13-.34-.09-.23-.16-.46-.23-.69-.11-.35-.2-.7-.27-1.06-.03-.14-.12-.39-.1-.54.05.36.05.4.02.12,0-.09-.02-.18-.03-.27-.03-.39-.04-.79-.03-1.18,0-.18.01-.36.03-.55,0-.12.02-.24.03-.36-.01.42-.17.79-.48,1.12l-1.1.64c-.39.1-.76.08-1.1-.07-.17-.04-.31-.13-.43-.26.04-.01.3.3.34.33.24.25.48.5.71.76.21.23.42.47.6.73-.37-.52,0,.02.06.1.09.13.18.26.27.39.37.55.71,1.11,1.01,1.7.09.17.17.34.25.51.03.07.27.57.1.21s.03.11.06.18c.05.22.06.22.02,0-.04-.17-.03-.35.03-.52.27-.77.9-1.19,1.69-1.07-.21-.07-.22-.07-.03,0,.19.08.19.07-.01-.04-.07-.05-.47-.37-.17-.11s-.07-.07-.13-.13c-.12-.11-.24-.23-.36-.36-.1-.1-.18-.21-.28-.32-.2-.22.28.42.03.04-.17-.26-.33-.52-.48-.8-.05-.1-.18-.27-.18-.38.13.31.16.38.1.21-.03-.08-.06-.16-.08-.24-.09-.27-.14-.54-.21-.82-.14-.55.02.57,0,0,0-.17-.02-.34-.03-.51l-1.84,2.41c-.65.16-1.17.04-1.58-.36.08.07.16.15.23.23.18.2.36.41.53.61.13.16.26.31.38.47.17.22.17.21-.02-.03.08.11.16.22.24.32.28.38.55.77.8,1.17.14.22.27.47.43.69.15.28.15.23-.03-.16-.01-.43-.03-.52-.05-.26l.34-1.26.24-.31h3.54c-.36-.32-.71-.65-1.03-1.01-.1-.11-.66-.65-.18-.19-.14-.13-.25-.35-.36-.52-.25-.38-.47-.77-.67-1.17-.05-.11-.1-.22-.15-.33.13.32.15.36.04.1-.08-.23-.17-.45-.24-.68l-3.67,2.82c.16.07.3.16.46.24.42.21-.35-.33.1.09.27.26.52.55.77.83.85,1,2.67.94,3.54,0,.97-1.06.91-2.47,0-3.54-.66-.77-1.4-1.53-2.33-1.94s-1.91-.47-2.78.2c-.76.59-1.2,1.67-.9,2.63.74,2.29,2.05,4.4,3.87,5.99,1.06.92,2.47.96,3.54,0,2.02-1.81.19-4.36-1.01-6-.56-.77-1.15-1.53-1.79-2.23-.94-1.05-2.18-1.53-3.58-1.23-1.04.22-1.86,1.36-1.84,2.41.04,1.83.59,3.7,1.67,5.19,1.3,1.8,3.39,3.7,5.8,3.08,1.52-.39,2.6-1.76,2.62-3.33.01-1.13-.5-2.18-1-3.16-.83-1.64-1.93-3.17-3.19-4.51-.84-.9-1.79-1.71-3.08-1.76-.9-.03-1.78.41-2.32,1.11s-.61,1.35-.7,2.17c-.18,1.77.06,3.65.62,5.34.59,1.78,1.53,3.66,2.88,4.99.99.97,2.38,1.52,3.76,1.13,1.25-.36,2.14-1.42,2.5-2.64.57-1.96-.16-4.15-1.1-5.88s-2.15-3.2-3.46-4.57c-.68-.71-1.44-1.57-2.32-2.02-1.53-.79-3.47-.45-4.42,1.07-.7,1.12-.43,2.51-.14,3.72.24,1.01.62,1.97,1.04,2.92.75,1.7,1.74,3.34,2.91,4.78,1.5,1.84,4.48,3.47,6.47,1.33,1.6-1.72.77-4.12.04-6.02-.69-1.79-1.52-3.53-2.58-5.13-.53-.81-1.12-1.63-1.84-2.28-.5-.46-1.07-.95-1.74-1.13-.94-.26-2.1-.07-2.79.69-.89.97-.96,2.16-.82,3.4.12,1.06.28,2.13.56,3.16.51,1.92,1.29,3.9,2.66,5.37.87.94,2.07,1.55,3.36,1.62,1.36.07,2.62-.66,3.35-1.78s.76-2.54.09-3.67-2.28-1.63-3.42-.9-1.61,2.21-.9,3.42h0Z"/>
    <path class="cls-9" d="m49.64,180.26c.08.29.14.58.18.87l-.09-.66c.06.47.07.94.03,1.42l4.66-1.26c-.25-.42-.47-.86-.67-1.32l.25.6c-.36-.86-.6-1.76-.73-2.68l.09.66c-.03-.22-.05-.43-.06-.65l-4.66,1.26c.33.48.61,1,.85,1.54l-.25-.6c.3.71.5,1.46.61,2.23l-.09-.66c.01.11.03.21.04.32-.01.34.06.67.22.96.1.31.27.58.52.8.43.43,1.15.76,1.77.73s1.32-.24,1.77-.73c.42-.46.8-1.12.73-1.77-.1-.95-.25-1.9-.58-2.8s-.72-1.76-1.26-2.54c-.32-.46-.67-.8-1.2-1.02s-1.1-.3-1.63-.13c-.41.13-.78.35-1.1.64-.43.39-.77,1.18-.73,1.77.15,2.09.72,4.11,1.8,5.91.28.47.7.81,1.2,1.02s1.1.3,1.63.13c.41-.13.78-.35,1.1-.64.5-.46.68-1.12.73-1.77.08-.98-.04-2-.3-2.95-.17-.61-.61-1.18-1.15-1.49s-1.33-.45-1.93-.25-1.19.57-1.49,1.15-.43,1.26-.25,1.93h0Z"/>
  </g>
</svg>