<?xml version="1.0" encoding="UTF-8"?>
<svg id="Layer_2" data-name="Layer 2" xmlns="http://www.w3.org/2000/svg" viewBox="0 0 175 175">
  <defs>
    <style>
      .cls-1 {
        fill: #2d2524;
      }
    </style>
  </defs>
  <path class="cls-1" d="m151.53,121.62c-1.56,2.73,2.11,5.52-.11,8.31-.49.61-.77,1.22-1.66,1.27-4.9.29-9.8.87-14.7.88-41.28.05-82.56-.01-123.83-.04-1.69,0-3.63.06-4.27-1.82-.84-2.46,1.74-2.29,2.93-2.99,5.82-3.42,11.81-6.57,17.53-10.15,1.06-.66,1.46-2.83,1.66-4.37.75-5.9.68-11.98,2.04-17.72,1.98-8.31,1.96-16.85,3.79-25.14.65-2.96,1.25-6.1.94-9.06-.52-4.97,2.43-6.11,6.18-6.98,8.4-1.95,16.93-3.51,25.12-6.11,6.29-2,12.92-2.76,19-5.03,6.91-2.58,14.23-3.22,21.1-5.9,5.38-2.1,11.73-1.83,16.99-4.12,6.77-2.95,5.41,1.74,6.23,5.11,2.12,8.72,4.44,17.39,6.62,26.1.32,1.29.42,2.67.45,4.01.07,3.86,2.91,3.78,5.65,4.75,6.11,2.17,9.99,7.69,15.02,11.53,5.77,4.4,11.41,9.83,11.11,17.94-.18,4.76-2.1,9.46-3.29,14.18-.77,3.08-1.65,6.13-2.43,9.2-.81,3.19-1.38,6.46-2.47,9.55-.33.94-1.61,2.5-3.11,1.91-1.3-.51-2.3-1.56-2.54-3.3-.59-4.12-1.07-8.33-3.9-12.06-.29-.56.36-1.33.26-1.65.1.13.23.34.16.4.01.12-.21.7-.45,1.28Zm-70.81-56.1c-8.85-1.01-7.6,6.37-8.8,11.2-.8,3.23,1.67,5.35,4.86,6.2,8.05,2.13,16.08.15,24.11-.14,5.16-.18,10.32-.59,16.15-.93-11.61-7.52-24.08-11.23-36.33-16.33Z"/>
</svg>