<?xml version="1.0" encoding="UTF-8"?>
<svg id="LoseVine" xmlns="http://www.w3.org/2000/svg" viewBox="0 0 384 1080">
  <defs>
    <style>
      .cls-1 {
        fill: #8b8e3c;
      }

      .cls-2 {
        fill: #51612b;
      }

      .cls-3 {
        fill: #a97c50;
        stroke: #754c29;
        stroke-miterlimit: 10;
        stroke-width: 4px;
      }
    </style>
  </defs>
  <g>
    <path class="cls-1" d="m267.54,826.88c-27.42,0-52.21-19.54-53.25-20.37l-1.18-.94.59-1.4c.71-1.69,17.71-41.43,44.38-53.15l.38-.17h.42c.48,0,1.41-.29,2.48-.62,2.81-.87,7.51-2.33,15.36-2.33,6.52,0,14.18,1.01,22.77,3l.14.04c3.44,1.07,7.9,1.62,13.23,1.62,9.23,0,17.91-1.66,18-1.67l2.64-.51-.27,2.67c-.18,1.82-4.87,44.93-39.5,66.53-7.76,4.84-16.58,7.29-26.2,7.29Z"/>
    <path class="cls-2" d="m276.72,749.9c5.54,0,12.78.74,22.32,2.95,4.11,1.28,9.06,1.71,13.83,1.71,9.54,0,18.38-1.71,18.38-1.71,0,0-4.37,43.71-38.57,65.04-8.12,5.06-16.73,6.99-25.14,6.99-27.03,0-52.01-19.93-52.01-19.93,0,0,17.1-40.56,43.34-52.1,2.45,0,6.76-2.95,17.84-2.95m0-4c-8.15,0-13.03,1.52-15.95,2.42-.73.23-1.64.51-1.94.53h-.84l-.72.34c-27.39,12.04-44.7,52.49-45.42,54.21l-1.18,2.79,2.37,1.89c1.06.85,26.39,20.8,54.5,20.8,10,0,19.17-2.56,27.26-7.6,14.72-9.18,26.37-23.85,33.71-42.44,5.51-13.95,6.67-25.12,6.72-25.59l.54-5.35-5.27,1.02c-.08.02-8.6,1.64-17.62,1.64-5.14,0-9.39-.51-12.64-1.53l-.14-.04-.15-.03c-8.74-2.03-16.55-3.06-23.23-3.06h0Z"/>
  </g>
  <path class="cls-3" d="m270.7,874.99h-97.36v-35.28h37.53c6.6,0,12-5.4,12-12v-13.26c0-.47-.03-.93-.09-1.39v-51.15c0-6.6-5.4-12-12-12h-9.23c-6.6,0-12,5.4-12,12v40.54h-39.7c-6.6,0-12,5.4-12,12v65.8c0,1.17.18,2.3.49,3.37-.32,1.07-.49,2.2-.49,3.37v13.26c0,6.6,5.4,12,12,12h99.91v35.71h-67.42c-6.6,0-12,5.4-12,12v76.7s-3.62,33.35-20.1,44.72c0,0-3.57,2.68-3.57,11.48,0,14.36,13.62,14.36,13.62,14.36h67.4s13.62,0,13.62-14.36c0-8.8-3.57-11.48-3.57-11.48-16.18-11.17-19.96-43.51-20.09-44.67v-51.5h53.05c6.6,0,12-5.4,12-12v-86.23c0-6.6-5.4-12-12-12Z"/>
</svg>