<?xml version="1.0" encoding="UTF-8"?>
<svg id="Layer_21" data-name="Layer 21" xmlns="http://www.w3.org/2000/svg" xmlns:xlink="http://www.w3.org/1999/xlink" viewBox="0 0 205.78 284.08">
  <defs>
    <style>
      .cls-1, .cls-2 {
        fill: #fff;
      }

      .cls-1, .cls-3, .cls-4, .cls-5, .cls-6, .cls-7 {
        stroke-miterlimit: 10;
        stroke-width: 2px;
      }

      .cls-1, .cls-3, .cls-5, .cls-6, .cls-7 {
        stroke: #572d12;
      }

      .cls-8 {
        fill: #572d12;
      }

      .cls-9 {
        fill: #e8e3cd;
      }

      .cls-3, .cls-10 {
        fill: none;
      }

      .cls-11 {
        clip-path: url(#clippath-1);
      }

      .cls-4 {
        fill: #8e3b1e;
        stroke: #1c0e0a;
      }

      .cls-5 {
        fill: #864d20;
      }

      .cls-12 {
        clip-path: url(#clippath);
      }

      .cls-6 {
        fill: #f58f8a;
      }

      .cls-7 {
        fill: #562e15;
      }
    </style>
    <clipPath id="clippath">
      <path class="cls-10" d="m97.14,125.74c22.55-4.08,39.7,11.8,41.23,13.26,11.53,11.03,23.62,33.58,13.26,50.15-6.24,9.98-19.55,16.08-30.62,14.22-10.32-1.73-10.06-8.92-31.1-21.7-9.75-5.92-13.39-6.56-17.12-12.05-4.48-6.61-6.53-16.5-3.13-25.31,5.62-14.61,22.93-17.74,27.48-18.56Z"/>
    </clipPath>
    <clipPath id="clippath-1">
      <path class="cls-10" d="m37.58,158.25c-.27-3.32,7.11-3.81,11.13-11.35,3.45-6.48.16-10.2,2.29-16.92,2.97-9.37,14.74-19.67,26.62-16.71,6.75,1.69,12.72,7.77,14.81,14.55.21.68.65,2.08.78,3.98.35,4.89-1.59,8.65-3.32,11.9-2.18,4.11-4.61,6.82-5.52,7.8-2.4,2.59-11.35,12.15-25.06,13.49-10.2,1-21.4-2.73-21.73-6.75Z"/>
    </clipPath>
  </defs>
  <g id="Layer_15_copy" data-name="Layer 15 copy">
    <path class="cls-7" d="m127.47,205.89c.57-2.94-4.3-7.38-9.43-8.55-9.2-2.08-13.23,7.71-24.59,7.23-7.6-.32-9.05-4.84-15.67-3.86-7.81,1.16-14.79,8.77-13.5,12.05.57,1.44,2.91,2.51,32.79-.48,25.71-2.57,29.93-3.96,30.41-6.4Z"/>
    <path class="cls-7" d="m128.58,163.38c-6.11-5.95-13.78-4.52-16.15-4.08-10.95,2.04-20.22,13.25-21.76,25.83-.35,2.9-1.39,11.35,3.04,16.59,7.24,8.55,22.4.64,24.1-.27,2.01-1.08,17.28-9.6,16.85-23.93-.25-8.3-5.62-13.69-6.08-14.14Z"/>
    <path class="cls-7" d="m71.96,160.33c-23.66,11.97-31.85,13.64-34.09,12.02-.26-.19-1.6-1.26-2.32-.65-1.08.92-.15,5.17.33,6.35,2.65,6.57,23.63-.76,36.73-6.02"/>
    <path class="cls-6" d="m146.17,172.83c3.09-9.06,25.42-4.23,29.07-13.5,2.98-7.57-10.81-13.59-11.32-28.58-.36-10.49,5.91-21.98,15.54-26.59,10.75-5.14,22.79-.32,22.75.53-.04.8-10.86-1.89-19.13,4.32-7.02,5.27-8.41,14.12-8.5,14.75-2.12,14.88,13.43,20.12,13.41,34.15-.03,16.19-19.71,33.85-31.68,30.43-6.44-1.84-11.96-10.16-10.13-15.51Z"/>
  </g>
  <g id="Layer_14" data-name="Layer 14">
    <path class="cls-5" d="m95.69,125.74c22.55-4.08,39.7,11.8,41.23,13.26,11.53,11.03,23.62,33.58,13.26,50.15-6.24,9.98-19.55,16.08-30.62,14.22-10.32-1.73-10.06-8.92-31.1-21.7-9.75-5.92-13.39-6.56-17.12-12.05-4.48-6.61-6.53-16.5-3.13-25.31,5.62-14.61,22.93-17.74,27.48-18.56Z"/>
    <g class="cls-12">
      <path class="cls-9" d="m80.44,147.23c5.19,2.82,1.32,9.93,6.58,18.38,3.14,5.05,6.69,6,33.06,19.4,8.6,4.37,10.93,5.64,11.64,8.43,1.81,7.18-8.54,18.84-19.73,20.58-15.26,2.37-28.16-14.33-36.77-25.47-7.12-9.22-18.25-23.61-12.99-33.73,3.37-6.48,13.04-10.4,18.22-7.59Z"/>
    </g>
    <path class="cls-5" d="m96.59,154.59c-23.36,20.45-32.6,25.11-36.11,24.37-.41-.09-2.55-.63-3.15.24-.89,1.3,2.24,5.08,3.38,6.06,6.32,5.41,28.58-9.53,42.15-19.52"/>
  </g>
  <g id="Layer_17" data-name="Layer 17">
    <path class="cls-6" d="m80.22,115.31c-1.62-.76-1.68-3.24-2.09-9.13-1.17-16.63-2.24-18.3-.31-20.24,3.55-3.56,12.18-2.96,16.17,1.47,5.61,6.23-.47,17.27-4.08,21.79-2.33,2.91-7.02,7.35-9.69,6.11Z"/>
    <path class="cls-3" d="m82.81,83.74c1.12,1.68,5.58,8.82,4.04,18.27-1.15,7.01-4.98,11.55-6.62,13.29"/>
  </g>
  <g id="Layer_17_copy" data-name="Layer 17 copy">
    <path class="cls-6" d="m62.48,117.77c-1.78.17-3.09-1.95-6.42-6.82-9.42-13.75-11.2-14.65-10.51-17.29,1.26-4.87,9.01-8.72,14.69-6.92,7.99,2.53,8.34,15.13,7.51,20.86-.53,3.69-2.33,9.9-5.26,10.17Z"/>
  </g>
  <g id="Layer_13" data-name="Layer 13">
    <path class="cls-5" d="m36.05,158.56c-.29-3.37,7.44-3.87,11.64-11.53,3.61-6.59.17-10.36,2.39-17.19,3.1-9.52,15.42-19.99,27.85-16.97,7.06,1.71,13.31,7.9,15.5,14.78.62,1.95.78,3.52.82,4.04.78,9.21-6.08,16.48-9.25,20.02-3.36,3.76-12.44,12.4-26.22,13.71-10.68,1.02-22.39-2.77-22.74-6.85Z"/>
    <g class="cls-11">
      <path class="cls-9" d="m46.57,144.3c4.54-4.49,4.96-9.15,7.08-9.01,2.49.16,1.83,6.53,5.63,8.8,5.53,3.31,12.57-6.85,22.29-4.94,4.89.96,10.36,4.96,10.83,9.44,1,9.51-20.81,18.17-30.21,21.03-12.23,3.71-16.61,1.58-17.92.86-7.06-3.89-10.98-14.17-8.13-19.31,1.92-3.47,5.49-1.99,10.42-6.87Z"/>
    </g>
    <path class="cls-6" d="m46.45,150.38c-.74-.25-2.71,1.24-6.62,4.24-3.26,2.5-3.77,3.12-3.79,3.94-.03,1.99,2.93,3.52,4.94,4.55,2.32,1.2,3.85,1.99,5.12,1.46,3.67-1.52,3.35-13.16.35-14.19Z"/>
    <path class="cls-1" d="m64.23,141.08c.41.02.85-.03,5.64-2.56,3.36-1.77,5.04-2.67,5.44-3.23,2.54-3.57.94-12.04-4.03-15.62-.9-.65-4.53-3.02-8.34-1.23-4.32,2.03-5.94,8.06-5.68,12.29.32,5.07,3.52,10.21,6.96,10.35Z"/>
    <path class="cls-8" d="m58.42,136.48c.99.88,2,1.74,3.07,2.53s2.22,1.4,3.46,1.91c.56.23,1.43.04,1.93-.25s1.01-.9,1.15-1.49c.15-.64.11-1.36-.25-1.93l-.39-.51c-.31-.31-.68-.52-1.1-.64-.06-.02-.12-.05-.17-.07l.6.25c-1.06-.46-2.03-1.08-2.95-1.78l.51.39c-.79-.61-1.55-1.28-2.3-1.95-.5-.44-1.09-.73-1.77-.73-.61,0-1.35.27-1.77.73s-.76,1.1-.73,1.77.24,1.33.73,1.77h0Z"/>
    <path class="cls-8" d="m64.95,136.73l-.68-.4c-.29-.18-.6-.28-.93-.3-.33-.07-.66-.06-1,.04-.33.08-.61.23-.85.45-.27.18-.49.41-.64.7l-.25.6c-.12.44-.12.89,0,1.33l.25.6c.22.38.52.67.9.9l.68.4c.29.18.6.28.93.3.33.07.66.06,1-.04.33-.08.61-.23.85-.45.27-.18.49-.41.64-.7l.25-.6c.12-.44.12-.89,0-1.33l-.25-.6c-.22-.38-.52-.67-.9-.9h0Z"/>
    <path class="cls-8" d="m59.62,134.27c.63.09,1.24.26,1.83.5l-.45-.19c.53.23,1.03.52,1.5.87l-.38-.29c.46.36.86.76,1.22,1.21l-.29-.38c.38.5.7,1.04.95,1.62l-.19-.45c.2.48.36.97.46,1.48.19.96,1.39,1.6,2.31,1.31,1.03-.33,1.51-1.27,1.31-2.31-.69-3.53-3.68-6.49-7.26-7-.52-.07-.97-.09-1.44.19-.39.23-.76.67-.86,1.12-.11.48-.09,1.02.19,1.44.24.38.65.8,1.12.86h0Z"/>
    <path class="cls-2" d="m65.35,132.79c.06-.22.13-.42.22-.63l-.25.6c.17-.39.39-.76.64-1.1l-.39.51c.19-.24.39-.46.62-.67l-1.77.73c.76-.07,1.52-.14,2.29-.21.34.01.67-.06.96-.22.31-.1.58-.27.8-.52.43-.43.76-1.15.73-1.77s-.24-1.32-.73-1.77c-.46-.42-1.12-.79-1.77-.73-.52.05-1.03.1-1.55.14-.25.02-.49.04-.74.07l-.66.09c-.33.08-.61.23-.85.45-.12.09-.23.18-.34.28-.08.08-.16.15-.24.24-.84.9-1.47,1.99-1.8,3.18-.17.62-.07,1.37.25,1.93.3.52.9,1.01,1.49,1.15.64.15,1.36.11,1.93-.25s.97-.85,1.15-1.49h0Z"/>
  </g>
  <g id="Layer_20" data-name="Layer 20">
    <rect class="cls-4" x="42.08" y="167.97" width="17.43" height="23.02" transform="translate(-45.64 19.81) rotate(-15.33)"/>
    <rect class="cls-4" x="46.68" y="167.97" width="17.43" height="23.02"/>
    <rect class="cls-4" x="18.84" y="148.82" width="17.43" height="23.02" transform="translate(-18.78 4.39) rotate(-6.8)"/>
  </g>
  <g id="Layer_19" data-name="Layer 19">
    <path class="cls-6" d="m64.36,180.18c-.14-.36-2-4.81-6.04-5.09-3.81-.27-7.46,3.32-7.52,7.25-.05,3.23,2.36,5.7,4.59,6.79.35.17,4.51,2.12,7.5-.23,2.74-2.15,2.44-6.27,1.47-8.71Z"/>
    <path class="cls-6" d="m37.5,175.29c.43-3.09-1.03-7.22-4.58-8.24-2.68-.77-5.96.42-7.27,2.89-1.4,2.65.15,5.52.95,7.02.68,1.27,2.48,4.6,5.32,4.61,2.85,0,5.17-3.35,5.58-6.28Z"/>
  </g>
  <g id="Layer_15" data-name="Layer 15">
    <path class="cls-6" d="m158.41,208.78c.57-2.94-4.3-7.38-9.43-8.55-9.2-2.08-13.23,7.71-24.59,7.23-7.6-.32-9.05-4.84-15.67-3.86-7.81,1.16-14.79,8.77-13.5,12.05.57,1.44,2.91,2.51,32.79-.48,25.71-2.57,29.93-3.96,30.41-6.4Z"/>
    <path class="cls-5" d="m159.52,166.27c-6.11-5.95-13.78-4.52-16.15-4.08-10.95,2.04-20.22,13.25-21.76,25.83-.35,2.9-1.39,11.35,3.04,16.59,7.24,8.55,22.4.64,24.1-.27,2.01-1.08,17.28-9.6,16.85-23.93-.25-8.3-5.62-13.69-6.08-14.14Z"/>
  </g>
</svg>