<svg xmlns="http://www.w3.org/2000/svg" viewBox="0 0 175 174.95"><defs><style>.cls-1{fill:#fcd6c8;}.cls-2{fill:#603813;}.cls-3{fill:#feedb3;}.cls-11,.cls-3,.cls-5,.cls-6,.cls-9{stroke:#141d3c;stroke-miterlimit:10;stroke-width:1.38px;}.cls-4{fill:#151d3b;}.cls-5{fill:#232d55;}.cls-10,.cls-6{fill:#ccd6ef;}.cls-7{fill:#94a6cf;}.cls-8{fill:#3e4870;}.cls-9{fill:#95a7d1;}.cls-11{fill:#fff;}</style></defs><g id="Layer_1" data-name="Layer 1"><g id="Layer_27" data-name="Layer 27"><rect class="cls-1" x="3" y="3" width="169" height="168.95"/><path class="cls-2" d="M169,6V169H6V6H169m6-6H0V175H175V0Z"/></g></g><g id="Layer_2" data-name="Layer 2"><path class="cls-3" d="M105.21,156.34l-11.83-27.6,20.26-3.83-8.3,31.42A.07.07,0,0,1,105.21,156.34Z"/><path class="cls-3" d="M105.14,156.62l19.17-5.94a5.48,5.48,0,0,1,5.62,1.49l14.4,15.43a.45.45,0,0,1-.46.74l-38.73-11.59A.07.07,0,0,1,105.14,156.62Z"/><path class="cls-4" d="M132.67,164.28a7.81,7.81,0,0,1,2.85-3.23,2.27,2.27,0,0,1,1.44-.4,2.09,2.09,0,0,1,1.1.7c1.92,2.15,3.37,4,5.29,6.1C139.71,166.66,136.51,165.48,132.67,164.28Z"/><path class="cls-3" d="M105.85,156.75l-9.75-3.13a2.73,2.73,0,0,0-2.86.79l-7.33,8.13a.24.24,0,0,0,.23.39l19.71-6.1S105.89,156.76,105.85,156.75Z"/><path class="cls-4" d="M91.84,160.79a4,4,0,0,0-1.45-1.7,1.14,1.14,0,0,0-.73-.21,1.11,1.11,0,0,0-.56.37c-1,1.13-1.72,2.08-2.69,3.21A56.5,56.5,0,0,0,91.84,160.79Z"/><polygon class="cls-5" points="2.54 142.74 65.67 133.03 29.74 155.56 2.54 142.74"/><polygon class="cls-6" points="155.44 56.1 162.46 70.37 130.02 130.53 88.84 137.09 55.01 147.9 73.31 105.45 90.33 63.35 109.31 56.1 155.44 56.1"/><path class="cls-7" d="M109.41,56.82,133.66,74.1a11.09,11.09,0,0,0,3.46,1.23,12.4,12.4,0,0,0,13.66-7.73l4.32-10.78Z"/><polygon class="cls-5" points="113.47 49.84 129.22 62.17 109.95 126.81 53.06 150.43 87.98 63.83 113.47 49.84"/><path class="cls-8" d="M84.92,73.29,91.61,87.6a3.55,3.55,0,0,0,5.16,1.57l31.3-25.49L116,104,87,122l.82-9.23c.23-6.58-3.91-9.22-9.31-3L64.83,124.69Z"/><path class="cls-9" d="M103.69,49.32l3.91-28,41.14-10.75,10.48,43.24a.67.67,0,0,1-.65.85l-64.67.42a.14.14,0,0,1-.08-.25Z"/><path class="cls-10" d="M157.69,52.29,127.35,47.2a8.61,8.61,0,0,1-5.64-3.55l-4.83-6.87a6,6,0,0,1,.25-7.28l6.07-7.44a5.14,5.14,0,0,1,3.88-1.9l23.1-.5Z"/><path class="cls-3" d="M148.42,35l4.08-5.06a2.75,2.75,0,0,1,3.92-.36l8,6.79a7.41,7.41,0,0,1,2.36,7.53l-3.45,13a.48.48,0,0,1-.94,0l-.3-1.53A18.85,18.85,0,0,0,153.46,43l-4.12-2.55A3.67,3.67,0,0,1,148.42,35Z"/><path class="cls-4" d="M160.39,49.05l-1.15-1.6c1.16-1.35,5.28-3.89,6.43-2.23.06.09.09,0,.08,0L163.11,56.1c-.2.79-1.05-3.08-1.42-3.8Z"/><path class="cls-11" d="M144.34,32.58a.12.12,0,0,0,0-.23l-17.36-7c-1.92-.55-3.47,1.71-3.88,3.53l-.2.91a3,3,0,0,0,3.47,3.64Z"/><ellipse cx="137.95" cy="31.12" rx="1.38" ry="1.95" transform="translate(-2.75 45.34) rotate(-18.48)"/></g></svg>