<svg xmlns="http://www.w3.org/2000/svg" viewBox="0 0 210 175"><defs><style>.cls-1{fill:#fdd8c9;}.cls-2{fill:#603913;}.cls-3{fill:#feedb3;}.cls-11,.cls-3,.cls-5,.cls-6,.cls-9{stroke:#141d3c;stroke-miterlimit:10;stroke-width:1px;}.cls-4{fill:#151d3b;}.cls-5{fill:#232d55;}.cls-10,.cls-6{fill:#ccd6ef;}.cls-7{fill:#94a6cf;}.cls-8{fill:#3e4870;}.cls-9{fill:#95a7d1;}.cls-11{fill:#fff;}</style></defs><g id="Layer_1" data-name="Layer 1"><g id="Layer_27" data-name="Layer 27"><rect class="cls-1" x="3" y="3" width="204" height="168.9"/><path class="cls-2" d="M204,6.1V169H6V6.1H204m6-6H0V175H210V.1Z"/></g></g><g id="Layer_6" data-name="Layer 6"><path class="cls-3" d="M160.76,162.14l-8.56-20,14.66-2.78-6,22.74A.05.05,0,0,1,160.76,162.14Z"/><path class="cls-3" d="M160.71,162.34l13.87-4.3a4,4,0,0,1,4.08,1.08l10.42,11.16a.33.33,0,0,1-.34.54l-28-8.38S160.67,162.35,160.71,162.34Z"/><path class="cls-4" d="M180.64,167.88a5.67,5.67,0,0,1,2.06-2.34,1.77,1.77,0,0,1,1-.29,1.56,1.56,0,0,1,.8.51c1.39,1.56,2.44,2.86,3.83,4.41C185.73,169.61,183.41,168.75,180.64,167.88Z"/><path class="cls-3" d="M161.23,162.44l-7.06-2.27a2,2,0,0,0-2.07.57l-5.3,5.89a.17.17,0,0,0,.17.28l14.26-4.42S161.25,162.44,161.23,162.44Z"/><path class="cls-4" d="M151.09,165.36a2.93,2.93,0,0,0-1.05-1.23.85.85,0,0,0-.53-.16.84.84,0,0,0-.4.27c-.71.82-1.24,1.51-2,2.33C148.5,166.27,149.68,165.82,151.09,165.36Z"/><polygon class="cls-5" points="86.47 152.3 132.15 145.27 106.15 161.57 86.47 152.3"/><polygon class="cls-6" points="197.12 89.6 202.19 99.92 178.72 143.46 148.92 148.2 124.44 156.03 137.68 125.31 150 94.84 163.74 89.6 197.12 89.6"/><path class="cls-7" d="M163.81,90.11l17.54,12.51a8.46,8.46,0,0,0,2.51.9,9,9,0,0,0,9.88-5.6l3.13-7.81Z"/><polygon class="cls-5" points="166.74 85.07 178.14 93.99 164.19 140.77 123.03 157.86 148.3 95.19 166.74 85.07"/><path class="cls-8" d="M146.09,102l4.83,10.35a2.57,2.57,0,0,0,3.74,1.14l22.65-18.45-8.76,29.17-21,13,.59-6.67c.17-4.77-2.83-6.68-6.73-2.14l-9.9,10.76Z"/><path class="cls-9" d="M159.67,84.69l2.82-20.28,29.78-7.79,7.58,31.3a.48.48,0,0,1-.47.61l-46.8.31a.1.1,0,0,1-.05-.18Z"/><path class="cls-10" d="M198.74,86.84l-22-3.68a6.31,6.31,0,0,1-4.09-2.58l-3.49-5a4.35,4.35,0,0,1,.19-5.26L173.78,65a3.71,3.71,0,0,1,2.81-1.37l16.72-.36Z"/><path class="cls-3" d="M192,74.32l3-3.66a2,2,0,0,1,2.84-.26l5.76,4.91a5.35,5.35,0,0,1,1.7,5.45l-2.49,9.43a.35.35,0,0,1-.68,0l-.22-1.11a13.69,13.69,0,0,0-6.22-9l-3-1.84A2.66,2.66,0,0,1,192,74.32Z"/><path class="cls-4" d="M200.7,84.5l-.83-1.16c.83-1,3.82-2.82,4.65-1.62,0,.07.06,0,.06,0l-1.91,7.86c-.15.57-.76-2.23-1-2.75Z"/><path class="cls-11" d="M189.08,72.58a.09.09,0,0,0,0-.17l-12.56-5.08c-1.39-.4-2.51,1.24-2.81,2.55l-.14.66a2.18,2.18,0,0,0,2.51,2.63Z"/><ellipse cx="184.46" cy="71.52" rx="1" ry="1.41" transform="translate(-13.16 62.17) rotate(-18.48)"/></g></svg>