<svg id="bush_1" data-name="bush 1" xmlns="http://www.w3.org/2000/svg" viewBox="0 0 175 175"><defs><style>.cls-1{fill:#dfaa77;stroke:#a6774b;}.cls-1,.cls-2{stroke-miterlimit:10;}.cls-1,.cls-2,.cls-3{stroke-width:2px;}.cls-2{fill:#4c9dbf;}.cls-2,.cls-3{stroke:#3f76ba;}.cls-3{fill:none;stroke-linecap:round;stroke-linejoin:round;}</style></defs><path class="cls-1" d="M5.49,96.68,1.72,90.9a1.26,1.26,0,0,1,.51-1.82l10.31-4.89a1.25,1.25,0,0,1,.54-.12H25.51a1.33,1.33,0,0,0,.62-.16L38,77.18a1.22,1.22,0,0,1,.62-.16h68.05a1.33,1.33,0,0,1,.62.16L117,82.66a1.22,1.22,0,0,0,.62.16h43.61a1.26,1.26,0,0,1,.74.24l11.05,8a1.26,1.26,0,0,1,0,2l-4.33,3.34a1.26,1.26,0,0,1-.77.26H5.49"/><path class="cls-2" d="M106.72,81.08l9,4.91a2.69,2.69,0,0,0,1.27.32h43a2.69,2.69,0,0,1,1.69.6l6.82,5.58a2.66,2.66,0,0,1-.12,4.22l-4.61,3.34a2.65,2.65,0,0,1-1.56.51H9.49a2.67,2.67,0,0,1-2.22-1.19L4.55,95.26a2.66,2.66,0,0,1,1.3-4l7.46-2.74a2.5,2.5,0,0,1,.89-.16l12.31-.11a2.65,2.65,0,0,0,1.34-.37l11.37-6.75a2.7,2.7,0,0,1,1.36-.37h64.87a2.69,2.69,0,0,1,1.27.32Z"/><path class="cls-3" d="M32.61,93.89c5.12,0,7.48-2.51,7.48-2.51S42.83,93.9,46,93.9s6.2-2.5,6.2-2.5a11.14,11.14,0,0,0,6.37,2.54A9,9,0,0,0,64.4,91.4a10.33,10.33,0,0,0,6.37,2.54"/><path class="cls-3" d="M77.25,86.81c4,0,5.92-1.8,5.92-1.8a8.33,8.33,0,0,0,4.65,1.81A9.66,9.66,0,0,0,92.72,85a9.26,9.26,0,0,0,5,1.82A7.37,7.37,0,0,0,102.4,85a8.58,8.58,0,0,0,5,1.82"/><path class="cls-3" d="M115.05,96.64c4,0,5.92-1.8,5.92-1.8a8.33,8.33,0,0,0,4.65,1.81,9.66,9.66,0,0,0,4.9-1.79,9.34,9.34,0,0,0,5.66,1.82"/></svg>