<svg xmlns="http://www.w3.org/2000/svg" viewBox="0 0 175 175"><defs><style>.cls-1{fill:#fcd6c8;}.cls-2{fill:#603813;}.cls-3{fill:#493733;stroke:#291a19;}.cls-3,.cls-5{stroke-miterlimit:10;stroke-width:1.27px;}.cls-4{fill:#beb3af;}.cls-5{fill:#fff;stroke:#000;opacity:0.86;}.cls-6{fill:#141414;}.cls-7{fill:#f9f8f6;}.cls-8{fill:#fdda38;}</style></defs><g id="Layer_1" data-name="Layer 1"><g id="Layer_27" data-name="Layer 27"><rect class="cls-1" x="3" y="3.03" width="169" height="168.95"/><path class="cls-2" d="M169,6V169H6V6H169m6-6H0V175H175V0Z"/></g></g><g id="Layer_5" data-name="Layer 5"><path class="cls-3" d="M49.69,91.36c-3.44-12.63.44-26.65,8.68-36.82S78.8,37.83,91.56,34.88c16.59-3.84,34.83-1.71,49.18,7.45s24.18,25.72,23.62,42.74c-.19,5.51-1.6,11.33-5.6,15.13-5.49,5.24-14,5.18-21.59,4.46s-15.82-1.61-22.15,2.57l25.2-17.73c2.35-1.65,4.86-3.52,5.65-6.29,1.3-4.57-2.75-9-7-11.09A28,28,0,0,0,111,74.06c-6.47,4.48-10.72,11.5-16.73,16.58C82.12,100.9,62.78,101.37,49.69,91.36Z"/><path class="cls-4" d="M120.85,104.07c9.05-3.1,12.93-5.29,21-10.37,4.18-2.61,8.49-5.88,9.68-10.66,1.25-5-1.39-10.28-5-14-7-7-14.18-11.33-24-10.42-7.73.71-18.55,5.16-24.68,9.93a40.54,40.54,0,0,0-9.41,10.47A24.62,24.62,0,0,0,85,87.2c-.84,4.26,0,8.66.81,12.92,15.27-17.24,19.91-23,24.7-26.46,2-1.49,9.7-3.44,15-4.35a22.85,22.85,0,0,1,13.63,2.11,14.7,14.7,0,0,1,6.58,6.78,7.66,7.66,0,0,1-1.11,8.67c-2.8,3.06-4.83,3.63-8.49,6.35C128.76,98.66,127.78,98.93,120.85,104.07Z"/><path class="cls-3" d="M91.39,98.24a57.67,57.67,0,0,1,12.76,2.19c4.11,1.36,8,3.77,10.36,7.4s2.88,8.6.61,12.29c-1.52,2.48-4.13,4.2-5.39,6.83a21.8,21.8,0,0,0-1.29,4.88,8.51,8.51,0,0,1-2.15,4.5c-1.24,1.15-3.32,1.54-4.61.47s-.92-3.69.74-4a12.25,12.25,0,0,1-3.34,4.31c-1.5,1.05-3.74,1.29-5.08,0s-.83-4.05,1-4.29a13.65,13.65,0,0,0-4.65,1.83c-1.5.75-3.23,1.37-4.83.89s-2.78-2.54-1.82-3.92c.66-.94,1.94-1.15,3.06-1.4A18.63,18.63,0,0,0,100.91,115a55.42,55.42,0,0,1-14.71-4.82c-1.77-.87-3.63-2-4.26-3.86-.73-2.21.62-4.68,2.56-6A10.7,10.7,0,0,1,91.39,98.24Z"/><path class="cls-3" d="M45.47,100.17c-6.32-.26-12.79-.5-18.83,1.4S15,108,13.57,114.12C12.21,120,14.78,126,17.39,131.41c-2.24,0-4.61,0-6.55,1.13s-3.18,3.78-2,5.69c1.05,1.69,3.52,2,5.36,1.22a12.74,12.74,0,0,0,4.45-3.92c-1.88,2.26,0,6.38,3,6.42s4.94-4,3.12-6.35c-.18,2,2.28,3.65,4.2,3a4.21,4.21,0,0,0,2.32-5,6.11,6.11,0,0,0-4.33-3.93,29.43,29.43,0,0,0,1.75-15.2,30.18,30.18,0,0,0,19.64-3.88A12,12,0,0,0,53,106.12C54,104.21,54.2,100.52,45.47,100.17Z"/><path class="cls-4" d="M42.94,105.69a32.67,32.67,0,0,1-14.62,4.65,2.82,2.82,0,0,0-2.6,2.53l.1,6.91c-.12,1.14-1.74,8.93-1.23,9.62a1.09,1.09,0,0,0,1.25.39c.37-.15.44-.43.86-1.26a10.15,10.15,0,0,0,1-2.84c.77-4.23,1.47-7.52,0-12.2,2.75,1.21,5.87.57,8.86.18a49.87,49.87,0,0,0,8.72-2.25c1.75-.57,3.76-1.4,4.18-3.23a3,3,0,0,0-1.13-3C46.38,103.65,44.31,104.85,42.94,105.69Z"/><path class="cls-4" d="M87.42,107.1a20.4,20.4,0,0,1,13.36,2.43,7.87,7.87,0,0,1,3.91,4.23c.75,2.58-.78,5.31-2.73,7.16s-3.41,2.5-5.22,4.49c2.89-3.3,3.43-7,5-11.07-4-.33-10.16-2.15-15.45-4.16-.59-.22-1.25-.53-1.42-1.13a1.39,1.39,0,0,1,.86-1.52A6.27,6.27,0,0,1,87.42,107.1Z"/><path class="cls-5" d="M88.49,94.4l5.85,2.84a2.64,2.64,0,0,0,2.84-.36c3.28-2.69,9.9-10.85.55-15.3-8.07-3.85-12,5.75-10.91,10C87.1,92.76,87.44,93.89,88.49,94.4Z"/><ellipse class="cls-6" cx="92.29" cy="87.72" rx="7.39" ry="5.1" transform="translate(-28.41 128.27) rotate(-62.12)"/><ellipse class="cls-7" cx="96.71" cy="88.73" rx="1.85" ry="3.59" transform="translate(-25.02 137.81) rotate(-64.5)"/><path class="cls-5" d="M46.85,97.43l-6.1,2.26A2.67,2.67,0,0,1,38,99.05c-3-3-8.8-11.76.93-15.28,8.4-3,11.35,6.88,9.89,11C48.39,95.93,48,97,46.85,97.43Z"/><ellipse class="cls-6" cx="43.71" cy="90.41" rx="5.1" ry="7.39" transform="translate(-31.07 23.38) rotate(-22.33)"/><ellipse class="cls-7" cx="39.22" cy="90.99" rx="3.59" ry="1.85" transform="matrix(0.94, -0.34, 0.34, 0.94, -28.69, 18.84)"/><path class="cls-3" d="M78.76,82.22a55.38,55.38,0,0,0-29.43,4,22,22,0,0,0-8,5.29C39.23,94,38,97.34,38.84,100.45A12.94,12.94,0,0,0,43,106.37a37.64,37.64,0,0,0,24.5,9.92,34.23,34.23,0,0,0,24.46-9.7c3.39-3.36,6.13-8,5.23-12.71-.7-3.6-3-5.61-6.21-7.39A34.73,34.73,0,0,0,78.76,82.22Z"/><path class="cls-4" d="M96.71,98.2c-1.34,3.67-5.07,7.35-7,9.35a22.38,22.38,0,0,1-4.89,3.94c-6.34,3.66-15,5.21-23.8,3.56-9.06-1.69-19.31-9.36-20.86-13.12a12,12,0,0,1-.82-2.78,2.29,2.29,0,0,1,1.39-1.92,5.67,5.67,0,0,1,2.45-.39c5.81.07,10.17,2.38,15.65,4.32s8.21,2.69,13.81,2.91c3.52.14,8.95-3.15,12.09-4.74,2.6-1.33,6.12-1.75,9.22-2.76C94.93,96.25,97.06,97.24,96.71,98.2Z"/><path class="cls-3" d="M119.82,58c-3.26,3-6.53,10.44-6.45,14.87a16,16,0,0,0,5.52,11.67c-2.38.69-4.9-.2-7.37-.21s-5.43,1.68-5,4.13c.27,1.72,2.19,2.79,3.93,2.73a11,11,0,0,0,4.86-1.81A8,8,0,0,0,111.34,91c-1,1-1.36,2.88-.28,3.84.91.81,2.32.62,3.47.25a16.11,16.11,0,0,0,7-4.56c-1.36.35-1.33,2.55-.16,3.31a3.91,3.91,0,0,0,4-.32,8.74,8.74,0,0,0,3.84-9.84c3.22-3.11,3.54-6.82,5.12-11s1.11-12.82-2.58-15.35"/><path class="cls-8" d="M82.39,84.85a6.52,6.52,0,0,0-4.17.53c-.37.19-.76.47-.77.88,0,.57.68.84,1.23.93a12.55,12.55,0,0,0,7.57-1.28A37.58,37.58,0,0,0,82.39,84.85Z"/><path class="cls-8" d="M52.68,88.2a3.73,3.73,0,0,0-1.72.34A1.27,1.27,0,0,0,50.28,90c.28.73,1.27.82,2,.72A17.46,17.46,0,0,0,56,89.9c.55-.2,1.18-.51,1.27-1.09a1.18,1.18,0,0,0-1-1.21C55.65,87.48,55.12,88.13,52.68,88.2Z"/><path class="cls-8" d="M72.59,48.61a7.65,7.65,0,0,0-2.28-.22,2.6,2.6,0,0,0-2,1.08,1.6,1.6,0,0,0,.27,2.07,2.19,2.19,0,0,0,1.76.2c1.56-.34,3.06-1.24,4.63-1,.58.09,1.12.34,1.7.47A2,2,0,0,0,78.4,51a1.69,1.69,0,0,0,0-2.27,3.87,3.87,0,0,0-2.23-1.07,11.8,11.8,0,0,0-5.6.28L69.49,50C71.15,49.62,72.81,49.29,72.59,48.61Z"/><path class="cls-8" d="M114.56,36.84c-1,.25-2,.14-2.92.46s-1.77,1.36-1.34,2.25a1.84,1.84,0,0,0,1.64.87c.65,0,1.3-.13,2-.08a8.48,8.48,0,0,1,3,1.16,4,4,0,0,0,3.07.53,2.74,2.74,0,0,0,1.6-3.14A3.86,3.86,0,0,0,119,36.24C117.72,35.83,116.53,36.32,114.56,36.84Z"/><path class="cls-8" d="M62.68,57.56a2.68,2.68,0,0,0-1.28.37A.93.93,0,0,0,61,59.09a1.24,1.24,0,0,0,1.11.45,6,6,0,0,0,3.73-1.27c.33-.26.65-.69.43-1a.87.87,0,0,0-.73-.29A16.52,16.52,0,0,0,62.68,57.56Z"/><path class="cls-8" d="M91.84,50.61A2.54,2.54,0,0,0,91,52.49a3.36,3.36,0,0,0,3.07.15,1.61,1.61,0,0,0,1.08-1.34A1.45,1.45,0,0,0,93.83,50,2.4,2.4,0,0,0,91.84,50.61Z"/><path class="cls-8" d="M95.28,38.27a4.85,4.85,0,0,0-1.74,0,1.41,1.41,0,0,0-.06,2.8,4.72,4.72,0,0,0,2.21,0,3.52,3.52,0,0,0,1.79-.64,1.21,1.21,0,0,0,.19-1.7C97,38.09,95.77,38.68,95.28,38.27Z"/><path class="cls-8" d="M59.78,66.35,57.66,67a1.65,1.65,0,0,0,1.56,1.15,4.7,4.7,0,0,0,2-.48c.56-.23,1.22-.62,1.18-1.22a1,1,0,0,0-1-.84C60.89,65.57,60.6,66.1,59.78,66.35Z"/><path class="cls-8" d="M95.18,59a4,4,0,0,0-2-.21,1.38,1.38,0,0,0-1.13,1.42c.14.88,1.28,1.15,2.17,1.07a8.91,8.91,0,0,0,2.35-.53,1.61,1.61,0,0,0,.94-.7,1.33,1.33,0,0,0-2.36-1Z"/><path class="cls-8" d="M132,72.69a3.38,3.38,0,0,0-1.79-2.11,1.91,1.91,0,0,0-2.43.86c-.43,1,.31,2.1,1,2.94s1.41,1.53,2.32,1.29a1.7,1.7,0,0,0,1.13-1.53A3.33,3.33,0,0,0,132,72.69Z"/><path class="cls-8" d="M119.1,67.91a4.67,4.67,0,0,0-.76,8,1.85,1.85,0,0,0,2.31.15,1.82,1.82,0,0,0,.29-1.67,7.32,7.32,0,0,1-.36-1.72,5.06,5.06,0,0,1,.91-2.33A2.94,2.94,0,0,0,122,68C121.66,67.19,120.63,67.21,119.1,67.91Z"/><path class="cls-8" d="M130.67,59.65A2.88,2.88,0,0,0,129.12,62c0,1,1.1,1.92,2,1.53a1.73,1.73,0,0,0,.81-2A4.29,4.29,0,0,0,130.67,59.65Z"/><path class="cls-8" d="M149.7,53.57a1.47,1.47,0,0,0-2.14-.09,2.38,2.38,0,0,0-.52,2.27,7.29,7.29,0,0,0,1.1,2.17,6.3,6.3,0,0,0,1.69,1.9,2.13,2.13,0,0,0,2.39.07c1-.73.76-2.24.21-3.31A7.71,7.71,0,0,0,149.7,53.57Z"/><path class="cls-8" d="M154.75,64.86a6,6,0,0,0-.29,3.49,2.19,2.19,0,0,0,2.73,1.55,2,2,0,0,0,1.1-1.6,4,4,0,0,0-.33-2,3.35,3.35,0,0,0-1.16-1.6A1.74,1.74,0,0,0,154.75,64.86Z"/><path class="cls-8" d="M157.25,86.2a3.83,3.83,0,0,0-3.29.29,2.72,2.72,0,0,0-1.18,3,2.81,2.81,0,0,0,2.91,1.79,4.51,4.51,0,0,0,3.09-1.81,3.92,3.92,0,0,0,.91-2,2.14,2.14,0,0,0-.84-2C158.23,85,157.27,85.11,157.25,86.2Z"/><path class="cls-8" d="M130.72,46.93A1.54,1.54,0,0,0,128.38,48a2.49,2.49,0,0,0,1.28,2,4.64,4.64,0,0,0,2.34.89,2.77,2.77,0,0,0,2.27-.9,2,2,0,0,0,.16-2.34C133.93,47,132.82,46.79,130.72,46.93Z"/><path class="cls-8" d="M78,68a1.77,1.77,0,0,0-1.32,2.2,2.49,2.49,0,0,0,2.16,1.67,2.79,2.79,0,0,0,2.56-1.08,2.27,2.27,0,0,0-.09-2.7C80.62,67.32,79.54,67.75,78,68Z"/><path class="cls-8" d="M69.35,93.36a5.83,5.83,0,0,0-1.9-.19,1.87,1.87,0,0,0-1.52,1c-.51,1.16.69,2.35,1.85,2.83a4.6,4.6,0,0,0,3.09.31A2.44,2.44,0,0,0,72.64,95C72.57,93.94,71.33,93.07,69.35,93.36Z"/><path class="cls-8" d="M67.56,84.66a4.59,4.59,0,0,0-1.72.52,1.52,1.52,0,0,0-.75,1.53c.24,1,1.63,1.15,2.68,1.05A4.88,4.88,0,0,0,70,87.2a1.5,1.5,0,0,0-.79-2.86A8,8,0,0,0,67.56,84.66Z"/><path class="cls-8" d="M83.09,38.84a11.7,11.7,0,0,0-5.3,2.64c-.61.52-1.19,1.38-.76,2.06s1.25.56,2,.45l9.09-1.45a3.2,3.2,0,0,0,2.26-1c.71-1-.07-2.53-1.21-3S86.66,38.1,83.09,38.84Z"/><path class="cls-8" d="M56.77,73.16a4.79,4.79,0,0,0-4.08,1.29,3.79,3.79,0,0,0-.8,4.1,3.14,3.14,0,0,0,3.69,1.69c1.47-.5,2.34-2.15,3.84-2.6a10.48,10.48,0,0,0,2.45-.53,2.19,2.19,0,0,0,.71-2.7,3.53,3.53,0,0,0-2.32-1.83A4.09,4.09,0,0,0,56.77,73.16Z"/><path class="cls-8" d="M45.52,91.16a3.29,3.29,0,0,0-.93,2.24,1.59,1.59,0,0,0,1.86-.73A1,1,0,0,0,45.52,91.16Z"/><path class="cls-8" d="M112.19,109.14a2.24,2.24,0,1,0,1.07,3.2,2.28,2.28,0,0,0-.68-2.94,2.16,2.16,0,0,0-2.91.65C109.1,111,109.51,112.41,112.19,109.14Z"/><path class="cls-8" d="M19.14,109.15a5,5,0,0,0-1.38.64,1.6,1.6,0,0,0-.68,1.3,1.56,1.56,0,0,0,1.68,1.26,3.59,3.59,0,0,0,2.06-1,3,3,0,0,0,.79-.91,1.19,1.19,0,0,0,0-1.17c-.37-.59-1.23-.55-1.92-.45a2.89,2.89,0,0,0-1.33.42C18,109.53,17.75,110.07,19.14,109.15Z"/><path class="cls-8" d="M28,104.69a1,1,0,0,0-1.32.79,1.2,1.2,0,0,0,1.15,1.18,1.33,1.33,0,1,0-1.27-1.44C26.53,105.91,27.1,106.59,28,104.69Z"/><path class="cls-8" d="M17.56,114.67a1.16,1.16,0,1,0,.11,2.3,1.18,1.18,0,1,0-.47-2.3,1.24,1.24,0,0,0-.81,1.58C16.63,116.87,17.46,117.18,17.56,114.67Z"/><path class="cls-8" d="M138.57,99.24a3.21,3.21,0,0,0-1.45-.31,1.12,1.12,0,0,0-1.05.9c-.06.71.75,1.16,1.46,1.28a6,6,0,0,0,2.54-.12c.47-.13,1-.41,1-.89s-.54-.83-1-1C139.09,98.85,138.07,98.78,138.57,99.24Z"/><path class="cls-8" d="M157.25,94.47a2.74,2.74,0,0,0-1.08.6,1,1,0,0,0-.18,1.14.91.91,0,0,0,1,.28,1.85,1.85,0,0,0,.87-.67,1.92,1.92,0,0,0,.48-1,.94.94,0,0,0-.46-.94c-.63-.3-1.26.39-1.62,1a1.65,1.65,0,0,0-.33,1.28C156.08,96.6,156.84,96.72,157.25,94.47Z"/><path class="cls-8" d="M152.08,100.12a2.48,2.48,0,0,0-1.48-.26,1.11,1.11,0,0,0-.93,1c0,.78,1.05,1.1,1.82,1a2.17,2.17,0,0,0,1.16-.5,1.2,1.2,0,0,0,.38-1.16c-.23-.78-1.32-.93-2.05-.59a1.73,1.73,0,0,0-1.09,1.31C149.82,101.53,150.36,102.16,152.08,100.12Z"/><path class="cls-8" d="M104.08,102a3.39,3.39,0,0,0-2.09,0,2,2,0,0,0-1.31,1.55,1.45,1.45,0,0,0,1.08,1.6c.84.15,1.57-.56,2.4-.73a8.18,8.18,0,0,1,1.4,0,1.53,1.53,0,0,0,1.24-.55,1.23,1.23,0,0,0-.41-1.56,3.06,3.06,0,0,0-1.68-.49C104.12,101.83,103.51,101.82,104.08,102Z"/><path class="cls-8" d="M105.37,105.48a3.43,3.43,0,0,0-1.51,1.36,1.6,1.6,0,0,0,2,1,1.52,1.52,0,0,0,.9-2,1.46,1.46,0,0,0-2-.62,1.39,1.39,0,0,0-.14,2.11C105.13,107.92,106.25,107.65,105.37,105.48Z"/><path class="cls-8" d="M126.07,81a4.44,4.44,0,0,0-2.26,0,1.54,1.54,0,0,0-1.06,1.78,1.42,1.42,0,0,0,1.14.87,2.88,2.88,0,0,0,1.47-.22,2.74,2.74,0,0,0,1.31-.9,1.33,1.33,0,0,0,.09-1.5,1.88,1.88,0,0,0-2-.44,2.77,2.77,0,0,0-2,1.28C122.45,82.58,122.92,83.69,126.07,81Z"/><path class="cls-8" d="M145.65,59.77a3.36,3.36,0,0,0-2.49.6,2.63,2.63,0,0,0,3.12,1.74c.63-.18,1.24-.74,1.15-1.39a1.61,1.61,0,0,0-1.13-1.12,2.87,2.87,0,0,0-1.58-.21,1.57,1.57,0,0,0-1.21.94,1.53,1.53,0,0,0,1.08,1.89C145.37,62.44,146.24,62.06,145.65,59.77Z"/><path class="cls-8" d="M111.08,47.43a5.13,5.13,0,0,0-2,.28,1.55,1.55,0,0,0,.24,3,4.66,4.66,0,0,0,2.19-.13,5.15,5.15,0,0,0,2-.82,1.92,1.92,0,0,0,.77-1.91,2.49,2.49,0,0,0-2-1.5c-1.33-.35-3-.23-3.72.95a2.39,2.39,0,0,0,.73,3C110.27,51,111.5,51.09,111.08,47.43Z"/></g></svg>