<svg xmlns="http://www.w3.org/2000/svg" viewBox="0 0 210 175"><defs><style>.cls-1{fill:#fdd8c9;}.cls-2{fill:#603913;}.cls-3{fill:#493733;stroke:#291a19;}.cls-3,.cls-5{stroke-miterlimit:10;stroke-width:0.97px;}.cls-4{fill:#beb3af;}.cls-5{fill:#fff;stroke:#000;opacity:0.86;}.cls-6{fill:#141414;}.cls-7{fill:#f9f8f6;}.cls-8{fill:#fdda38;}</style></defs><g id="Layer_1" data-name="Layer 1"><g id="Layer_27" data-name="Layer 27"><rect class="cls-1" x="3" y="3" width="204" height="168.9"/><path class="cls-2" d="M204,6.1V169H6V6.1H204m6-6H0V175H210V.1Z"/></g></g><g id="Layer_2" data-name="Layer 2"><path class="cls-3" d="M113,132.4c-2.62-9.64.34-20.33,6.63-28.09s15.58-12.75,25.32-15C157.61,86.38,171.52,88,182.47,95s18.44,19.61,18,32.59c-.14,4.21-1.21,8.65-4.26,11.55-4.2,4-10.71,4-16.48,3.4s-12.06-1.23-16.89,2L182.07,131c1.8-1.26,3.71-2.69,4.31-4.8,1-3.48-2.09-6.84-5.33-8.46a21.32,21.32,0,0,0-21.27,1.48c-4.93,3.41-8.18,8.78-12.76,12.65C137.75,139.67,123,140,113,132.4Z"/><path class="cls-4" d="M167.3,142.09c6.9-2.37,9.86-4,16-7.91,3.18-2,6.47-4.49,7.38-8.13,1-3.83-1.06-7.84-3.84-10.64-5.31-5.33-10.82-8.65-18.31-8-5.9.54-14.15,3.94-18.82,7.57a30.75,30.75,0,0,0-7.18,8,18.52,18.52,0,0,0-2.66,6.2c-.64,3.25,0,6.61.62,9.86,11.65-13.15,15.18-17.52,18.84-20.19,1.55-1.13,7.4-2.62,11.46-3.31a17.39,17.39,0,0,1,10.4,1.61,11.27,11.27,0,0,1,5,5.17,5.86,5.86,0,0,1-.85,6.61c-2.14,2.33-3.69,2.77-6.48,4.85C173.33,138,172.58,138.17,167.3,142.09Z"/><path class="cls-3" d="M144.82,137.64a44.34,44.34,0,0,1,9.74,1.68,14.72,14.72,0,0,1,7.9,5.64,9,9,0,0,1,.47,9.37c-1.17,1.89-3.16,3.21-4.12,5.21a16.94,16.94,0,0,0-1,3.73,6.46,6.46,0,0,1-1.65,3.43,2.76,2.76,0,0,1-3.51.36c-1-.83-.7-2.81.57-3a9.3,9.3,0,0,1-2.55,3.29,3.2,3.2,0,0,1-3.88,0c-1-1-.63-3.09.76-3.27a10.39,10.39,0,0,0-3.55,1.39,5.12,5.12,0,0,1-3.69.68c-1.22-.37-2.12-1.94-1.38-3a3.55,3.55,0,0,1,2.33-1.06,14.24,14.24,0,0,0,10.81-11.68,42.56,42.56,0,0,1-11.22-3.68c-1.35-.66-2.78-1.52-3.25-3-.57-1.68.47-3.57,1.95-4.55A8.15,8.15,0,0,1,144.82,137.64Z"/><path class="cls-3" d="M109.79,139.11c-4.82-.19-9.76-.38-14.36,1.07s-8.88,4.88-10,9.58c-1,4.47.93,9,2.91,13.18a9.71,9.71,0,0,0-5,.87c-1.48.86-2.43,2.88-1.53,4.34a3.34,3.34,0,0,0,4.09.93,9.7,9.7,0,0,0,3.39-3,3,3,0,1,0,4.64,0,2.46,2.46,0,0,0,3.21,2.27A3.22,3.22,0,0,0,99,164.56a4.66,4.66,0,0,0-3.31-3A22.41,22.41,0,0,0,97,150a23,23,0,0,0,15-3,9.24,9.24,0,0,0,3.58-3.35C116.31,142.2,116.45,139.39,109.79,139.11Z"/><path class="cls-4" d="M107.86,143.32a24.91,24.91,0,0,1-11.15,3.56,2.14,2.14,0,0,0-2,1.92l.07,5.27c-.09.87-1.33,6.81-.93,7.35a.83.83,0,0,0,.95.29c.28-.11.33-.32.66-1a7.89,7.89,0,0,0,.74-2.16c.58-3.23,1.12-5.74,0-9.32,2.1.93,4.48.45,6.75.14a37.35,37.35,0,0,0,6.65-1.72c1.34-.43,2.88-1.06,3.19-2.45A2.33,2.33,0,0,0,112,143C110.49,141.77,108.91,142.69,107.86,143.32Z"/><path class="cls-4" d="M141.8,144.4A15.52,15.52,0,0,1,152,146.26a6,6,0,0,1,3,3.23c.57,2-.6,4-2.09,5.46s-2.6,1.9-4,3.42c2.2-2.52,2.61-5.33,3.83-8.44A51.1,51.1,0,0,1,141,146.76c-.45-.18-.95-.41-1.08-.87a1.07,1.07,0,0,1,.65-1.16A4.65,4.65,0,0,1,141.8,144.4Z"/><path class="cls-5" d="M142.61,134.72l4.47,2.16a2,2,0,0,0,2.16-.27c2.5-2.05,7.55-8.28.42-11.68-6.15-2.93-9.12,4.39-8.33,7.66A2.88,2.88,0,0,0,142.61,134.72Z"/><ellipse class="cls-6" cx="145.51" cy="129.62" rx="5.64" ry="3.89" transform="translate(-37.11 197.61) rotate(-62.12)"/><ellipse class="cls-7" cx="148.88" cy="130.39" rx="1.41" ry="2.74" transform="translate(-32.91 208.62) rotate(-64.5)"/><path class="cls-5" d="M110.84,137l-4.65,1.72a2,2,0,0,1-2.12-.49c-2.29-2.28-6.72-9,.71-11.66,6.41-2.32,8.65,5.25,7.54,8.43A2.89,2.89,0,0,1,110.84,137Z"/><ellipse class="cls-6" cx="108.45" cy="131.67" rx="3.89" ry="5.64" transform="translate(-41.89 51.07) rotate(-22.33)"/><ellipse class="cls-7" cx="105.03" cy="132.11" rx="2.74" ry="1.41" transform="translate(-38.77 43.75) rotate(-19.95)"/><path class="cls-3" d="M135.19,125.42a42.23,42.23,0,0,0-22.45,3.06,16.62,16.62,0,0,0-6.09,4,7.63,7.63,0,0,0-1.91,6.81,9.93,9.93,0,0,0,3.15,4.52,28.71,28.71,0,0,0,18.7,7.56A26.17,26.17,0,0,0,145.25,144c2.58-2.57,4.67-6.13,4-9.7-.53-2.75-2.29-4.28-4.74-5.64A26.77,26.77,0,0,0,135.19,125.42Z"/><path class="cls-4" d="M148.88,137.62c-1,2.79-3.87,5.6-5.33,7.13a17.12,17.12,0,0,1-3.73,3,27,27,0,0,1-18.16,2.72c-6.9-1.29-14.73-7.15-15.91-10a8.87,8.87,0,0,1-.62-2.12,1.73,1.73,0,0,1,1.06-1.47,4.21,4.21,0,0,1,1.87-.29c4.43,0,7.75,1.81,11.93,3.29a30,30,0,0,0,10.54,2.22c2.68.11,6.83-2.4,9.22-3.62,2-1,4.67-1.33,7-2.1C147.53,136.13,149.14,136.88,148.88,137.62Z"/><path class="cls-3" d="M166.51,106.92c-2.48,2.29-5,8-4.92,11.34a12.21,12.21,0,0,0,4.21,8.9c-1.81.53-3.74-.15-5.62-.16s-4.14,1.29-3.85,3.15a2.85,2.85,0,0,0,3,2.08,8.28,8.28,0,0,0,3.71-1.38,6.15,6.15,0,0,0-3,1.29,2.1,2.1,0,0,0-.21,2.94,2.75,2.75,0,0,0,2.65.18,12.27,12.27,0,0,0,5.36-3.48c-1,.28-1,1.95-.11,2.53a3,3,0,0,0,3-.24,6.68,6.68,0,0,0,2.93-7.51c2.46-2.37,2.7-5.2,3.9-8.39s.85-9.79-2-11.72"/><path class="cls-8" d="M138,127.43a5,5,0,0,0-3.19.41c-.28.14-.58.36-.58.67s.51.64.94.7a9.53,9.53,0,0,0,5.77-1A26.64,26.64,0,0,0,138,127.43Z"/><path class="cls-8" d="M115.3,130a2.81,2.81,0,0,0-1.32.25,1,1,0,0,0-.52,1.13c.21.56,1,.62,1.56.55a13.34,13.34,0,0,0,2.78-.64c.42-.15.89-.39,1-.83a.89.89,0,0,0-.77-.92C117.56,129.44,117.16,129.93,115.3,130Z"/><path class="cls-8" d="M130.48,99.78a6,6,0,0,0-1.74-.16,2,2,0,0,0-1.48.82,1.21,1.21,0,0,0,.2,1.58,1.66,1.66,0,0,0,1.35.15c1.18-.25,2.33-.94,3.52-.75.45.08.86.27,1.3.36a1.47,1.47,0,0,0,1.28-.21,1.27,1.27,0,0,0,0-1.73,2.94,2.94,0,0,0-1.7-.82,9,9,0,0,0-4.27.22l-.82,1.57C129.38,100.56,130.65,100.3,130.48,99.78Z"/><path class="cls-8" d="M162.5,90.8c-.73.2-1.52.12-2.23.36s-1.35,1-1,1.72a1.41,1.41,0,0,0,1.25.66c.5,0,1-.1,1.49-.06a6.41,6.41,0,0,1,2.26.88,3.11,3.11,0,0,0,2.34.41,2.09,2.09,0,0,0,1.22-2.4,2.94,2.94,0,0,0-2-2C164.91,90,164,90.41,162.5,90.8Z"/><path class="cls-8" d="M122.92,106.61a2.14,2.14,0,0,0-1,.28.72.72,0,0,0-.28.89,1,1,0,0,0,.85.34,4.61,4.61,0,0,0,2.85-1c.24-.19.49-.52.32-.79a.68.68,0,0,0-.56-.22A12.77,12.77,0,0,0,122.92,106.61Z"/><path class="cls-8" d="M145.17,101.31a1.92,1.92,0,0,0-.67,1.43,2.58,2.58,0,0,0,2.34.12,1.24,1.24,0,0,0,.82-1,1.11,1.11,0,0,0-1-1A1.81,1.81,0,0,0,145.17,101.31Z"/><path class="cls-8" d="M147.79,91.9a3.31,3.31,0,0,0-1.33,0,1.18,1.18,0,0,0-.93.85,1.21,1.21,0,0,0,.89,1.28,3.53,3.53,0,0,0,1.68,0,2.7,2.7,0,0,0,1.37-.49.92.92,0,0,0,.14-1.3C149.12,91.76,148.16,92.21,147.79,91.9Z"/><path class="cls-8" d="M120.71,113.32l-1.61.48a1.24,1.24,0,0,0,1.18.88,3.59,3.59,0,0,0,1.53-.37c.43-.18.93-.47.9-.93a.79.79,0,0,0-.78-.64C121.56,112.73,121.34,113.13,120.71,113.32Z"/><path class="cls-8" d="M147.72,107.7a3,3,0,0,0-1.51-.15,1.05,1.05,0,0,0-.86,1.08c.11.67,1,.87,1.66.81a6.92,6.92,0,0,0,1.79-.4,1.22,1.22,0,0,0,.71-.54c.22-.45-.18-1-.66-1.15S147.84,107.36,147.72,107.7Z"/><path class="cls-8" d="M175.79,118.15a2.52,2.52,0,0,0-1.37-1.6,1.45,1.45,0,0,0-1.85.65c-.32.77.24,1.6.77,2.25s1.08,1.16,1.77,1a1.3,1.3,0,0,0,.87-1.17A2.57,2.57,0,0,0,175.79,118.15Z"/><path class="cls-8" d="M166,114.51a3.56,3.56,0,0,0-.58,6.14,1.41,1.41,0,0,0,1.76.11,1.38,1.38,0,0,0,.22-1.27,6,6,0,0,1-.27-1.31,3.75,3.75,0,0,1,.7-1.78,2.27,2.27,0,0,0,.35-1.84C167.91,114,167.13,114,166,114.51Z"/><path class="cls-8" d="M174.79,108.21A2.21,2.21,0,0,0,173.6,110c0,.76.84,1.47,1.54,1.17a1.32,1.32,0,0,0,.61-1.54A3.22,3.22,0,0,0,174.79,108.21Z"/><path class="cls-8" d="M189.3,103.57a1.12,1.12,0,0,0-1.63-.07,1.81,1.81,0,0,0-.39,1.74,5,5,0,0,0,.84,1.64,4.74,4.74,0,0,0,1.28,1.46,1.63,1.63,0,0,0,1.83,0c.73-.56.58-1.71.15-2.53A5.84,5.84,0,0,0,189.3,103.57Z"/><path class="cls-8" d="M193.15,112.18a4.6,4.6,0,0,0-.22,2.66A1.68,1.68,0,0,0,195,116a1.56,1.56,0,0,0,.84-1.22,3,3,0,0,0-.26-1.51,2.38,2.38,0,0,0-.88-1.22A1.33,1.33,0,0,0,193.15,112.18Z"/><path class="cls-8" d="M195.06,128.46a2.92,2.92,0,0,0-2.5.22,2.08,2.08,0,0,0-.91,2.25,2.16,2.16,0,0,0,2.22,1.37,3.43,3.43,0,0,0,2.36-1.39,2.89,2.89,0,0,0,.69-1.54,1.63,1.63,0,0,0-.64-1.5C195.81,127.56,195.08,127.63,195.06,128.46Z"/><path class="cls-8" d="M174.82,98.5a1.17,1.17,0,0,0-1.78.85,1.86,1.86,0,0,0,1,1.49,3.51,3.51,0,0,0,1.78.68,2.1,2.1,0,0,0,1.73-.68,1.51,1.51,0,0,0,.12-1.79C177.28,98.53,176.43,98.4,174.82,98.5Z"/><path class="cls-8" d="M134.57,114.54a1.35,1.35,0,0,0-1,1.67,1.91,1.91,0,0,0,1.65,1.28,2.12,2.12,0,0,0,1.95-.83,1.72,1.72,0,0,0-.06-2C136.61,114.05,135.79,114.39,134.57,114.54Z"/><path class="cls-8" d="M128,133.93a4,4,0,0,0-1.45-.15,1.42,1.42,0,0,0-1.16.77c-.39.88.53,1.79,1.42,2.16a3.48,3.48,0,0,0,2.35.23,1.86,1.86,0,0,0,1.35-1.78C130.47,134.36,129.52,133.7,128,133.93Z"/><path class="cls-8" d="M126.64,127.29a3.49,3.49,0,0,0-1.31.39,1.17,1.17,0,0,0-.57,1.17c.18.78,1.25.88,2,.8a3.67,3.67,0,0,0,1.67-.43,1.29,1.29,0,0,0,.62-1.48,1.28,1.28,0,0,0-1.22-.7A6.06,6.06,0,0,0,126.64,127.29Z"/><path class="cls-8" d="M138.49,92.33a8.92,8.92,0,0,0-4,2c-.46.41-.91,1.06-.58,1.58s.95.43,1.49.34l6.93-1.1a2.51,2.51,0,0,0,1.73-.79,1.7,1.7,0,0,0-.93-2.31C142.23,91.68,141.22,91.77,138.49,92.33Z"/><path class="cls-8" d="M118.41,118.51a3.66,3.66,0,0,0-3.11,1,2.89,2.89,0,0,0-.61,3.13,2.39,2.39,0,0,0,2.81,1.28c1.13-.38,1.79-1.64,2.93-2a7.59,7.59,0,0,0,1.87-.41,1.64,1.64,0,0,0,.54-2,2.71,2.71,0,0,0-1.76-1.4A3.12,3.12,0,0,0,118.41,118.51Z"/><path class="cls-8" d="M109.83,132.24a2.54,2.54,0,0,0-.71,1.71,1.22,1.22,0,0,0,1.42-.56A.74.74,0,0,0,109.83,132.24Z"/><path class="cls-8" d="M160.69,146a1.71,1.71,0,1,0,.81,2.44,1.73,1.73,0,0,0-.51-2.24,1.65,1.65,0,0,0-2.22.49C158.33,147.38,158.65,148.45,160.69,146Z"/><path class="cls-8" d="M89.71,146a3.58,3.58,0,0,0-1,.48,1.07,1.07,0,0,0,.76,2,2.8,2.8,0,0,0,1.57-.76,2.37,2.37,0,0,0,.61-.69,1,1,0,0,0,0-.89c-.29-.45-.94-.43-1.47-.35a2.23,2.23,0,0,0-1,.32C88.82,146.25,88.65,146.67,89.71,146Z"/><path class="cls-8" d="M96.49,142.56a.73.73,0,0,0-1,.61.92.92,0,0,0,.87.9,1,1,0,1,0-1-1.1C95.35,143.49,95.78,144,96.49,142.56Z"/><path class="cls-8" d="M88.5,150.18a.92.92,0,0,0-.92.92.89.89,0,1,0,.65-.92,1,1,0,0,0-.62,1.2C87.8,151.86,88.43,152.09,88.5,150.18Z"/><path class="cls-8" d="M180.81,138.41a2.38,2.38,0,0,0-1.1-.24.86.86,0,0,0-.8.69c0,.54.57.88,1.11,1a4.54,4.54,0,0,0,1.94-.09c.35-.09.76-.31.77-.68s-.41-.63-.79-.74C181.21,138.11,180.43,138.05,180.81,138.41Z"/><path class="cls-8" d="M195.06,134.77a2.13,2.13,0,0,0-.82.45.72.72,0,0,0-.14.87.68.68,0,0,0,.76.22,1.53,1.53,0,0,0,.67-.51,1.49,1.49,0,0,0,.36-.76.71.71,0,0,0-.35-.72c-.48-.22-1,.31-1.23.76a1.2,1.2,0,0,0-.25,1C194.17,136.39,194.75,136.48,195.06,134.77Z"/><path class="cls-8" d="M191.12,139.08a1.88,1.88,0,0,0-1.13-.2.85.85,0,0,0-.71.8c0,.59.8.84,1.38.74a1.66,1.66,0,0,0,.89-.38.9.9,0,0,0,.29-.88c-.17-.6-1-.71-1.56-.46a1.35,1.35,0,0,0-.84,1C189.4,140.15,189.8,140.64,191.12,139.08Z"/><path class="cls-8" d="M154.51,140.54a2.57,2.57,0,0,0-1.6,0,1.52,1.52,0,0,0-1,1.18,1.1,1.1,0,0,0,.82,1.22c.64.11,1.2-.43,1.84-.56a6.26,6.26,0,0,1,1.06,0,1.11,1.11,0,0,0,.94-.41,1,1,0,0,0-.31-1.2,2.34,2.34,0,0,0-1.28-.37C154.53,140.38,154.07,140.37,154.51,140.54Z"/><path class="cls-8" d="M155.48,143.17a2.49,2.49,0,0,0-1.14,1,1.22,1.22,0,0,0,1.48.78,1.17,1.17,0,0,0,.69-1.51A1.1,1.1,0,0,0,155,143a1.06,1.06,0,0,0-.11,1.61C155.31,145,156.16,144.82,155.48,143.17Z"/><path class="cls-8" d="M171.28,124.47a3.49,3.49,0,0,0-1.73,0,1.17,1.17,0,0,0-.8,1.36,1.06,1.06,0,0,0,.86.66,2.31,2.31,0,0,0,1.13-.16,2.12,2.12,0,0,0,1-.69,1,1,0,0,0,.07-1.15,1.42,1.42,0,0,0-1.49-.33,2.07,2.07,0,0,0-1.52,1C168.52,125.7,168.87,126.55,171.28,124.47Z"/><path class="cls-8" d="M186.21,108.3a2.5,2.5,0,0,0-1.89.46,2,2,0,0,0,2.37,1.32,1.07,1.07,0,0,0,.88-1.06,1.23,1.23,0,0,0-.86-.85,2.2,2.2,0,0,0-1.21-.16,1.2,1.2,0,0,0-.92.72,1.17,1.17,0,0,0,.82,1.44C186,110.34,186.67,110.05,186.21,108.3Z"/><path class="cls-8" d="M159.85,98.88a3.91,3.91,0,0,0-1.49.22,1.18,1.18,0,0,0,.18,2.31,3.51,3.51,0,0,0,1.67-.1,3.82,3.82,0,0,0,1.53-.63,1.46,1.46,0,0,0,.59-1.45,1.93,1.93,0,0,0-1.5-1.15c-1-.26-2.3-.17-2.83.73a1.84,1.84,0,0,0,.55,2.27C159.22,101.6,160.16,101.68,159.85,98.88Z"/></g></svg>