<?xml version="1.0" encoding="UTF-8"?>
<svg id="Layer_3" data-name="Layer 3" xmlns="http://www.w3.org/2000/svg" viewBox="0 0 175 175">
  <defs>
    <style>
      .cls-1 {
        fill: #272727;
      }
    </style>
  </defs>
  <path class="cls-1" d="m87.42,121.69c-11.72.9-23.21,2.09-34.74,2.59-8.43.36-17.05.7-25.3-.66-5.85-.96-11.77-4.05-16.56-7.64-2.16-1.62-3.12-7.32-2.06-10.23,2.5-6.86,5.74-13.78,10.21-19.49,4.25-5.45,10.23-9.67,15.82-13.94,6.56-5,11.82-7.31,18.89-11.54,3.72-2.22,9.72-5.75,13.98-6.95,9.89-2.77,19.71-6.55,29.81-7.61,10.95-1.15,22.2-.03,33.26.83,4.86.38,9.97,1.83,14.26,4.12,4.72,2.52,8.83,6.34,12.83,10,7.21,6.6,10.63,15.12,9.68,24.73-.84,8.43-6.39,14.58-13.53,18.4-8.67,4.65-17.64,9.35-27.06,11.84-11.08,2.92-22.78,3.49-34.22,5.06-1.68.23-3.37.34-5.28.51Zm21.26-64.52c-13.94,8.2-18.07,18.04-15.17,34.35,1.29,7.25,3.85,11.27,12.24,10.01,9.79-1.47,19.79-1.62,29.57-3.14,2.4-.37,6.2-3.89,6.13-5.85-.25-7.12-.67-14.66-3.24-21.17-4.68-11.83-19.75-18.54-29.52-14.19Z"/>
</svg>