<?xml version="1.0" encoding="UTF-8"?>
<svg xmlns="http://www.w3.org/2000/svg" xmlns:xlink="http://www.w3.org/1999/xlink" viewBox="0 0 400.3 400.3">
  <defs>
    <style>
      .cls-1 {
        fill: #fff;
      }

      .cls-1, .cls-2, .cls-3 {
        stroke: #352110;
        stroke-miterlimit: 10;
      }

      .cls-1, .cls-3 {
        stroke-width: 4px;
      }

      .cls-4 {
        clip-path: url(#clippath-2);
      }

      .cls-2 {
        stroke-width: 5px;
      }

      .cls-2, .cls-3 {
        fill: #562d14;
      }

      .cls-5 {
        clip-path: url(#clippath-6);
      }

      .cls-6 {
        clip-path: url(#clippath-1);
      }

      .cls-7 {
        clip-path: url(#clippath-4);
      }

      .cls-8 {
        fill: #f6ed53;
      }

      .cls-9 {
        clip-path: url(#clippath);
      }

      .cls-10 {
        fill: none;
      }

      .cls-11 {
        clip-path: url(#clippath-3);
      }

      .cls-12 {
        fill: #d1a2a3;
      }

      .cls-13 {
        clip-path: url(#clippath-5);
      }

      .cls-14 {
        fill: #352110;
      }
    </style>
    <clipPath id="clippath">
      <path class="cls-10" d="m311.33,70.81c-3.68-.89-5.43-.13-6.28.42-6.6,4.25,1.02,21.25,7.75,55.72,4.46,22.87,4.08,30.64,11.35,35.24,7.12,4.51,19.03,4.33,25.12-1.67,17.45-17.2-11.87-83.41-37.94-89.71Z"/>
    </clipPath>
    <clipPath id="clippath-1">
      <path class="cls-10" d="m348.61,149.39c-3.22-2.32-6.92-2.1-11.47-1.83-16.56.97-27.72,13.89-37.61,25.69-13.36,15.93-22.77,27.14-21.1,42.2.94,8.49,5.71,20.94,16.06,24.77,12.95,4.79,26.96-6.76,32.11-11.01,27.72-22.85,35.84-69.87,22.02-79.82Z"/>
    </clipPath>
    <clipPath id="clippath-2">
      <path class="cls-10" d="m344.66,151.42c-3.15-2.24-6.77-2.03-11.22-1.77-16.21.94-27.12,13.42-36.81,24.82-13.07,15.39-22.28,26.23-20.65,40.78.92,8.21,5.58,20.24,15.71,23.93,12.67,4.63,26.38-6.54,31.42-10.64,27.12-22.08,35.07-67.51,21.55-77.12Z"/>
    </clipPath>
    <clipPath id="clippath-3">
      <path class="cls-10" d="m292.5,213.78c-29.64-23.23-66.66,16.67-115.14-2.29-20.48-8.01-31.67-22.1-45.87-16.51-8.76,3.44-15.44,13.1-16.51,22.48-3.09,27.12,40.02,58.7,79.82,67.43,1.92.42,45.87,9.39,84.86-14.68,9.13-5.64,26.25-16.2,26.61-31.65.31-13.46-12.25-23.59-13.76-24.77Z"/>
    </clipPath>
    <clipPath id="clippath-4">
      <path class="cls-10" d="m290.5,212.16c-29.3-22.76-65.91,16.33-113.84-2.25-20.25-7.85-31.31-21.65-45.35-16.18-8.66,3.37-15.27,12.83-16.33,22.02-3.06,26.57,39.57,57.51,78.92,66.06,1.89.41,45.35,9.2,83.91-14.38,9.03-5.52,25.95-15.87,26.31-31.01.31-13.18-12.12-23.11-13.61-24.27Z"/>
    </clipPath>
    <clipPath id="clippath-5">
      <path class="cls-10" d="m145.62,187.6c-2.83-17.04-34.53-26.5-57.54-25.48-20.6.91-34.57,10.21-52.14,21.91-11.98,7.98-31.54,21-29.22,33.98.86,4.79,4.26,8.01,6.74,9.84,12.32,9.04,40.32,6.04,61.58,3.13,37.16-5.08,43.84-8.52,49-12.07,2.92-2.01,24.02-16.54,21.58-31.29Z"/>
    </clipPath>
    <clipPath id="clippath-6">
      <path class="cls-10" d="m147,186.82c-2.98-16.74-34.87-25.76-57.93-24.56-20.65,1.08-34.58,10.35-52.11,22.02-11.95,7.96-31.45,20.94-29.01,33.69.9,4.71,4.34,7.84,6.85,9.62,12.43,8.79,40.49,5.58,61.79,2.53,37.23-5.33,43.89-8.77,49.04-12.31,2.92-2.01,23.95-16.49,21.37-30.99Z"/>
    </clipPath>
  </defs>
  <g id="Layer_6" data-name="Layer 6">
    <path class="cls-2" d="m366.13,49.23c-1.52-4.14-32.25,2.03-52.29,17.89-5.28,4.17-7.43,7.14-6.88,9.63.93,4.23,9.61,7.16,16.97,5.96,8.28-1.34,10.52-7.19,23.85-18.81,13.06-11.38,19.02-12.84,18.35-14.68Z"/>
    <path class="cls-2" d="m316.36,70.33c-3.69-1.16-5.51-.5-6.42,0-7.01,3.89-.39,21.73,4.13,57.34,3,23.62,2.09,31.52,9.17,36.7,6.95,5.08,19.09,5.7,25.69,0,18.93-16.36-6.45-85.85-32.57-94.04Z"/>
    <g class="cls-9">
      <path class="cls-12" d="m319.22,66.18c-6.56,7.59,25.82,30.64,22.87,64.29-.66,7.52-3.12,15.96,2,22.16,4.42,5.35,13.8,8.19,19.47,5.08,15.1-8.27,13.49-63.82-16.53-84.88-9.75-6.84-23.98-11.09-27.81-6.65Z"/>
    </g>
    <path class="cls-2" d="m346.17,148.32c-3.22-2.32-6.92-2.1-11.47-1.83-16.56.97-27.72,13.89-37.61,25.69-13.36,15.93-22.77,27.14-21.1,42.2.94,8.49,5.71,20.94,16.06,24.77,12.95,4.79,26.96-6.76,32.11-11.01,27.72-22.85,35.84-69.87,22.02-79.82Z"/>
    <g class="cls-6">
      <path class="cls-8" d="m269.22,186.48c8.58,15.81,39.97,16.15,48.77,4,9.94-13.72-7.18-45.81-24.16-45.83-15.23-.01-33.31,25.79-24.61,41.82Z"/>
    </g>
    <g class="cls-4">
      <path class="cls-12" d="m364.98,154.91c-3.94-6.16-11.64-13.17-17.25-11.53-9.89,2.89-.65,28.88-15.22,51.35-15.49,23.9-43.76,22-44.52,35.68-.59,10.78,16.27,24.53,31.42,23.79,32.32-1.58,64.63-69.43,45.56-99.29Z"/>
    </g>
  </g>
  <g id="Body">
    <path class="cls-3" d="m292.5,211.62c-29.64-23.23-66.66,16.67-115.14-2.29-20.48-8.01-31.67-22.1-45.87-16.51-8.76,3.44-15.44,13.1-16.51,22.48-3.09,27.12,40.02,58.7,79.82,67.43,1.92.42,45.87,9.39,84.86-14.68,9.13-5.64,26.25-16.2,26.61-31.65.31-13.46-12.25-23.59-13.76-24.77Z"/>
  </g>
  <g id="Body_copy_2" data-name="Body copy 2">
    <g class="cls-11">
      <path class="cls-8" d="m162.21,191.27c-3.26,7.42-3.84,19.89,3.34,27.41,5.98,6.26,17.21,8.95,22.06,4.68,8.47-7.45-5.37-33.53-1.34-35.43,2.41-1.14,9.08,7.35,13.37,14.04,11.03,17.2,8.07,25.24,15.37,31.42,9.75,8.24,30.46,6.93,42.11-4.68,12.9-12.85,11.24-34.86,2.67-46.79-19.57-27.26-86.01-16.99-97.59,9.36Z"/>
    </g>
  </g>
  <g id="Body_copy" data-name="Body copy">
    <g class="cls-7">
      <path class="cls-12" d="m308.19,252.6c-5.15-15.66,4.09-28.94,1.36-30.56-3.56-2.11-15.51,22.7-39.91,36.85-18.9,10.96-37.68,11.11-51.7,11.23-17.26.15-54,.46-74.38-22.92-18.18-20.85-12.26-47.82-21.32-48.98-7.61-.97-20.52,16.94-20.41,34.6.23,35.99,55.36,71.47,106.13,75.94,55.55,4.89,109.09-27.06,107.49-42.69-.43-4.15-4.54-5.21-7.26-13.48Z"/>
    </g>
  </g>
  <g id="Head">
    <path class="cls-3" d="m148.47,186.39c-2.88-17.49-35.24-27.19-58.72-26.15-21.02.93-35.28,10.47-53.21,22.48-12.23,8.19-32.19,21.54-29.82,34.86.87,4.91,4.34,8.22,6.88,10.09,12.57,9.28,41.14,6.19,62.84,3.21,37.92-5.21,44.74-8.74,50-12.39,2.98-2.07,24.51-16.97,22.02-32.11Z"/>
  </g>
  <g id="Head_copy_2" data-name="Head copy 2">
    <g class="cls-13">
      <path class="cls-8" d="m98.13,143.97c-4.39,4.7,5.74,25.8,23.66,35.76,16.55,9.2,38.69,8.34,40.69,2.35,3.63-10.88-56.57-46.44-64.34-38.12Z"/>
    </g>
  </g>
  <g id="Head_copy" data-name="Head copy">
    <g class="cls-5">
      <path class="cls-12" d="m4.95,234.27c-4.19-18.3,67.92-53.28,119.96-47.26,17.22,1.99,20.12,7.07,20.87,9.07,4.07,10.79-17.5,29.37-33.98,38.56-41.77,23.29-103.24,15.42-106.86-.37Z"/>
    </g>
  </g>
  <g id="Layer_5" data-name="Layer 5">
    <path class="cls-3" d="m153.97,284.56c5.55-15.57-22.26-32.86-16.51-44.04,2.98-5.8,13.53-7.08,20.64-5.05,17,4.86,27.37,32.28,19.72,52.29-7.39,19.34-31.57,31.58-40.37,26.15-2.34-1.44-4.03-4.4-4.13-7.34-.32-9.62,16.77-11.16,20.64-22.02Z"/>
    <path class="cls-3" d="m299.11,312.54c-3.65,1.54-10.91-8.09-15.56-14.28-6.08-8.07-28.43-37.77-19.48-49.03,4.78-6.01,17.95-6.07,25.23-.46,3.84,2.96,5.14,6.8,8.26,29.82,4.13,30.45,3.15,33.28,1.56,33.95Z"/>
  </g>
  <g id="Layer_4" data-name="Layer 4">
    <path class="cls-3" d="m145.72,308.41c-1.27-7.23-14.78-11.54-24.77-11.47-19.1.14-34.91,16.42-33.03,20.64,1.89,4.24,22.86-.79,23.39,1.83.27,1.34-5.13,2.84-5.05,5.5.08,2.61,5.38,4.4,5.96,4.59,12.47,4.07,35.28-10.9,33.49-21.1Z"/>
    <path class="cls-3" d="m299.63,308.41c-1.43-7.23-16.68-11.54-27.95-11.47-21.55.14-39.38,16.42-37.26,20.64,2.13,4.24,25.79-.79,26.39,1.83.31,1.34-5.78,2.84-5.69,5.5.09,2.61,6.07,4.4,6.73,4.59,14.07,4.07,39.8-10.9,37.78-21.1Z"/>
  </g>
  <g id="Layer_12" data-name="Layer 12">
    <path class="cls-1" d="m118.68,196.75c-1.47,1.85-2.87,1.74-15.79,4.63-13.5,3.01-14.55,3.7-16.33,2.72-8.09-4.45-9.09-31.2,4.08-37.57,8.36-4.04,18.07,2.25,18.78,2.72,10.06,6.72,14.07,21.46,9.26,27.5Z"/>
  </g>
  <g id="Layer_13" data-name="Layer 13">
    <path class="cls-14" d="m81.48,176.96c-.8,3.13.83,6.49,3.61,8.05,2.96,1.66,6.64,1.18,9.48-.49,1.13-.66,1.63-2.28.9-3.42s-2.21-1.61-3.42-.9c-.24.14-.49.28-.75.4-.36.17-.11,0,.1-.04-.14.03-.3.11-.44.16-.24.08-.49.15-.74.21-.15.04-.3.06-.45.09-.45.09.45-.04.13-.02-.28.02-.56.04-.84.03-.13,0-.25,0-.38-.02-.42-.03-.04-.04.14.03-.25-.1-.55-.11-.81-.19-.1-.03-.26-.13-.36-.13.35.15.44.19.27.11-.06-.03-.12-.06-.18-.09-.2-.1-.38-.23-.57-.35-.4-.26.43.4.09.06-.08-.08-.16-.15-.24-.23s-.16-.16-.23-.24c-.04-.05-.09-.1-.13-.15-.12-.15-.06-.07.19.24-.08-.19-.25-.38-.35-.56-.01-.02-.19-.33-.17-.36-.01.02.24.64.09.17-.03-.09-.11-.66-.17-.69.06.03.07.7.04.21,0-.11,0-.22,0-.32,0-.31.15-.38-.04.15.04-.12.05-.26.08-.39.32-1.27-.41-2.77-1.75-3.08s-2.73.39-3.08,1.75h0Z"/>
    <path class="cls-14" d="m91.15,183.83c1.09,2.83,2.16,5.94,2.08,8.98-.03,1.27-.3,2.33-.95,3.39-.03.06-.44.62-.25.37-.22.27-.49.55-.76.77.24-.19-.35.21-.41.25-.35.2-.71.37-1.07.56-.25.13-.7.27-.89.47-.16.16-.06-.04.16.05-.41-.16-.45-.2-.69-.58-.4-.63-.52-1.01-.76-1.76s-.46-1.55-.62-2.34c-.6-2.92-.55-6.05-.54-9.08l-4.27,1.77c2.96,2.62,6.8,3.65,10.68,2.89l-3.08-1.75c.29,1.77.3,3.61.12,5.4-.08.8-.23,1.6-.43,2.37-.08.28-.23.77-.3.92-.06.13-.4.48-.43.59l2.69.77-.1-.3c-.04-.2-.13-.4-.18-.6-.11-.4-.21-.81-.29-1.22-.12-.63-.17-1.52-.15-2.29.02-.88.09-1.47.28-2.28.11-.46.24-.91.39-1.35.07-.19.17-.39.22-.59.08-.31,0,.07-.11.18l-1.1.64-.28.04-1.26-.34c-.56-.89-.76-1.1-.6-.63.05.16.09.31.13.47.08.32.15.64.21.96.08.47.11.94.12,1.45.03,1.23-.24,2.19-.43,3.38-.18,1.13,2.33-.62,2.3-.56.06.04.11.09.13.16-.07-.11-.14-.22-.2-.34-.21-.38-.32-.68-.45-1.19-.23-.84-.29-1.89-.17-2.63.09-.51.21-1.09.44-1.56-.07.17-.06.18.02.02.09-.15.08-.15-.01.01-.04,0-1.01.37-1.01.35-.04,0-.07-.01-.08-.05.11.09.21.19.31.3.04.04.41.46.25.25.18.22.32.47.46.72,0,0,.3.65.22.43.1.27.16.54.24.82l.06.28c-.01-.16-.01-.15,0,.02.02.28.03.56,0,.83-.01.18-.01.18-.01.02l-.07.27c-.15.36.08.12-.2.4.31-.3-.29.33,0,.01l-.22.13c.21-.07.17-.06-.11.03.44-.03-.39-.11.08,0-1.32-.29-2.71.4-3.08,1.75-.34,1.26.42,2.78,1.75,3.08,3.15.71,6.17-1.44,6.74-4.59.53-2.91-.56-6.16-2.76-8.17-1.33-1.21-3.13-1.93-4.88-1.19-1.53.65-2.3,2.14-2.74,3.66-.81,2.8-.47,5.96.93,8.53.79,1.46,2.3,2.62,4.03,2.35,1.88-.28,2.71-1.92,3.08-3.6.33-1.49.48-3.05.38-4.57s-.29-3.4-1.1-4.74c-1.17-1.94-3.92-2.02-5.16-.1-.73,1.12-1.13,2.64-1.37,3.94-.54,2.87-.45,5.97.57,8.73.37,1,.9,1.84,1.91,2.28s2.07.29,2.97-.24c1.47-.88,2.32-2.6,2.76-4.19.95-3.42.92-7.09.35-10.57-.23-1.4-1.87-1.98-3.08-1.75-.31.05-.36.06-.16.05-.18.02-.37.04-.55.05-.28.01-.55.02-.83,0-.54-.02-.79-.04-1.52-.24-1.09-.3-1.98-.77-2.75-1.46-1.59-1.41-4.26-.49-4.27,1.77-.02,3.11.03,6.21.51,9.3s1.4,6.65,4.01,8.49c1.53,1.07,3.39,1.17,5.07.42,1.32-.59,2.67-1.28,3.77-2.23,2.26-1.95,3.3-4.99,3.42-7.9.14-3.55-.99-7.19-2.25-10.47-.49-1.26-1.68-2.13-3.08-1.75-1.2.33-2.23,1.81-1.75,3.08h0Z"/>
  </g>
</svg>