<?xml version="1.0" encoding="UTF-8"?>
<svg xmlns="http://www.w3.org/2000/svg" xmlns:xlink="http://www.w3.org/1999/xlink" viewBox="0 0 240.82 97.45">
  <defs>
    <style>
      .cls-1 {
        fill: #d7a767;
      }

      .cls-2 {
        clip-path: url(#clippath);
      }

      .cls-3 {
        fill: #42382c;
      }

      .cls-4 {
        fill: none;
      }

      .cls-5 {
        fill: #b88e56;
      }
    </style>
    <clipPath id="clippath">
      <polygon class="cls-4" points="6.86 8.83 6.86 19.98 17.84 23.92 8.48 27.36 12.35 29.58 6.86 32.54 6.86 57.41 12.35 59.63 6.86 62.83 6.86 68.83 234.86 68.83 234.86 58.65 226.46 56.92 234.86 53.23 234.86 43.87 225.97 41.16 234.86 37.46 234.86 14.06 230.16 12.34 234.86 11.6 234.86 8.83 6.86 8.83"/>
    </clipPath>
  </defs>
  <g id="Layer_1" data-name="Layer 1">
    <polygon class="cls-1" points="6.86 8.83 6.86 19.98 17.84 23.92 8.48 27.36 12.35 29.58 6.86 32.54 6.86 57.41 12.35 59.63 6.86 62.83 6.86 68.83 234.86 68.83 234.86 58.65 226.46 56.92 234.86 53.23 234.86 43.87 225.97 41.16 234.86 37.46 234.86 14.06 230.16 12.34 234.86 11.6 234.86 8.83 6.86 8.83"/>
    <g class="cls-2">
      <path class="cls-5" d="m239.02,13.08c-3.93-.84-9.86-1.72-17-1.23-10.1.69-12.33,3.43-22.91,5.67-6.59,1.39-15.56,1.34-33.5,1.23-13.46-.08-20.15-.53-20.2,0-.07.77,14.01,2.59,20.69,3.45,21.22,2.73,28.42,2.43,31.77,2.22,6.72-.43,12.19-1.43,15.76-2.22"/>
      <path class="cls-5" d="m1.59,30.81c2.83-2.28,8.3,4.44,18.72,5.42,7.11.67,10.97-1.85,17.73-3.94,10.03-3.1,21.63-1.9,44.83.49,11.84,1.22,30.07,3.1,30.05,5.42-.02,1.89-12.2,1.3-33.25,6.4-18.86,4.57-20.36,7.78-29.06,6.65-12.44-1.62-14.18-8.79-26.35-8.62-9.92.14-14.67,4.99-19.46,1.72C.16,41.21-1,32.89,1.59,30.81Z"/>
      <path class="cls-5" d="m239.76,49.53c.15-1.22-22.5-10.08-50-6.16-17.49,2.5-20.37,7.8-40.89,10.1-19.25,2.16-33.44-.64-33.5,0-.07.77,21.04,3.18,37.19,4.68,27.25,2.54,34.62,1.97,42.61-.49,7.01-2.16,8.36-3.9,16.75-5.91,16.27-3.9,27.73-1.35,27.83-2.22Z"/>
      <path class="cls-5" d="m89.27,50.76c-.2-1.62,20.1-5.97,38.92-8.13,20.86-2.39,42.46-2.38,42.61-.74.15,1.7-22.91,5.1-35.71,6.65-19.97,2.41-45.59,4.02-45.81,2.22Z"/>
      <path class="cls-5" d="m1.83,55.69c1.45-2.24,6.27-1.03,27.83,3.2,18.32,3.59,27.61,5.41,33.74,6.16,17.04,2.08,19.85-.35,37.93.49,5.08.24,43.92,2.06,44.58,8.37.97,9.23-78.11,41.33-122.41,10.34C11.02,75.53-1.05,60.14,1.83,55.69Z"/>
      <path class="cls-5" d="m135.33,63.08c-.11,1.51-30.45.86-57.39-1.48-14.42-1.25-36.04-3.7-35.96-4.93.08-1.23,21.89-1.02,40.15,0,25.42,1.42,53.31,4.95,53.2,6.4Z"/>
      <path class="cls-5" d="m239.27,55.44c-.8-.92-3.1-2.89-17.49.25-7.11,1.55-21.2,4.61-20.94,7.39.18,1.94,7.07.72,25.62,4.19,5.51,1.03,9,1.9,11.58-.25,3.12-2.6,3.75-8.68,1.23-11.58Z"/>
      <path class="cls-5" d="m194.69,36.23c-.02.55-27.28,3.14-63.05-2.71-27.2-4.45-27.94-8.65-49.01-11.58C38.24,15.77,4.28,29.2,3.8,27.12c-.35-1.53,17.96-9.45,40.64-11.58,20.9-1.96,37.89,1.7,58.62,6.16,16.6,3.57,15.59,4.63,30.54,7.88,35.35,7.68,61.1,6.11,61.08,6.65Z"/>
      <path class="cls-5" d="m238.28,21.21c-2.48-2.12-7.86.68-11.33,2.22-20.46,9.05-40.79,3.48-40.89,5.42-.09,1.72,16.02,3.39,26.11,4.43,18.59,1.93,23.22.88,25.62-2.22,2.34-3.03,2.58-8.07.49-9.85Z"/>
      <path class="cls-5" d="m128.43,19.98c-6.49-2.88-12.54-3.64-24.63-5.17-12.83-1.62-19.92-.69-19.95-1.23-.04-.86,17.9-1.23,29.8-1.48,6.2-.13,12.42-.17,17.24,3.94,2.26,1.93,4.58,5.08,3.94,5.91-.63.82-3.92-.87-6.4-1.97Z"/>
      <path class="cls-5" d="m1.83,17.76c2.85,2.86,8.05.86,20.44-2.46,23.56-6.31,30.52-5.98,30.54-8.13.03-4.24-26.93-5.95-33.99-6.4C10.96.26,6.41.47,3.31,3.72-.35,7.55-1.16,14.75,1.83,17.76Z"/>
      <path class="cls-5" d="m127.94,6.18c-.13,2.84,23.43,7.16,44.09,6.4,21.08-.77,44.44-7.01,44.09-9.85-.67-5.42-87.93-2-88.18,3.45Z"/>
      <path class="cls-1" d="m94.2,38.2c-.07-1.26-9.2-.09-25.37-2.71-5.7-.92-9.86-1.92-16.01-.99-4.56.7-11.6,2.68-11.58,4.93.02,2.53,8.99,4.93,16.26,5.42,2.61.18,5.8.16,20.69-2.71,10.71-2.06,16.06-3.11,16.01-3.94Z"/>
      <path class="cls-1" d="m206.76,46.58c-.55-1.76-11.29.18-21.18,1.97-11.24,2.03-24.27,4.38-24.14,6.4.14,2.04,13.76,4.29,27.09.99,9.75-2.42,18.76-7.66,18.23-9.36Z"/>
    </g>
  </g>
  <g id="Layer_2" data-name="Layer 2">
    <circle class="cls-3" cx="13.16" cy="14.33" r="2.23"/>
    <circle class="cls-3" cx="225.72" cy="12.09" r="2.23"/>
  </g>
</svg>