<?xml version="1.0" encoding="UTF-8"?>
<svg xmlns="http://www.w3.org/2000/svg" viewBox="0 0 431.52 123.95">
  <defs>
    <style>
      .cls-1 {
        fill: #d6a667;
      }

      .cls-2 {
        fill: #8c8e3d;
        stroke: #1f351e;
        stroke-miterlimit: 10;
        stroke-width: 3px;
      }
    </style>
  </defs>
  <g id="Layer_2" data-name="Layer 2">
    <polygon class="cls-1" points="86.56 77.13 91.32 94.73 126.05 100.39 93.2 104.94 110.05 109.18 94.51 114.23 97.45 123.95 413.94 116.11 413.73 107.72 403.43 106.58 413.52 99.33 413.35 92.58 401.95 90.5 413.18 85.35 412.77 69.04 86.56 77.13"/>
  </g>
  <g id="Layer_4" data-name="Layer 4">
    <path class="cls-2" d="m49.25,59.71c-2.16,6.02,22.58,28.79,49.39,28.99,33.15.26,59.26-34.06,57.25-37.1-.97-1.48-9.92,2.4-15.48,5.65-7.76,4.54-9.68,8.3-15.97,13.27-4.38,3.46-13.11,10.35-24.57,11.3-12.04,1-28.51-4.42-34.05-15.33-1.58-3.11-2.5-7.12-6.25-8.75-3.79-1.65-9.46-.43-10.32,1.97Z"/>
    <path class="cls-2" d="m269.86,20.87c.1-4.64,157.04-14.46,160.11,28.18,1.15,15.91-19.15,38.9-37.11,41.98-26.26,4.51-51.54-32.81-50.14-43.3.5-3.76,4.69-6.06,7.81-4.63,3.97,1.81,6.09,9.56,7.16,12.82,6.87,20.92,25.38,24.6,34.19,23.56,14.61-1.72,30.87-19.74,29.95-30.43-1.27-14.83-34.87-7-113.96-20.5-25.36-4.33-38.05-6.5-38.02-7.68Z"/>
  </g>
</svg>