<svg id="bush_1" data-name="bush 1" xmlns="http://www.w3.org/2000/svg" viewBox="0 0 175 175"><defs><style>.cls-1{fill:#6e4c54;stroke:#593f45;stroke-width:2px;}.cls-1,.cls-2,.cls-3{stroke-miterlimit:10;}.cls-2{fill:#a5717a;}.cls-2,.cls-3{stroke:#7d565d;}.cls-3{fill:none;stroke-width:0.36px;}</style></defs><path class="cls-1" d="M157.19,111.37H84.65a5.89,5.89,0,0,1-1.45-.19l-15-4.09a7.51,7.51,0,0,0-1.95-.26H18a2.44,2.44,0,0,1-2-3.82l4.15-6.07a2.53,2.53,0,0,1,.81-.75L44.2,82.5a6.94,6.94,0,0,0,3-3.69l4.65-13.36a1,1,0,0,1,.53-.59l7.14-3.32a1.54,1.54,0,0,1,.59-.14l61.48-.52a1.47,1.47,0,0,1,1.41,1l8.27,23.65a7.48,7.48,0,0,0,3.82,4.31l18.61,9A4.68,4.68,0,0,1,155.9,101l3.37,7.06a2.29,2.29,0,0,1-2.07,3.28Z"/><path class="cls-2" d="M114.57,65.6H52.46a.36.36,0,0,1-.2-.66L58,61.55a4.82,4.82,0,0,1,2.48-.68h61.17a.24.24,0,0,1,.15.43l-4.36,3.33a4.67,4.67,0,0,1-2.83,1Z"/><path class="cls-3" d="M61.27,61.79l-4.44,2.65a.09.09,0,0,0,0,.16h53.67l2.4-1.25h3.13l2-1.37a.08.08,0,0,0,0-.15H61.26Z"/><path class="cls-3" d="M66.57,63.19l-3.24-.06h-.07l-1,.62s0,.1,0,.1h45.07L110,62.79s0-.1,0-.1l-41.7-.19h0l-1.68.69Z"/></svg>