<?xml version="1.0" encoding="UTF-8"?>
<svg id="Layer_1" data-name="Layer 1" xmlns="http://www.w3.org/2000/svg" viewBox="0 0 175 175">
  <defs>
    <style>
      .cls-1 {
        fill: #ce8435;
      }

      .cls-2 {
        fill: #f9a85c;
      }

      .cls-3 {
        opacity: .34;
      }

      .cls-3, .cls-4 {
        isolation: isolate;
      }

      .cls-3, .cls-5 {
        fill: #7a5833;
      }

      .cls-4 {
        fill: #0e8a44;
        opacity: .48;
      }

      .cls-6 {
        fill: #57745f;
      }

      .cls-7 {
        fill: #603813;
      }

      .cls-8 {
        fill: #242424;
      }

      .cls-9 {
        glyph-orientation-vertical: 0deg;
        text-orientation: upright;
        writing-mode: tb;
      }

      .cls-9, .cls-10 {
        fill: #fff;
        font-family: MyriadPro-Regular, 'Myriad Pro';
        font-size: 12px;
      }

      .cls-11 {
        fill: #fcd6c8;
      }

      .cls-12 {
        fill: #a67d52;
      }
    </style>
  </defs>
  <g id="Layer_27" data-name="Layer 27">
    <g>
      <rect class="cls-11" x="3" y="3.03" width="169" height="168.95"/>
      <path class="cls-7" d="m169,6.03v162.95H6V6.03h163M175,.03H0v174.95h175V.03h0Z"/>
    </g>
    <g id="beehive">
      <g id="Layer_7_copy_2" data-name="Layer 7 copy 2">
        <path class="cls-2" d="m123.95,133.4c1.76,9.41-8.85,24.98-24.73,27.93-15.88,2.97-31.03-7.77-32.79-17.2-1.76-9.41,9.69-19.46,25.58-22.42,15.88-2.97,30.19,2.27,31.94,11.68Z"/>
        <ellipse class="cls-1" cx="93.44" cy="127.53" rx="39.09" ry="20.97" transform="translate(-21.83 19.32) rotate(-10.58)"/>
        <ellipse class="cls-2" cx="90.73" cy="108.36" rx="48.16" ry="25.11" transform="translate(-13.05 12.42) rotate(-7.31)"/>
        <ellipse class="cls-1" cx="87.61" cy="92.4" rx="42.59" ry="23.7" transform="translate(-16.39 18.94) rotate(-11.29)"/>
        <ellipse class="cls-2" cx="81.99" cy="73.12" rx="26.89" ry="12.92" transform="translate(-15.16 21.82) rotate(-13.89)"/>
      </g>
      <g id="Layer_19" data-name="Layer 19">
        <ellipse cx="92.73" cy="127.62" rx="10.36" ry="16.57" transform="translate(-16.42 13.73) rotate(-7.78)"/>
      </g>
      <g id="Layer_19_copy" data-name="Layer 19 copy">
        <ellipse class="cls-8" cx="94.18" cy="126.94" rx="8.81" ry="15.65" transform="translate(-22.03 19.79) rotate(-10.75)"/>
      </g>
      <g id="Layer_23" data-name="Layer 23">
        <path class="cls-6" d="m66.79,21.12c6.03,4.31,13.47,14.45,10.31,18.88s-18.3-1.83-24.33-6.14c-6.03-4.31-13.26-18.73-12.05-20.61,1.5-2.3,20.05,3.55,26.08,7.86h0Z"/>
      </g>
      <g id="Layer_9_copy_2" data-name="Layer 9 copy 2">
        <g id="Layer_21_copy" data-name="Layer 21 copy">
          <path class="cls-3" d="m83.62,52.76c-.8.26-1.54.45-2.27.61-2.63.54-5.23,1.03-7.49,1.28-.56-1.4-1.22-2.77-1.97-4.07,2.52-.8,5.74-1.58,9.11-2.17.34-.06.69-.12,1-.17.67,1.46,1.21,2.99,1.6,4.53h.01Z"/>
        </g>
        <path class="cls-12" d="m83.09,66.57c-4.21,7.53-6.18-.29-6.89-4.29-.4-2.3-1.03-4.54-1.89-6.72-.54-1.4-1.18-2.75-1.9-4.06-.89-1.6-1.9-3.12-3.05-4.54-.95-1.17-2.04-2.61-1.5-4.03.11-.32.3-.59.54-.84,1.67-1.91,4.68-2.17,6.99-1.17,2.33,1.02,4.06,3.07,5.39,5.24.58.95,1.09,1.93,1.53,2.94.65,1.44,1.16,2.97,1.54,4.51.5,2.05.74,4.14.73,6.23,0,2.31-.36,4.69-1.49,6.7h0Z"/>
        <path class="cls-12" d="m101.04,38.98c-.14.58-.4,1.16-.83,1.75-2.45,3.51-9.63,7.53-13.87,9.18-7.99,3.1-16.91,4.18-25.43,3.08-4.11-.54-8.26-1.6-11.52-3.85-12.22-8.42,2.26-9.84,9.59-10.11,10.21-.37,22.88-2.02,30.45-8.64,1.1-.96,1.89-1.46,2.55-1.68,1.38-.45,2.15.4,3.73,1.18.52.28.96.63,1.35,1.05,2.44,2.57,4.71,5.22,3.99,8.05h-.01Z"/>
      </g>
      <g id="Layer_21" data-name="Layer 21">
        <path class="cls-5" d="m101.04,38.98s-.07.08-.11.11c-.76.65-3.39-1.16-5.85-4.03-2.45-2.85-3.83-5.68-3.11-6.37,1.38-.45,2.15.4,3.73,1.18.52.28.96.63,1.35,1.05,2.44,2.57,4.71,5.22,3.99,8.05h0Z"/>
      </g>
      <path class="cls-4" d="m71.71,34.51c-2.71-4.21-7.25-7.88-12.32-10.93s-10.68-5.52-16.28-7.98c3.32.63,6.38,2.06,9.3,3.52,6.56,3.3,12.96,7.02,17.65,11.68,1.46,1.46,2.81,3.21,2.27,4.76-.51-.74-1.02-1.5-.65-1.06h.01Z"/>
    </g>
  </g>
  <text class="cls-10" transform="translate(7.48 10.7)"><tspan x="0" y="0">175</tspan></text>
  <text class="cls-9" transform="translate(4.87 128.48)"><tspan x="0" y="0">175</tspan></text>
  <text class="cls-10" transform="translate(169.06 31.31)"><tspan x="0" y="0">6</tspan></text>
</svg>