<?xml version="1.0" encoding="utf-8"?>
<!-- Generator: Adobe Illustrator 27.2.0, SVG Export Plug-In . SVG Version: 6.00 Build 0)  -->
<svg version="1.1" id="Layer_1" xmlns="http://www.w3.org/2000/svg" xmlns:xlink="http://www.w3.org/1999/xlink" x="0px" y="0px"
	 viewBox="0 0 210 175" style="enable-background:new 0 0 210 175;" xml:space="preserve">
<style type="text/css">
	.st0{fill:#FDD8C9;}
	.st1{fill:#603913;}
	.st2{fill:#FAA95C;}
	.st3{fill:#CF8635;}
	.st4{fill:#010101;}
	.st5{fill:#242424;}
	.st6{fill:#58755F;}
	.st7{opacity:0.34;fill:#7A5834;enable-background:new    ;}
	.st8{fill:#A77D52;}
	.st9{fill:#7A5834;}
	.st10{opacity:0.48;fill:#128B44;enable-background:new    ;}
	.st11{fill:#FFFFFF;}
	.st12{fill:#EBAF98;}
	.st13{font-family:'MyriadPro-Regular';}
	.st14{font-size:12px;}
	.st15{fill:#231F20;}
	.st16{font-size:8.8px;}
</style>
<g id="Layer_27">
	<g>
		<rect x="3" y="3" class="st0" width="204" height="168.9"/>
		<path class="st1" d="M204,6.1V169H6V6.1H204 M210,0.1H0V175h210V0.1L210,0.1z"/>
	</g>
</g>
<g>
	<g id="beehive">
		<g id="Layer_7_copy_2">
			<path class="st2" d="M194.9,148.5c1.6,8.3-7.8,22-21.8,24.6c-14,2.6-27.3-6.9-28.9-15.1c-1.6-8.3,8.5-17.1,22.5-19.7
				C180.8,135.6,193.4,140.2,194.9,148.5z"/>
			
				<ellipse transform="matrix(0.983 -0.1836 0.1836 0.983 -23.4536 33.2995)" class="st3" cx="168.1" cy="143.3" rx="34.4" ry="18.5"/>
			
				<ellipse transform="matrix(0.9919 -0.1272 0.1272 0.9919 -14.7373 22.1104)" class="st2" cx="165.7" cy="126.4" rx="42.4" ry="22.1"/>
			
				<ellipse transform="matrix(0.9806 -0.1958 0.1958 0.9806 -18.8442 34.0786)" class="st3" cx="163" cy="112.4" rx="37.5" ry="20.9"/>
			
				<ellipse transform="matrix(0.9708 -0.2401 0.2401 0.9708 -18.2763 40.7198)" class="st2" cx="158" cy="95.4" rx="23.7" ry="11.4"/>
		</g>
		<g id="Layer_19">
			
				<ellipse transform="matrix(0.9908 -0.1354 0.1354 0.9908 -17.8664 23.9896)" class="st4" cx="167.5" cy="143.4" rx="9.1" ry="14.6"/>
		</g>
		<g id="Layer_19_copy">
			
				<ellipse transform="matrix(0.9825 -0.1865 0.1865 0.9825 -23.6706 33.9799)" class="st5" cx="168.7" cy="142.8" rx="7.8" ry="13.8"/>
		</g>
		<g id="Layer_23">
			<path class="st6" d="M144.6,49.6c5.3,3.8,11.9,12.7,9.1,16.6s-16.1-1.6-21.4-5.4s-11.7-16.5-10.6-18.2
				C123,40.6,139.3,45.8,144.6,49.6L144.6,49.6L144.6,49.6z"/>
		</g>
		<g id="Layer_9_copy_2">
			<g id="Layer_21_copy">
				<path class="st7" d="M159.4,77.4c-0.7,0.2-1.4,0.4-2,0.5c-2.3,0.5-4.6,0.9-6.6,1.1c-0.5-1.2-1.1-2.4-1.7-3.6
					c2.2-0.7,5.1-1.4,8-1.9c0.3-0.1,0.6-0.1,0.9-0.2C158.6,74.7,159.1,76.1,159.4,77.4L159.4,77.4L159.4,77.4z"/>
			</g>
			<path class="st8" d="M159,89.6c-3.7,6.6-5.4-0.2-6.1-3.8c-0.4-2-0.9-4-1.7-5.9c-0.5-1.2-1-2.4-1.7-3.6c-0.8-1.4-1.7-2.8-2.7-4
				c-0.8-1-1.8-2.3-1.3-3.6c0.1-0.3,0.3-0.5,0.5-0.7c1.5-1.7,4.1-1.9,6.2-1c2.1,0.9,3.6,2.7,4.8,4.6c0.5,0.8,1,1.7,1.3,2.6
				c0.6,1.3,1,2.6,1.4,4c0.4,1.8,0.6,3.7,0.6,5.5C160.3,85.8,160,87.8,159,89.6L159,89.6L159,89.6z"/>
			<path class="st8" d="M174.8,65.3c-0.1,0.5-0.4,1-0.7,1.5c-2.2,3.1-8.5,6.6-12.2,8.1c-7,2.7-14.9,3.7-22.4,2.7
				c-3.6-0.5-7.3-1.4-10.1-3.4c-10.8-7.4,2-8.7,8.4-8.9c9-0.3,20.1-1.8,26.8-7.6c1-0.8,1.7-1.3,2.2-1.5c1.2-0.4,1.9,0.3,3.3,1
				c0.5,0.2,0.9,0.6,1.2,0.9C173.4,60.5,175.4,62.8,174.8,65.3L174.8,65.3L174.8,65.3z"/>
		</g>
		<g id="Layer_21">
			<path class="st9" d="M174.8,65.3c0,0-0.1,0.1-0.1,0.1c-0.7,0.6-3-1-5.1-3.5c-2.2-2.5-3.4-5-2.7-5.6c1.2-0.4,1.9,0.3,3.3,1
				c0.5,0.2,0.9,0.6,1.2,0.9C173.4,60.5,175.4,62.8,174.8,65.3L174.8,65.3L174.8,65.3z"/>
		</g>
		<path class="st10" d="M149,61.4c-2.4-3.7-6.4-6.9-10.8-9.6s-9.4-4.9-14.3-7c2.9,0.6,5.6,1.8,8.2,3.1c5.8,2.9,11.4,6.2,15.6,10.3
			c1.3,1.3,2.5,2.8,2,4.2C149.1,61.7,148.6,61,149,61.4L149,61.4L149,61.4z"/>
	</g>
	<g>
		<g id="beehive-2">
			<g id="Layer_7_copy_2-2">
				<path class="st2" d="M65.1,127.2c0.4,2-1.9,5.2-5.2,5.9c-3.3,0.6-6.5-1.6-6.9-3.6c-0.4-2,2-4.1,5.4-4.7
					C61.7,124.1,64.7,125.2,65.1,127.2z"/>
				<ellipse transform="matrix(0.983 -0.1836 0.1836 0.983 -22.1302 12.91)" class="st3" cx="58.7" cy="126" rx="8.2" ry="4.4"/>
				
					<ellipse transform="matrix(0.9919 -0.1272 0.1272 0.9919 -15.0419 8.3812)" class="st2" cx="58.1" cy="121.9" rx="10.1" ry="5.3"/>
				
					<ellipse transform="matrix(0.9806 -0.1958 0.1958 0.9806 -22.1045 13.5369)" class="st3" cx="57.4" cy="118.6" rx="8.9" ry="5"/>
				
					<ellipse transform="matrix(0.9708 -0.2401 0.2401 0.9708 -25.8494 16.8498)" class="st2" cx="56.2" cy="114.5" rx="5.7" ry="2.7"/>
			</g>
			<g id="Layer_19-2">
				<ellipse transform="matrix(0.9908 -0.1354 0.1354 0.9908 -16.5155 9.0795)" class="st4" cx="58.5" cy="126" rx="2.2" ry="3.5"/>
			</g>
			<g id="Layer_19_copy-2">
				
					<ellipse transform="matrix(0.9825 -0.1865 0.1865 0.9825 -22.4392 13.1757)" class="st5" cx="58.8" cy="125.8" rx="1.8" ry="3.3"/>
			</g>
			<g id="Layer_23-2">
				<path class="st6" d="M53,103.6c1.3,0.9,2.8,3,2.2,4s-3.8-0.4-5.1-1.3c-1.3-0.9-2.8-3.9-2.5-4.3C47.9,101.5,51.8,102.7,53,103.6
					L53,103.6L53,103.6z"/>
			</g>
			<g id="Layer_9_copy_2-2">
				<g id="Layer_21_copy-2">
					<path class="st7" d="M56.6,110.3c-0.2,0.1-0.3,0.1-0.5,0.1c-0.5,0.1-1.1,0.2-1.6,0.3c-0.1-0.3-0.3-0.6-0.4-0.9
						c0.5-0.2,1.2-0.3,1.9-0.5c0.1,0,0.1,0,0.2,0C56.4,109.6,56.5,109.9,56.6,110.3C56.6,110.3,56.6,110.3,56.6,110.3z"/>
				</g>
				<path class="st8" d="M56.5,113.2c-0.9,1.6-1.3-0.1-1.5-0.9c-0.1-0.5-0.2-0.9-0.4-1.4c-0.1-0.3-0.2-0.6-0.4-0.8
					c-0.2-0.3-0.4-0.7-0.6-0.9c-0.2-0.2-0.4-0.6-0.3-0.8c0-0.1,0.1-0.1,0.1-0.2c0.3-0.4,1-0.5,1.5-0.2s0.8,0.6,1.1,1.1
					c0.1,0.2,0.2,0.4,0.3,0.6c0.1,0.3,0.2,0.6,0.3,0.9c0.1,0.4,0.2,0.9,0.2,1.3C56.8,112.2,56.7,112.7,56.5,113.2L56.5,113.2
					L56.5,113.2z"/>
				<path class="st8" d="M60.2,107.4c0,0.1-0.1,0.2-0.2,0.4c-0.5,0.7-2,1.6-2.9,1.9c-1.7,0.7-3.5,0.9-5.3,0.7
					c-0.9-0.1-1.7-0.3-2.4-0.8c-2.6-1.8,0.5-2.1,2-2.1c2.1-0.1,4.8-0.4,6.4-1.8c0.2-0.2,0.4-0.3,0.5-0.3c0.3-0.1,0.5,0.1,0.8,0.2
					c0.1,0.1,0.2,0.1,0.3,0.2C59.9,106.2,60.4,106.8,60.2,107.4L60.2,107.4L60.2,107.4z"/>
			</g>
			<g id="Layer_21-2">
				<path class="st9" d="M60.2,107.4C60.2,107.4,60.2,107.4,60.2,107.4c-0.2,0.2-0.7-0.2-1.2-0.8c-0.5-0.6-0.8-1.2-0.7-1.3
					c0.3-0.1,0.5,0.1,0.8,0.2c0.1,0.1,0.2,0.1,0.3,0.2C59.9,106.2,60.4,106.8,60.2,107.4L60.2,107.4L60.2,107.4z"/>
			</g>
			<path class="st10" d="M54.1,106.4c-0.6-0.9-1.5-1.7-2.6-2.3s-2.2-1.2-3.4-1.7c0.7,0.1,1.3,0.4,2,0.7c1.4,0.7,2.7,1.5,3.7,2.4
				c0.3,0.3,0.6,0.7,0.5,1C54.1,106.5,54,106.3,54.1,106.4L54.1,106.4L54.1,106.4z"/>
		</g>
		<g id="beehive-3">
			<g id="Layer_7_copy_2-3">
				<path class="st2" d="M88.3,127.2c0.4,2-1.9,5.2-5.2,5.9c-3.3,0.6-6.5-1.6-6.9-3.6c-0.4-2,2-4.1,5.4-4.7
					C84.9,124.1,87.9,125.2,88.3,127.2z"/>
				<ellipse transform="matrix(0.983 -0.1836 0.1836 0.983 -21.7356 17.1781)" class="st3" cx="81.9" cy="126" rx="8.2" ry="4.4"/>
				
					<ellipse transform="matrix(0.9919 -0.1272 0.1272 0.9919 -14.8534 11.3384)" class="st2" cx="81.3" cy="121.9" rx="10.1" ry="5.3"/>
				
					<ellipse transform="matrix(0.9806 -0.1958 0.1958 0.9806 -21.6543 18.0886)" class="st3" cx="80.7" cy="118.6" rx="8.9" ry="5"/>
				
					<ellipse transform="matrix(0.9708 -0.2401 0.2401 0.9708 -25.1692 22.4311)" class="st2" cx="79.5" cy="114.5" rx="5.7" ry="2.7"/>
			</g>
			<g id="Layer_19-3">
				<ellipse transform="matrix(0.9908 -0.1354 0.1354 0.9908 -16.3022 12.225)" class="st4" cx="81.7" cy="126" rx="2.2" ry="3.5"/>
			</g>
			<g id="Layer_19_copy-3">
				
					<ellipse transform="matrix(0.9825 -0.1865 0.1865 0.9825 -22.0299 17.5126)" class="st5" cx="82.1" cy="125.8" rx="1.8" ry="3.3"/>
			</g>
			<g id="Layer_23-3">
				<path class="st6" d="M76.3,103.6c1.3,0.9,2.8,3,2.2,4s-3.8-0.4-5.1-1.3c-1.3-0.9-2.8-3.9-2.5-4.3
					C71.1,101.5,75,102.7,76.3,103.6L76.3,103.6L76.3,103.6z"/>
			</g>
			<g id="Layer_9_copy_2-3">
				<g id="Layer_21_copy-3">
					<path class="st7" d="M79.8,110.3c-0.2,0.1-0.3,0.1-0.5,0.1c-0.6,0.1-1.1,0.2-1.6,0.3c-0.1-0.3-0.3-0.6-0.4-0.9
						c0.5-0.2,1.2-0.3,1.9-0.5c0.1,0,0.1,0,0.2,0C79.6,109.6,79.7,109.9,79.8,110.3C79.8,110.3,79.8,110.3,79.8,110.3z"/>
				</g>
				<path class="st8" d="M79.7,113.2c-0.9,1.6-1.3-0.1-1.4-0.9c-0.1-0.5-0.2-0.9-0.4-1.4c-0.1-0.3-0.2-0.6-0.4-0.8
					c-0.2-0.3-0.4-0.7-0.6-0.9c-0.2-0.2-0.4-0.6-0.3-0.8c0-0.1,0.1-0.1,0.1-0.2c0.3-0.4,1-0.5,1.5-0.2s0.8,0.6,1.1,1.1
					c0.1,0.2,0.2,0.4,0.3,0.6c0.1,0.3,0.2,0.6,0.3,0.9c0.1,0.4,0.2,0.9,0.2,1.3C80,112.2,79.9,112.7,79.7,113.2L79.7,113.2
					L79.7,113.2z"/>
				<path class="st8" d="M83.5,107.4c0,0.1-0.1,0.2-0.2,0.4c-0.5,0.7-2,1.6-2.9,1.9c-1.7,0.7-3.6,0.9-5.3,0.7
					c-0.9-0.1-1.7-0.3-2.4-0.8c-2.6-1.8,0.5-2.1,2-2.1c2.1-0.1,4.8-0.4,6.4-1.8c0.2-0.2,0.4-0.3,0.5-0.3c0.3-0.1,0.4,0.1,0.8,0.2
					c0.1,0.1,0.2,0.1,0.3,0.2C83.1,106.2,83.6,106.8,83.5,107.4L83.5,107.4L83.5,107.4z"/>
			</g>
			<g id="Layer_21-3">
				<path class="st9" d="M83.5,107.4C83.5,107.4,83.5,107.4,83.5,107.4c-0.2,0.2-0.7-0.2-1.2-0.8c-0.5-0.6-0.8-1.2-0.7-1.3
					c0.3-0.1,0.4,0.1,0.8,0.2c0.1,0.1,0.2,0.1,0.3,0.2C83.2,106.2,83.6,106.8,83.5,107.4L83.5,107.4L83.5,107.4z"/>
			</g>
			<path class="st10" d="M77.3,106.4c-0.6-0.9-1.5-1.7-2.6-2.3s-2.2-1.2-3.4-1.7c0.7,0.1,1.3,0.4,1.9,0.7c1.4,0.7,2.7,1.5,3.7,2.4
				c0.3,0.3,0.6,0.7,0.5,1C77.4,106.5,77.3,106.3,77.3,106.4L77.3,106.4L77.3,106.4z"/>
		</g>
		<g id="beehive-4">
			<g id="Layer_7_copy_2-4">
				<path class="st2" d="M112.3,127.2c0.4,2-1.9,5.2-5.2,5.9c-3.3,0.6-6.5-1.6-6.9-3.6c-0.4-2,2-4.1,5.4-4.7
					C108.9,124.1,111.9,125.2,112.3,127.2z"/>
				<ellipse transform="matrix(0.983 -0.1836 0.1836 0.983 -21.328 21.5777)" class="st3" cx="105.9" cy="126" rx="8.2" ry="4.4"/>
				
					<ellipse transform="matrix(0.9919 -0.1272 0.1272 0.9919 -14.6586 14.3877)" class="st2" cx="105.3" cy="121.9" rx="10.1" ry="5.3"/>
				<ellipse transform="matrix(0.9806 -0.1958 0.1958 0.9806 -21.19 22.7806)" class="st3" cx="104.6" cy="118.6" rx="8.9" ry="5"/>
				
					<ellipse transform="matrix(0.9708 -0.2401 0.2401 0.9708 -24.4697 28.1853)" class="st2" cx="103.5" cy="114.5" rx="5.7" ry="2.7"/>
			</g>
			<g id="Layer_19-4">
				
					<ellipse transform="matrix(0.9908 -0.1354 0.1354 0.9908 -16.0806 15.471)" class="st4" cx="105.7" cy="126" rx="2.2" ry="3.5"/>
			</g>
			<g id="Layer_19_copy-4">
				
					<ellipse transform="matrix(0.9825 -0.1865 0.1865 0.9825 -21.6091 21.9834)" class="st5" cx="106" cy="125.8" rx="1.8" ry="3.3"/>
			</g>
			<g id="Layer_23-4">
				<path class="st6" d="M100.3,103.6c1.3,0.9,2.8,3,2.2,4s-3.8-0.4-5.1-1.3c-1.3-0.9-2.8-3.9-2.5-4.3
					C95.1,101.5,99,102.7,100.3,103.6L100.3,103.6L100.3,103.6z"/>
			</g>
			<g id="Layer_9_copy_2-4">
				<g id="Layer_21_copy-4">
					<path class="st7" d="M103.8,110.3c-0.2,0.1-0.3,0.1-0.5,0.1c-0.6,0.1-1.1,0.2-1.6,0.3c-0.1-0.3-0.3-0.6-0.4-0.9
						c0.5-0.2,1.2-0.3,1.9-0.5c0.1,0,0.1,0,0.2,0C103.6,109.6,103.7,109.9,103.8,110.3C103.8,110.3,103.8,110.3,103.8,110.3z"/>
				</g>
				<path class="st8" d="M103.7,113.2c-0.9,1.6-1.3-0.1-1.4-0.9c-0.1-0.5-0.2-0.9-0.4-1.4c-0.1-0.3-0.2-0.6-0.4-0.8
					c-0.2-0.3-0.4-0.7-0.6-0.9c-0.2-0.2-0.4-0.6-0.3-0.8c0-0.1,0.1-0.1,0.1-0.2c0.3-0.4,1-0.5,1.5-0.2s0.8,0.6,1.1,1.1
					c0.1,0.2,0.2,0.4,0.3,0.6c0.1,0.3,0.2,0.6,0.3,0.9c0.1,0.4,0.2,0.9,0.2,1.3C104,112.2,103.9,112.7,103.7,113.2L103.7,113.2
					L103.7,113.2z"/>
				<path class="st8" d="M107.5,107.4c0,0.1-0.1,0.2-0.2,0.4c-0.5,0.7-2,1.6-2.9,1.9c-1.7,0.7-3.6,0.9-5.3,0.7
					c-0.9-0.1-1.7-0.3-2.4-0.8c-2.6-1.8,0.5-2.1,2-2.1c2.1-0.1,4.8-0.4,6.4-1.8c0.2-0.2,0.4-0.3,0.5-0.3c0.3-0.1,0.4,0.1,0.8,0.2
					c0.1,0.1,0.2,0.1,0.3,0.2C107.1,106.2,107.6,106.8,107.5,107.4L107.5,107.4L107.5,107.4z"/>
			</g>
			<g id="Layer_21-4">
				<path class="st9" d="M107.5,107.4C107.5,107.4,107.4,107.4,107.5,107.4c-0.2,0.2-0.7-0.2-1.2-0.8c-0.5-0.6-0.8-1.2-0.7-1.3
					c0.3-0.1,0.4,0.1,0.8,0.2c0.1,0.1,0.2,0.1,0.3,0.2C107.1,106.2,107.6,106.8,107.5,107.4L107.5,107.4L107.5,107.4z"/>
			</g>
			<path class="st10" d="M101.3,106.4c-0.6-0.9-1.5-1.7-2.6-2.3s-2.2-1.2-3.4-1.7c0.7,0.1,1.3,0.4,1.9,0.7c1.4,0.7,2.7,1.5,3.7,2.4
				c0.3,0.3,0.6,0.7,0.5,1C101.3,106.5,101.2,106.3,101.3,106.4L101.3,106.4L101.3,106.4z"/>
		</g>
		<g id="beehive-5">
			<g id="Layer_7_copy_2-5">
				<path class="st2" d="M42.9,159.4c0.4,2-1.9,5.2-5.2,5.9c-3.3,0.6-6.5-1.6-6.9-3.6c-0.4-2,2-4.1,5.4-4.7
					C39.5,156.3,42.5,157.4,42.9,159.4L42.9,159.4z"/>
				<ellipse transform="matrix(0.983 -0.1836 0.1836 0.983 -28.4199 9.3868)" class="st3" cx="36.5" cy="158.2" rx="8.2" ry="4.4"/>
				
					<ellipse transform="matrix(0.9919 -0.1272 0.1272 0.9919 -19.3191 5.8217)" class="st2" cx="35.9" cy="154.1" rx="10.1" ry="5.3"/>
				<ellipse transform="matrix(0.9806 -0.1958 0.1958 0.9806 -28.8365 9.8201)" class="st3" cx="35.3" cy="150.8" rx="8.9" ry="5"/>
				
					<ellipse transform="matrix(0.9708 -0.2401 0.2401 0.9708 -34.2269 12.4711)" class="st2" cx="34.1" cy="146.7" rx="5.7" ry="2.7"/>
			</g>
			<g id="Layer_19-5">
				
					<ellipse transform="matrix(0.9908 -0.1354 0.1354 0.9908 -21.0776 6.3751)" class="st4" cx="36.3" cy="158.2" rx="2.2" ry="3.5"/>
			</g>
			<g id="Layer_19_copy-5">
				<ellipse transform="matrix(0.9825 -0.1865 0.1865 0.9825 -28.8338 9.6083)" class="st5" cx="36.6" cy="158" rx="1.8" ry="3.3"/>
			</g>
			<g id="Layer_23-5">
				<path class="st6" d="M30.9,135.8c1.3,0.9,2.8,3,2.2,4s-3.8-0.4-5.1-1.3c-1.3-0.9-2.8-3.9-2.5-4.3
					C25.7,133.7,29.6,134.9,30.9,135.8L30.9,135.8L30.9,135.8z"/>
			</g>
			<g id="Layer_9_copy_2-5">
				<g id="Layer_21_copy-5">
					<path class="st7" d="M34.4,142.5c-0.2,0.1-0.3,0.1-0.5,0.1c-0.5,0.1-1.1,0.2-1.6,0.3c-0.1-0.3-0.3-0.6-0.4-0.9
						c0.5-0.2,1.2-0.3,1.9-0.5c0.1,0,0.1,0,0.2,0C34.2,141.8,34.3,142.1,34.4,142.5L34.4,142.5z"/>
				</g>
				<path class="st8" d="M34.3,145.4c-0.9,1.6-1.3-0.1-1.5-0.9c-0.1-0.5-0.2-0.9-0.4-1.4c-0.1-0.3-0.2-0.6-0.4-0.9
					c-0.2-0.3-0.4-0.7-0.6-0.9c-0.2-0.2-0.4-0.6-0.3-0.9c0-0.1,0.1-0.1,0.1-0.2c0.4-0.4,1-0.5,1.5-0.2c0.5,0.2,0.8,0.6,1.1,1.1
					c0.1,0.2,0.2,0.4,0.3,0.6c0.1,0.3,0.2,0.6,0.3,0.9c0.1,0.4,0.2,0.9,0.2,1.3C34.6,144.4,34.5,144.9,34.3,145.4L34.3,145.4
					L34.3,145.4z"/>
				<path class="st8" d="M38.1,139.6c0,0.1-0.1,0.2-0.2,0.4c-0.5,0.7-2,1.6-2.9,1.9c-1.7,0.6-3.5,0.9-5.3,0.6
					c-0.9-0.1-1.7-0.3-2.4-0.8c-2.6-1.8,0.5-2.1,2-2.1c2.1-0.1,4.8-0.4,6.4-1.8c0.2-0.2,0.4-0.3,0.5-0.4c0.3-0.1,0.5,0.1,0.8,0.2
					c0.1,0.1,0.2,0.1,0.3,0.2C37.7,138.4,38.2,139,38.1,139.6L38.1,139.6L38.1,139.6z"/>
			</g>
			<g id="Layer_21-5">
				<path class="st9" d="M38.1,139.6C38.1,139.6,38.1,139.6,38.1,139.6c-0.2,0.2-0.7-0.2-1.2-0.8c-0.5-0.6-0.8-1.2-0.7-1.3
					c0.3-0.1,0.5,0.1,0.8,0.2c0.1,0.1,0.2,0.1,0.3,0.2C37.7,138.4,38.2,139,38.1,139.6L38.1,139.6L38.1,139.6z"/>
			</g>
			<path class="st10" d="M31.9,138.6c-0.6-0.9-1.5-1.7-2.6-2.3s-2.2-1.2-3.4-1.7c0.7,0.1,1.3,0.4,2,0.7c1.4,0.7,2.7,1.5,3.7,2.4
				c0.3,0.3,0.6,0.7,0.5,1C31.9,138.7,31.8,138.5,31.9,138.6L31.9,138.6L31.9,138.6z"/>
		</g>
		<g id="beehive-6">
			<g id="Layer_7_copy_2-6">
				<path class="st2" d="M66.1,159.4c0.4,2-1.9,5.2-5.2,5.9c-3.3,0.6-6.5-1.6-6.9-3.6s2-4.1,5.4-4.7
					C62.8,156.3,65.8,157.4,66.1,159.4L66.1,159.4z"/>
				
					<ellipse transform="matrix(0.983 -0.1836 0.1836 0.983 -28.0247 13.6565)" class="st3" cx="59.7" cy="158.2" rx="8.2" ry="4.4"/>
				
					<ellipse transform="matrix(0.9919 -0.1272 0.1272 0.9919 -19.1303 8.7802)" class="st2" cx="59.2" cy="154.1" rx="10.1" ry="5.3"/>
				<ellipse transform="matrix(0.9806 -0.1958 0.1958 0.9806 -28.3868 14.37)" class="st3" cx="58.5" cy="150.8" rx="8.9" ry="5"/>
				
					<ellipse transform="matrix(0.9708 -0.2401 0.2401 0.9708 -33.5476 18.0502)" class="st2" cx="57.3" cy="146.7" rx="5.7" ry="2.7"/>
			</g>
			<g id="Layer_19-6">
				
					<ellipse transform="matrix(0.9908 -0.1354 0.1354 0.9908 -20.8641 9.5219)" class="st4" cx="59.6" cy="158.2" rx="2.2" ry="3.5"/>
			</g>
			<g id="Layer_19_copy-6">
				
					<ellipse transform="matrix(0.9825 -0.1865 0.1865 0.9825 -28.4251 13.9415)" class="st5" cx="59.9" cy="158" rx="1.8" ry="3.3"/>
			</g>
			<g id="Layer_23-6">
				<path class="st6" d="M54.1,135.8c1.3,0.9,2.8,3,2.2,4s-3.8-0.4-5.1-1.3c-1.3-0.9-2.8-3.9-2.5-4.3
					C49,133.7,52.9,134.9,54.1,135.8L54.1,135.8L54.1,135.8z"/>
			</g>
			<g id="Layer_9_copy_2-6">
				<g id="Layer_21_copy-6">
					<path class="st7" d="M57.7,142.5c-0.2,0.1-0.3,0.1-0.5,0.1c-0.5,0.1-1.1,0.2-1.6,0.3c-0.1-0.3-0.3-0.6-0.4-0.9
						c0.5-0.2,1.2-0.3,1.9-0.5c0.1,0,0.1,0,0.2,0C57.5,141.8,57.6,142.1,57.7,142.5L57.7,142.5z"/>
				</g>
				<path class="st8" d="M57.6,145.4c-0.9,1.6-1.3-0.1-1.5-0.9c-0.1-0.5-0.2-0.9-0.4-1.4c-0.1-0.3-0.2-0.6-0.4-0.9
					c-0.2-0.3-0.4-0.7-0.6-0.9c-0.2-0.2-0.4-0.6-0.3-0.9c0-0.1,0.1-0.1,0.1-0.2c0.3-0.4,1-0.5,1.5-0.2s0.8,0.6,1.1,1.1
					c0.1,0.2,0.2,0.4,0.3,0.6c0.1,0.3,0.2,0.6,0.3,0.9c0.1,0.4,0.2,0.9,0.2,1.3C57.9,144.4,57.8,144.9,57.6,145.4L57.6,145.4
					L57.6,145.4z"/>
				<path class="st8" d="M61.3,139.6c0,0.1-0.1,0.2-0.2,0.4c-0.5,0.7-2,1.6-2.9,1.9c-1.7,0.6-3.5,0.9-5.3,0.6
					c-0.9-0.1-1.7-0.3-2.4-0.8c-2.6-1.8,0.5-2.1,2-2.1c2.1-0.1,4.8-0.4,6.4-1.8c0.2-0.2,0.4-0.3,0.5-0.4c0.3-0.1,0.5,0.1,0.8,0.2
					c0.1,0.1,0.2,0.1,0.3,0.2C61,138.4,61.5,139,61.3,139.6L61.3,139.6L61.3,139.6z"/>
			</g>
			<g id="Layer_21-6">
				<path class="st9" d="M61.3,139.6C61.3,139.6,61.3,139.6,61.3,139.6c-0.2,0.2-0.7-0.2-1.2-0.8c-0.5-0.6-0.8-1.2-0.7-1.3
					c0.3-0.1,0.5,0.1,0.8,0.2c0.1,0.1,0.2,0.1,0.3,0.2C61,138.4,61.5,139,61.3,139.6L61.3,139.6L61.3,139.6z"/>
			</g>
			<path class="st10" d="M55.2,138.6c-0.6-0.9-1.5-1.7-2.6-2.3s-2.2-1.2-3.4-1.7c0.7,0.1,1.3,0.4,2,0.7c1.4,0.7,2.7,1.5,3.7,2.4
				c0.3,0.3,0.6,0.7,0.5,1C55.2,138.7,55.1,138.5,55.2,138.6L55.2,138.6L55.2,138.6z"/>
		</g>
		<g id="beehive-7">
			<g id="Layer_7_copy_2-7">
				<path class="st2" d="M90.1,159.4c0.4,2-1.9,5.2-5.2,5.9c-3.3,0.6-6.5-1.6-6.9-3.6s2-4.1,5.4-4.7
					C86.7,156.3,89.7,157.4,90.1,159.4L90.1,159.4z"/>
				
					<ellipse transform="matrix(0.983 -0.1836 0.1836 0.983 -27.6172 18.0562)" class="st3" cx="83.7" cy="158.2" rx="8.2" ry="4.4"/>
				
					<ellipse transform="matrix(0.9919 -0.1272 0.1272 0.9919 -18.9355 11.8294)" class="st2" cx="83.1" cy="154.1" rx="10.1" ry="5.3"/>
				
					<ellipse transform="matrix(0.9806 -0.1958 0.1958 0.9806 -27.9218 19.0657)" class="st3" cx="82.5" cy="150.8" rx="8.9" ry="5"/>
				
					<ellipse transform="matrix(0.9708 -0.2401 0.2401 0.9708 -32.8472 23.8066)" class="st2" cx="81.3" cy="146.7" rx="5.7" ry="2.7"/>
			</g>
			<g id="Layer_19-7">
				
					<ellipse transform="matrix(0.9908 -0.1354 0.1354 0.9908 -20.6442 12.7667)" class="st4" cx="83.6" cy="158.2" rx="2.2" ry="3.5"/>
			</g>
			<g id="Layer_19_copy-7">
				
					<ellipse transform="matrix(0.9825 -0.1865 0.1865 0.9825 -28.0038 18.4142)" class="st5" cx="83.9" cy="158" rx="1.8" ry="3.3"/>
			</g>
			<g id="Layer_23-7">
				<path class="st6" d="M78.1,135.8c1.3,0.9,2.8,3,2.2,4s-3.8-0.4-5.1-1.3c-1.3-0.9-2.8-3.9-2.5-4.3
					C72.9,133.7,76.8,134.9,78.1,135.8L78.1,135.8L78.1,135.8z"/>
			</g>
			<g id="Layer_9_copy_2-7">
				<g id="Layer_21_copy-7">
					<path class="st7" d="M81.6,142.5c-0.2,0.1-0.3,0.1-0.5,0.1c-0.6,0.1-1.1,0.2-1.6,0.3c-0.1-0.3-0.3-0.6-0.4-0.9
						c0.5-0.2,1.2-0.3,1.9-0.5c0.1,0,0.1,0,0.2,0C81.4,141.8,81.5,142.1,81.6,142.5C81.6,142.5,81.6,142.5,81.6,142.5z"/>
				</g>
				<path class="st8" d="M81.5,145.4c-0.9,1.6-1.3-0.1-1.4-0.9c-0.1-0.5-0.2-0.9-0.4-1.4c-0.1-0.3-0.2-0.6-0.4-0.9
					c-0.2-0.3-0.4-0.7-0.6-0.9c-0.2-0.2-0.4-0.6-0.3-0.9c0-0.1,0.1-0.1,0.1-0.2c0.3-0.4,1-0.5,1.5-0.2s0.8,0.6,1.1,1.1
					c0.1,0.2,0.2,0.4,0.3,0.6c0.1,0.3,0.2,0.6,0.3,0.9c0.1,0.4,0.2,0.9,0.2,1.3C81.8,144.4,81.8,144.9,81.5,145.4L81.5,145.4
					L81.5,145.4z"/>
				<path class="st8" d="M85.3,139.6c0,0.1-0.1,0.2-0.2,0.4c-0.5,0.7-2,1.6-2.9,1.9c-1.7,0.6-3.6,0.9-5.3,0.6
					c-0.9-0.1-1.7-0.3-2.4-0.8c-2.6-1.8,0.5-2.1,2-2.1c2.1-0.1,4.8-0.4,6.4-1.8c0.2-0.2,0.4-0.3,0.5-0.4c0.3-0.1,0.4,0.1,0.8,0.2
					c0.1,0.1,0.2,0.1,0.3,0.2C85,138.4,85.4,139,85.3,139.6L85.3,139.6L85.3,139.6z"/>
			</g>
			<g id="Layer_21-7">
				<path class="st9" d="M85.3,139.6C85.3,139.6,85.3,139.6,85.3,139.6c-0.2,0.2-0.7-0.2-1.2-0.8c-0.5-0.6-0.8-1.2-0.7-1.3
					c0.3-0.1,0.4,0.1,0.8,0.2c0.1,0.1,0.2,0.1,0.3,0.2C85,138.4,85.4,139,85.3,139.6L85.3,139.6L85.3,139.6z"/>
			</g>
			<path class="st10" d="M79.1,138.6c-0.6-0.9-1.5-1.7-2.6-2.3s-2.2-1.2-3.4-1.7c0.7,0.1,1.3,0.4,1.9,0.7c1.4,0.7,2.7,1.5,3.7,2.4
				c0.3,0.3,0.6,0.7,0.5,1C79.2,138.7,79.1,138.5,79.1,138.6L79.1,138.6L79.1,138.6z"/>
		</g>
	</g>
	<g>
		<g id="beehive-8">
			<g id="Layer_7_copy_2-8">
				<path class="st2" d="M80.6,54.5c0.4,2-1.9,5.2-5.2,5.9c-3.3,0.6-6.5-1.6-6.9-3.6s2-4.1,5.4-4.7C77.2,51.4,80.2,52.5,80.6,54.5z"
					/>
				<ellipse transform="matrix(0.983 -0.1836 0.1836 0.983 -8.5165 14.5265)" class="st3" cx="74.2" cy="53.3" rx="8.2" ry="4.4"/>
				
					<ellipse transform="matrix(0.9919 -0.1272 0.1272 0.9919 -5.6659 9.7668)" class="st2" cx="73.6" cy="49.2" rx="10.1" ry="5.3"/>
				<ellipse transform="matrix(0.9806 -0.1958 0.1958 0.9806 -7.5694 15.1735)" class="st3" cx="73" cy="45.9" rx="8.9" ry="5"/>
				
					<ellipse transform="matrix(0.9708 -0.2401 0.2401 0.9708 -7.9431 18.4576)" class="st2" cx="71.8" cy="41.8" rx="5.7" ry="2.7"/>
			</g>
			<g id="Layer_19-8">
				<ellipse transform="matrix(0.9908 -0.1354 0.1354 0.9908 -6.5292 10.513)" class="st4" cx="74" cy="53.3" rx="2.2" ry="3.5"/>
			</g>
			<g id="Layer_19_copy-8">
				<ellipse transform="matrix(0.9825 -0.1865 0.1865 0.9825 -8.605 14.8014)" class="st5" cx="74.4" cy="53.1" rx="1.8" ry="3.3"/>
			</g>
			<g id="Layer_23-8">
				<path class="st6" d="M68.6,30.9c1.3,0.9,2.8,3,2.2,4s-3.8-0.4-5.1-1.3c-1.3-0.9-2.8-3.9-2.5-4.3C63.4,28.8,67.3,30,68.6,30.9
					L68.6,30.9L68.6,30.9z"/>
			</g>
			<g id="Layer_9_copy_2-8">
				<g id="Layer_21_copy-8">
					<path class="st7" d="M72.1,37.5c-0.2,0-0.3,0.1-0.5,0.1c-0.6,0.1-1.1,0.2-1.6,0.3c-0.1-0.3-0.3-0.6-0.4-0.9
						c0.5-0.2,1.2-0.3,1.9-0.5c0.1,0,0.1,0,0.2,0C71.9,36.9,72,37.2,72.1,37.5C72.1,37.6,72.1,37.6,72.1,37.5z"/>
				</g>
				<path class="st8" d="M72,40.5c-0.9,1.6-1.3-0.1-1.4-0.9c-0.1-0.5-0.2-1-0.4-1.4c-0.1-0.3-0.2-0.6-0.4-0.8
					c-0.2-0.3-0.4-0.7-0.6-1c-0.2-0.2-0.4-0.5-0.3-0.8c0-0.1,0.1-0.1,0.1-0.2c0.3-0.4,1-0.5,1.5-0.2s0.8,0.6,1.1,1.1
					c0.1,0.2,0.2,0.4,0.3,0.6c0.1,0.3,0.2,0.6,0.3,1c0.1,0.4,0.2,0.9,0.2,1.3C72.3,39.5,72.2,40,72,40.5L72,40.5L72,40.5z"/>
				<path class="st8" d="M75.8,34.7c0,0.1-0.1,0.2-0.2,0.4c-0.5,0.7-2,1.6-2.9,1.9c-1.7,0.7-3.6,0.9-5.3,0.7
					c-0.9-0.1-1.7-0.3-2.4-0.8c-2.6-1.8,0.5-2.1,2-2.1c2.1-0.1,4.8-0.4,6.4-1.8c0.2-0.2,0.4-0.3,0.5-0.3c0.3-0.1,0.4,0.1,0.8,0.2
					c0.1,0.1,0.2,0.1,0.3,0.2C75.4,33.5,75.9,34.1,75.8,34.7L75.8,34.7L75.8,34.7z"/>
			</g>
			<g id="Layer_21-8">
				<path class="st9" d="M75.8,34.7C75.8,34.7,75.8,34.7,75.8,34.7c-0.2,0.2-0.7-0.2-1.2-0.8c-0.5-0.6-0.8-1.2-0.7-1.3
					c0.3-0.1,0.4,0.1,0.8,0.2c0.1,0.1,0.2,0.1,0.3,0.2C75.5,33.5,75.9,34.1,75.8,34.7L75.8,34.7L75.8,34.7z"/>
			</g>
			<path class="st10" d="M69.6,33.7c-0.6-0.9-1.5-1.7-2.6-2.3s-2.2-1.2-3.4-1.7c0.7,0.1,1.3,0.4,1.9,0.7c1.4,0.7,2.7,1.5,3.7,2.4
				c0.3,0.3,0.6,0.7,0.5,1C69.7,33.8,69.6,33.6,69.6,33.7L69.6,33.7L69.6,33.7z"/>
		</g>
		<g id="beehive-9">
			<g id="Layer_7_copy_2-9">
				<path class="st2" d="M103.2,54.5c0.4,2-1.9,5.2-5.2,5.9c-3.3,0.6-6.5-1.6-6.9-3.6s2-4.1,5.4-4.7
					C99.8,51.4,102.8,52.5,103.2,54.5z"/>
				<ellipse transform="matrix(0.983 -0.1836 0.1836 0.983 -8.1322 18.6771)" class="st3" cx="96.8" cy="53.3" rx="8.2" ry="4.4"/>
				
					<ellipse transform="matrix(0.9919 -0.1272 0.1272 0.9919 -5.4815 12.6432)" class="st2" cx="96.2" cy="49.2" rx="10.1" ry="5.3"/>
				<ellipse transform="matrix(0.9806 -0.1958 0.1958 0.9806 -7.1337 19.5967)" class="st3" cx="95.6" cy="45.9" rx="8.9" ry="5"/>
				
					<ellipse transform="matrix(0.9708 -0.2401 0.2401 0.9708 -7.2818 23.8804)" class="st2" cx="94.4" cy="41.8" rx="5.7" ry="2.7"/>
			</g>
			<g id="Layer_19-9">
				
					<ellipse transform="matrix(0.9908 -0.1354 0.1354 0.9908 -6.3212 13.5727)" class="st4" cx="96.6" cy="53.3" rx="2.2" ry="3.5"/>
			</g>
			<g id="Layer_19_copy-9">
				<ellipse transform="matrix(0.9825 -0.1865 0.1865 0.9825 -8.208 19.0137)" class="st5" cx="96.9" cy="53.1" rx="1.8" ry="3.3"/>
			</g>
			<g id="Layer_23-9">
				<path class="st6" d="M91.2,30.9c1.3,0.9,2.8,3,2.2,4s-3.8-0.4-5.1-1.3c-1.3-0.9-2.8-3.9-2.5-4.3C86,28.8,89.9,30,91.2,30.9
					L91.2,30.9L91.2,30.9z"/>
			</g>
			<g id="Layer_9_copy_2-9">
				<g id="Layer_21_copy-9">
					<path class="st7" d="M94.7,37.5c-0.2,0-0.3,0.1-0.5,0.1c-0.6,0.1-1.1,0.2-1.6,0.3c-0.1-0.3-0.3-0.6-0.4-0.9
						c0.5-0.2,1.2-0.3,1.9-0.5c0.1,0,0.1,0,0.2,0C94.5,36.9,94.6,37.2,94.7,37.5C94.7,37.6,94.7,37.6,94.7,37.5z"/>
				</g>
				<path class="st8" d="M94.6,40.5c-0.9,1.6-1.3-0.1-1.4-0.9c-0.1-0.5-0.2-1-0.4-1.4c-0.1-0.3-0.2-0.6-0.4-0.8
					c-0.2-0.3-0.4-0.7-0.6-1c-0.2-0.2-0.4-0.5-0.3-0.8c0-0.1,0.1-0.1,0.1-0.2c0.3-0.4,1-0.5,1.5-0.2s0.8,0.6,1.1,1.1
					c0.1,0.2,0.2,0.4,0.3,0.6c0.1,0.3,0.2,0.6,0.3,1c0.1,0.4,0.2,0.9,0.2,1.3C94.9,39.5,94.8,40,94.6,40.5L94.6,40.5L94.6,40.5z"/>
				<path class="st8" d="M98.4,34.7c0,0.1-0.1,0.2-0.2,0.4c-0.5,0.7-2,1.6-2.9,1.9c-1.7,0.7-3.6,0.9-5.3,0.7
					c-0.9-0.1-1.7-0.3-2.4-0.8c-2.6-1.8,0.5-2.1,2-2.1c2.1-0.1,4.8-0.4,6.4-1.8c0.2-0.2,0.4-0.3,0.5-0.3c0.3-0.1,0.4,0.1,0.8,0.2
					c0.1,0.1,0.2,0.1,0.3,0.2C98,33.5,98.5,34.1,98.4,34.7L98.4,34.7L98.4,34.7z"/>
			</g>
			<g id="Layer_21-9">
				<path class="st9" d="M98.4,34.7C98.4,34.7,98.4,34.7,98.4,34.7c-0.2,0.2-0.7-0.2-1.2-0.8c-0.5-0.6-0.8-1.2-0.7-1.3
					c0.3-0.1,0.4,0.1,0.8,0.2c0.1,0.1,0.2,0.1,0.3,0.2C98,33.5,98.5,34.1,98.4,34.7L98.4,34.7L98.4,34.7z"/>
			</g>
			<path class="st10" d="M92.2,33.7c-0.6-0.9-1.5-1.7-2.6-2.3s-2.2-1.2-3.4-1.7c0.7,0.1,1.3,0.4,1.9,0.7c1.4,0.7,2.7,1.5,3.7,2.4
				c0.3,0.3,0.6,0.7,0.5,1C92.3,33.8,92.2,33.6,92.2,33.7L92.2,33.7L92.2,33.7z"/>
		</g>
		<g id="beehive-10">
			<g id="Layer_7_copy_2-10">
				<path class="st2" d="M38.2,88.5c0.4,2-1.9,5.2-5.2,5.9c-3.3,0.6-6.5-1.6-6.9-3.6c-0.4-2,2-4.1,5.4-4.7
					C34.8,85.4,37.8,86.5,38.2,88.5z"/>
				<ellipse transform="matrix(0.983 -0.1836 0.1836 0.983 -15.4795 7.3128)" class="st3" cx="31.8" cy="87.2" rx="8.2" ry="4.4"/>
				
					<ellipse transform="matrix(0.9919 -0.1272 0.1272 0.9919 -10.3361 4.6433)" class="st2" cx="31.2" cy="83.2" rx="10.1" ry="5.3"/>
				<ellipse transform="matrix(0.9806 -0.1958 0.1958 0.9806 -15.0478 7.5204)" class="st3" cx="30.5" cy="79.9" rx="8.9" ry="5"/>
				
					<ellipse transform="matrix(0.9708 -0.2401 0.2401 0.9708 -17.3454 9.2621)" class="st2" cx="29.3" cy="75.8" rx="5.7" ry="2.7"/>
			</g>
			<g id="Layer_19-10">
				
					<ellipse transform="matrix(0.9908 -0.1354 0.1354 0.9908 -11.5227 5.0814)" class="st4" cx="31.6" cy="87.3" rx="2.2" ry="3.5"/>
			</g>
			<g id="Layer_19_copy-10">
				
					<ellipse transform="matrix(0.9825 -0.1865 0.1865 0.9825 -15.6921 7.4796)" class="st5" cx="31.9" cy="87.1" rx="1.9" ry="3.3"/>
			</g>
			<g id="Layer_23-10">
				<path class="st6" d="M26.1,64.9c1.3,0.9,2.8,3,2.2,4s-3.8-0.4-5.1-1.3c-1.3-0.9-2.8-3.9-2.5-4.3C21,62.8,24.9,64,26.1,64.9
					L26.1,64.9L26.1,64.9z"/>
			</g>
			<g id="Layer_9_copy_2-10">
				<g id="Layer_21_copy-10">
					<path class="st7" d="M29.7,71.6c-0.2,0.1-0.3,0.1-0.5,0.1c-0.5,0.1-1.1,0.2-1.6,0.3c-0.1-0.3-0.3-0.6-0.4-0.9
						c0.5-0.2,1.2-0.3,1.9-0.5c0.1,0,0.1,0,0.2,0C29.5,70.9,29.6,71.2,29.7,71.6C29.7,71.5,29.7,71.5,29.7,71.6z"/>
				</g>
				<path class="st8" d="M29.6,74.4c-0.9,1.6-1.3-0.1-1.5-0.9c-0.1-0.5-0.2-0.9-0.4-1.4c-0.1-0.3-0.2-0.6-0.4-0.8
					c-0.2-0.3-0.4-0.7-0.6-0.9c-0.2-0.2-0.4-0.6-0.3-0.8c0-0.1,0.1-0.1,0.1-0.2c0.4-0.4,1-0.5,1.5-0.2s0.9,0.6,1.1,1.1
					c0.1,0.2,0.2,0.4,0.3,0.6c0.1,0.3,0.2,0.6,0.3,0.9c0.1,0.4,0.2,0.9,0.1,1.3C29.9,73.5,29.8,74,29.6,74.4L29.6,74.4L29.6,74.4z"
					/>
				<path class="st8" d="M33.3,68.7c0,0.1-0.1,0.2-0.2,0.4c-0.5,0.7-2,1.6-2.9,1.9c-1.7,0.7-3.5,0.9-5.3,0.7
					c-0.9-0.1-1.7-0.3-2.4-0.8c-2.6-1.8,0.5-2.1,2-2.1c2.1-0.1,4.8-0.4,6.4-1.8c0.2-0.2,0.4-0.3,0.5-0.3c0.3-0.1,0.5,0.1,0.8,0.2
					c0.1,0.1,0.2,0.1,0.3,0.2C33,67.5,33.5,68.1,33.3,68.7L33.3,68.7L33.3,68.7z"/>
			</g>
			<g id="Layer_21-10">
				<path class="st9" d="M33.3,68.7C33.3,68.7,33.3,68.7,33.3,68.7c-0.2,0.2-0.7-0.2-1.2-0.8c-0.5-0.6-0.8-1.2-0.6-1.3
					c0.3-0.1,0.5,0.1,0.8,0.2c0.1,0.1,0.2,0.1,0.3,0.2C33,67.5,33.5,68.1,33.3,68.7L33.3,68.7L33.3,68.7z"/>
			</g>
			<path class="st10" d="M27.2,67.7c-0.6-0.9-1.5-1.7-2.6-2.3s-2.2-1.2-3.4-1.7c0.7,0.1,1.3,0.4,2,0.7c1.4,0.7,2.7,1.5,3.7,2.4
				c0.3,0.3,0.6,0.7,0.5,1C27.2,67.8,27.1,67.6,27.2,67.7L27.2,67.7L27.2,67.7z"/>
		</g>
		<g id="beehive-11">
			<g id="Layer_7_copy_2-11">
				<path class="st2" d="M60.6,88.5c0.4,2-1.9,5.2-5.2,5.9c-3.3,0.6-6.5-1.6-6.9-3.6s2-4.1,5.4-4.7C57.2,85.4,60.2,86.5,60.6,88.5z"
					/>
				<ellipse transform="matrix(0.983 -0.1836 0.1836 0.983 -15.098 11.4327)" class="st3" cx="54.2" cy="87.2" rx="8.2" ry="4.4"/>
				
					<ellipse transform="matrix(0.9919 -0.1272 0.1272 0.9919 -10.1543 7.4995)" class="st2" cx="53.6" cy="83.2" rx="10.1" ry="5.3"/>
				<ellipse transform="matrix(0.9806 -0.1958 0.1958 0.9806 -14.6142 11.9167)" class="st3" cx="53" cy="79.9" rx="8.9" ry="5"/>
				
					<ellipse transform="matrix(0.9708 -0.2401 0.2401 0.9708 -16.6892 14.6498)" class="st2" cx="51.8" cy="75.8" rx="5.7" ry="2.7"/>
			</g>
			<g id="Layer_19-11">
				<ellipse transform="matrix(0.9908 -0.1354 0.1354 0.9908 -11.3165 8.1182)" class="st4" cx="54" cy="87.3" rx="2.2" ry="3.5"/>
			</g>
			<g id="Layer_19_copy-11">
				
					<ellipse transform="matrix(0.9825 -0.1865 0.1865 0.9825 -15.2987 11.6664)" class="st5" cx="54.3" cy="87.1" rx="1.8" ry="3.3"/>
			</g>
			<g id="Layer_23-11">
				<path class="st6" d="M48.6,64.9c1.3,0.9,2.8,3,2.2,4s-3.8-0.4-5.1-1.3c-1.3-0.9-2.8-3.9-2.5-4.3C43.4,62.8,47.3,64,48.6,64.9
					L48.6,64.9L48.6,64.9z"/>
			</g>
			<g id="Layer_9_copy_2-11">
				<g id="Layer_21_copy-11">
					<path class="st7" d="M52.1,71.6c-0.2,0.1-0.3,0.1-0.5,0.1c-0.5,0.1-1.1,0.2-1.6,0.3c-0.1-0.3-0.3-0.6-0.4-0.9
						c0.5-0.2,1.2-0.3,1.9-0.5c0.1,0,0.1,0,0.2,0C51.9,70.9,52,71.2,52.1,71.6C52.1,71.5,52.1,71.5,52.1,71.6z"/>
				</g>
				<path class="st8" d="M52,74.4c-0.9,1.6-1.3-0.1-1.5-0.9c-0.1-0.5-0.2-0.9-0.4-1.4c-0.1-0.3-0.2-0.6-0.4-0.8
					c-0.2-0.3-0.4-0.7-0.6-0.9c-0.2-0.2-0.4-0.6-0.3-0.8c0-0.1,0.1-0.1,0.1-0.2c0.3-0.4,1-0.5,1.5-0.2s0.8,0.6,1.1,1.1
					c0.1,0.2,0.2,0.4,0.3,0.6c0.1,0.3,0.2,0.6,0.3,0.9c0.1,0.4,0.2,0.9,0.2,1.3C52.3,73.5,52.2,74,52,74.4L52,74.4L52,74.4z"/>
				<path class="st8" d="M55.8,68.7c0,0.1-0.1,0.2-0.2,0.4c-0.5,0.7-2,1.6-2.9,1.9c-1.7,0.7-3.5,0.9-5.3,0.7
					c-0.9-0.1-1.7-0.3-2.4-0.8c-2.6-1.8,0.5-2.1,2-2.1c2.1-0.1,4.8-0.4,6.4-1.8c0.2-0.2,0.4-0.3,0.5-0.3c0.3-0.1,0.5,0.1,0.8,0.2
					c0.1,0.1,0.2,0.1,0.3,0.2C55.4,67.5,55.9,68.1,55.8,68.7L55.8,68.7L55.8,68.7z"/>
			</g>
			<g id="Layer_21-11">
				<path class="st9" d="M55.8,68.7C55.8,68.7,55.8,68.7,55.8,68.7c-0.2,0.2-0.7-0.2-1.2-0.8c-0.5-0.6-0.8-1.2-0.7-1.3
					c0.3-0.1,0.5,0.1,0.8,0.2c0.1,0.1,0.2,0.1,0.3,0.2C55.5,67.5,55.9,68.1,55.8,68.7L55.8,68.7L55.8,68.7z"/>
			</g>
			<path class="st10" d="M49.6,67.7c-0.6-0.9-1.5-1.7-2.6-2.3s-2.2-1.2-3.4-1.7c0.7,0.1,1.3,0.4,2,0.7c1.4,0.7,2.7,1.5,3.7,2.4
				c0.3,0.3,0.6,0.7,0.5,1C49.7,67.8,49.6,67.6,49.6,67.7L49.6,67.7L49.6,67.7z"/>
		</g>
		<g id="beehive-12">
			<g id="Layer_7_copy_2-12">
				<path class="st2" d="M83.2,88.5c0.4,2-1.9,5.2-5.2,5.9c-3.3,0.6-6.5-1.6-6.9-3.6s2-4.1,5.4-4.7C79.8,85.4,82.8,86.5,83.2,88.5z"
					/>
				<ellipse transform="matrix(0.983 -0.1836 0.1836 0.983 -14.7138 15.5833)" class="st3" cx="76.8" cy="87.2" rx="8.2" ry="4.4"/>
				
					<ellipse transform="matrix(0.9919 -0.1272 0.1272 0.9919 -9.9699 10.3746)" class="st2" cx="76.2" cy="83.2" rx="10.1" ry="5.3"/>
				<ellipse transform="matrix(0.9806 -0.1958 0.1958 0.9806 -14.1767 16.3378)" class="st3" cx="75.6" cy="79.9" rx="8.9" ry="5"/>
				
					<ellipse transform="matrix(0.9708 -0.2401 0.2401 0.9708 -16.028 20.0725)" class="st2" cx="74.4" cy="75.8" rx="5.7" ry="2.7"/>
			</g>
			<g id="Layer_19-12">
				
					<ellipse transform="matrix(0.9908 -0.1354 0.1354 0.9908 -11.1085 11.1778)" class="st4" cx="76.6" cy="87.3" rx="2.2" ry="3.5"/>
			</g>
			<g id="Layer_19_copy-12">
				
					<ellipse transform="matrix(0.9825 -0.1865 0.1865 0.9825 -14.9015 15.8805)" class="st5" cx="76.9" cy="87.1" rx="1.8" ry="3.3"/>
			</g>
			<g id="Layer_23-12">
				<path class="st6" d="M71.2,64.9c1.3,0.9,2.8,3,2.2,4s-3.8-0.4-5.1-1.3c-1.3-0.9-2.8-3.9-2.5-4.3C66,62.8,69.9,64,71.2,64.9
					L71.2,64.9L71.2,64.9z"/>
			</g>
			<g id="Layer_9_copy_2-12">
				<g id="Layer_21_copy-12">
					<path class="st7" d="M74.7,71.6c-0.2,0.1-0.3,0.1-0.5,0.1c-0.6,0.1-1.1,0.2-1.6,0.3c-0.1-0.3-0.3-0.6-0.4-0.9
						c0.5-0.2,1.2-0.3,1.9-0.5c0.1,0,0.1,0,0.2,0C74.5,70.9,74.6,71.2,74.7,71.6C74.7,71.5,74.7,71.5,74.7,71.6z"/>
				</g>
				<path class="st8" d="M74.6,74.4c-0.9,1.6-1.3-0.1-1.4-0.9c-0.1-0.5-0.2-0.9-0.4-1.4c-0.1-0.3-0.2-0.6-0.4-0.8
					c-0.2-0.3-0.4-0.7-0.6-0.9c-0.2-0.2-0.4-0.6-0.3-0.8c0-0.1,0.1-0.1,0.1-0.2c0.3-0.4,1-0.5,1.5-0.2s0.8,0.6,1.1,1.1
					c0.1,0.2,0.2,0.4,0.3,0.6c0.1,0.3,0.2,0.6,0.3,0.9c0.1,0.4,0.2,0.9,0.2,1.3C74.9,73.5,74.8,74,74.6,74.4L74.6,74.4L74.6,74.4z"
					/>
				<path class="st8" d="M78.4,68.7c0,0.1-0.1,0.2-0.2,0.4c-0.5,0.7-2,1.6-2.9,1.9c-1.7,0.7-3.6,0.9-5.3,0.7
					c-0.9-0.1-1.7-0.3-2.4-0.8c-2.6-1.8,0.5-2.1,2-2.1c2.1-0.1,4.8-0.4,6.4-1.8c0.2-0.2,0.4-0.3,0.5-0.3c0.3-0.1,0.4,0.1,0.8,0.2
					c0.1,0.1,0.2,0.1,0.3,0.2C78,67.5,78.5,68.1,78.4,68.7L78.4,68.7L78.4,68.7z"/>
			</g>
			<g id="Layer_21-12">
				<path class="st9" d="M78.4,68.7C78.4,68.7,78.4,68.7,78.4,68.7c-0.2,0.2-0.7-0.2-1.2-0.8c-0.5-0.6-0.8-1.2-0.7-1.3
					c0.3-0.1,0.4,0.1,0.8,0.2c0.1,0.1,0.2,0.1,0.3,0.2C78,67.5,78.5,68.1,78.4,68.7L78.4,68.7L78.4,68.7z"/>
			</g>
			<path class="st10" d="M72.2,67.7c-0.6-0.9-1.5-1.7-2.6-2.3s-2.2-1.2-3.4-1.7c0.7,0.1,1.3,0.4,1.9,0.7c1.4,0.7,2.7,1.5,3.7,2.4
				c0.3,0.3,0.6,0.7,0.5,1C72.3,67.8,72.2,67.6,72.2,67.7L72.2,67.7L72.2,67.7z"/>
		</g>
		<g id="beehive-13">
			<g id="Layer_7_copy_2-13">
				<path class="st2" d="M58.2,54.5c0.4,2-1.9,5.2-5.2,5.9c-3.3,0.6-6.5-1.6-6.9-3.6s2-4.1,5.4-4.7C54.8,51.4,57.8,52.5,58.2,54.5z"
					/>
				<ellipse transform="matrix(0.983 -0.1836 0.1836 0.983 -8.898 10.4066)" class="st3" cx="51.7" cy="53.3" rx="8.2" ry="4.4"/>
				
					<ellipse transform="matrix(0.9919 -0.1272 0.1272 0.9919 -5.8477 6.9119)" class="st2" cx="51.2" cy="49.2" rx="10.1" ry="5.3"/>
				<ellipse transform="matrix(0.9806 -0.1958 0.1958 0.9806 -8.0048 10.7793)" class="st3" cx="50.5" cy="45.9" rx="8.9" ry="5"/>
				
					<ellipse transform="matrix(0.9708 -0.2401 0.2401 0.9708 -8.5995 13.0675)" class="st2" cx="49.3" cy="41.8" rx="5.7" ry="2.7"/>
			</g>
			<g id="Layer_19-13">
				<ellipse transform="matrix(0.9908 -0.1354 0.1354 0.9908 -6.7368 7.4749)" class="st4" cx="51.6" cy="53.3" rx="2.2" ry="3.5"/>
			</g>
			<g id="Layer_19_copy-13">
				
					<ellipse transform="matrix(0.9825 -0.1865 0.1865 0.9825 -8.9987 10.6128)" class="st5" cx="51.9" cy="53.1" rx="1.8" ry="3.3"/>
			</g>
			<g id="Layer_23-13">
				<path class="st6" d="M46.2,30.9c1.3,0.9,2.8,3,2.2,4s-3.8-0.4-5.1-1.3c-1.3-0.9-2.8-3.9-2.5-4.3C41,28.8,44.9,30,46.2,30.9
					L46.2,30.9L46.2,30.9z"/>
			</g>
			<g id="Layer_9_copy_2-13">
				<g id="Layer_21_copy-13">
					<path class="st7" d="M49.7,37.5c-0.2,0-0.3,0.1-0.5,0.1c-0.5,0.1-1.1,0.2-1.6,0.3c-0.1-0.3-0.3-0.6-0.4-0.9
						c0.5-0.2,1.2-0.3,1.9-0.5c0.1,0,0.1,0,0.2,0C49.5,36.9,49.6,37.2,49.7,37.5C49.7,37.6,49.7,37.6,49.7,37.5z"/>
				</g>
				<path class="st8" d="M49.6,40.5c-0.9,1.6-1.3-0.1-1.5-0.9c-0.1-0.5-0.2-1-0.4-1.4c-0.1-0.3-0.2-0.6-0.4-0.8
					c-0.2-0.3-0.4-0.7-0.6-1c-0.2-0.2-0.4-0.5-0.3-0.8c0-0.1,0.1-0.1,0.1-0.2c0.3-0.4,1-0.5,1.5-0.2s0.8,0.6,1.1,1.1
					c0.1,0.2,0.2,0.4,0.3,0.6c0.1,0.3,0.2,0.6,0.3,1c0.1,0.4,0.2,0.9,0.2,1.3C49.9,39.5,49.8,40,49.6,40.5L49.6,40.5L49.6,40.5z"/>
				<path class="st8" d="M53.3,34.7c0,0.1-0.1,0.2-0.2,0.4c-0.5,0.7-2,1.6-2.9,1.9c-1.7,0.7-3.5,0.9-5.3,0.7
					c-0.9-0.1-1.7-0.3-2.4-0.8c-2.6-1.8,0.5-2.1,2-2.1c2.1-0.1,4.8-0.4,6.4-1.8c0.2-0.2,0.4-0.3,0.5-0.3c0.3-0.1,0.5,0.1,0.8,0.2
					c0.1,0.1,0.2,0.1,0.3,0.2C53,33.5,53.5,34.1,53.3,34.7L53.3,34.7L53.3,34.7z"/>
			</g>
			<g id="Layer_21-13">
				<path class="st9" d="M53.3,34.7C53.3,34.7,53.3,34.7,53.3,34.7c-0.2,0.2-0.7-0.2-1.2-0.8c-0.5-0.6-0.8-1.2-0.7-1.3
					c0.3-0.1,0.5,0.1,0.8,0.2c0.1,0.1,0.2,0.1,0.3,0.2C53,33.5,53.5,34.1,53.3,34.7L53.3,34.7L53.3,34.7z"/>
			</g>
			<path class="st10" d="M47.2,33.7c-0.6-0.9-1.5-1.7-2.6-2.3s-2.2-1.2-3.4-1.7c0.7,0.1,1.3,0.4,2,0.7c1.4,0.7,2.7,1.5,3.7,2.4
				c0.3,0.3,0.6,0.7,0.5,1C47.2,33.8,47.1,33.6,47.2,33.7L47.2,33.7L47.2,33.7z"/>
		</g>
	</g>
	<g id="FinalText">
		<g>
			<g>
				<path class="st11" d="M19.3,26.8c-1.3,0-2.5-0.2-3.5-0.7c-1.1-0.5-2-1.2-2.6-2.1c-0.6-0.9-1-2-1-3.2v-1h4.7v1
					c0,0.8,0.3,1.1,0.5,1.3c0.4,0.3,1,0.5,1.9,0.5c0.7,0,1.2-0.1,1.5-0.4c0.2-0.2,0.3-0.4,0.3-0.7c0-0.5-0.2-0.7-0.3-0.8
					c-0.3-0.2-0.9-0.5-2.3-1c-1.4-0.4-2.4-0.9-3.2-1.4c-1.7-1.1-2.6-2.6-2.6-4.4c0-1.6,0.6-2.9,1.9-3.9c1.2-1,2.8-1.4,4.6-1.4
					c1.2,0,2.4,0.2,3.3,0.7c1,0.5,1.8,1.2,2.4,2.1c0.6,0.9,0.9,1.9,0.9,3v1h-4.7v-1c0-0.7-0.2-1-0.4-1.2c-0.3-0.3-0.8-0.4-1.5-0.4
					c-0.7,0-1.1,0.1-1.5,0.4c-0.2,0.1-0.4,0.3-0.4,0.8c0,0.2,0,0.4,0.4,0.6c0.3,0.2,1,0.6,2.3,1c1.3,0.4,2.4,0.8,3.2,1.4
					c0.9,0.5,1.5,1.2,2,1.9c0.4,0.8,0.6,1.6,0.6,2.6c0,1.6-0.6,2.9-1.9,3.9C22.8,26.3,21.3,26.7,19.3,26.8L19.3,26.8z"/>
				<path class="st12" d="M19.2,9.7c1.1,0,2.1,0.2,2.9,0.6c0.9,0.4,1.5,1,2,1.7s0.7,1.6,0.7,2.5h-2.7c0-0.8-0.3-1.5-0.8-1.9
					s-1.2-0.7-2.2-0.7c-0.9,0-1.6,0.2-2.1,0.6s-0.7,0.9-0.7,1.6c0,0.6,0.3,1.1,0.8,1.4s1.4,0.8,2.6,1.1c1.2,0.4,2.2,0.8,2.9,1.2
					c0.7,0.5,1.3,1,1.6,1.6s0.5,1.3,0.5,2.1c0,1.3-0.5,2.3-1.5,3.1s-2.4,1.1-4.1,1.1c-1.1,0-2.2-0.2-3.1-0.6c-0.9-0.4-1.7-1-2.2-1.7
					c-0.5-0.7-0.8-1.6-0.8-2.6h2.7c0,0.9,0.3,1.6,0.9,2.1c0.6,0.5,1.4,0.7,2.5,0.7c1,0,1.7-0.2,2.1-0.6c0.5-0.4,0.7-0.9,0.7-1.5
					c0-0.7-0.2-1.2-0.7-1.6c-0.5-0.4-1.4-0.8-2.6-1.1c-1.3-0.4-2.3-0.8-3-1.3c-1.4-0.9-2.1-2.1-2.1-3.5c0-1.3,0.5-2.3,1.5-3.1
					S17.6,9.7,19.2,9.7 M19.2,7.7c-2.1,0-3.9,0.6-5.2,1.7c-1.5,1.2-2.3,2.8-2.3,4.7c0,1.4,0.4,3.2,2.5,4.8h-3v2
					c0,1.4,0.4,2.7,1.2,3.7c0.7,1,1.8,1.8,3,2.4c1.2,0.5,2.5,0.8,3.9,0.8c2.2,0,3.9-0.5,5.3-1.6c1.5-1.1,2.3-2.8,2.3-4.7
					c0-1.1-0.3-2.2-0.8-3.1c-0.4-0.7-1-1.4-1.8-1.9h2.5v-2c0-1.3-0.4-2.5-1.1-3.6c-0.7-1.1-1.6-1.9-2.8-2.4
					C21.8,7.9,20.6,7.7,19.2,7.7L19.2,7.7L19.2,7.7z M18.5,13.9c0.1,0,0.4-0.1,0.7-0.1c0.5,0,0.8,0.1,0.9,0.2c0,0,0.1,0.1,0.1,0.4
					v0.1C19.2,14.3,18.8,14.1,18.5,13.9C18.5,13.9,18.5,13.9,18.5,13.9z M19.3,21.6c-0.8,0-1.1-0.2-1.2-0.3c-0.1,0-0.2-0.1-0.2-0.5
					v-0.2c0.1,0,0.2,0.1,0.3,0.1c1.2,0.4,1.8,0.6,1.9,0.8c0,0,0,0,0,0C20,21.5,19.8,21.6,19.3,21.6L19.3,21.6L19.3,21.6z"/>
			</g>
			<g>
				<path class="st11" d="M30.6,26.8c-1.4,0-2.6-0.4-3.5-1.3c-1-0.9-1.4-1.9-1.4-3.2c0-1.5,0.6-2.8,1.8-3.7c0.2-0.1,0.4-0.2,0.6-0.4
					h-2.1v-1c0-0.9,0.3-1.7,0.8-2.4c0.5-0.7,1.2-1.2,2.1-1.6c0.9-0.4,1.8-0.6,2.8-0.6c1.6,0,2.9,0.4,3.9,1.3c1,0.9,1.6,2.1,1.6,3.6
					v5.3c0,0.9,0.1,1.6,0.3,2.1l0.1,0.2v1.4h-4.3l-0.2-0.4C32.4,26.5,31.5,26.7,30.6,26.8L30.6,26.8z M32.2,21.1
					c-0.9,0-1.4,0.2-1.6,0.3c-0.2,0.1-0.3,0.3-0.3,0.6c0,0.3,0.1,0.4,0.2,0.5c0,0,0.2,0.2,0.7,0.2c0.4,0,0.7-0.1,1-0.2
					c0.2-0.1,0.4-0.3,0.5-0.4v-0.9L32.2,21.1L32.2,21.1z M31.6,16.7c-0.4,0-0.6,0.1-0.8,0.2c-0.2,0.1-0.2,0.2-0.2,0.4v0.3
					c0.5-0.1,1-0.1,1.5-0.1h0.6c0-0.3-0.2-0.5-0.2-0.5C32.2,16.7,31.8,16.7,31.6,16.7L31.6,16.7z"/>
				<path class="st12" d="M31.7,13.7c1.4,0,2.5,0.3,3.2,1c0.8,0.7,1.2,1.6,1.2,2.9v5.2c0,1,0.2,1.9,0.4,2.5v0.2H34
					c-0.1-0.2-0.2-0.6-0.3-1.1c-0.8,0.9-1.9,1.3-3,1.3s-2.1-0.3-2.9-1c-0.7-0.7-1.1-1.5-1.1-2.5c0-1.2,0.5-2.2,1.4-2.9s2.2-1,4-1
					h1.6v-0.8c0-0.6-0.2-1.1-0.5-1.4c-0.3-0.4-0.8-0.5-1.5-0.5c-0.6,0-1.1,0.1-1.5,0.4c-0.4,0.3-0.6,0.7-0.6,1.1h-2.6
					c0-0.6,0.2-1.2,0.6-1.8c0.4-0.6,1-1,1.7-1.3C30,13.9,30.8,13.7,31.7,13.7 M31.1,23.7c0.5,0,1-0.1,1.5-0.4c0.5-0.2,0.8-0.6,1-1
					v-2.2h-1.4c-1,0-1.7,0.2-2.2,0.5c-0.5,0.3-0.7,0.8-0.7,1.4c0,0.5,0.2,0.9,0.5,1.2C30.1,23.5,30.5,23.7,31.1,23.7 M31.7,11.7
					c-1.2,0-2.2,0.2-3.2,0.6c-1,0.4-1.9,1.1-2.5,1.9c-0.7,0.9-1,1.9-1,3v2h0.6c-0.5,0.9-0.8,1.9-0.8,3c0,1.5,0.6,2.9,1.8,4
					c1.1,1,2.5,1.5,4.2,1.5c0.7,0,1.4-0.1,2.1-0.3l0.1,0.1h5.9v-2.6l-0.2-0.4c-0.1-0.2-0.2-0.7-0.2-1.6v-5.2c0-1.8-0.7-3.4-2-4.4
					C35.1,12.2,33.6,11.7,31.7,11.7L31.7,11.7L31.7,11.7z"/>
			</g>
			<g>
				<rect x="38.1" y="8" class="st11" width="4.6" height="18.5"/>
				<path class="st12" d="M41.7,9v16.5h-2.6V9H41.7 M43.7,7h-6.6v20.5h6.6V7L43.7,7z"/>
			</g>
			<g>
				<path class="st11" d="M48.2,26.8c-1.4,0-2.6-0.4-3.5-1.3c-1-0.9-1.4-1.9-1.4-3.2c0-1.5,0.6-2.8,1.8-3.7c0.2-0.1,0.4-0.2,0.6-0.4
					h-2.1v-1c0-0.9,0.3-1.7,0.8-2.4c0.5-0.7,1.2-1.2,2.1-1.6c0.8-0.4,1.8-0.6,2.8-0.6c1.6,0,2.9,0.4,3.9,1.3c1,0.9,1.6,2.1,1.6,3.6
					v5.3c0,0.9,0.1,1.6,0.3,2.1l0.1,0.2v1.4h-4.3l-0.2-0.4C49.9,26.5,49.1,26.7,48.2,26.8L48.2,26.8z M49.7,21.1
					c-0.9,0-1.4,0.2-1.6,0.3c-0.2,0.1-0.3,0.3-0.3,0.6c0,0.3,0.1,0.4,0.2,0.5c0,0,0.2,0.2,0.7,0.2c0.3,0,0.7-0.1,1-0.2
					c0.2-0.1,0.4-0.3,0.5-0.4v-0.9L49.7,21.1L49.7,21.1z M49.1,16.7c-0.4,0-0.6,0.1-0.8,0.2c-0.2,0.1-0.2,0.2-0.2,0.4v0.3
					c0.5-0.1,1-0.1,1.5-0.1h0.6c0-0.3-0.2-0.5-0.2-0.5C49.7,16.7,49.4,16.7,49.1,16.7L49.1,16.7z"/>
				<path class="st12" d="M49.2,13.7c1.4,0,2.5,0.3,3.2,1c0.8,0.7,1.2,1.6,1.2,2.9v5.2c0,1,0.2,1.9,0.4,2.5v0.2h-2.7
					c-0.1-0.2-0.2-0.6-0.3-1.1c-0.8,0.9-1.8,1.3-3,1.3s-2.1-0.3-2.9-1s-1.1-1.5-1.1-2.5c0-1.2,0.5-2.2,1.4-2.9c0.9-0.7,2.2-1,4-1
					h1.6v-0.8c0-0.6-0.2-1.1-0.5-1.4c-0.3-0.4-0.8-0.5-1.5-0.5c-0.6,0-1.1,0.1-1.5,0.4c-0.4,0.3-0.6,0.7-0.6,1.1h-2.6
					c0-0.6,0.2-1.2,0.6-1.8c0.4-0.6,1-1,1.7-1.3C47.5,13.9,48.3,13.7,49.2,13.7 M48.6,23.7c0.5,0,1-0.1,1.5-0.4c0.5-0.2,0.8-0.6,1-1
					v-2.2h-1.4c-1,0-1.7,0.2-2.2,0.5c-0.5,0.3-0.7,0.8-0.7,1.4c0,0.5,0.2,0.9,0.5,1.2C47.6,23.5,48.1,23.7,48.6,23.7 M49.2,11.7
					c-1.2,0-2.2,0.2-3.2,0.6c-1,0.4-1.9,1.1-2.5,1.9c-0.7,0.9-1,1.9-1,3v2H43c-0.5,0.9-0.8,1.9-0.8,3c0,1.5,0.6,2.9,1.8,4
					c1.1,1,2.5,1.5,4.2,1.5c0.7,0,1.4-0.1,2.1-0.3l0.1,0.1h5.9v-2.6L56,24.5c-0.1-0.2-0.2-0.7-0.2-1.6v-5.2c0-1.8-0.7-3.4-2-4.4
					C52.6,12.2,51.1,11.7,49.2,11.7L49.2,11.7L49.2,11.7z"/>
			</g>
			<g>
				<path class="st11" d="M69.3,26.5V18c0-0.6-0.2-0.9-0.2-0.9c0,0-0.2-0.2-0.9-0.2c-0.3,0-0.6,0.1-0.8,0.2
					c-0.2,0.2-0.3,0.4-0.4,0.6v8.8h-4.6v-8.6c0-0.8-0.3-1-1.1-1c-0.7,0-1,0.2-1.2,0.5v9.1h-4.6V12.9h4.4l0,0.3
					c0.7-0.3,1.5-0.5,2.5-0.5c1.6,0,2.6,0.5,3.3,1.2c0.9-0.8,2.1-1.2,3.5-1.2c1.6,0,2.8,0.5,3.6,1.4c0.8,0.9,1.2,2.2,1.2,3.8v8.6
					L69.3,26.5L69.3,26.5z"/>
				<path class="st12" d="M69.1,13.7c1.3,0,2.2,0.4,2.9,1.1c0.6,0.7,0.9,1.8,1,3.1v7.6h-2.6V18c0-0.7-0.2-1.3-0.5-1.6
					s-0.9-0.5-1.6-0.5c-0.6,0-1.1,0.2-1.5,0.5s-0.6,0.7-0.8,1.2v8h-2.6v-7.6c0-1.4-0.7-2.1-2.1-2.1c-1,0-1.8,0.4-2.2,1.3v8.4h-2.6
					V13.9h2.5l0.1,1.2c0.8-0.9,1.9-1.4,3.3-1.4c1.5,0,2.6,0.6,3.2,1.8C66.4,14.3,67.6,13.7,69.1,13.7 M69.1,11.7
					c-1.3,0-2.4,0.3-3.4,0.9c-0.9-0.6-2-0.9-3.3-0.9c-0.6,0-1.2,0.1-1.8,0.2h-6.1v15.6h6.6v-9.7c0.1,0,0.1,0,0.2,0c0,0,0.1,0,0.1,0
					c0,0,0,0,0,0.1v9.6H68v-2l0-7.6c0,0,0.1-0.1,0.1-0.1l0,0c0,0,0.1,0,0.2,0c0,0,0.1,0,0.1,0c0,0,0,0.1,0,0.1v9.6h6.6v-9.6
					c0-1.9-0.5-3.4-1.5-4.5C72.4,12.3,70.9,11.7,69.1,11.7L69.1,11.7L69.1,11.7z"/>
			</g>
			<g>
				<path class="st11" d="M79.2,26.8c-1.4,0-2.6-0.4-3.5-1.3c-0.9-0.9-1.4-1.9-1.4-3.2c0-1.5,0.6-2.8,1.8-3.7
					c0.2-0.1,0.4-0.2,0.6-0.4h-2.1v-1c0-0.9,0.3-1.7,0.8-2.4c0.5-0.7,1.2-1.2,2.1-1.6c0.8-0.4,1.8-0.6,2.8-0.6
					c1.6,0,2.9,0.4,3.9,1.3c1,0.9,1.6,2.1,1.6,3.6v5.3c0,0.9,0.1,1.6,0.3,2.1l0.1,0.2v1.4h-4.3l-0.2-0.4
					C81,26.5,80.1,26.7,79.2,26.8L79.2,26.8z M80.8,21.1c-0.9,0-1.4,0.2-1.6,0.3c-0.2,0.1-0.3,0.3-0.3,0.6c0,0.3,0.1,0.4,0.2,0.5
					c0.1,0,0.2,0.2,0.7,0.2c0.3,0,0.7-0.1,1-0.2c0.2-0.1,0.4-0.3,0.5-0.4v-0.9L80.8,21.1L80.8,21.1z M80.1,16.7
					c-0.4,0-0.6,0.1-0.8,0.2c-0.2,0.1-0.2,0.2-0.2,0.4v0.3c0.5-0.1,0.9-0.1,1.5-0.1h0.6c0-0.3-0.2-0.5-0.2-0.5
					C80.8,16.7,80.4,16.7,80.1,16.7L80.1,16.7z"/>
				<path class="st12" d="M80.3,13.7c1.4,0,2.4,0.3,3.2,1c0.8,0.7,1.2,1.6,1.2,2.9v5.2c0,1,0.2,1.9,0.4,2.5v0.2h-2.7
					c-0.1-0.2-0.2-0.6-0.3-1.1c-0.8,0.9-1.8,1.3-3.1,1.3s-2.1-0.3-2.9-1s-1.1-1.5-1.1-2.5c0-1.2,0.5-2.2,1.4-2.9s2.2-1,3.9-1h1.6
					v-0.8c0-0.6-0.2-1.1-0.5-1.4c-0.3-0.4-0.8-0.5-1.5-0.5c-0.6,0-1.1,0.1-1.5,0.4c-0.4,0.3-0.6,0.7-0.6,1.1h-2.6
					c0-0.6,0.2-1.2,0.6-1.8c0.4-0.6,1-1,1.7-1.3C78.5,13.9,79.4,13.7,80.3,13.7 M79.7,23.7c0.5,0,1-0.1,1.5-0.4c0.4-0.2,0.8-0.6,1-1
					v-2.2h-1.4c-1,0-1.7,0.2-2.2,0.5c-0.5,0.3-0.7,0.8-0.7,1.4c0,0.5,0.2,0.9,0.5,1.2C78.7,23.5,79.1,23.7,79.7,23.7 M80.3,11.7
					c-1.2,0-2.2,0.2-3.2,0.6c-1,0.4-1.9,1.1-2.5,1.9c-0.7,0.9-1,1.9-1,3v2H74c-0.5,0.9-0.8,1.9-0.8,3c0,1.5,0.6,2.9,1.8,4
					c1.1,1,2.5,1.5,4.2,1.5c0.7,0,1.4-0.1,2.1-0.3l0.1,0.1h5.9v-2.6L87,24.5c-0.1-0.2-0.2-0.7-0.2-1.6v-5.2c0-1.8-0.7-3.4-1.9-4.4
					C83.6,12.2,82.1,11.7,80.3,11.7L80.3,11.7L80.3,11.7z"/>
			</g>
			<g>
				<path class="st11" d="M93.5,26.5V18c0-0.5-0.1-0.8-0.2-1c-0.1-0.1-0.4-0.2-0.8-0.2c-0.6,0-1,0.2-1.3,0.7v9h-4.6V12.9h4.4l0,0.4
					c0.7-0.4,1.6-0.6,2.5-0.6c1.7,0,4.6,0.7,4.7,5.1v8.7L93.5,26.5L93.5,26.5z"/>
				<path class="st12" d="M93.4,13.7c2.4,0,3.7,1.4,3.7,4.2v7.7h-2.6V18c0-0.7-0.2-1.3-0.5-1.6c-0.3-0.4-0.8-0.5-1.6-0.5
					c-1.1,0-1.8,0.5-2.3,1.4v8.3h-2.6V13.9h2.5l0.1,1.3C90.9,14.2,92,13.7,93.4,13.7 M93.4,11.7c-0.6,0-1.2,0.1-1.7,0.2h-6.2v15.6
					h6.6v-9.6c0.1-0.1,0.2-0.1,0.3-0.1c0,0,0,0,0,0c0,0,0,0.1,0,0.2v9.5h6.6v-9.7C99,14,96.9,11.7,93.4,11.7L93.4,11.7L93.4,11.7z"
					/>
			</g>
			<g>
				<path class="st11" d="M103.8,26.8c-1.7,0-3.1-0.7-4.1-2c-1-1.3-1.5-3-1.5-5.1s0.5-3.7,1.4-4.9c1-1.3,2.4-2,4.1-2
					c0.7,0,1.4,0.1,2,0.4V8h4.6v18.5h-4.3l0-0.3C105.4,26.6,104.7,26.8,103.8,26.8z M104.5,16.8c-0.5,0-0.9,0.2-1.1,0.6
					c-0.3,0.5-0.5,1.3-0.5,2.5c0,1,0.2,1.7,0.5,2.2c0.3,0.4,0.6,0.6,1.1,0.6c0.6,0,1-0.2,1.3-0.7v-4.4
					C105.5,17,105.1,16.8,104.5,16.8L104.5,16.8z"/>
				<path class="st12" d="M109.4,9v16.5h-2.4l-0.1-1.2c-0.8,1-1.8,1.4-3.1,1.4s-2.5-0.5-3.3-1.6c-0.8-1.1-1.3-2.6-1.3-4.5
					s0.4-3.2,1.2-4.3s1.9-1.6,3.3-1.6c1.2,0,2.2,0.4,3,1.3V9.1L109.4,9 M104.5,23.6c1.1,0,1.8-0.5,2.3-1.4v-5
					c-0.5-0.9-1.2-1.4-2.3-1.4c-0.8,0-1.5,0.3-2,1s-0.7,1.7-0.7,3c0,1.2,0.2,2.1,0.7,2.8C103,23.3,103.6,23.6,104.5,23.6 M111.4,7
					h-6.6v4.7c-0.3-0.1-0.7-0.1-1-0.1c-2,0-3.7,0.8-4.9,2.4c-1.1,1.4-1.7,3.3-1.7,5.5s0.6,4.2,1.7,5.7c1.2,1.6,2.9,2.4,4.9,2.4
					c0.6,0,1.2-0.1,1.7-0.2h5.9V7C111.4,7,111.4,7,111.4,7z M104.5,21.6c-0.2,0-0.2,0-0.3-0.1c-0.1-0.2-0.3-0.6-0.3-1.6
					c0-1.3,0.3-1.8,0.3-1.9c0.1-0.1,0.1-0.1,0.3-0.1c0.2,0,0.2,0,0.3,0v3.7C104.7,21.6,104.6,21.6,104.5,21.6L104.5,21.6L104.5,21.6
					z"/>
			</g>
			<g>
				<path class="st11" d="M117.3,26.8c-1.9,0-3.5-0.6-4.7-1.9c-1.2-1.2-1.8-2.9-1.8-4.9v-0.3c0-1.3,0.3-2.5,0.8-3.5
					c0.5-1.1,1.3-1.9,2.2-2.5c1-0.6,2.1-0.9,3.2-0.9c1.9,0,3.4,0.6,4.4,1.9c1,1.2,1.5,2.9,1.5,4.9v2h-1.8l2,1.9l-0.5,0.7
					c-0.6,0.8-1.3,1.5-2.2,2C119.4,26.5,118.4,26.8,117.3,26.8L117.3,26.8z M115.6,21.5c0.1,0.2,0.2,0.4,0.4,0.6
					c0.4,0.4,0.8,0.5,1.4,0.5c0.9,0,1.6-0.3,2.1-1.1l0,0L115.6,21.5L115.6,21.5z M118.2,17.6c-0.1-0.2-0.2-0.4-0.3-0.5
					c-0.1-0.1-0.4-0.4-1-0.4c-0.4,0-0.7,0.1-1,0.4c-0.1,0.1-0.2,0.3-0.3,0.4H118.2z"/>
				<path class="st12" d="M117,13.7c1.6,0,2.8,0.5,3.7,1.5s1.3,2.4,1.3,4.3v1h-7.6c0.1,1,0.4,1.7,1,2.3c0.6,0.6,1.3,0.8,2.1,0.8
					c1.2,0,2.2-0.5,2.9-1.5l1.4,1.3c-0.5,0.7-1.1,1.2-1.9,1.6c-0.8,0.4-1.7,0.6-2.6,0.6c-1.7,0-3-0.5-4-1.6c-1-1-1.5-2.4-1.5-4.2
					v-0.3c0-1.2,0.2-2.2,0.7-3.1s1.1-1.6,1.9-2.1S116,13.7,117,13.7 M114.4,18.6h5v-0.2c-0.1-0.9-0.3-1.5-0.7-2
					c-0.4-0.5-1-0.7-1.7-0.7s-1.3,0.2-1.7,0.8S114.5,17.8,114.4,18.6 M117,11.7c-1.4,0-2.6,0.4-3.8,1.1c-1.1,0.7-2,1.7-2.6,2.9
					c-0.6,1.2-0.9,2.5-0.9,4V20c0,2.3,0.7,4.1,2.1,5.6s3.2,2.2,5.4,2.2c1.3,0,2.4-0.3,3.5-0.8c1.1-0.5,2-1.3,2.6-2.3l0.9-1.4
					l-0.8-0.7h0.3v-3c0-2.3-0.6-4.2-1.8-5.6C121.3,12.9,119.7,11.7,117,11.7C117,11.7,117,11.7,117,11.7z"/>
			</g>
			<g>
				<path class="st11" d="M122.9,26.5V12.9h4.4v0.2c0.5-0.2,1.1-0.4,1.7-0.4c0.5,0,0.9,0.1,1.3,0.2l0.6,0.3l0,4.3l-1.2-0.2
					c-0.3,0-0.6-0.1-0.9-0.1c-0.9,0-1.2,0.3-1.4,0.6v8.7L122.9,26.5L122.9,26.5z"/>
				<path class="st12" d="M129.1,13.7c0.4,0,0.7,0.1,0.9,0.1v2.4c-0.4-0.1-0.7-0.1-1.1-0.1c-1.2,0-2,0.5-2.4,1.4v7.9h-2.6V13.9h2.5
					l0.1,1.3C127.1,14.2,128,13.7,129.1,13.7 M129.1,11.7c-0.5,0-1,0.1-1.5,0.2h-5.7v15.6h6.6v-9.3c0.1,0,0.2,0,0.4,0
					c0.2,0,0.5,0,0.7,0.1l2.3,0.4v-2.4l0-2.4v-1.4l-1.2-0.5C130.3,11.8,129.8,11.7,129.1,11.7L129.1,11.7L129.1,11.7z"/>
			</g>
		</g>
		<g>
			<g>
				<rect x="12.2" y="118.7" class="st11" width="7.6" height="4.1"/>
				<path class="st12" d="M18.8,119.7v2.1h-5.6v-2.1H18.8 M20.8,117.7h-9.6v6.1h9.6V117.7L20.8,117.7z"/>
			</g>
			<g>
				<polygon class="st11" points="24.3,128.4 24.3,116.2 20.4,117.6 20.4,113.3 27.4,110.7 28.9,110.7 28.9,128.4 				"/>
				<path class="st12" d="M27.9,111.7v15.7h-2.6v-12.6l-3.8,1.3V114l6.1-2.2H27.9 M29.9,109.7h-2.7l-0.3,0.1l-6.1,2.2l-1.3,0.5v6.4
					l2.6-0.9l1.2-0.4v11.8h6.6L29.9,109.7L29.9,109.7L29.9,109.7z"/>
			</g>
			<g>
				<path class="st11" d="M38.4,128.6c-2,0-3.6-0.7-4.6-2.1c-1-1.3-1.5-3.2-1.5-5.6v-2.7c0-2.5,0.5-4.3,1.5-5.7
					c1-1.4,2.6-2.1,4.7-2.1s3.6,0.7,4.6,2c1,1.3,1.5,3.1,1.5,5.5v2.7c0,2.5-0.5,4.3-1.5,5.7C42,127.9,40.4,128.6,38.4,128.6
					L38.4,128.6z M38.4,114.7c-0.6,0-0.9,0.2-1,0.5c-0.2,0.3-0.5,1.1-0.5,2.5v3.5c0,1.6,0.3,2.4,0.5,2.8c0.2,0.4,0.5,0.6,1,0.6
					c0.6,0,0.8-0.3,1-0.5c0.2-0.3,0.5-1.1,0.5-2.6v-3.5c0-1.6-0.2-2.4-0.5-2.7C39.3,114.9,39,114.7,38.4,114.7z"/>
				<path class="st12" d="M38.4,111.6c1.7,0,3,0.6,3.8,1.6c0.8,1.1,1.3,2.7,1.3,4.9v2.7c0,2.2-0.4,3.9-1.3,5.1
					c-0.8,1.1-2.1,1.7-3.8,1.7s-3-0.6-3.8-1.7s-1.3-2.8-1.3-4.9v-2.7c0-2.2,0.4-3.9,1.3-5.1C35.4,112.1,36.6,111.6,38.4,111.6
					 M38.4,125.5c0.8,0,1.5-0.3,1.9-1c0.4-0.7,0.6-1.7,0.6-3.1v-3.5c0-1.5-0.2-2.5-0.6-3.2c-0.4-0.7-1-1-1.9-1s-1.5,0.3-1.9,1
					s-0.6,1.7-0.6,3v3.5c0,1.5,0.2,2.6,0.6,3.3C36.9,125.2,37.5,125.5,38.4,125.5 M38.4,109.5c-3,0-4.6,1.3-5.5,2.5
					c-1.1,1.5-1.7,3.5-1.7,6.3v2.7c0,2.7,0.6,4.7,1.7,6.2c0.9,1.1,2.5,2.4,5.4,2.4s4.6-1.4,5.5-2.5c1.1-1.5,1.7-3.6,1.7-6.3v-2.7
					c0-2.7-0.6-4.7-1.7-6.1C42.9,110.9,41.3,109.5,38.4,109.5L38.4,109.5L38.4,109.5z M38.2,123.5C38.2,123.5,38.2,123.5,38.2,123.5
					c-0.1-0.2-0.4-0.8-0.4-2.3v-3.5c0-1.4,0.3-1.9,0.3-2c0,0,0,0,0.2,0s0.2,0,0.2,0c0.1,0.2,0.3,0.7,0.3,2.2v3.5
					c0,1.4-0.3,1.9-0.3,2.1c0,0,0,0-0.2,0C38.3,123.5,38.3,123.5,38.2,123.5L38.2,123.5L38.2,123.5z"/>
			</g>
		</g>
		<g>
			<g>
				<polygon class="st11" points="16.2,52.8 16.2,48.1 12.1,48.1 12.1,43.7 16.2,43.7 16.2,39.4 20.8,39.4 20.8,43.7 24.9,43.7 
					24.9,48.1 20.8,48.1 20.8,52.8 				"/>
				<path class="st12" d="M19.8,40.4v4.3h4.1v2.4h-4.1v4.7h-2.5v-4.7h-4.1v-2.4h4.1v-4.3H19.8 M21.8,38.4h-6.5v4.3h-4.1v6.4h4.1v4.7
					h6.5v-4.7h4.1v-6.4h-4.1V38.4L21.8,38.4z"/>
			</g>
			<g>
				<path class="st11" d="M31.1,54.5c-1.7,0-3.1-0.5-4.2-1.5c-1.1-1-1.8-2.3-1.9-3.9L25,48.1h4.5l0.1,0.9c0.1,0.5,0.2,0.9,0.5,1.1
					c0.3,0.2,0.6,0.3,1.1,0.3c0.5,0,0.8-0.2,1.1-0.5c0.3-0.4,0.5-1,0.5-1.7c0-0.7-0.2-1.2-0.5-1.6c-0.2-0.2-0.5-0.5-1.3-0.5
					c-0.4,0-0.6,0-0.9,0.1c-0.1,0-0.4,0.2-0.7,0.5l-0.4,0.4l-3.5-0.9l1-9.7h10.3v4.3h-6.3l-0.1,1.2c0.4-0.1,0.8-0.1,1.3-0.1
					c1.8,0,3.2,0.6,4.2,1.8c1,1.1,1.5,2.7,1.5,4.5s-0.6,3.4-1.7,4.5C34.5,54,33,54.5,31.1,54.5L31.1,54.5z"/>
				<path class="st12" d="M35.8,37.7v2.3h-6.2l-0.4,3.7c0.7-0.4,1.5-0.6,2.5-0.6c1.5,0,2.7,0.5,3.5,1.4c0.8,1,1.2,2.2,1.2,3.8
					s-0.5,2.9-1.4,3.8c-0.9,0.9-2.2,1.4-3.8,1.4c-1.4,0-2.6-0.4-3.6-1.2s-1.5-1.9-1.5-3.2h2.5c0.1,0.8,0.4,1.3,0.8,1.8
					c0.4,0.4,1,0.6,1.7,0.6c0.8,0,1.4-0.3,1.9-0.9c0.5-0.6,0.7-1.3,0.7-2.3s-0.2-1.7-0.7-2.3s-1.2-0.8-2-0.8c-0.5,0-0.9,0.1-1.2,0.2
					c-0.3,0.1-0.7,0.4-1.1,0.7l-2.1-0.5l0.9-7.9L35.8,37.7 M37.8,35.7H25.6l-0.2,1.8l-0.9,7.9l-0.2,1.7h0l-0.5,0l0.1,2.1
					c0.1,1.9,0.9,3.5,2.2,4.6c1.3,1.1,3,1.7,4.9,1.7c2.2,0,3.9-0.7,5.2-2c1.3-1.3,1.9-3.1,1.9-5.2s-0.6-3.8-1.7-5.2
					c-0.4-0.5-0.9-0.9-1.5-1.2h2.7L37.8,35.7L37.8,35.7L37.8,35.7z M30.4,47.3L30.4,47.3c0.1,0,0.2-0.1,0.5-0.1
					c0.4,0,0.5,0.1,0.5,0.2c0.2,0.2,0.2,0.6,0.2,0.9c0,0.5-0.1,0.9-0.2,1.1c0,0-0.1,0.1-0.3,0.1c-0.1,0-0.3,0-0.4-0.1
					c-0.1-0.1-0.1-0.2-0.2-0.5L30.4,47.3L30.4,47.3z"/>
			</g>
		</g>
	</g>
</g>
<text transform="matrix(1 0 0 1 158.01 9.6801)" class="st11 st13 st14">210</text>
<text transform="matrix(6.123234e-17 1 -1 6.123234e-17 199.9062 32.17)" class="st11 st13 st14">175</text>
<text transform="matrix(1 0 0 1 134.08 28.45)" class="st15 st13 st16">R</text>
<text transform="matrix(1 0 0 1 138.85 28.45)" class="st15 st13 st16">obo</text>
<text transform="matrix(1 0 0 1 153.52 28.45)" class="st15 st13 st16">t</text>
<text transform="matrix(1 0 0 1 156.38 28.45)" class="st15 st13 st16">o</text>
<text transform="matrix(1 0 0 1 161.34 28.45)" class="st15 st13 st16">-</text>
<text transform="matrix(1 0 0 1 164.04 28.45)" class="st15 st13 st16">M</text>
<text transform="matrix(1 0 0 1 171.17 28.45)" class="st15 st13 st16">edium</text>
<text transform="matrix(1 0 0 1 134.08 39.01)" class="st15 st13 st16">Si</text>
<text transform="matrix(1 0 0 1 140.48 39.01)" class="st15 st13 st16">z</text>
<text transform="matrix(1 0 0 1 144.18 39.01)" class="st15 st13 st16">e 22</text>
</svg>
