<?xml version="1.0" encoding="UTF-8"?>
<svg xmlns="http://www.w3.org/2000/svg" viewBox="0 0 508.91 340.32">
  <defs>
    <style>
      .cls-1 {
        letter-spacing: 0em;
      }

      .cls-2 {
        letter-spacing: 0em;
      }

      .cls-3 {
        letter-spacing: -.03em;
      }

      .cls-4 {
        font-size: 18px;
      }

      .cls-4, .cls-5 {
        font-family: MyriadPro-Regular, 'Myriad Pro';
      }

      .cls-4, .cls-5, .cls-6 {
        fill: #231f20;
      }

      .cls-7 {
        stroke-width: 9px;
      }

      .cls-7, .cls-8 {
        fill: #fff4d2;
        stroke: #7d5f56;
        stroke-miterlimit: 10;
      }

      .cls-9 {
        letter-spacing: 0em;
      }

      .cls-10 {
        letter-spacing: 0em;
      }

      .cls-11 {
        letter-spacing: 0em;
      }

      .cls-5 {
        font-size: 36px;
      }

      .cls-8 {
        stroke-width: 5px;
      }
    </style>
  </defs>
  <g id="Layer_2" data-name="Layer 2">
    <rect class="cls-7" x="35.52" y="64.39" width="365.92" height="271.43" rx="4.4" ry="4.4"/>
  </g>
  <g id="Layer_4" data-name="Layer 4">
    <rect class="cls-8" x="242.81" y="64.39" width="157.21" height="52.08" rx="9.78" ry="9.78"/>
  </g>
  <g id="Layer_5" data-name="Layer 5">
    <polygon class="cls-8" points="104.53 212.27 114.55 191.48 138.91 191.48 148.39 211.57 219.91 212.27 219.91 335.82 38.38 335.82 38.38 212.27 104.53 212.27"/>
  </g>
  <g id="Layer_5_copy" data-name="Layer 5 copy">
    <polygon class="cls-8" points="286.07 212.27 296.08 191.48 320.44 191.48 329.93 211.57 401.45 212.27 401.45 335.82 219.91 335.82 219.91 212.27 286.07 212.27"/>
  </g>
  <g id="Layer_10_copy" data-name="Layer 10 copy">
    <text class="cls-5" transform="translate(273.65 100.21)"><tspan class="cls-3" x="0" y="0">W</tspan><tspan x="29.27" y="0">o</tspan><tspan class="cls-1" x="49.03" y="0">r</tspan><tspan class="cls-10" x="60.95" y="0">m</tspan></text>
    <text class="cls-4" transform="translate(117.09 211.58)"><tspan x="0" y="0">+5</tspan></text>
    <text class="cls-4" transform="translate(296.13 211.58)"><tspan x="0" y="0">-10</tspan></text>
    <g>
      <path class="cls-6" d="m109.25,237.38l-3.08-12.14h1.66l1.44,6.14c.36,1.51.68,3.02.9,4.19h.04c.2-1.21.58-2.65.99-4.21l1.62-6.12h1.64l1.48,6.16c.34,1.44.67,2.88.85,4.16h.04c.25-1.33.59-2.68.97-4.2l1.6-6.12h1.6l-3.44,12.14h-1.64l-1.53-6.32c-.38-1.55-.63-2.74-.79-3.96h-.04c-.22,1.21-.49,2.4-.94,3.96l-1.73,6.32h-1.64Z"/>
      <path class="cls-6" d="m126.67,237.38l-.13-1.1h-.05c-.49.68-1.42,1.3-2.67,1.3-1.76,0-2.66-1.24-2.66-2.5,0-2.11,1.87-3.26,5.24-3.24v-.18c0-.72-.2-2.02-1.98-2.02-.81,0-1.66.25-2.27.65l-.36-1.04c.72-.47,1.76-.77,2.86-.77,2.67,0,3.31,1.82,3.31,3.56v3.26c0,.76.04,1.49.14,2.09h-1.44Zm-.23-4.45c-1.73-.04-3.69.27-3.69,1.96,0,1.03.68,1.51,1.49,1.51,1.13,0,1.85-.72,2.11-1.46.05-.16.09-.34.09-.5v-1.51Z"/>
      <path class="cls-6" d="m132.36,226.17v2.5h2.27v1.21h-2.27v4.7c0,1.08.31,1.69,1.19,1.69.41,0,.72-.05.92-.11l.07,1.19c-.31.13-.79.22-1.4.22-.74,0-1.33-.23-1.71-.67-.45-.47-.61-1.24-.61-2.27v-4.75h-1.35v-1.21h1.35v-2.09l1.55-.41Z"/>
      <path class="cls-6" d="m137.18,233.31c.04,2.14,1.4,3.02,2.99,3.02,1.13,0,1.82-.2,2.41-.45l.27,1.13c-.56.25-1.51.54-2.9.54-2.68,0-4.29-1.76-4.29-4.39s1.55-4.7,4.09-4.7c2.84,0,3.6,2.5,3.6,4.1,0,.32-.04.58-.05.74h-6.12Zm4.65-1.13c.02-1.01-.41-2.57-2.2-2.57-1.6,0-2.3,1.48-2.43,2.57h4.63Z"/>
      <path class="cls-6" d="m145.32,231.39c0-1.03-.02-1.91-.07-2.72h1.39l.05,1.71h.07c.4-1.17,1.35-1.91,2.41-1.91.18,0,.31.02.45.05v1.49c-.16-.04-.32-.05-.54-.05-1.12,0-1.91.85-2.12,2.03-.04.22-.07.47-.07.74v4.65h-1.57v-6Z"/>
      <path class="cls-6" d="m87.33,258.98l-3.08-12.14h1.66l1.44,6.14c.36,1.51.68,3.03.9,4.2h.04c.2-1.21.58-2.65.99-4.21l1.62-6.12h1.64l1.48,6.16c.34,1.44.67,2.88.85,4.16h.04c.25-1.33.59-2.68.97-4.2l1.6-6.12h1.6l-3.44,12.14h-1.64l-1.53-6.32c-.38-1.55-.63-2.74-.79-3.96h-.04c-.22,1.21-.49,2.39-.94,3.96l-1.73,6.32h-1.64Z"/>
      <path class="cls-6" d="m102,247.82c.02.54-.38.97-1.01.97-.56,0-.95-.43-.95-.97s.41-.99.99-.99.97.43.97.99Zm-1.76,11.16v-8.71h1.58v8.71h-1.58Z"/>
      <path class="cls-6" d="m104.45,246.2h1.58v12.78h-1.58v-12.78Z"/>
      <path class="cls-6" d="m116.23,246.2v10.53c0,.77.02,1.66.07,2.25h-1.42l-.07-1.51h-.04c-.49.97-1.55,1.71-2.97,1.71-2.11,0-3.73-1.78-3.73-4.43-.02-2.9,1.78-4.68,3.91-4.68,1.33,0,2.23.63,2.63,1.33h.04v-5.2h1.58Zm-1.58,7.62c0-.2-.02-.47-.07-.67-.23-1.01-1.1-1.84-2.29-1.84-1.64,0-2.61,1.44-2.61,3.37,0,1.76.86,3.22,2.57,3.22,1.06,0,2.03-.7,2.32-1.89.05-.22.07-.43.07-.68v-1.51Z"/>
      <path class="cls-6" d="m119.01,258.98v-7.51h-1.22v-1.21h1.22v-.38c0-1.21.41-2.29,1.22-3.01.68-.58,1.58-.88,2.79-.88,1.01,0,1.96.22,2.61.58v12.41h-1.57v-11.52c-.27-.14-.68-.23-1.3-.23-1.66,0-2.2,1.21-2.2,2.61v.43h2.03v1.21h-2.03v7.51h-1.57Z"/>
      <path class="cls-6" d="m136.15,254.55c0,3.22-2.23,4.63-4.34,4.63-2.36,0-4.18-1.73-4.18-4.48,0-2.92,1.91-4.63,4.32-4.63s4.2,1.82,4.2,4.48Zm-6.91.09c0,1.91,1.1,3.35,2.65,3.35s2.65-1.42,2.65-3.38c0-1.48-.74-3.35-2.61-3.35s-2.68,1.73-2.68,3.39Z"/>
      <path class="cls-6" d="m138.65,250.27l1.15,4.43c.25.97.49,1.87.65,2.77h.05c.2-.88.49-1.82.77-2.75l1.42-4.45h1.33l1.35,4.36c.32,1.04.58,1.96.77,2.84h.05c.14-.88.38-1.8.67-2.83l1.24-4.38h1.57l-2.81,8.71h-1.44l-1.33-4.16c-.31-.97-.56-1.84-.77-2.86h-.04c-.22,1.04-.49,1.95-.79,2.88l-1.4,4.14h-1.44l-2.63-8.71h1.62Z"/>
      <path class="cls-6" d="m151.97,254.91c.04,2.14,1.4,3.03,2.99,3.03,1.13,0,1.82-.2,2.41-.45l.27,1.13c-.56.25-1.51.54-2.9.54-2.68,0-4.29-1.76-4.29-4.39s1.55-4.7,4.09-4.7c2.84,0,3.6,2.5,3.6,4.11,0,.32-.04.58-.05.74h-6.12Zm4.65-1.13c.02-1.01-.41-2.58-2.2-2.58-1.6,0-2.3,1.48-2.43,2.58h4.63Z"/>
      <path class="cls-6" d="m160.11,252.99c0-1.03-.02-1.91-.07-2.72h1.39l.05,1.71h.07c.4-1.17,1.35-1.91,2.41-1.91.18,0,.31.02.45.05v1.49c-.16-.04-.32-.05-.54-.05-1.12,0-1.91.85-2.12,2.03-.04.22-.07.47-.07.74v4.65h-1.57v-6Z"/>
      <path class="cls-6" d="m165.78,257.36c.47.31,1.3.63,2.09.63,1.15,0,1.69-.58,1.69-1.3s-.45-1.17-1.62-1.6c-1.57-.56-2.3-1.42-2.3-2.47,0-1.41,1.13-2.56,3.01-2.56.88,0,1.66.25,2.14.54l-.4,1.15c-.34-.22-.97-.5-1.78-.5-.94,0-1.46.54-1.46,1.19,0,.72.52,1.04,1.66,1.48,1.51.58,2.29,1.33,2.29,2.63,0,1.53-1.19,2.61-3.26,2.61-.95,0-1.84-.23-2.45-.59l.4-1.21Z"/>
    </g>
    <text class="cls-4" transform="translate(282.26 237.38)"><tspan x="0" y="0">Bullf</tspan><tspan class="cls-9" x="33.43" y="0">r</tspan><tspan x="39.13" y="0">og</tspan><tspan x="3.82" y="21.6">Ha</tspan><tspan class="cls-11" x="24.23" y="21.6">rr</tspan><tspan x="36.14" y="21.6">ier</tspan><tspan class="cls-3" x="13.24" y="43.2">V</tspan><tspan x="22.69" y="43.2">ole</tspan><tspan class="cls-2" x="-15.09" y="64.8">S</tspan><tspan x="-6.17" y="64.8">alamander</tspan></text>
  </g>
</svg>