<?xml version="1.0" encoding="UTF-8"?>
<svg xmlns="http://www.w3.org/2000/svg" xmlns:xlink="http://www.w3.org/1999/xlink" viewBox="0 0 508.91 340.32">
  <defs>
    <style>
      .cls-1 {
        letter-spacing: 0em;
      }

      .cls-2 {
        letter-spacing: 0em;
      }

      .cls-3 {
        letter-spacing: 0em;
      }

      .cls-4 {
        font-size: 18px;
      }

      .cls-4, .cls-5 {
        fill: #221f20;
        font-family: MyriadPro-Regular, 'Myriad Pro';
      }

      .cls-6 {
        letter-spacing: -.03em;
      }

      .cls-7 {
        stroke-width: 9px;
      }

      .cls-7, .cls-8, .cls-9 {
        stroke-miterlimit: 10;
      }

      .cls-7, .cls-9 {
        fill: #fff4d2;
        stroke: #7d5f56;
      }

      .cls-10 {
        letter-spacing: 0em;
      }

      .cls-11 {
        letter-spacing: 0em;
      }

      .cls-12 {
        letter-spacing: 0em;
      }

      .cls-13 {
        clip-path: url(#clippath);
      }

      .cls-5 {
        font-size: 36px;
      }

      .cls-14 {
        fill: none;
      }

      .cls-15 {
        letter-spacing: 0em;
      }

      .cls-16 {
        letter-spacing: 0em;
      }

      .cls-8 {
        fill: #fef4d6;
        stroke: #786058;
      }

      .cls-8, .cls-9 {
        stroke-width: 5px;
      }

      .cls-17 {
        letter-spacing: -.01em;
      }

      .cls-18 {
        letter-spacing: -.01em;
      }
    </style>
    <clipPath id="clippath">
      <rect class="cls-14" x="30.4" y="64.39" width="363.09" height="271.43" rx="6.42" ry="6.42"/>
    </clipPath>
  </defs>
  <g id="Layer_2" data-name="Layer 2">
    <rect class="cls-7" x="35.52" y="64.39" width="365.92" height="271.43" rx="4.4" ry="4.4"/>
  </g>
  <g id="Layer_4" data-name="Layer 4">
    <rect class="cls-9" x="242.81" y="64.39" width="157.21" height="52.08" rx="9.78" ry="9.78"/>
  </g>
  <g id="Layer_9" data-name="Layer 9">
    <g class="cls-13">
      <image width="384" height="384" transform="translate(57.04) scale(.86)" xlink:href="C:\Users\nfwil\Desktop\CS_490_GAME\raw_assets\PNG\Critters-5.png"/>
    </g>
  </g>
  <g id="Layer_5" data-name="Layer 5">
    <polygon class="cls-8" points="104.53 212.27 114.55 191.48 138.91 191.48 148.39 211.57 219.91 212.27 219.91 335.82 38.38 335.82 38.38 212.27 104.53 212.27"/>
  </g>
  <g id="Layer_5_copy" data-name="Layer 5 copy">
    <polygon class="cls-8" points="286.07 212.27 296.08 191.48 320.44 191.48 329.93 211.57 401.45 212.27 401.45 335.82 219.91 335.82 219.91 212.27 286.07 212.27"/>
  </g>
  <g id="Layer_10" data-name="Layer 10">
    <text class="cls-5" transform="translate(263.99 100.21)"><tspan class="cls-18" x="0" y="0">C</tspan><tspan class="cls-12" x="20.48" y="0">o</tspan><tspan class="cls-17" x="40" y="0">y</tspan><tspan class="cls-2" x="56.59" y="0">o</tspan><tspan class="cls-15" x="76.36" y="0">t</tspan><tspan x="88.06" y="0">e</tspan></text>
    <text class="cls-4" transform="translate(111.4 211.58)"><tspan x="0" y="0">+20</tspan></text>
    <text class="cls-4" transform="translate(296.13 211.58)"><tspan x="0" y="0">-25</tspan></text>
    <text class="cls-4" transform="translate(105.03 237.38)"><tspan x="0" y="0">S</tspan><tspan class="cls-16" x="8.87" y="0">k</tspan><tspan x="17.39" y="0">unk</tspan><tspan class="cls-16" x="4.88" y="21.6">D</tspan><tspan x="16.94" y="21.6">eer</tspan><tspan class="cls-3" x="-21.76" y="43.2">S</tspan><tspan x="-12.83" y="43.2">alamander</tspan><tspan class="cls-6" x="6.57" y="64.8">V</tspan><tspan x="16.02" y="64.8">ole</tspan><tspan x="-6.67" y="86.4">Bullf</tspan><tspan class="cls-11" x="26.76" y="86.4">r</tspan><tspan x="32.46" y="86.4">og</tspan></text>
    <text class="cls-4" transform="translate(265.36 237.38)"><tspan x="0" y="0">Emp</tspan><tspan class="cls-1" x="34.11" y="0">t</tspan><tspan x="40.23" y="0">y G</tspan><tspan class="cls-10" x="64.15" y="0">r</tspan><tspan x="69.95" y="0">ass</tspan><tspan x="46.44" y="43.2"></tspan></text>
  </g>
</svg>