<svg id="Layer_1" data-name="Layer 1" xmlns="http://www.w3.org/2000/svg" viewBox="0 0 175 175"><defs><style>.cls-1{fill:#b0a442;stroke:#9e8d32;}.cls-1,.cls-2,.cls-3,.cls-4{stroke-miterlimit:10;stroke-width:1.61px;}.cls-2{fill:#6e4d55;stroke:#32121e;}.cls-3{fill:#85a15b;stroke:#425828;}.cls-4{fill:#895662;stroke:#55202c;}</style></defs><rect class="cls-1" x="118.25" y="10.77" width="47.72" height="43.82" rx="21.91"/><rect class="cls-1" x="77.02" y="35.63" width="35.76" height="31.98" rx="15.99"/><path class="cls-2" d="M149.42,76.07V30.49a3.66,3.66,0,0,0-3.65-3.66h0a3.65,3.65,0,0,0-3.65,3.66v7.43h-8.69V33.63a3.66,3.66,0,0,0-7.31,0V39.8a3.74,3.74,0,0,0,.12.89,3.59,3.59,0,0,0-.12.88,3.66,3.66,0,0,0,3.66,3.65h12.34v27.2H100.31V51.52a3.65,3.65,0,0,0-3.65-3.66h0A3.65,3.65,0,0,0,93,51.52v3.07h-9a3.65,3.65,0,0,0-3.65,3.65h0a3.64,3.64,0,0,0,3.65,3.65h9V76.07a3.64,3.64,0,0,0,3.65,3.65h19.1V97.8a10.54,10.54,0,0,1-2.74,7.1l-3.46,3.81a3.08,3.08,0,0,0,1.8,5.12,4.07,4.07,0,0,0,.5,0h23a3.06,3.06,0,0,0,2-5.19l-3.71-3.86a12.09,12.09,0,0,1-3.37-8.37V79.72h16a3.65,3.65,0,0,0,3.65-3.65Z"/><path id="tree_top" data-name="tree top" class="cls-3" d="M112.3,90.2h-8V84.44a9.85,9.85,0,0,0-9.85-9.85H50.36a9.85,9.85,0,0,0-9.85,9.85V90.2H19A9.65,9.65,0,0,0,9.3,99.84L9,124.16a9.65,9.65,0,0,0,9.65,9.64H112a9.64,9.64,0,0,0,9.64-9.64l.28-24.32A9.65,9.65,0,0,0,112.3,90.2Z"/><path id="trunk" class="cls-4" d="M103.42,98.68H102.3a3,3,0,0,0-3,3v16H78.82V91.43a3,3,0,0,0-3-3H74.72a3,3,0,0,0-3,3v26.26a0,0,0,0,1,0,0h-21V100.61A3.62,3.62,0,0,0,47.11,97H47a3.62,3.62,0,0,0-3.62,3.62v5.48h0a3,3,0,0,0-.42,0h-5v-4.29A3,3,0,0,0,35,98.69a3,3,0,0,0-3,3v8.15c0,4.73,8.1,2.77,11,2.77a3,3,0,0,0,.42,0h0V122A3.62,3.62,0,0,0,47,125.64h.14a4,4,0,0,0,.78-.08h0a3.27,3.27,0,0,0,.7.08h7.17A3.19,3.19,0,0,1,59,128.83v15.64a12.52,12.52,0,0,1-4.83,9.61c-3,2.55-6.94,3.57-10,5.87a2.33,2.33,0,0,0,1.52,4.28l38.44-.14c1.55,0,3.84-1.4,3.36-3.23-.7-2.67-5.48-3.66-7.45-5.17A16,16,0,0,1,73.72,143V128.13a2.48,2.48,0,0,1,2.48-2.49h25.46l.34,0,.3,0h1.12a3,3,0,0,0,3-3v-21A3,3,0,0,0,103.42,98.68Z"/></svg>