<?xml version="1.0" encoding="UTF-8"?>
<svg xmlns="http://www.w3.org/2000/svg" xmlns:xlink="http://www.w3.org/1999/xlink" viewBox="0 0 997.56 606.49">
  <defs>
    <style>
      .cls-1 {
        fill: #22201d;
      }

      .cls-2 {
        fill: #b88d56;
      }

      .cls-3 {
        clip-path: url(#clippath);
      }

      .cls-4 {
        fill: none;
      }

      .cls-5 {
        fill: #d8a867;
      }
    </style>
    <clipPath id="clippath">
      <polygon class="cls-4" points="57.64 346.16 57.64 410.84 81.9 418.19 57.64 425.54 57.64 453.46 97.33 460.81 57.64 472.57 57.64 501.97 66.46 522.55 57.64 541.66 57.64 563.7 960.15 563.7 960.15 541.66 927.81 531.37 960.15 522.55 927.81 518.14 960.15 507.85 960.15 462.28 930.75 454.93 960.15 438.77 960.15 346.16 57.64 346.16"/>
    </clipPath>
  </defs>
  <g id="Layer_3" data-name="Layer 3">
    <polygon class="cls-5" points="57.64 346.16 57.64 410.84 81.9 418.19 57.64 425.54 57.64 453.46 97.33 460.81 57.64 472.57 57.64 501.97 66.46 522.55 57.64 541.66 57.64 563.7 960.15 563.7 960.15 541.66 927.81 531.37 960.15 522.55 927.81 518.14 960.15 507.85 960.15 462.28 930.75 454.93 960.15 438.77 960.15 346.16 57.64 346.16"/>
  </g>
  <g id="Layer_3_copy" data-name="Layer 3 copy">
    <g class="cls-3">
      <path class="cls-2" d="m38.69,375.08c1.65-2.93,8.41-12.23,56.63-7.23,29.15,3.02,40.64,7.87,67.47,13.25,49.07,9.84,78.32,7.2,78.31,9.64,0,3.08-46.66,14.3-97.59,2.41-22.56-5.27-29.56-11.24-48.19-9.64-27.99,2.41-44.97,18.69-54.22,10.84-4.9-4.16-5.69-13.45-2.41-19.28Z"/>
      <path class="cls-2" d="m791.7,412.43c-2.55-5.24-72.78,57.36-148.19,38.55-29.14-7.27-70.86-29.63-136.14-37.35-.63-.07-1.36-.16-2.37-.27-56.18-6.22-98.65,5.62-110.88,8.71-77.78,19.65-199.98,5.75-200,8.43-.02,2.35,93.63,7.27,198.8,7.23,85.45-.03,88.41-3.31,121.69,1.2,84.5,11.46,100.45,37.33,156.63,32.53,71.44-6.1,122.68-54.52,120.48-59.04Z"/>
      <path class="cls-2" d="m977.25,360.62c-43.37-40.35-132-12.87-173.49,0-60.47,18.75-63.71,32.82-107.23,37.35-63.88,6.66-110.91-18.02-112.05-14.46-1.13,3.54,43.85,32.39,101.2,32.53,52.19.13,60.95-23.64,116.87-36.14,98-21.91,180.49,26.66,189.16,7.23,4.12-9.23-12.47-24.66-14.46-26.51Z"/>
      <path class="cls-2" d="m331.46,383.51c-32.32-3.95-57.77,7.21-71.08,13.25-15.38,6.98-29.82,13.53-28.92,19.28,1.7,10.77,56.22,11.95,101.2,3.61,15.21-2.82,44.26-8.2,44.58-16.87.3-8.34-26.1-16.87-45.78-19.28Z"/>
      <path class="cls-2" d="m917.01,469.05c.52-11.71-39.7-24.92-73.49-27.71-46.92-3.88-98.8,10.9-98.8,24.1,0,13.09,51.07,25.93,93.98,25.3,33.89-.49,77.77-9.6,78.31-21.69Z"/>
      <path class="cls-2" d="m19.42,501.58c-1.06-4.83,47.14-27.2,104.82-27.71,38.17-.34,42.09,9.23,84.34,10.84,65.32,2.49,110.83-18.29,112.05-14.46,1.05,3.31-31.52,22.95-75.9,31.33-54.29,10.24-71.62-6.69-150.6-4.82-48.42,1.15-73.95,8.27-74.7,4.82Z"/>
      <path class="cls-2" d="m690.5,522.07c-90.17,16.05-103.19-33.99-204.82-33.73-94.29.23-106.87,43.36-197.59,33.73-34.02-3.61-68.15-6.05-102.21-9.34-29.85-2.88-45.55-4.54-67.67-1.5-39.68,5.45-73.46,22.34-72.29,26.51,1.15,4.09,35.32-6.37,79.52-9.64,76.97-5.69,98.32,16.83,167.47,22.89,86.28,7.56,86.28-24.58,204.82-27.71,48-1.27,94.52-2.5,151.81,14.46,77.97,23.08,86.8,53.46,154.22,65.06,77.21,13.28,143.89-13.11,143.37-18.07-.45-4.26-50.8,3.98-127.71-8.43-34.73-5.6-100.96-16.29-101.2-31.33-.44-26.78,208.75-54.47,257.83-33.73,3.66,1.54,16.85,7.76,20.48,3.61,3.52-4.01-2.23-17.4-12.05-24.1-8.78-5.99-18.84-5.28-24.33-4.82-39.68,3.34-59.53,5.01-63.63,6.02-38.19,9.42-44.82.73-97.59,6.02-55.35,5.56-70.86,17.41-108.43,24.1Z"/>
      <path class="cls-2" d="m39.9,435.32c26.51-33.9,104.08-16.71,106.02-2.41,1.06,7.78-20.03,16.33-48.59,27.9-27.5,11.15-54.15,21.95-63.46,11.86-7.09-7.69-2.8-26.06,6.02-37.35Z"/>
      <path class="cls-2" d="m525.44,467.85c-21.34-2.38-38.48-.05-56.63,2.41-35.96,4.88-47.26,12.89-89.16,24.1-48.78,13.05-91.13,17.63-91.57,15.66-.31-1.42,21.47-5.08,55.42-18.07,33.29-12.74,35.96-18.25,62.65-26.51,22.76-7.04,41.1-9.29,54.22-10.84,19.02-2.25,44.53-5.26,71.08-1.2,43.37,6.63,45.94,25.46,89.16,38.55,55.68,16.87,101.87.91,102.41,4.82.47,3.45-34.82,20.44-77.11,15.66-51.45-5.81-62.68-38.14-120.48-44.58Z"/>
      <path class="cls-2" d="m814.6,326.89c.45,11.86-183.47,31.72-292.77,39.76-39.51,2.9-60.15,4.42-89.16,4.82-153.45,2.1-308.25-30.37-307.23-45.78,2.13-32.25,688.29-21.65,689.16,1.2Z"/>
      <path class="cls-2" d="m980.86,428.09c-1.92-18.63-44.34-30.55-74.7-32.53-46.03-3-82.53,15.68-81.93,18.07.65,2.6,43.31-20.69,85.54-3.61,31.47,12.72,46.57,41.33,61.45,34.94,6.14-2.64,10.31-10.4,9.64-16.87Z"/>
      <path class="cls-2" d="m392.91,588.33c-1.03-2.2,41.55-31.13,102.41-44.58,30.66-6.78,60.8-13.04,95.18-1.2,35.28,12.15,60.23,38.27,57.83,42.17-2.87,4.66-41.32-28.35-97.59-36.14-85.75-11.87-156.48,42.63-157.83,39.76Z"/>
      <path class="cls-2" d="m8.9,559.42c1.02-5.21,31.76-.66,74.37-2.41,61.12-2.5,89.24-15.6,90.36-12.05,1.84,5.82-71.42,48.62-137.35,28.92-12.11-3.62-28.14-10.59-27.39-14.46Z"/>
      <path class="cls-2" d="m604.96,422.07c-1.67,3.76-62.97-37.71-144.58-28.92-19.34,2.08-40.38,7.05-40.96,4.82-.69-2.64,27.12-15.32,54.22-19.28,70.86-10.35,133.04,39.5,131.33,43.37Z"/>
      <path class="cls-2" d="m320.62,454.6c-.5-7.05-70.08-7.23-113.25-4.82-15.15.85-57.65,3.22-57.83,8.43-.16,4.57,32.26,10.4,60.24,12.05,56.31,3.31,111.29-9.35,110.84-15.66Z"/>
      <path class="cls-2" d="m983.27,537.73c-13.94-36.18-195.71-1.07-195.18,7.23.26,4.1,44.39-8.47,103.61,12.05,32.11,11.12,50.8,25.79,69.88,16.87,14.04-6.57,26.04-24.85,21.69-36.14Z"/>
      <path class="cls-5" d="m889.3,464.23c.13-5.45-31.04-11.94-59.04-12.05-26.52-.1-56.64,5.51-56.63,10.84.02,5.43,31.29,10.46,56.63,10.84,26.55.4,58.9-4.11,59.04-9.64Z"/>
      <path class="cls-5" d="m21.83,443.75c17.79-28.58,75.21-20.25,78.31-8.43,3.72,14.13-65.07,52.83-80.72,38.55-6.71-6.12-3.01-21.41,2.41-30.12Z"/>
      <path class="cls-5" d="m342.31,399.17c-.19-2.65-17.8-4.87-33.73-1.2-12.22,2.81-26.02,9.68-25.3,12.05,1.4,4.64,59.39-5.98,59.04-10.84Z"/>
      <path class="cls-5" d="m508.57,500.41c-.22-2.48-33.3-3.42-66.27,3.61-13.81,2.95-35.32,8.95-34.94,10.84.82,4.05,101.58-10.1,101.2-14.46Z"/>
    </g>
  </g>
  <g id="Layer_5" data-name="Layer 5">
    <circle class="cls-1" cx="79.96" cy="362.13" r="9.94"/>
    <circle class="cls-1" cx="941.1" cy="362.13" r="9.8"/>
    <circle class="cls-1" cx="79.96" cy="548.74" r="9.94"/>
    <circle class="cls-1" cx="931.31" cy="549.13" r="9.94"/>
  </g>
</svg>