<?xml version="1.0" encoding="utf-8"?>
<!-- Generator: Adobe Illustrator 27.2.0, SVG Export Plug-In . SVG Version: 6.00 Build 0)  -->
<svg version="1.1" xmlns="http://www.w3.org/2000/svg" xmlns:xlink="http://www.w3.org/1999/xlink" x="0px" y="0px"
	 viewBox="0 0 138.7 118.6" style="enable-background:new 0 0 138.7 118.6;" xml:space="preserve">
<style type="text/css">
	.st0{fill:#99513C;}
	.st1{clip-path:url(#SVGID_00000025437331752651593220000002921252507928885429_);}
	.st2{fill:#794029;}
	.st3{fill:#22201D;}
	.st4{display:none;}
	.st5{display:inline;fill:#EFFFB7;stroke:#ABBD8A;stroke-width:5;stroke-miterlimit:10;}
	.st6{fill:#EFFFB7;stroke:#ABBD8A;stroke-width:5;stroke-miterlimit:10;}
</style>
<g id="Layer_1">
	<g id="Layer_3">
		<polygon class="st0" points="416.7,-28.2 416.7,23.8 435.5,29.8 416.7,35.7 416.7,58.1 447.5,64 416.7,73.5 416.7,97.2 
			423.5,113.7 416.7,129.1 416.7,146.8 1116.7,146.8 1116.7,129.1 1091.6,120.8 1116.7,113.7 1091.6,110.2 1116.7,101.9 
			1116.7,65.2 1093.9,59.3 1116.7,46.3 1116.7,-28.2 		"/>
	</g>
	<g id="Layer_3_copy">
		<g>
			<defs>
				<polygon id="SVGID_1_" points="416.7,-28.2 416.7,23.8 435.5,29.8 416.7,35.7 416.7,58.1 447.5,64 416.7,73.5 416.7,97.2 
					423.5,113.7 416.7,129.1 416.7,146.8 1116.7,146.8 1116.7,129.1 1091.6,120.8 1116.7,113.7 1091.6,110.2 1116.7,101.9 
					1116.7,65.2 1093.9,59.3 1116.7,46.3 1116.7,-28.2 				"/>
			</defs>
			<clipPath id="SVGID_00000065061129050855078370000005844284870082023336_">
				<use xlink:href="#SVGID_1_"  style="overflow:visible;"/>
			</clipPath>
			<g style="clip-path:url(#SVGID_00000065061129050855078370000005844284870082023336_);">
				<path class="st2" d="M402-4.9c1.3-2.4,6.5-9.8,43.9-5.8c22.6,2.4,31.5,6.3,52.3,10.7C536.3,7.8,559,5.7,559,7.7
					c0,2.5-36.2,11.5-75.7,1.9c-17.5-4.2-22.9-9-37.4-7.8c-21.7,1.9-34.9,15-42.1,8.7C400.1,7.2,399.4-0.2,402-4.9L402-4.9z"/>
				<path class="st2" d="M986,25.1c-2-4.2-56.4,46.1-114.9,31c-22.6-5.8-55-23.8-105.6-30c-0.5-0.1-1.1-0.1-1.8-0.2
					c-43.6-5-76.5,4.5-86,7c-60.3,15.8-155.1,4.6-155.1,6.8c0,1.9,72.6,5.8,154.2,5.8c66.3,0,68.6-2.7,94.4,1
					c65.5,9.2,77.9,30,121.5,26.2C948,67.7,987.8,28.8,986,25.1L986,25.1z"/>
				<path class="st2" d="M1129.9-16.6c-33.6-32.5-102.4-10.4-134.6,0c-46.9,15.1-49.4,26.4-83.2,30c-49.5,5.4-86-14.5-86.9-11.6
					c-0.9,2.8,34,26.1,78.5,26.2c40.5,0.1,47.3-19,90.6-29.1c76-17.6,140,21.4,146.7,5.8C1144.4-2.6,1131.5-15.1,1129.9-16.6
					L1129.9-16.6z"/>
				<path class="st2" d="M629.1,1.9c-25.1-3.2-44.8,5.8-55.1,10.7C562,18.1,550.8,23.4,551.5,28c1.3,8.7,43.6,9.6,78.5,2.9
					c11.8-2.3,34.3-6.6,34.6-13.6C664.8,10.7,644.3,3.8,629.1,1.9L629.1,1.9z"/>
				<path class="st2" d="M1083.2,70.7c0.4-9.4-30.8-20-57-22.3c-36.4-3.1-76.6,8.8-76.6,19.4c0,10.5,39.6,20.9,72.9,20.4
					C1048.8,87.7,1082.8,80.4,1083.2,70.7z"/>
				<path class="st2" d="M387,96.8c-0.8-3.9,36.6-21.9,81.3-22.3c29.6-0.3,32.6,7.4,65.4,8.7c50.7,2,86-14.7,86.9-11.6
					c0.8,2.7-24.4,18.5-58.9,25.2c-42.1,8.2-55.5-5.4-116.8-3.9C407.4,93.9,387.6,99.6,387,96.8L387,96.8z"/>
				<path class="st2" d="M907.5,113.3c-69.9,12.9-80-27.3-158.9-27.1c-73.1,0.2-82.9,34.9-153.3,27.1c-26.4-2.9-52.9-4.9-79.3-7.5
					c-23.2-2.3-35.3-3.7-52.5-1.2c-30.8,4.4-57,18-56.1,21.3c0.9,3.3,27.4-5.1,61.7-7.8c59.7-4.6,76.3,13.5,129.9,18.4
					c66.9,6.1,66.9-19.8,158.9-22.3c37.2-1,73.3-2,117.7,11.6c60.5,18.6,67.3,43,119.6,52.3c59.9,10.7,111.6-10.5,111.2-14.5
					c-0.3-3.4-39.4,3.2-99.1-6.8c-26.9-4.5-78.3-13.1-78.5-25.2c-0.3-21.5,161.9-43.8,200-27.1c2.8,1.2,13.1,6.2,15.9,2.9
					c2.7-3.2-1.7-14-9.3-19.4c-6.8-4.8-14.6-4.2-18.9-3.9c-30.8,2.7-46.2,4-49.4,4.8c-29.6,7.6-34.8,0.6-75.7,4.8
					C948.7,98.4,936.7,107.9,907.5,113.3L907.5,113.3z"/>
				<path class="st2" d="M402.9,43.5c20.6-27.3,80.7-13.4,82.2-1.9c0.8,6.3-15.5,13.1-37.7,22.4c-21.3,9-42,17.7-49.2,9.5
					C392.8,67.4,396.1,52.6,402.9,43.5L402.9,43.5z"/>
				<path class="st2" d="M779.5,69.7c-16.6-1.9-29.8,0-43.9,1.9C707.7,75.6,698.9,82,666.4,91c-37.8,10.5-70.7,14.2-71,12.6
					c-0.2-1.1,16.7-4.1,43-14.5c25.8-10.2,27.9-14.7,48.6-21.3c17.7-5.7,31.9-7.5,42.1-8.7c14.8-1.8,34.5-4.2,55.1-1
					c33.6,5.3,35.6,20.5,69.2,31c43.2,13.6,79,0.7,79.4,3.9c0.4,2.8-27,16.4-59.8,12.6C833.1,100.9,824.3,74.9,779.5,69.7
					L779.5,69.7z"/>
				<path class="st2" d="M1003.8-43.7c0.3,9.5-142.3,25.5-227.1,32c-30.6,2.3-46.7,3.6-69.2,3.9c-119,1.7-239.1-24.4-238.3-36.8
					C470.9-70.6,1003.1-62.1,1003.8-43.7L1003.8-43.7z"/>
				<path class="st2" d="M1132.7,37.7c-1.5-15-34.4-24.6-57.9-26.2c-35.7-2.4-64,12.6-63.5,14.5c0.5,2.1,33.6-16.6,66.3-2.9
					c24.4,10.2,36.1,33.2,47.7,28.1C1130,49.2,1133.3,42.9,1132.7,37.7L1132.7,37.7z"/>
				<path class="st2" d="M676.7,166.6c-0.8-1.8,32.2-25,79.4-35.9c23.8-5.5,47.2-10.5,73.8-1c27.4,9.8,46.7,30.8,44.9,33.9
					c-2.2,3.7-32-22.8-75.7-29.1C732.6,125.1,677.8,168.9,676.7,166.6L676.7,166.6z"/>
				<path class="st2" d="M378.9,143.4c0.8-4.2,24.6-0.5,57.7-1.9c47.4-2,69.2-12.5,70.1-9.7c1.4,4.7-55.4,39.1-106.5,23.3
					C390.7,152.1,378.3,146.5,378.9,143.4L378.9,143.4z"/>
				<path class="st2" d="M841.2,32.9c-1.3,3-48.8-30.3-112.1-23.3c-15,1.7-31.3,5.7-31.8,3.9c-0.5-2.1,21-12.3,42.1-15.5
					C794.3-10.3,842.5,29.8,841.2,32.9L841.2,32.9z"/>
				<path class="st2" d="M620.7,59.1c-0.4-5.7-54.4-5.8-87.8-3.9c-11.8,0.7-44.7,2.6-44.9,6.8c-0.1,3.7,25,8.4,46.7,9.7
					C578.4,74.3,621,64.1,620.7,59.1L620.7,59.1z"/>
				<path class="st2" d="M1134.6,125.9c-10.8-29.1-151.8-0.9-151.4,5.8c0.2,3.3,34.4-6.8,80.4,9.7c24.9,8.9,39.4,20.7,54.2,13.6
					C1128.7,149.7,1138,135,1134.6,125.9L1134.6,125.9z"/>
				<path class="st0" d="M1061.7,66.8c0.1-4.4-24.1-9.6-45.8-9.7C995.4,57,972,61.5,972,65.8c0,4.4,24.3,8.4,43.9,8.7
					C1036.5,74.9,1061.6,71.2,1061.7,66.8L1061.7,66.8z"/>
				<path class="st0" d="M388.9,50.3c13.8-23,58.3-16.3,60.7-6.8c2.9,11.4-50.5,42.5-62.6,31C381.8,69.6,384.7,57.3,388.9,50.3z"/>
				<path class="st0" d="M637.5,14.5c-0.1-2.1-13.8-3.9-26.2-1c-9.5,2.3-20.2,7.8-19.6,9.7C592.8,26.9,637.8,18.4,637.5,14.5
					L637.5,14.5z"/>
				<path class="st0" d="M766.4,95.9c-0.2-2-25.8-2.8-51.4,2.9c-10.7,2.4-27.4,7.2-27.1,8.7C688.6,110.8,766.7,99.4,766.4,95.9
					L766.4,95.9z"/>
			</g>
		</g>
	</g>
	<g id="Layer_5">
		<ellipse class="st3" cx="434" cy="-15.3" rx="7.7" ry="8"/>
		<ellipse class="st3" cx="1101.9" cy="-15.3" rx="7.6" ry="7.9"/>
		<ellipse class="st3" cx="434" cy="134.8" rx="7.7" ry="8"/>
		<ellipse class="st3" cx="1094.3" cy="135.1" rx="7.7" ry="8"/>
	</g>
</g>
<g id="Layer_2" class="st4">
	<circle class="st5" cx="491.1" cy="29.2" r="26.7"/>
	<circle class="st5" cx="556.2" cy="44.1" r="26.7"/>
	<path class="st5" d="M579.9,71.7c-6.3,5-14.6,8.1-23.7,8.1s-17.4-3.1-23.7-8.1C526,77.2,522,84.9,522,93.5c0,11.8,0,22.6,0,22.6
		h68.6c0,0,0-11.9,0-22.6C590.5,84.9,586.4,77.2,579.9,71.7z"/>
	<path class="st5" d="M511.9,93.4c0-9.9,4.2-18.9,11.1-25.8c-1.8-4.1-4.6-7.8-8.2-10.8c-6.3,5-14.6,8.1-23.7,8.1s-17.4-3.1-23.7-8.1
		c-6.5,5.5-10.6,13.2-10.6,21.8c0,11.8,0,22.6,0,22.6h55.1C511.9,98.7,511.9,96.1,511.9,93.4z"/>
</g>
<g id="Layer_2_copy">
	<circle class="st6" cx="36.8" cy="29.2" r="26.7"/>
	<circle class="st6" cx="101.9" cy="44.1" r="26.7"/>
	<path class="st6" d="M125.6,71.7c-6.3,5-14.6,8.1-23.7,8.1s-17.4-3.1-23.7-8.1c-6.5,5.5-10.6,13.2-10.6,21.8c0,11.8,0,22.6,0,22.6
		h68.6c0,0,0-11.9,0-22.6C136.2,84.9,132.1,77.2,125.6,71.7z"/>
	<path class="st6" d="M57.6,93.4c0-9.9,4.2-18.9,11.1-25.8c-1.8-4.1-4.6-7.8-8.2-10.8c-6.3,5-14.6,8.1-23.7,8.1
		c-9.1,0-17.4-3.1-23.7-8.1C6.6,62.3,2.5,70.1,2.5,78.6c0,11.8,0,22.6,0,22.6h55.1C57.6,98.7,57.6,96.1,57.6,93.4z"/>
</g>
</svg>
