<?xml version="1.0" encoding="UTF-8"?>
<svg id="Layer_1" data-name="Layer 1" xmlns="http://www.w3.org/2000/svg" xmlns:xlink="http://www.w3.org/1999/xlink" viewBox="0 0 243.16 55.92">
  <defs>
    <style>
      .cls-1 {
        fill: #d7a767;
      }

      .cls-2 {
        clip-path: url(#clippath);
      }

      .cls-3 {
        fill: none;
      }

      .cls-4 {
        fill: #b88e56;
      }
    </style>
    <clipPath id="clippath">
      <path class="cls-3" d="m14.36,10.81v4.8c2.82.12,5.64.25,8.46.37-2.82,1.31-5.64,2.62-8.46,3.93v14.41c2.07,1.81,4.14,3.62,6.22,5.43-2.07.94-4.14,1.87-6.22,2.81v6.26h210.11v-3.69c-1.83-.64-3.67-1.29-5.5-1.93,1.8-.69,3.6-1.38,5.4-2.07.04-2.71.07-5.41.11-8.12v-4.06c-.04-4-.07-8-.11-12.01-1.48-.78-2.95-1.57-4.43-2.35,1.51-.67,3.02-1.35,4.54-2.02v-1.76H14.36Z"/>
    </clipPath>
  </defs>
  <path class="cls-1" d="m14.36,10.81v4.8c2.82.12,5.64.25,8.46.37-2.82,1.31-5.64,2.62-8.46,3.93v14.41c2.07,1.81,4.14,3.62,6.22,5.43-2.07.94-4.14,1.87-6.22,2.81v6.26h210.11v-3.69c-1.83-.64-3.67-1.29-5.5-1.93,1.8-.69,3.6-1.38,5.4-2.07.04-2.71.07-5.41.11-8.12v-4.06c-.04-4-.07-8-.11-12.01-1.48-.78-2.95-1.57-4.43-2.35,1.51-.67,3.02-1.35,4.54-2.02v-1.76H14.36Z"/>
  <g class="cls-2">
    <path class="cls-4" d="m3.8,8.03c5.37-3.26,12.58,5.86,26.46,9.95,11.44,3.37,17.07.28,35.44-1.7,30.05-3.24,52.68.97,52.68,1.21,0,.24-21.31-3.16-49.28,1.7-11.86,2.06-15.93,4.04-31.31,6.07-18.55,2.44-31.78,4.03-36.17-2.67C-1.31,18.14-.07,10.38,3.8,8.03Z"/>
    <path class="cls-4" d="m137.79,27.94c-.16-4.82-22.99-8.39-40.05-8.5-19.18-.12-42.86,4.04-42.97,8.98-.1,4.68,20.94,9.92,39.32,10.2,21.1.32,43.86-5.83,43.69-10.68Z"/>
    <path class="cls-4" d="m76.06,52.35c-.25-4.8,90.64-1.77,124.89-17.28,3.23-1.46,18.03-8.56,29.27-2.79,1.17.6,3.78,1.94,3.62,3.35-.44,4.01-22.76,2.52-49.07,6.13-27.51,3.78-28.03,8.87-52.69,12.27-28.55,3.93-55.9.96-56.03-1.67Z"/>
    <path class="cls-4" d="m9.15,38.13c3.42-4.69,11.25-4.41,25.37-2.79,26.51,3.04,39.77,4.56,39.87,6.97.26,6.64-58.13,20.39-66.07,6.13-1.71-3.07-1.16-7.57.84-10.31Z"/>
    <path class="cls-4" d="m238.87,21.68c-3.13,3.27-6.63,1.8-20.35,4.74-4.49.96-4.47,1.17-7.53,1.67-8.1,1.34-13.64.8-15.61.56-3.3-.4-8.13-1.33-8.08-1.95.1-1.33,22.08,1.75,23.42-2.79.79-2.68-5.48-8.52-12.27-8.92-6.26-.37-8.18,4.12-18.12,9.2-5.57,2.85-18.37,9.4-27.32,4.74-5.2-2.71-4.5-6.81-10.04-10.87-9.48-6.95-21.92-2.47-22.02-3.35-.11-.93,13.63-7.18,26.21-1.95,8.65,3.6,9.06,9.43,16.17,11.15,8.29,2,14.05-4.41,24.53-10.04,21.87-11.74,50.26-12.52,54.64-4.46,1.99,3.65-.82,9.34-3.62,12.27Z"/>
    <path class="cls-4" d="m153.56,5.24c-.67.32.74,9.07,7.25,12.55.6.32,2.38,1.2,5.02,1.39,10.68.78,23.23-10.65,21.47-15.61-1.32-3.7-11.01-4.94-13.66-1.67-2.36,2.92,2.09,7.92-.56,11.43-2.02,2.68-6.95,2.84-10.31,1.67-6.56-2.28-8.55-10.07-9.2-9.76Z"/>
    <path class="cls-4" d="m172.02,36.98c-.02-1.84-12.2-3.86-22.03-1.27-.32.08-.62.17-.85.24-6.27,1.77-14.46,4.98-14.34,6.21.14,1.51,12.69-.09,16.05-.52,7.43-.95,21.2-2.7,21.17-4.66Z"/>
    <path class="cls-1" d="m123.73,30.05c-.06,2.26-15.8,3.91-28.99,3.07-2.16-.14-14.13-.91-14.22-2.79-.08-1.71,9.71-4.04,18.68-4.46,11.88-.55,24.59,2.14,24.53,4.18Z"/>
    <path class="cls-1" d="m9.99,19.17c4.8,7.14,17.62,5.85,18.4,3.35,1.01-3.23-16.59-13.44-19.79-10.31-1.39,1.35.1,5.04,1.39,6.97Z"/>
  </g>
</svg>