<?xml version="1.0" encoding="UTF-8"?>
<svg id="Layer_5" data-name="Layer 5" xmlns="http://www.w3.org/2000/svg" viewBox="0 0 175 175">
  <defs>
    <style>
      .cls-1 {
        fill: #272727;
      }
    </style>
  </defs>
  <path class="cls-1" d="m113.9,137.99c-4.25,1.2-8.3,2.45-12.4,3.48-4.72,1.19-9.49,2.25-14.25,3.26-2.56.55-5.16,1.02-7.76,1.28-2.98.3-5.95.14-8.98.77-3.86.8-7.77-.52-11.37-1.89-4.16-1.59-8.04-3.92-12.13-5.73-6.61-2.91-9.58-8.37-11.8-14.9-3.08-9.03-4.59-18.16-4.03-27.66.1-1.73.01-3.47.01-5.04-1.56-2.61-4.32-2.18-6.39-2.6-6.3-1.29-10.49-5.17-13.86-10.13-4.53-6.67-6.18-14.19-5.64-22.19.05-.7.11-1.31.17-1.88.39-3.34,1.37-6.58,2.7-9.67,1.15-2.68,2.13-5.17,3.79-7.58,1.8-2.62,11.44-13.9,20.83-15.91,8.51-1.82,17-1.96,24.48,3.09,5.43,3.66,9.24,8.95,11.54,15.19.08.21.2.4.48.95,15.3,2.57,28.69,10.32,42.04,18.03,12.44,7.18,24.96,14.28,36.91,22.23,6.71,4.47,13.41,9.38,18.27,16.13,5.89,8.19,4.07,18.55-5.19,23.93-6,3.49-12,6.9-18.64,8.96-5.82,1.81-11.72,3.34-17.57,5.05-3.64,1.06-7.28,2.15-11.22,2.8Zm-18.7-35.86c1.14,0,2.28.1,3.41-.03,3.93-.45,7.56-1.5,9.89-5.11,4.16-6.45,2.26-13.2.04-19.38-3.12-8.7-14.42-13.91-23.81-12.27-4.65.81-7.96,3.6-10.96,6.8-6.23,6.64-8.3,20.86-4.21,28.53,8.31.58,16.71,1.69,25.64,1.46Z"/>
</svg>