<svg xmlns="http://www.w3.org/2000/svg" viewBox="0 0 175 175"><defs><style>.cls-1{isolation:isolate;}.cls-2{fill:#58755f;stroke:#184e26;}.cls-2,.cls-4,.cls-5,.cls-6,.cls-8{stroke-miterlimit:10;stroke-width:1.3px;}.cls-3{fill:#128b44;mix-blend-mode:multiply;opacity:0.48;}.cls-4{fill:#e396c1;stroke:#a52170;}.cls-5{fill:#925725;stroke:#5b2e10;}.cls-6{fill:#fbbd17;stroke:#e38f28;}.cls-7{fill:#382a43;}.cls-8{fill:#8c6f9a;stroke:#562a7f;}</style></defs><g class="cls-1"><g id="Layer_1" data-name="Layer 1"><rect class="cls-2" x="126.5" y="62.45" width="5.17" height="79.98" rx="1.79"/><path class="cls-2" d="M130.35,105.7c-1.48-.59,1.12-17.16,5.09-23.85s9.62-8.91,12.62-5,2.21,12.54-1.76,19.23S131.78,106.27,130.35,105.7Z"/><path class="cls-2" d="M129.4,116.2c-.3,2.23-11.59-.63-16.32-6.12s-6.56-13.74-4.1-18.43,8.29-4,13,1.46S129.7,114,129.4,116.2Z"/><path class="cls-3" d="M124.35,111.83a21.62,21.62,0,0,0-4.83-9.71,63.78,63.78,0,0,0-7.87-7.63A15.35,15.35,0,0,1,116.39,98c3.16,3.15,6.11,6.61,7.84,10.72.54,1.28.94,2.79.27,4C124.36,112.09,124.23,111.45,124.35,111.83Z"/><path class="cls-2" d="M148.06,76.88c-3-3.94-8.65-1.71-12.62,5a41.24,41.24,0,0,0-3.77,10.42V63.38a.93.93,0,0,0-.93-.93h-3.31a.93.93,0,0,0-.93.93v38.87c-1.2-3.63-2.73-7.08-4.5-9.14-4.73-5.49-10.55-6.14-13-1.46s-.62,12.94,4.1,18.43c3.27,3.8,9.68,6.33,13.42,6.8V141.5a.93.93,0,0,0,.93.93h3.31a.93.93,0,0,0,.93-.93V105.67c3.32-.6,11.29-4,14.63-9.56C150.27,89.42,151.06,80.81,148.06,76.88Z"/><path class="cls-3" d="M124.35,111.83a21.62,21.62,0,0,0-4.83-9.71,63.78,63.78,0,0,0-7.87-7.63A15.35,15.35,0,0,1,116.39,98c3.16,3.15,6.11,6.61,7.84,10.72.54,1.28.94,2.79.27,4C124.36,112.09,124.23,111.45,124.35,111.83Z"/><path class="cls-3" d="M146.46,82.75a22.79,22.79,0,0,0-8.61,7.65,64.53,64.53,0,0,0-5.41,10.06,14.68,14.68,0,0,1,2.14-5.74c2.26-4.06,4.92-8,8.66-10.94,1.17-.91,2.63-1.75,4.13-1.44C146.74,82.66,146.11,83,146.46,82.75Z"/><rect class="cls-2" x="83.34" y="91.92" width="5.17" height="79.98" rx="1.79"/><path class="cls-2" d="M87.19,135.17c-1.47-.58,1.12-17.16,5.09-23.84s9.62-8.92,12.62-5,2.21,12.55-1.76,19.23S88.62,135.75,87.19,135.17Z"/><path class="cls-2" d="M86.25,145.68c-.31,2.22-11.59-.63-16.32-6.13s-6.57-13.74-4.1-18.42,8.29-4,13,1.46S86.55,143.52,86.25,145.68Z"/><path class="cls-3" d="M81.19,141.31a21.45,21.45,0,0,0-4.83-9.72A64.43,64.43,0,0,0,68.49,124a14.82,14.82,0,0,1,4.74,3.52c3.16,3.14,6.12,6.61,7.85,10.71.54,1.28.94,2.8.26,4C81.21,141.57,81.08,140.93,81.19,141.31Z"/><path class="cls-2" d="M104.9,106.35c-3-3.94-8.65-1.71-12.62,5a41,41,0,0,0-3.76,10.41V92.85a.93.93,0,0,0-.93-.93H84.27a.93.93,0,0,0-.93.93v38.88c-1.2-3.63-2.72-7.09-4.49-9.14-4.73-5.49-10.56-6.15-13-1.46s-.63,12.93,4.1,18.42c3.27,3.8,9.67,6.34,13.41,6.81V171a.93.93,0,0,0,.93.93h3.32a.93.93,0,0,0,.93-.93V135.14c3.31-.59,11.28-3.94,14.62-9.56C107.11,118.9,107.9,110.29,104.9,106.35Z"/><path class="cls-3" d="M81.19,141.31a21.45,21.45,0,0,0-4.83-9.72A64.43,64.43,0,0,0,68.49,124a14.82,14.82,0,0,1,4.74,3.52c3.16,3.14,6.12,6.61,7.85,10.71.54,1.28.94,2.8.26,4C81.21,141.57,81.08,140.93,81.19,141.31Z"/><path class="cls-3" d="M103.31,112.23a22.63,22.63,0,0,0-8.61,7.65,63.22,63.22,0,0,0-5.42,10.05,14.74,14.74,0,0,1,2.14-5.74c2.26-4.06,4.93-8,8.67-10.94,1.16-.91,2.63-1.75,4.12-1.43C103.58,112.14,103,112.46,103.31,112.23Z"/><rect class="cls-2" x="42.74" y="50.14" width="5.17" height="79.98" rx="1.79"/><path class="cls-2" d="M46.59,93.39c-1.48-.59,1.12-17.16,5.09-23.85s9.62-8.91,12.62-5,2.21,12.55-1.76,19.24S48,94,46.59,93.39Z"/><path class="cls-2" d="M45.64,103.89c-.3,2.22-11.59-.63-16.31-6.12S22.76,84,25.22,79.34s8.3-4,13,1.46S45.94,101.73,45.64,103.89Z"/><path class="cls-3" d="M40.59,99.52a21.71,21.71,0,0,0-4.83-9.72,64.43,64.43,0,0,0-7.87-7.62,15.08,15.08,0,0,1,4.74,3.52,34.37,34.37,0,0,1,7.84,10.72c.54,1.28.94,2.79.27,4C40.6,99.78,40.47,99.14,40.59,99.52Z"/><path class="cls-2" d="M64.3,64.56c-3-3.93-8.65-1.7-12.62,5A41.49,41.49,0,0,0,47.91,80V51.07a.92.92,0,0,0-.93-.93H43.67a.93.93,0,0,0-.93.93V89.94c-1.2-3.63-2.72-7.08-4.5-9.14-4.72-5.49-10.55-6.14-13-1.46s-.62,12.94,4.11,18.43c3.26,3.79,9.67,6.33,13.41,6.8v24.62a.93.93,0,0,0,.93.93H47a.93.93,0,0,0,.93-.93V93.35c3.32-.59,11.29-3.94,14.63-9.55C66.51,77.11,67.3,68.5,64.3,64.56Z"/><path class="cls-3" d="M40.59,99.52a21.71,21.71,0,0,0-4.83-9.72,64.43,64.43,0,0,0-7.87-7.62,15.08,15.08,0,0,1,4.74,3.52,34.37,34.37,0,0,1,7.84,10.72c.54,1.28.94,2.79.27,4C40.6,99.78,40.47,99.14,40.59,99.52Z"/><path class="cls-3" d="M62.7,70.44a22.79,22.79,0,0,0-8.61,7.65,64.53,64.53,0,0,0-5.41,10.06,14.62,14.62,0,0,1,2.14-5.74c2.26-4.06,4.92-8,8.67-10.94,1.16-.91,2.62-1.76,4.12-1.44C63,70.35,62.35,70.67,62.7,70.44Z"/><path class="cls-4" d="M149.93,50.78c-7.07-1.2-15.9,1.82-17.93,3.65-1.07-2.4-2.19-3.93-2.8-3.79a5.81,5.81,0,0,0-2,1.72c-.08-1.26-.33-2.07-.72-2.18-.63-.17-2.9.55-5.64,2C119.52,51,108.89,49,101.36,52s-14.1,9.39-13.67,13.91,12.11,2.57,19.78-.47l.21-.1c-2.69,5.83-3.34,12-1,14.78s8.41-2,13.11-7.52c.31,6.51,2.66,12.39,6,13.78,3.55,1.46,6.76-6.33,8.22-13.74,6.14,4.9,14.1,7.29,17.73,4.94,2.8-1.82-.31-7.41-4.64-12.39.36.08.73.17,1.09.23,8.14,1.38,16.92-.72,18.9-4.81S158.07,52.16,149.93,50.78Z"/><path class="cls-5" d="M116.47,53.65c0-4.85,6.07-13.45,12.93-13.45s11.9,8.6,11.9,13.45-5.56,8.8-12.42,8.8S116.47,58.51,116.47,53.65Z"/><path class="cls-6" d="M77.75,86.69c1,1.2-5.76,10.22-13.43,13.25s-19.35,5-19.78.47,6-10.87,13.66-13.91S76.76,85.52,77.75,86.69Z"/><path class="cls-6" d="M83.32,84.66c1.51.43.94,11.69-3.71,18.5s-13.24,15-16.13,11.46S62.36,102.26,67,95.45,81.84,84.25,83.32,84.66Z"/><path class="cls-6" d="M88.42,89.63c-.25-1.55,10.22-5.75,18.35-4.37S125.9,91,123.93,95.11,113.17,101.3,105,99.92,88.66,91.14,88.42,89.63Z"/><path class="cls-6" d="M81.07,89c.6-1.46,11.72.39,18,5.79s13.36,14.86,9.55,17.33-12.41-.29-18.65-5.7S80.5,90.38,81.07,89Z"/><path class="cls-6" d="M86,85.11c1.54-.33,6.33,9.87,5.43,18.08s-4.64,19.43-8.84,17.7-6.81-10.38-5.9-18.59S84.55,85.44,86,85.11Z"/><ellipse class="cls-7" cx="85.73" cy="88.13" rx="12.42" ry="8.8"/><path class="cls-8" d="M61.25,53.17c-2.6-.51-5.08-.86-7.34-1.08a72.13,72.13,0,0,0,9.32-3.59C72.29,44.3,78.88,39.28,78,37.28s-9-.21-18.09,4a73.16,73.16,0,0,0-7.36,3.9c.93-1.65,1.87-3.46,2.77-5.38,4.31-9.2,6.25-17.47,4.32-18.47s-7,5.64-11.28,14.84c-1.17,2.49-2.15,4.91-2.94,7.15a83.61,83.61,0,0,0-3.24-8c-4.39-9.46-9.5-16.41-11.41-15.53s.1,9.28,4.49,18.74a80.53,80.53,0,0,0,5,9.26,75.19,75.19,0,0,0-9.49-3.45C21,41.49,12.64,40.87,12.12,43s7,6.12,16.73,9c2.61.77,5.12,1.37,7.4,1.81a65.41,65.41,0,0,0-11.09,4.07c-9.06,4.2-15.65,9.22-14.72,11.21s9,.22,18.08-4A58.91,58.91,0,0,0,40.43,58l.18.25a73.66,73.66,0,0,0-4.74,8.66c-4.31,9.2-6.25,17.47-4.33,18.47s7-5.64,11.29-14.84a76.46,76.46,0,0,0,3.64-9.24,79.73,79.73,0,0,0,3.78,9.61c4.39,9.46,9.5,16.41,11.41,15.53s-.09-9.28-4.49-18.74a82.17,82.17,0,0,0-4.6-8.61,76.42,76.42,0,0,0,7.5,1.83c9.95,1.93,18.28,1.76,18.61-.39S71.2,55.1,61.25,53.17Z"/><ellipse class="cls-6" cx="46.13" cy="52.12" rx="7.41" ry="7.3" transform="translate(-16.82 22.42) rotate(-23.23)"/></g></g></svg>