<?xml version="1.0" encoding="UTF-8"?>
<svg id="Vole" xmlns="http://www.w3.org/2000/svg" xmlns:xlink="http://www.w3.org/1999/xlink" viewBox="0 0 498.24 373.68">
  <defs>
    <style>
      .cls-1 {
        fill: #f58f8a;
      }

      .cls-1, .cls-2, .cls-3, .cls-4, .cls-5 {
        stroke: #582c0e;
        stroke-miterlimit: 10;
        stroke-width: 2px;
      }

      .cls-6, .cls-3 {
        fill: #fff;
      }

      .cls-7 {
        fill: #e8e3cd;
      }

      .cls-2 {
        fill: #582c0e;
      }

      .cls-8 {
        clip-path: url(#clippath-1);
      }

      .cls-9 {
        clip-path: url(#clippath);
      }

      .cls-10, .cls-4 {
        fill: none;
      }

      .cls-5 {
        fill: #854c20;
      }
    </style>
    <clipPath id="clippath">
      <path class="cls-10" d="m147.76,276.49c24.71-.32,50.11,22.74,48.43,43.65-.67,8.41-5.94,19.22-15.58,23.39-7.81,3.38-15.66,1.18-18.98.24-9.94-2.79-10.32-7.63-25.31-16.4-9.7-5.68-11.65-4.89-15.58-9.16-4.63-5.04-8.96-13.81-7.06-21.94,3.08-13.19,21.37-19.61,34.07-19.77Z"/>
    </clipPath>
    <clipPath id="clippath-1">
      <path class="cls-10" d="m94.11,279.37c3.2-4.61.49-7.64,3.52-12.96,4.31-7.56,14.42-8.97,15.51-9.11,11.65-1.47,19.67,6.87,20.44,7.71,7.66,8.25,8.7,21.34,3.17,30.13-8.77,13.96-30.2,10.12-39.13,7.01-9.23-3.22-18.16-10.24-17.1-14.35.95-3.69,9.14-2.03,13.58-8.42Z"/>
    </clipPath>
  </defs>
  <g id="Tail">
    <path class="cls-1" d="m187.78,327.21c4.32-4.02,9.56-.12,17.39-3.07,5.77-2.17,11.24-7.43,12.79-13.3,1.74-6.6-2.06-10.06-7.42-22.51-3.38-7.86-7.67-20.06-5.37-33.25.95-5.43,2.82-16.18,11.77-20.46,6.39-3.06,15.58-2.41,21.23,3.33,8.07,8.2,3.87,21.7,3.07,21.74-.77.04,1.11-12.98-6.39-18.42-4.62-3.35-12.16-3.37-16.88,0-9.37,6.7-5.66,25.44-4.78,29.86,4.19,21.16,16.99,26.76,15.47,44.09-.61,6.99-3.12,10.9-4.3,12.5-4.41,6.01-10.84,7.8-16.88,9.72-3.26,1.03-18.35,5.83-22,.26-1.8-2.75-.58-7.8,2.3-10.49Z"/>
  </g>
  <g id="Body">
    <path class="cls-5" d="m147.46,276.49c24.86-.33,50.41,22.93,48.73,44.01-.68,8.47-5.97,19.38-15.67,23.58-7.86,3.41-15.75,1.19-19.1.24-10-2.82-10.38-7.69-25.47-16.53-9.76-5.72-11.72-4.93-15.67-9.24-4.66-5.09-9.01-13.93-7.1-22.13,3.1-13.29,21.5-19.77,34.28-19.94Z"/>
    <g class="cls-9">
      <path class="cls-7" d="m114.99,289.4c6.29,2.51-.4,20.19,10.28,28.69,4.06,3.23,6.1,1.53,16.9,4.86,3.34,1.03,25.32,7.82,25.22,15.56-.07,6.06-13.66,10.22-14.45,10.45-19.22,5.71-37.11-7.15-39.91-9.24-6.16-4.58-19.72-14.65-18.36-28.69,1.25-12.96,14.69-23.88,20.32-21.64Z"/>
    </g>
  </g>
  <g id="Ear">
    <path class="cls-1" d="m135.34,259.68c1.91-2.31,5.88-7.12,6.14-13.81.37-9.7-7.18-19.95-15.97-21.05-.49-.06-7.37-.82-10.88,3.65-2.57,3.28-1.91,7.57-1.53,9.98.66,4.25,2.24,5.56,6.39,12.79,5.59,9.74,6.12,13.3,8.95,13.56,2.49.22,4.59-2.31,6.91-5.12Z"/>
    <path class="cls-4" d="m127.44,263.07c1.18-2.49,3.73-8.78,2.7-16.94-.85-6.67-4.56-12.01-7.44-16.43-1.23-1.88-2.35-3.38-3.14-4.38"/>
  </g>
  <g id="Head">
    <path class="cls-5" d="m93.15,279.15c3.38-4.81.54-8.06,3.67-13.57,4.49-7.91,15-9.39,16.13-9.53,12.12-1.54,20.46,7.19,21.27,8.07,7.97,8.63,9.05,22.33,3.3,31.53-8.94,14.33-30.41,11.34-40.7,7.33-8.98-3.5-17.73-10.98-16.5-15.4,1.05-3.76,8.48-2.25,12.83-8.43Z"/>
    <g class="cls-8">
      <path class="cls-7" d="m92.41,270.39c5.82,3.76,1.63,13.3,8.09,17.65,7.02,4.73,15.41-4.23,26.11,0,6.39,2.52,12.74,9.41,11.77,14.71-1.97,10.71-34.85,20.1-57.74,7.72-2.22-1.2-20-10.81-18.39-23.54,1.64-12.93,22.35-21.6,30.16-16.55Z"/>
    </g>
    <path class="cls-1" d="m89.98,282.22c-.5-.19-1.94.59-4.79,2.16-4.09,2.25-4.52,2.85-4.7,3.49-.38,1.4.57,2.75,1.89,4.56,1.54,2.12,4.27,5.89,6.32,5.37,3.53-.89,4.32-14.4,1.29-15.58Z"/>
  </g>
  <g id="Eye">
    <path class="cls-3" d="m105.77,285.06c.28.1.29.01,3.16-.49,3.46-.61,4.12-.6,6.3-1.09,2.06-.46,3.09-.69,3.46-.93,4.31-2.78,2.83-18.29-4.28-21.12-2.99-1.19-5.81.61-6.05.77-7.64,5.05-6.34,21.58-2.59,22.86Z"/>
    <g id="Layer_9" data-name="Layer 9">
      <path class="cls-2" d="m106.78,278.55c2.99-1.45,3.82-6.38,2.73-9.86-.14-.44-.91-2.91-2.05-2.93-1.11-.02-1.95,2.36-2.45,3.77-1.1,3.13-2.05,8.39-.24,9.3.7.35,1.56-.07,2.01-.28Z"/>
      <path class="cls-6" d="m111.67,265.44c1.49,1.55.24,5.49-1.4,5.81-.79.16-1.59-.54-1.96-1.08-1.23-1.79.04-5.02,1.68-5.33.63-.12,1.29.19,1.68.6Z"/>
    </g>
  </g>
  <g id="Hand">
    <path class="cls-1" d="m129.2,320.04c.91-2.18-1.67-5.46-3.98-7.05-3.66-2.51-8.93-2.36-12.55.25-2.99,2.16-5.47,6.44-4.18,8.59,1,1.67,4.34,1.37,11,.77,5.99-.54,9.01-.84,9.72-2.56Z"/>
  </g>
  <g id="Leg">
    <path class="cls-5" d="m158.87,322.09c4.98-13.39,24.87-19.54,35.04-11.77,5.35,4.08,7.39,11.55,6.65,17.65-1.29,10.63-10.88,15.8-14.32,17.65-3.59,1.94-10.63,5.74-17.39,3.07-9.79-3.86-13.38-17.46-9.98-26.6Z"/>
    <path class="cls-1" d="m134.83,345.88c.6-.57,4.84-4.52,11-5.63,11.42-2.06,14.37,8.35,26.86,7.67,7.12-.39,11.68-4.07,16.37-1.02,1.27.83,3.46,2.74,3.07,4.35-.68,2.82-8.77,2.67-29.67,2.81-22,.15-30.68.44-31.46-2.56-.41-1.57,1.53-3.43,3.84-5.63Z"/>
  </g>
</svg>