<?xml version="1.0" encoding="UTF-8"?>
<svg id="Coyote" xmlns="http://www.w3.org/2000/svg" xmlns:xlink="http://www.w3.org/1999/xlink" viewBox="0 0 498.24 373.68">
  <defs>
    <style>
      .cls-1 {
        fill: #804332;
      }

      .cls-2, .cls-3 {
        fill: #eabc8d;
      }

      .cls-4 {
        clip-path: url(#clippath-2);
      }

      .cls-5 {
        fill: #fff;
      }

      .cls-5, .cls-6, .cls-3, .cls-7 {
        stroke: #61290e;
        stroke-miterlimit: 10;
        stroke-width: 2px;
      }

      .cls-8 {
        clip-path: url(#clippath-6);
      }

      .cls-9 {
        clip-path: url(#clippath-1);
      }

      .cls-10 {
        clip-path: url(#clippath-4);
      }

      .cls-11 {
        clip-path: url(#clippath);
      }

      .cls-6 {
        fill: #61290e;
      }

      .cls-12 {
        fill: none;
      }

      .cls-13 {
        clip-path: url(#clippath-3);
      }

      .cls-14 {
        clip-path: url(#clippath-5);
      }

      .cls-7 {
        fill: #cb8849;
      }
    </style>
    <clipPath id="clippath">
      <path class="cls-12" d="m224.5,285.95l-16.57,51.29-26.06,14.63,2.08,2.5c4.25,1.06,18.68,2.29,18.68,2.29l28.56-5.18,5.34-31.78s-8.53-25.39-12.02-33.74Z"/>
    </clipPath>
    <clipPath id="clippath-1">
      <path class="cls-12" d="m225.14,286.95c-5.33,17.14-10.67,34.28-16,51.42-9.09,4.69-18.18,9.39-27.27,14.08l2.06,2.52c4.23,1.06,18.58,2.31,18.58,2.31l28.42-5.22,5.32-32.07c-1.56-4.61-3.12-9.23-4.68-13.86-2.16-6.4-4.3-12.8-6.44-19.19Z"/>
    </clipPath>
    <clipPath id="clippath-2">
      <polygon class="cls-12" points="186.54 355.58 165.98 268.97 131.22 272.09 121.14 304.07 129.17 324.84 160.63 355.58 186.54 355.58"/>
    </clipPath>
    <clipPath id="clippath-3">
      <polygon class="cls-12" points="186.32 357.42 165.29 269.73 129.75 272.88 119.45 305.27 127.65 326.3 159.82 357.42 186.32 357.42"/>
    </clipPath>
    <clipPath id="clippath-4">
      <path class="cls-12" d="m165.47,301.57c5.54,4.9.99,14.72-.64,42.16-.38,6.42-.48,11.79-.5,15.61-.86,1.63-1.73,3.26-2.59,4.89-.7-1.61-1.64-3.99-2.52-6.94-1.54-5.18-1.99-9.21-2.26-11.4,0,0-.9-7.41-3.2-18.86-3.38-16.87-7.68-20.73-5.01-24.42,2.93-4.05,12.19-5.04,16.7-1.05Z"/>
    </clipPath>
    <clipPath id="clippath-5">
      <path class="cls-12" d="m119.09,255.48l-31.75-1.5,10.67,21.25,52.84,3.5,33.24-12.37c.16-.61,1.9-7.89-3.19-13.78-4.93-5.71-12-5.16-12.69-5.09l.74-7.75-11.16-29-10.67,29-24.06,1-3.97,14.75Z"/>
    </clipPath>
    <clipPath id="clippath-6">
      <path class="cls-12" d="m119.58,256.76l-31.52-1.46,10.59,20.72,52.44,3.41,32.99-12.07c.13-.49,1.98-7.72-3.16-13.44-5.27-5.86-12.9-4.59-13.33-4.51.36-2.72.72-5.44,1.08-8.16-3.56-9.38-7.12-18.75-10.69-28.13l-10.59,28.28-23.88.98-3.94,14.39Z"/>
    </clipPath>
  </defs>
  <g id="Tail">
    <path class="cls-7" d="m225.07,285.95l-16.79,51.74-26.41,14.76,2.1,2.52c4.31,1.06,18.93,2.31,18.93,2.31l28.94-5.22,5.41-32.07s-8.64-25.61-12.18-34.04Z"/>
    <g class="cls-11">
      <polygon class="cls-2" points="181.87 349.31 207.55 349.31 236.52 339.82 232.21 354.96 197.79 360.15 180.63 354.96 181.87 349.31"/>
    </g>
    <g class="cls-9">
      <polygon class="cls-1" points="209.56 317.4 222.05 334.05 241.52 320.83 227.88 283.66 222.37 280.85 209.56 317.4"/>
    </g>
  </g>
  <g id="Leg3">
    <polygon class="cls-3" points="144.02 325.96 130.77 331 125.72 348.88 150.12 358.97 130.35 355.4 121.73 363.39 159.37 364.23 168.55 364.23 160.69 353.29 170.15 350.14 160.69 325.96 144.02 325.96"/>
  </g>
  <g id="Leg4">
    <polygon class="cls-3" points="127.41 304.09 147.17 358.34 138.34 356.66 130.98 364.23 156.85 364.23 144.86 301.57 127.41 304.09"/>
  </g>
  <g id="Body">
    <polygon class="cls-7" points="187.13 356.66 166.1 268.97 130.56 272.13 120.26 304.51 128.46 325.54 160.63 356.66 187.13 356.66"/>
    <g class="cls-4">
      <path class="cls-2" d="m127.31,272.5l29.61-.83-9.25,32.61c1.51,6.43,3.02,12.87,4.52,19.3,6.86,8.45,13.71,16.9,20.57,25.35l-3.91,9.76-22.59-8.51-23.68-27.1-11.72-25.23,16.45-25.34Z"/>
    </g>
    <g class="cls-13">
      <polygon class="cls-1" points="173.37 285.23 167.57 310.93 184.47 321.17 173.37 285.23"/>
    </g>
  </g>
  <g id="Leg1">
    <polyline class="cls-7" points="148.22 302.62 158.95 359.18 161.62 364.23 165.47 359.6 165.47 301.57"/>
    <g class="cls-10">
      <polygon class="cls-2" points="149.32 321.62 168.87 358.69 152.02 357.42 149.32 321.62"/>
    </g>
    <polygon class="cls-3" points="151.23 365.91 170.15 365.91 165.53 357.29 156.48 357.29 151.23 365.91"/>
  </g>
  <g id="Leg2">
    <path class="cls-7" d="m188.81,325.96h-15.98c-2.1,2.87-4.21,5.75-6.31,8.62v17.24c2.45,3.26,4.91,6.52,7.36,9.78h7.99l9.46-8.94,1.05-20.61-3.57-6.1Z"/>
    <polygon class="cls-3" points="190.07 365.91 167.57 365.91 172.62 357.29 185.28 357.29 190.07 365.91"/>
  </g>
  <g id="Head">
    <path class="cls-7" d="m118.82,256.37l-32.26-1.51,10.84,21.34,53.69,3.52,33.78-12.43c-.93-5.17-3.54-15.31-3.54-15.31,0,0-11.88-3.78-12.6-3.65l.76-7.78-11.34-29.13-10.84,29.13-24.45,1-4.03,14.81Z"/>
    <g class="cls-14">
      <polygon class="cls-2" points="87.34 264.37 132.4 267.08 141.05 259.11 168.35 255.55 175.81 274.2 149.01 282.51 94.75 281.66 87.34 264.37"/>
    </g>
    <g class="cls-8">
      <path class="cls-1" d="m121.39,236.26l-4.08,9.02,24.73,7.6,36.11-9.53-1.86-3.2c-7.02-.11-14.05-.23-21.07-.34-2.69.15-5.39.31-8.08.46-8.58-1.33-17.16-2.67-25.74-4Z"/>
    </g>
    <polygon class="cls-3" points="147.35 240.43 160.96 240.43 157.67 212.58 147.35 240.43"/>
    <path class="cls-6" d="m87.74,255.62c1.98,4.12,3.97,8.25,5.95,12.37,2.62-4.03,5.25-8.05,7.87-12.08-4.61-.1-9.22-.2-13.82-.3Z"/>
  </g>
  <g id="Eyes">
    <path class="cls-5" d="m123.72,260.04l26.81-14.35c.97,1,3,3.34,3.91,7,.82,3.28.33,6.01,0,7.35h-30.72Z"/>
    <line class="cls-5" x1="135.68" y1="252.86" x2="136.16" y2="260.04"/>
  </g>
</svg>