<svg xmlns="http://www.w3.org/2000/svg" viewBox="0 0 210 175"><defs><style>.cls-1{fill:#fdd8c9;}.cls-2{fill:#603913;}.cls-3{fill:#774136;stroke-linecap:round;}.cls-3,.cls-4,.cls-5{stroke:#4c1e17;}.cls-3,.cls-4,.cls-5,.cls-6{stroke-miterlimit:10;stroke-width:1.04px;}.cls-4{fill:#f8af9c;}.cls-5{fill:#e39477;}.cls-6{fill:#fff;stroke:#000;opacity:0.86;}.cls-7{fill:#141414;}.cls-8{fill:#f9f8f6;}</style></defs><g id="Layer_1" data-name="Layer 1"><g id="Layer_27" data-name="Layer 27"><rect class="cls-1" x="3" y="3" width="204" height="168.9"/><path class="cls-2" d="M204,6.1V169H6V6.1H204m6-6H0V175H210V.1Z"/></g></g><g id="Layer_11" data-name="Layer 11"><path class="cls-3" d="M146.37,116.73c-3.7-4.82-11.46-5.37-16.39-1.8S123,125.24,124.2,131.2a12,12,0,0,0-14.67,17.31.33.33,0,0,1-.39.47c-3.37-1.21-7.66,1.08-8.79,4.6-1.26,3.89.84,8.34,4.25,10.59s7.81,2.58,11.82,1.78,7.73-2.61,11.4-4.4A26.19,26.19,0,0,0,152,165.89c2.14-.7,4.26-1.7,6.5-1.62,2.79.1,5.23,1.85,7.91,2.64a11.92,11.92,0,0,0,10.89-2.33c1.42-1.21,2.69-2.84,4.54-3.15a9.56,9.56,0,0,1,3.82.6,15.56,15.56,0,0,0,16.71-23.86,13.75,13.75,0,0,0-14.7-20,10.71,10.71,0,0,0-20.88-.05c-2.57-1.18-4.82-3-7.29-4.35s-5.31-2.43-8.09-1.9S146.06,114.94,146.37,116.73Z"/><path class="cls-4" d="M162.29,62.33c0-.57-.72-4.73-.83-5.29-1.33-6.58-2.45-8.26-7-11.7a14.61,14.61,0,0,0-16.62-.55,16,16,0,0,0-6.41,15.94,8.7,8.7,0,0,0-7.71,5.45c-1.17,3.2.13,7.33,3.11,8.82,2,1,4.32.78,6.5.48,7.42-1,7.12-.51,14.22-3,1.91-.67,11.51-3.76,12.88-5.32S162.15,66.41,162.29,62.33Z"/><path class="cls-4" d="M139.34,77.32a75.18,75.18,0,0,1,8,40.63c-.45,5.28-1.39,11.68.73,16.53a13,13,0,0,0,10.15,7.6,12,12,0,0,0,11.33-5.43c2.14-3.49,2.23-7.81,2.26-11.9.07-13.07.12-24.64-3.45-37.21-1.31-4.59-4.19-14-8.26-16.55-3-1.84-5.81.78-9.27,1.28s-2,.2-5.29,1.48c-.66.26-4.72,1.52-5.22,2S138.69,77.74,139.34,77.32Z"/><path class="cls-5" d="M136,73.17c-2.46,2.85-1.76,4.5-1.32,7.22s1.55,5.21,4.39,6.51a9.4,9.4,0,0,0,7.57.22c8.45-3.21,11.68-4.51,17.16-5.47a7.55,7.55,0,0,0,5-3.91c1.3-2.29.77-5-.07-7.48s-1.9-4.91-4.41-6c-2.31-1-5.2-.51-7.46.63a51.16,51.16,0,0,0-6.12,4c-2,1.41-3.45,1.83-6.67,2.24-1.53.19-1.77.14-4,.42A8,8,0,0,0,136,73.17Z"/><path class="cls-6" d="M144.86,64.58,150.21,63a2.23,2.23,0,0,0,1.59-1.81c.52-3.48,0-12.19-8.52-9.69-7.34,2.17-4.25,10.23-1.1,12.27A3.33,3.33,0,0,0,144.86,64.58Z"/><ellipse class="cls-7" cx="143.39" cy="58.36" rx="4.37" ry="6.15" transform="translate(-10.54 41.85) rotate(-16.02)"/><ellipse class="cls-8" cx="146.78" cy="56.5" rx="3.07" ry="1.54" transform="translate(-9.89 42.71) rotate(-16.02)"/><path class="cls-3" d="M136.54,144.91c-7.75-1.95-12-12.51-5.08-16.7,3.4-2.06,6.87-4.45,11.29-3.89,4.94.64,8.55,3.61,11.12,6.62.15-2.64,3.6-5,7.39-5s7.3,2.28,7.51,4.92a7.4,7.4,0,0,1,4.35-7.18c3.12-1.61,7.25-2.78,10.7-1.54,3.76,1.36,7.1,5.38,7.25,7.58.36,5.13-5.26,10.62-8.31,15.29"/></g></svg>