<svg xmlns="http://www.w3.org/2000/svg" viewBox="0 0 175 175"><defs><style>.cls-1{fill:#fcd6c8;}.cls-2{fill:#603813;}.cls-3{fill:#774136;stroke-linecap:round;}.cls-3,.cls-4,.cls-5{stroke:#4c1e17;}.cls-3,.cls-4,.cls-5,.cls-6{stroke-miterlimit:10;stroke-width:1.3px;}.cls-4{fill:#f8af9c;}.cls-5{fill:#e39477;}.cls-6{fill:#fff;stroke:#000;opacity:0.86;}.cls-7{fill:#141414;}.cls-8{fill:#f9f8f6;}</style></defs><g id="Layer_1" data-name="Layer 1"><g id="Layer_27" data-name="Layer 27"><rect class="cls-1" x="3" y="3.03" width="169" height="168.95"/><path class="cls-2" d="M169,6V169H6V6H169m6-6H0V175H175V0Z"/></g></g><g id="Layer_4" data-name="Layer 4"><path class="cls-3" d="M77.54,102.25c-4.63-6-14.3-6.7-20.45-2.26s-8.68,12.87-7.21,20.31a15,15,0,0,0-18.31,21.59.41.41,0,0,1-.49.59c-4.2-1.51-9.55,1.34-11,5.74-1.56,4.85,1.06,10.4,5.31,13.21s9.74,3.22,14.74,2.23,9.65-3.26,14.22-5.5a32.7,32.7,0,0,0,30.14,5.42c2.67-.88,5.31-2.13,8.11-2,3.48.13,6.52,2.31,9.87,3.29a14.86,14.86,0,0,0,13.58-2.9c1.78-1.52,3.36-3.55,5.67-3.94,1.59-.26,3.19.34,4.76.75A19.41,19.41,0,0,0,147.36,129,17.15,17.15,0,0,0,129,104.06,13.36,13.36,0,0,0,103,104c-3.21-1.47-6-3.69-9.09-5.43s-6.63-3-10.1-2.37S77.14,100,77.54,102.25Z"/><path class="cls-4" d="M97.39,34.37c0-.71-.9-5.89-1-6.59-1.65-8.22-3-10.32-8.72-14.61a18.21,18.21,0,0,0-20.72-.68,19.9,19.9,0,0,0-8,19.88,10.85,10.85,0,0,0-9.61,6.81c-1.47,4,.16,9.14,3.88,11,2.48,1.25,5.38,1,8.1.59C70.54,49.48,70.16,50.14,79,47c2.39-.84,14.37-4.7,16.07-6.64S97.22,39.47,97.39,34.37Z"/><path class="cls-4" d="M68.77,53.08a93.78,93.78,0,0,1,10,50.69c-.55,6.58-1.73,14.57.92,20.62a16.15,16.15,0,0,0,12.65,9.47,14.94,14.94,0,0,0,14.15-6.76c2.67-4.35,2.78-9.75,2.81-14.86.09-16.3.16-30.73-4.3-46.41-1.64-5.73-5.23-17.52-10.3-20.65-3.71-2.29-7.26,1-11.57,1.59s-2.54.25-6.6,1.85c-.83.33-5.9,1.9-6.51,2.54S68,53.6,68.77,53.08Z"/><path class="cls-5" d="M64.62,47.9c-3.08,3.55-2.2,5.61-1.65,9s1.94,6.51,5.47,8.12a11.71,11.71,0,0,0,9.46.27c10.54-4,14.57-5.61,21.4-6.81a9.45,9.45,0,0,0,6.27-4.88c1.62-2.86,1-6.28-.09-9.33s-2.37-6.13-5.5-7.54c-2.89-1.3-6.5-.63-9.31.79A63.42,63.42,0,0,0,83,42.45c-2.54,1.76-4.3,2.28-8.31,2.78-1.91.25-2.22.19-4.93.53A9.93,9.93,0,0,0,64.62,47.9Z"/><path class="cls-6" d="M75.64,37.18l6.69-1.92a2.81,2.81,0,0,0,2-2.26c.64-4.35,0-15.21-10.63-12.08-9.17,2.7-5.31,12.75-1.38,15.29C73.35,36.9,74.44,37.52,75.64,37.18Z"/><ellipse class="cls-7" cx="73.81" cy="29.41" rx="5.45" ry="7.67" transform="translate(-5.25 21.52) rotate(-16.02)"/><ellipse class="cls-8" cx="78.04" cy="27.1" rx="3.83" ry="1.92" transform="translate(-4.45 22.59) rotate(-16.02)"/><path class="cls-3" d="M65.26,137.4c-9.66-2.43-14.92-15.61-6.33-20.83C63.17,114,67.5,111,73,111.72c6.16.79,10.66,4.49,13.86,8.25.19-3.3,4.5-6.22,9.23-6.25s9.1,2.85,9.37,6.14c-.32-3.37,1.53-7,5.42-9s9-3.47,13.35-1.92c4.7,1.7,8.86,6.72,9.05,9.46.45,6.4-6.56,13.24-10.37,19.07"/></g></svg>