<?xml version="1.0" encoding="UTF-8"?>
<svg id="TopBorder" xmlns="http://www.w3.org/2000/svg" viewBox="0 0 1152 60">
  <defs>
    <style>
      .cls-1 {
        stroke: #8c8e3e;
        stroke-width: 5px;
      }

      .cls-1, .cls-2 {
        fill: none;
        stroke-miterlimit: 10;
      }

      .cls-2 {
        stroke: #506022;
        stroke-width: 9px;
      }

      .cls-3 {
        fill: #8c8e3e;
      }

      .cls-4 {
        fill: #794029;
      }

      .cls-5 {
        fill: #99513c;
      }

      .cls-6 {
        fill: #506022;
      }

      .cls-7 {
        fill: #cebe48;
      }
    </style>
  </defs>
  <g id="BGTop">
    <rect class="cls-5" width="1152" height="60"/>
    <g>
      <path class="cls-4" d="m11.43,10.11c43.59-7.11,89.59-1.11,133.59,1.89-41-2-83,4-124.49-.32-3.21-.45-6.29-.98-9.1-1.57Z"/>
      <path class="cls-4" d="m-1.57,25.48c13.59-.48,26.59-4.48,40.59-1.48,21,5,42,1,63,4-33,2-65,4-98.13-1.88-3.29-.38-5.46-.64-5.46-.64Z"/>
      <path class="cls-4" d="m-6.88,33.86c12.9,2.14,24.9,2.14,37.9,4.14,0-1-1-1-2-1,41,5,83-1,124-8C102.02,45,51.02,61-3.98,51v-5c17,3,37,8,53,0-21-4-43-2-62.02-12.47,2.04-.16,6.12.34,6.12.34h0Z"/>
      <path class="cls-4" d="m58.33,64.5c34.69-16.5,73.69-11.5,110.69-11.5-34-1-66,8-100.24,11.92-5.22-.21-10.45-.42-10.45-.42Z"/>
      <path class="cls-4" d="m93.76,17.6c59.26,2.4,121.26-3.6,179.26,3.4-74,2-148,3-222,1,33-5,67,2,100-2-17-1-35-2-52.08-2.26-3.22-.09-5.18-.15-5.18-.15h0Z"/>
      <path class="cls-4" d="m130.35,42.17c49.68-24.17,106.68-11.17,159.68-12.17-33,1-66,1-100,5-18,1-34,13-52.05,8.32-4.63-.52-7.62-1.16-7.62-1.16h0Z"/>
      <path class="cls-4" d="m170.43,46.97c9.59.03,19.59-.97,29.59.03,51,7,100,8,150,4-57,9-115,3-172.25-3.47-4.36-.31-7.34-.56-7.34-.56Z"/>
      <path class="cls-4" d="m106.8-1.28c62.22,14.28,127.22,3.28,190.22.28-60,2-121,6-180.75.34-5.75-.37-9.48-.62-9.48-.62h0Z"/>
      <path class="cls-4" d="m402.88-2.42c-45.86,1.42-91.86,12.42-137.86,12.42,45,6,89-7,135,0,16,3,33,6,44,18-13-13-28-24-47-25,5-3,11-4,17-4-1,0-2-1-3.24-.83-3.4-.36-7.9-.59-7.9-.59h0Z"/>
      <path class="cls-4" d="m294.6,26.98c-2.58.02-4.58.02-7.58.02,40,25,93,7,134-10-24,10-49,13-75,5-15-4-29,2-44.27,4.85,0,0-3.59.1-7.15.13h0Zm36.66,5.14c-10.24-.12-19.24-.12-29.24-.12,19-1,38-12,57-2-7,2-13,3-19.54,2.32-2.1-.04-4.98-.12-8.23-.2h.01Z"/>
      <path class="cls-4" d="m422.74,50.07c-1.71-.07-3.71-.07-5.71-.07,45,4,90,7,135,1,38-5,74,10,111,8,11-1,22-4,32-10-51,19-104-1-157-10-16-2-31,6-46,10-20,6-40,4-59.62,1.4-4.18-.21-7.34-.32-9.67-.32h0Zm97.88,1.06c-6.59-1.15-13.59.85-20.59-1.15,17-6,34-9,52-5-7,4-15,5-23.48,5.99-2.02.16-4.84.21-7.93.16h0Z"/>
      <path class="cls-4" d="m369.56,63.09c22.46-25.09,59.46-17.09,88.46-20.09-36-1-76-7-105,20,3,0,5,0,8.04-.17,4.24.11,8.51.26,8.51.26h-.01Z"/>
      <path class="cls-4" d="m431.38-2.36c19.64,45.36,67.64,45.36,108.64,31.36-2-1-5-2-7-2-33,13-76,6-91.32-29.44l-10.32.09h0Z"/>
      <path class="cls-4" d="m468.16,13.53c9.87-7.53,23.87-10.53,35.87-7.53,18,4,35,16,53,10-18,8-39,11-56-4-7-7-16,2-25,3,10,7,21,9,33,7,1,0,2,3,3,4-16,6-35-1-45-14,1,0,1,1,1.13,1.53"/>
      <path class="cls-4" d="m1165.35,5.68c-.33,3.32-.33,5.32-.33,8.32-30-9-56,12-85,12,24-9,48-17,73.39-20.75,6.96-.18,11.94.43,11.94.43Z"/>
      <path class="cls-4" d="m1023.52,56.05c21.5-5.05,41.5-.05,62.5.95,30,2,60-1,90-1-35-2-66-15-100-18-18-1-35,12-52.51,17.54-2.68.8-2.24.88,0,.51h.01Zm75.66-1.1c-12.16.05-24.16-.95-34.16-6.95,15-9,32-2,46.49,5.34-4.2.88-8.35,1.41-12.33,1.61Z"/>
      <path class="cls-4" d="m1167.27,19.7c-17.25,15.3-41.25,25.3-63.25,14.3,19,18,46,15,68,8,0-1-3-7-2.47-10.79-1.15-5.74-2.28-11.5-2.28-11.5h0Z"/>
      <path class="cls-4" d="m633.52,8.76c-16.5,7.24-30.5,16.24-44.5,25.24,33-2,65-11,98-12,22,0,39,32,62,23-24,1-35-23-53-34-15-10-35-6-53.28-5.16-2.67.35-5.82,1.41-9.22,2.92Zm45.36,7.11c-22.86,4.13-44.86,11.13-67.86,11.13,24-11,50-22,75.79-12.32,0,0-3.24.44-7.93,1.19Z"/>
      <path class="cls-4" d="m1083.12,7.23c-6.1,8.77-14.1,5.77-23.04,3.68-3.06-.41-6.43-.8-9.93-1.18s-7.13-.75-10.76-1.07c-24.36-4.66-47.36,4.34-69.36,12.34-1,1-4-2-4-3,19-21,49-17,74.46-14.01,2.92.24,5.92.47,8.94.7s6.05.43,9.05.61c5.55,1.7,11.55.7,17.13,1.2,2.65.27,5.17.53,7.51.73h0Z"/>
      <path class="cls-4" d="m616.94,4.8c-3.92,5.2-9.92,8.2-15.92,8.2-22-3-44-6-66-1-6,2-9-2-13-3,28-4,57-8,86.36-4.99,5.13.42,8.56.79,8.56.79Z"/>
      <path class="cls-4" d="m559.15,20.79c-6.13,3.21-11.13,5.21-17.13,8.21,13-2,26-3,39-1,0-7-7-6-12.31-6.75-4.77-.26-9.56-.46-9.56-.46Z"/>
      <path class="cls-4" d="m1021.74,62.4c-55.72-22.4-114.72-18.4-173.72-4.4-15,4-29-1-43-7,15,13,35,11,53,8,31-5,62-9,93-7-14,0-27,4-41,4,33,6,68,6,102.07,6.81,5.94-.25,9.65-.41,9.65-.41h0Z"/>
      <path class="cls-4" d="m912.59,3.18c-17.57,6.82-36.57,12.82-55.57,11.82-54-5-107-8-160-12,5,1,9,3,14,3,40,6,78,2,119,11,27,6,53,0,77.88-8.03,0,0,4.69-5.79,4.69-5.79Z"/>
      <path class="cls-4" d="m900.39-4.85c-20.37,11.85-41.37,18.85-65.37,13.85-24-6-47-8-71-9,41-4,83-14,124.11-6.36,6.98.79,12.26,1.51,12.26,1.51Z"/>
      <path class="cls-4" d="m718.91,21.02c3.11,10.98,15.11,16.98,20.11,14.98,36-13,71-1,107,5,17,4,35,1,47-12-16,2-32,9-49,5-39-10-76-18-114.68-13.08-6.29.13-10.43.1-10.43.1Z"/>
      <path class="cls-4" d="m804.63,61.47c-32.61-15.47-70.61-4.47-104.61,1.53,34,4,67-5,100.91-1.79,2.36.16,3.7.25,3.7.25h0Z"/>
      <path class="cls-4" d="m1036.38,19.45c-.36,2.55-5.36,3.55-4.36,4.55,5,3,2,9-1,10-12,3-24,4-36,3-34-3-66-18-100-14,33,0,63,14,95,17,16,2,42,7,48.86-13.08-.31-1.88-1.11-4.28-2.5-7.47Z"/>
    </g>
  </g>
  <g id="LeavesTop">
    <g>
      <path class="cls-3" d="m446.9,30.02c-9.28,0-17.08-6.22-17.41-6.48l-1.06-.85,1.13-.76s4.06-2.73,5.28-5.43c3.05-5.48,5.59-6.75,6.81-7.36.17-.08.37-.19.43-.23l.16-.17.21-.06c1.4-.49,3.04-.74,4.89-.74,6.62,0,13.89,3.14,14.19,3.28l.62.27-.02.68c-.02.63-.59,15.45-11.65,17.54-1.16.22-2.37.33-3.59.33h0v-.02h0Z"/>
      <path class="cls-6" d="m447.35,8.93c6.49,0,13.79,3.19,13.79,3.19,0,0-.44,14.63-10.84,16.59-1.15.22-2.29.31-3.41.31-9.03,0-16.78-6.26-16.78-6.26,0,0,4.28-2.85,5.64-5.85,3.64-6.52,6.39-6.63,7.03-7.29,1.39-.49,2.95-.69,4.56-.69m0-2c-1.96,0-3.72.27-5.23.8l-.45.16-.23.23c-.07.04-.15.08-.24.12-1.31.66-4.03,2.02-7.2,7.69l-.04.07-.03.08c-.92,2.03-3.87,4.31-4.93,5.01l-2.26,1.51,2.11,1.71c.34.27,8.41,6.7,18.04,6.7,1.29,0,2.56-.12,3.78-.35,11.84-2.24,12.45-17.83,12.47-18.49l.04-1.35-1.24-.54c-.31-.14-7.76-3.36-14.59-3.36h0Z"/>
    </g>
    <g>
      <path class="cls-3" d="m521.31,32.91c-.47-.14-11.44-3.39-15.1-9.55l-.12-.2-.02-.24c-.02-.08-.09-.21-.16-.37-.51-1.16-1.56-3.58-.5-9.23.74-2.71-.5-6.98-.52-7.03l-.39-1.3,1.36.02c.49,0,12.18.28,18.62,8.1,6.65,8.08-1.76,18.99-2.12,19.45l-.42.53-.65-.19h.02Z"/>
      <path class="cls-6" d="m505.86,6.01s11.64.19,17.86,7.74c6.22,7.55-2.13,18.2-2.13,18.2,0,0-11.02-3.21-14.51-9.1-.06-.85-1.95-2.56-.67-9.35.81-2.94-.54-7.5-.54-7.5m-2.69-2.04l.77,2.61c.33,1.12,1.07,4.45.53,6.4l-.02.08-.02.08c-1.12,5.95.02,8.56.56,9.81.03.08.06.14.09.21l.02.31.24.41c3.85,6.49,15.2,9.86,15.68,10l1.3.38.83-1.06c.38-.49,9.26-12.01,2.1-20.71-6.73-8.17-18.86-8.46-19.37-8.47l-2.72-.04h.01Z"/>
    </g>
    <g>
      <path class="cls-7" d="m459.96,54.88c-2.46,0-4.11-.27-4.18-.28l-1.34-.22.62-1.21s1.97-3.93,1.74-6.58c-.03-5.71,1.42-7.86,2.11-8.89.1-.15.18-.26.23-.36l.06-.23.14-.14c4.61-5.29,15.76-6.48,16.24-6.52l.67-.07.31.6c.27.51,6.44,12.52-1.41,19.13-4.7,3.96-10.85,4.79-15.19,4.79h0v-.02Z"/>
      <path class="cls-6" d="m475.68,31.42s6.15,11.73-1.17,17.9c-4.55,3.83-10.6,4.56-14.54,4.56-2.4,0-4.02-.27-4.02-.27,0,0,2.11-4.14,1.85-7.12-.03-6.76,2.09-8.07,2.3-8.88,4.41-5.05,15.58-6.18,15.58-6.18m1.14-2.13l-1.35.14c-.49.05-12.02,1.28-16.89,6.86l-.31.36-.08.3s-.08.11-.12.18c-.75,1.11-2.31,3.43-2.29,9.37v.16c.17,1.96-1.12,5.03-1.64,6.04l-1.23,2.43,2.68.45c.07,0,1.81.3,4.35.3,4.5,0,10.9-.87,15.83-5.03,8.46-7.12,1.94-19.82,1.65-20.36l-.63-1.2h.03Z"/>
    </g>
    <g>
      <path class="cls-7" d="m600.55,32.93c-3.71,0-6.72-.89-6.85-.93l-.65-.19-.06-.67c-.04-.48-1.01-11.89,3.4-17.53l.15-.19.21-.1c.07-.05.16-.16.29-.29.9-.9,2.77-2.76,8.42-3.82,2.79-.29,6.32-3.01,6.36-3.04l1.08-.83.48,1.27c.17.46,4.17,11.45-.77,20.29-2.21,3.95-6.37,6.04-12.04,6.04h-.02Z"/>
      <path class="cls-6" d="m612.43,6.95s4.06,10.91-.71,19.45c-2.49,4.46-7.22,5.53-11.17,5.53-3.61,0-6.56-.89-6.56-.89,0,0-1.02-11.43,3.19-16.83.77-.37,1.67-2.75,8.46-4.03,3.04-.31,6.79-3.23,6.79-3.23m.92-3.25l-2.15,1.67c-.92.71-3.76,2.61-5.76,2.82h-.08l-.08.02c-5.95,1.12-7.97,3.13-8.94,4.1-.06.06-.11.11-.16.16l-.28.13-.29.37c-4.65,5.95-3.65,17.74-3.61,18.24l.12,1.35,1.29.39c.13.04,3.28.98,7.14.98,6.05,0,10.52-2.27,12.91-6.55,5.16-9.24,1.02-20.64.84-21.12l-.95-2.55h0Z"/>
    </g>
    <g>
      <path class="cls-3" d="m648.46,47.34c-.44-.4-10.8-9.79-11.55-18.46l-.02-.24.09-.22c.02-.07.03-.35.04-.58.06-1.54.18-4.73,4.32-10.35,2.3-2.64,3.21-8.1,3.22-8.15l.22-1.34,1.22.61c.54.27,13.24,6.75,16.17,18.74,3.02,12.31-11.95,19.83-12.59,20.15l-.61.3-.5-.45h0Z"/>
      <path class="cls-6" d="m645.53,9.5s12.79,6.41,15.65,18.08c2.86,11.67-12.06,19.01-12.06,19.01,0,0-10.49-9.42-11.22-17.8.39-.98-.8-3.87,4.24-10.71,2.47-2.82,3.4-8.59,3.4-8.59m-1.54-3.01l-.43,2.69h0c-.24,1.45-1.22,5.64-2.93,7.59l-.05.06-.05.07c-4.33,5.87-4.45,9.28-4.52,10.91,0,.13-.01.27-.02.36l-.13.32.04.47c.79,9.06,11.43,18.71,11.88,19.12l1.01.9,1.21-.6c.67-.33,16.32-8.2,13.12-21.28-3.04-12.43-16.14-19.12-16.69-19.4l-2.44-1.22h0Z"/>
    </g>
    <g>
      <path class="cls-3" d="m700.95,30.37c-.48-.08-11.76-2.02-16.12-7.7l-.14-.19-.04-.23c-.03-.08-.11-.2-.2-.35-.64-1.1-1.97-3.38-1.58-9.11.42-2.78-1.32-6.88-1.34-6.92l-.54-1.25,1.35-.14s.85-.09,2.16-.09c4.14,0,11.88.77,17.28,5.94,7.56,7.24.49,19.07.19,19.57l-.35.58-.67-.11Z"/>
      <path class="cls-6" d="m684.5,5.39c3.65,0,11.36.65,16.59,5.66,7.06,6.77.03,18.32.03,18.32,0,0-11.32-1.89-15.49-7.32-.16-.84-2.24-2.31-1.77-9.2.46-3.02-1.42-7.38-1.42-7.38,0,0,.78-.08,2.06-.08m0-2h0c-1.37,0-2.23.09-2.26.09l-2.71.28,1.08,2.5c.46,1.07,1.58,4.29,1.28,6.29v.08l-.02.08c-.41,6.04,1.03,8.5,1.72,9.68.04.07.08.14.11.19l.06.31.29.37c4.59,5.99,16.25,8,16.74,8.08l1.33.22.7-1.15c.32-.53,7.78-13.02-.35-20.81-5.65-5.41-13.68-6.22-17.97-6.22h0Z"/>
    </g>
    <g>
      <path class="cls-3" d="m568.9,48.05c-8.98,0-16.66-4.5-16.98-4.69l-1.17-.7,1.01-.91s4.14-3.74,5.09-7.01c2.52-6.59,5.15-8.41,6.4-9.29.18-.13.41-.29.47-.35l.12-.14.22-.15c2.39-1.25,5.58-1.89,9.47-1.89,6.2,0,12.02,1.59,12.27,1.66l.65.18.08.67c.08.71,1.82,17.34-10.16,21.43-2.31.79-4.83,1.19-7.48,1.19h0Z"/>
      <path class="cls-6" d="m573.55,23.91c6.13,0,12,1.62,12,1.62,0,0,1.87,16.49-9.49,20.38-2.39.82-4.81,1.14-7.16,1.14-8.81,0-16.47-4.55-16.47-4.55,0,0,4.34-3.89,5.39-7.48,3.03-7.91,6.1-8.47,6.72-9.33,2.55-1.34,5.81-1.77,9.01-1.77m0-2c-4.06,0-7.4.67-9.94,2l-.42.22-.2.28c-.07.05-.19.14-.3.21-1.34.93-4.13,2.87-6.74,9.67l-.03.08-.02.08c-.73,2.5-3.71,5.57-4.8,6.55l-2.03,1.82,2.34,1.39c.33.2,8.24,4.83,17.49,4.83,2.76,0,5.39-.42,7.81-1.25,12.73-4.35,10.91-21.75,10.83-22.49l-.15-1.34-1.3-.36c-.25-.07-6.2-1.69-12.53-1.69h0Z"/>
    </g>
    <g>
      <path class="cls-3" d="m748.96,40.24s-4.36-3.49-7.74-3.91c-6.91-1.43-9.13-3.73-10.2-4.83-.16-.16-.35-.36-.42-.41l-.16-.1-.18-.19c-5.22-6.95-3.78-20.83-3.72-21.42l.07-.67.65-.18c.14-.04,3.55-.98,7.82-.98,7.14,0,12.32,2.62,14.96,7.57,5.81,10.87.69,24.15.47,24.71l-.5,1.27-1.06-.85h0Z"/>
      <path class="cls-6" d="m735.08,8.55c4.94,0,11.02,1.31,14.08,7.04,5.65,10.58.42,23.87.42,23.87,0,0-4.53-3.66-8.25-4.12-8.3-1.73-9.34-4.67-10.28-5.14-5.04-6.72-3.52-20.71-3.52-20.71,0,0,3.36-.94,7.55-.94m0-2c-4.41,0-7.94.98-8.09,1.02l-1.3.37-.15,1.34c-.07.6-1.54,14.87,3.91,22.13l.28.38.31.15c.07.06.17.17.26.26,1.14,1.17,3.5,3.62,10.63,5.1l.08.02h.08c2.57.33,6.09,2.78,7.23,3.7l2.12,1.71,1-2.53c.23-.58,5.51-14.28-.52-25.55-2.83-5.3-8.31-8.1-15.85-8.1,0,0,.01,0,.01,0Z"/>
    </g>
    <g>
      <path class="cls-7" d="m717.57,55.14s-3.38-2.71-5.98-3.02c-5.52-1.14-7.29-2.98-8.15-3.86-.12-.12-.21-.23-.3-.29l-.21-.11-.11-.17c-4.15-5.53-3.01-16.53-2.96-17l.07-.67.65-.18c.11-.03,2.82-.78,6.21-.78,5.7,0,9.84,2.1,11.96,6.07,4.61,8.63.55,19.17.38,19.61l-.5,1.27-1.06-.85v-.02h0Z"/>
      <path class="cls-6" d="m706.79,30.06c3.88,0,8.67,1.03,11.07,5.54,4.45,8.32.33,18.77.33,18.77,0,0-3.56-2.88-6.49-3.24-6.52-1.36-7.35-3.67-8.09-4.04-3.96-5.28-2.77-16.29-2.77-16.29,0,0,2.65-.74,5.94-.74m0-2c-3.53,0-6.36.78-6.48.82l-1.3.37-.15,1.34c-.05.48-1.23,11.86,3.16,17.7l.28.38.27.14s.09.09.14.15c.92.95,2.84,2.94,8.58,4.13l.08.02h.08c1.92.25,4.6,2.12,5.47,2.82l2.12,1.7,1-2.53c.18-.46,4.4-11.41-.43-20.45-2.31-4.31-6.74-6.59-12.84-6.59h.02,0Z"/>
    </g>
  </g>
  <g id="VineTop">
    <path class="cls-2" d="m453.21-25.27s-1.21,68.63,49.79,63.82,43.08-63.82,43.08-63.82h5.92s28.4,62.27,66.67,70.68,95.67-5.01,125.33-61.01"/>
    <path class="cls-1" d="m453.21-25.27s-1.21,68.63,49.79,63.82,43.08-63.82,43.08-63.82h5.92s28.4,62.27,66.67,70.68,95.67-5.01,125.33-61.01"/>
  </g>
</svg>