<?xml version="1.0" encoding="UTF-8"?>
<svg xmlns="http://www.w3.org/2000/svg" xmlns:xlink="http://www.w3.org/1999/xlink" viewBox="0 0 80 80">
  <defs>
    <style>
      .cls-1 {
        fill: #794029;
      }

      .cls-2 {
        clip-path: url(#clippath-1);
      }

      .cls-3 {
        fill: #f2f2e2;
      }

      .cls-4 {
        fill: #99513c;
      }

      .cls-5 {
        clip-path: url(#clippath);
      }

      .cls-6 {
        fill: none;
      }
    </style>
    <clipPath id="clippath">
      <rect class="cls-6" x="110.04" y=".17" width="79.83" height="79.83" rx="7" ry="7"/>
    </clipPath>
    <clipPath id="clippath-1">
      <rect class="cls-6" x=".04" y=".17" width="79.83" height="79.83" rx="7" ry="7"/>
    </clipPath>
  </defs>
  <g id="INframe">
    <g class="cls-5">
      <g id="BGBottom">
        <rect class="cls-4" x="-584.91" y="-2.53" width="1292.47" height="88.29"/>
        <g>
          <path class="cls-1" d="m234.79,71.63c-22.01,3.83-44.45,6.77-66.89-2.06-16.83-5.89-33.66-17.66-51.61-14.71-59.46,13.24-118.92,42.67-176.14,14.71,11.22,8.83,23.56,13.24,35.9,14.71,41.51,2.94,81.9-19.13,124.53-11.77,50.49,8.83,100.97,4.41,151.46-1.47-2.24,0-4.49,0-6.41.1-2.6,0-6.16.16-10.85.47h0Zm-107.86.9c-9.51-1.46-18.49-2.93-26.34-8.81,20.19-5.89,39.27-1.47,58.34,7.36-7.85,2.94-15.71,0-23.1,1.69-3.47.07-6.63,0-8.9-.24Z"/>
          <path class="cls-1" d="m-1.2,6.07c-20.51-1.24-42.95-7.12-59.78,7.59-20.19,16.19-32.54,51.5-59.46,50.03,25.8,13.24,44.88-33.84,69.56-33.84,37.02,1.47,72.93,14.71,109.95,17.66-15.71-13.24-31.41-26.49-49.93-37.14C5.33,8.16,1.8,6.58-1.2,6.07Zm-49.44,13.01c28.93-14.24,58.1,1.94,85.03,18.13-25.8,0-50.49-10.3-76.13-16.38-5.25-1.1-8.9-1.75-8.9-1.75Z"/>
          <path class="cls-1" d="m27.75,4.54c4.4,7.65,11.13,12.07,17.86,12.07,24.68-4.41,49.37-8.83,74.05-1.47,6.73,2.94,10.1-2.94,14.59-4.41C102.83,4.83,70.29-1.05,37.35,3.38c-5.76.62-9.6,1.16-9.6,1.16Z"/>
          <path class="cls-1" d="m92.59,28.07c6.88,4.72,12.49,7.67,19.22,12.08-14.59-2.94-29.17-4.41-43.76-1.47,0-10.3,7.85-8.83,13.81-9.93,5.35-.38,10.73-.68,10.73-.68Z"/>
        </g>
      </g>
    </g>
  </g>
  <g id="OUTframe">
    <g class="cls-2">
      <g id="BGBottom-2" data-name="BGBottom">
        <rect class="cls-4" x="-694.91" y="-2.53" width="1292.47" height="88.29"/>
        <g>
          <path class="cls-1" d="m124.79,71.63c-22.01,3.83-44.45,6.77-66.89-2.06-16.83-5.89-33.66-17.66-51.61-14.71-59.46,13.24-118.92,42.67-176.14,14.71,11.22,8.83,23.56,13.24,35.9,14.71,41.51,2.94,81.9-19.13,124.53-11.77,50.49,8.83,100.97,4.41,151.46-1.47-2.24,0-4.49,0-6.41.1-2.6,0-6.16.16-10.85.47h0Zm-107.86.9c-9.51-1.46-18.49-2.93-26.34-8.81,20.19-5.89,39.27-1.47,58.34,7.36-7.85,2.94-15.71,0-23.1,1.69-3.47.07-6.63,0-8.9-.24Z"/>
          <path class="cls-1" d="m125.94-6C103.9,60.75,50.05,60.75,4.05,40.15c2.24-1.47,5.61-2.94,7.85-2.94,37.02,19.13,85.27,8.83,102.45-43.32l11.58.13h0Z"/>
          <path class="cls-1" d="m84.68,17.38C73.61,6.3,57.9,1.89,44.44,6.3,24.24,12.19,5.17,29.85-15.02,21.02c20.19,11.77,43.76,16.19,62.83-5.89,7.85-10.3,17.95,2.94,28.05,4.41-11.22,10.3-23.56,13.24-37.02,10.3-1.12,0-2.24,4.41-3.37,5.89,17.95,8.83,39.27-1.47,50.49-20.6-1.12,0-1.12,1.47-1.27,2.25"/>
          <path class="cls-1" d="m-82.25,4.54c4.4,7.65,11.13,12.07,17.86,12.07C-39.71,12.19-15.02,7.77,9.66,15.13c6.73,2.94,10.1-2.94,14.59-4.41C-7.17,4.83-39.71-1.05-72.65,3.38c-5.76.62-9.6,1.16-9.6,1.16Z"/>
          <path class="cls-1" d="m-17.41,28.07c6.88,4.72,12.49,7.67,19.22,12.08-14.59-2.94-29.17-4.41-43.76-1.47,0-10.3,7.85-8.83,13.81-9.93,5.35-.38,10.73-.68,10.73-.68Z"/>
        </g>
      </g>
    </g>
  </g>
  <g id="ArrowsOUT">
    <polygon class="cls-3" points="31.13 9.62 8.56 8.1 10.09 30.67 16.25 24.51 28.46 36.71 37.23 27.94 25.02 15.73 31.13 9.62"/>
    <polygon class="cls-3" points="9.09 48.79 7.56 71.35 30.13 69.83 23.97 63.67 36.17 51.46 27.4 42.69 15.19 54.9 9.09 48.79"/>
    <polygon class="cls-3" points="48.89 9.62 71.46 8.1 69.93 30.67 63.77 24.51 51.56 36.71 42.79 27.94 55 15.73 48.89 9.62"/>
    <polygon class="cls-3" points="70.93 48.79 72.46 71.35 49.89 69.83 56.05 63.67 43.85 51.46 52.62 42.69 64.83 54.9 70.93 48.79"/>
  </g>
</svg>