<?xml version="1.0" encoding="UTF-8"?>
<svg xmlns="http://www.w3.org/2000/svg" xmlns:xlink="http://www.w3.org/1999/xlink" viewBox="0 0 80 80">
  <defs>
    <style>
      .cls-1 {
        fill: #f2e1ae;
      }

      .cls-2 {
        fill: #794029;
      }

      .cls-3 {
        isolation: isolate;
      }

      .cls-4 {
        clip-path: url(#clippath-1);
      }

      .cls-5 {
        fill: #99513c;
      }

      .cls-6 {
        clip-path: url(#clippath);
      }

      .cls-7 {
        fill: none;
      }

      .cls-8 {
        fill: #231f20;
        mix-blend-mode: multiply;
        opacity: .3;
      }
    </style>
    <clipPath id="clippath">
      <rect class="cls-7" x=".04" y=".17" width="79.83" height="79.83" rx="7" ry="7"/>
    </clipPath>
    <clipPath id="clippath-1">
      <rect class="cls-7" x="-109.96" y=".17" width="79.83" height="79.83" rx="7" ry="7"/>
    </clipPath>
  </defs>
  <g class="cls-3">
    <g id="INframe">
      <g class="cls-6">
        <g id="BGBottom">
          <rect class="cls-5" x="-694.91" y="-2.53" width="1292.47" height="88.29"/>
          <g>
            <path class="cls-2" d="m124.79,71.63c-22.01,3.83-44.45,6.77-66.89-2.06-16.83-5.89-33.66-17.66-51.61-14.71-59.46,13.24-118.92,42.67-176.14,14.71,11.22,8.83,23.56,13.24,35.9,14.71,41.51,2.94,81.9-19.13,124.53-11.77,50.49,8.83,100.97,4.41,151.46-1.47-2.24,0-4.49,0-6.41.1-2.6,0-6.16.16-10.85.47h0Zm-107.86.9c-9.51-1.46-18.49-2.93-26.34-8.81,20.19-5.89,39.27-1.47,58.34,7.36-7.85,2.94-15.71,0-23.1,1.69-3.47.07-6.63,0-8.9-.24Z"/>
            <path class="cls-2" d="m125.94-6C103.9,60.75,50.05,60.75,4.05,40.15c2.24-1.47,5.61-2.94,7.85-2.94,37.02,19.13,85.27,8.83,102.45-43.32l11.58.13h0Z"/>
            <path class="cls-2" d="m84.68,17.38C73.61,6.3,57.9,1.89,44.44,6.3,24.24,12.19,5.17,29.85-15.02,21.02c20.19,11.77,43.76,16.19,62.83-5.89,7.85-10.3,17.95,2.94,28.05,4.41-11.22,10.3-23.56,13.24-37.02,10.3-1.12,0-2.24,4.41-3.37,5.89,17.95,8.83,39.27-1.47,50.49-20.6-1.12,0-1.12,1.47-1.27,2.25"/>
            <path class="cls-2" d="m-82.25,4.54c4.4,7.65,11.13,12.07,17.86,12.07C-39.71,12.19-15.02,7.77,9.66,15.13c6.73,2.94,10.1-2.94,14.59-4.41C-7.17,4.83-39.71-1.05-72.65,3.38c-5.76.62-9.6,1.16-9.6,1.16Z"/>
            <path class="cls-2" d="m-17.41,28.07c6.88,4.72,12.49,7.67,19.22,12.08-14.59-2.94-29.17-4.41-43.76-1.47,0-10.3,7.85-8.83,13.81-9.93,5.35-.38,10.73-.68,10.73-.68Z"/>
          </g>
        </g>
      </g>
      <rect class="cls-8" x=".04" y=".17" width="79.83" height="79.83" rx="7" ry="7"/>
    </g>
    <g id="OUTframe">
      <g class="cls-4">
        <g id="BGBottom-2" data-name="BGBottom">
          <rect class="cls-5" x="-804.91" y="-2.53" width="1292.47" height="88.29"/>
          <g>
            <path class="cls-2" d="m47.91-6.09c51.45,2.09,103.06,18.28,154.67,18.28-50.49,8.83-99.85-10.3-151.46,0C33.17,16.6,14.1,21.02,1.75,38.67,16.34,19.55,33.17,3.36,54.49,1.89c-5.61-4.41-12.34-5.89-19.07-5.89,1.12,0,2.24-1.47,3.64-1.22,3.81-.53,8.86-.87,8.86-.87Z"/>
            <path class="cls-2" d="m161.37,36.98c-17.13-4.19-32.84-13.02-49.67-7.14-29.17,11.77-57.22,7.36-84.14-7.36,46,25.01,105.46,51.5,150.34,14.71-3.37,0-5.61,0-8.5-.03-3.99-.04-8.02-.19-8.02-.19h0Zm-42.33,8.05c-7.34,1-14.07-.47-21.92-3.41,21.32-14.71,42.63,1.47,63.95,2.94-11.22,0-21.32,0-32.81.18-3.65.12-6.88.24-9.23.29h.01Z"/>
            <path class="cls-2" d="m14.79,71.63c-22.01,3.83-44.45,6.77-66.89-2.06-16.83-5.89-33.66-17.66-51.61-14.71-59.46,13.24-118.92,42.67-176.14,14.71,11.22,8.83,23.56,13.24,35.9,14.71,41.51,2.94,81.9-19.13,124.53-11.77,50.49,8.83,100.97,4.41,151.46-1.47-2.24,0-4.49,0-6.41.1-2.6,0-6.16.16-10.85.47h0Zm-107.86.9c-9.51-1.46-18.49-2.93-26.34-8.81,20.19-5.89,39.27-1.47,58.34,7.36-7.85,2.94-15.71,0-23.1,1.69-3.47.07-6.63,0-8.9-.24Z"/>
            <path class="cls-2" d="m85.29,90.31C60.09,53.39,18.58,65.16-13.95,60.75c40.39-1.47,85.27-10.3,117.8,29.43-3.37,0-5.61,0-9.02-.25-4.76.16-9.55.38-9.55.38h.01Z"/>
            <path class="cls-2" d="m15.94-6C-6.1,60.75-59.95,60.75-105.95,40.15c2.24-1.47,5.61-2.94,7.85-2.94C-61.07,56.33-12.83,46.03,4.36-6.12l11.58.13h0Z"/>
          </g>
        </g>
      </g>
    </g>
    <g id="SoundOFF">
      <path class="cls-1" d="m48.75,14.53s-27.88,20.58-32.36,25.31c-5.36-.05-13.68-2.74-13.68-2.74l3.19,21.6s8.29-7.45,11.47-7.63c5.27,1.51,36.23,11.21,36.23,11.21l-4.85-47.74Z"/>
      <polygon class="cls-1" points="58.73 26.25 54.67 30.68 64.59 37.22 55.87 45.02 60.22 49 66.57 38.89 74.41 47.56 77.87 43.75 68.23 36.92 76.68 28.84 72.9 25.41 66.26 35.25 58.73 26.25"/>
    </g>
  </g>
</svg>