<?xml version="1.0" encoding="UTF-8"?>
<svg id="BeeNew" xmlns="http://www.w3.org/2000/svg" viewBox="0 0 176 176">
  <defs>
    <style>
      .cls-1 {
        fill: #9c4124;
      }

      .cls-2 {
        fill: #150700;
      }

      .cls-3 {
        fill: #0086c9;
      }

      .cls-4 {
        fill: #95c8dc;
      }

      .cls-5 {
        fill: #cf8638;
      }

      .cls-6 {
        fill: #7ab8d1;
      }

      .cls-7 {
        fill: #242424;
      }

      .cls-8 {
        fill: #fdbe52;
      }

      .cls-9 {
        fill: #310;
      }

      .cls-10 {
        fill: #813800;
      }

      .cls-11 {
        fill: #ffaa59;
      }
    </style>
  </defs>
  <g>
    <path class="cls-10" d="m59.36,167.51c-17.31,0-31.4-14.09-31.4-31.4,0-11.84,6.7-22.65,17.21-27.99-3.2-4.75-4.88-10.23-4.88-15.96,0-11.1,6.34-21.11,16.27-25.9-1.88-3.55-2.86-7.48-2.86-11.48v-1.32c0-13.62,11.08-24.69,24.69-24.69h44.08c13.62,0,24.69,11.08,24.69,24.69v1.32c0,3.92-.95,7.79-2.76,11.29,10.2,4.71,16.71,14.79,16.71,26.09,0,5.73-1.68,11.21-4.88,15.96,10.51,5.34,17.21,16.15,17.21,27.99,0,17.31-14.09,31.4-31.4,31.4H59.36Z"/>
    <rect class="cls-11" x="30.22" y="106.98" width="140.94" height="58.28" rx="29.14" ry="29.14"/>
    <rect class="cls-5" x="42.55" y="65.67" width="116.29" height="52.99" rx="26.5" ry="26.5"/>
    <rect class="cls-11" x="55.94" y="31.03" width="88.97" height="46.2" rx="22.44" ry="22.44"/>
    <g>
      <path class="cls-7" d="m119.41,142.64c0-13.31-6.76-21.1-18.27-21.1-.08,0-.16.01-.24.01-4.76,1.69-12.53,6.47-13.61,19.72-.71,8.78,4.58,16.75,6.85,19.73h18.5s6.77-7.87,6.77-18.37Z"/>
      <path d="m87.3,141.28c1.08-13.25,8.85-18.03,13.61-19.72-11.37.13-18.93,9-18.93,21.51s6.65,17.95,6.65,17.95h5.52c-2.27-2.98-7.56-10.95-6.85-19.73Z"/>
    </g>
  </g>
  <g>
    <g>
      <polygon class="cls-9" points="70.46 79.1 82.18 93.96 62.95 90.19 70.46 79.1"/>
      <path class="cls-2" d="m84.32,95.26l-22.82-4.47,8.91-13.16,13.91,17.63Zm-19.91-5.67l15.63,3.06-9.53-12.08-6.1,9.01Z"/>
    </g>
    <g>
      <path class="cls-6" d="m43.8,41.38c-3.53-12.82,19.72-37.63,35.51-31.72,9.89,3.7,16.85,19.45,11.76,31.09-6.15,14.07-26.82,15.13-38.45,9.16-2.91-1.5-7.54-3.87-8.83-8.53Z"/>
      <path class="cls-3" d="m67.88,54.22c-5.52,0-11.11-1.2-15.65-3.53-2.95-1.51-7.88-4.05-9.27-9.08h0c-1.8-6.56,2.98-16.66,11.62-24.57,8.54-7.81,17.9-10.88,25.03-8.2,4.82,1.8,9.22,6.49,11.78,12.52,2.85,6.72,3.02,13.92.48,19.73-2.28,5.22-6.68,9.12-12.73,11.28-3.46,1.23-7.35,1.84-11.26,1.84Zm-23.24-13.07c1.18,4.3,5.52,6.52,8.39,7.99,7.36,3.78,17.63,4.43,25.54,1.6,5.58-1.99,9.63-5.56,11.72-10.34,2.35-5.38,2.17-12.07-.49-18.36-2.37-5.6-6.4-9.93-10.78-11.57-6.51-2.44-15.2.5-23.25,7.85-8.06,7.36-12.73,16.96-11.12,22.82h0Z"/>
    </g>
    <g>
      <g>
        <path class="cls-8" d="m44.32,38.11c-14.89-6.57-30.32-4.8-37.16,5.31-6.84,10.1-2.89,25.29,8.56,36.96,12.03-12.18,21.72-26.51,28.6-42.26Z"/>
        <path class="cls-1" d="m15.71,81.62l-.62-.63C3.1,68.77-.46,53.12,6.44,42.93c6.9-10.2,22.62-12.5,38.23-5.61l.79.35-.35.79c-6.95,15.91-16.63,30.22-28.78,42.52l-.62.63Zm11.37-46.51c-8.25,0-15.29,3.02-19.2,8.8-6.31,9.32-3.07,23.7,7.84,35.22,11.5-11.8,20.73-25.44,27.45-40.56-5.53-2.33-11.04-3.46-16.09-3.46Z"/>
      </g>
      <g>
        <path class="cls-8" d="m69.29,86.44c5.58-8.25,3.98-19.9-3.02-30.24-6.47,14.15-15.24,27.11-25.95,38.34,12.07,2.86,23.38.15,28.97-8.1Z"/>
        <path class="cls-1" d="m49.37,96.66c-2.96,0-6.08-.37-9.28-1.13l-1.74-.41,1.24-1.3c10.65-11.17,19.32-23.97,25.76-38.06l.76-1.66,1.02,1.51c7.48,11.06,8.64,23.09,3.02,31.39h0c-4.23,6.25-11.79,9.65-20.78,9.65Zm-7.04-2.75c11.33,2.17,21.23-.84,26.12-8.05h0c4.88-7.22,4.08-17.65-2.02-27.55-6.19,13.07-14.28,25.03-24.1,35.6Z"/>
      </g>
      <g>
        <path class="cls-9" d="m66.28,56.2c-3.28-4.85-7.73-9.41-13.21-13.2-2.85-1.97-5.79-3.58-8.75-4.89-6.88,15.75-16.58,30.08-28.6,42.26,2.28,2.32,4.82,4.51,7.67,6.48,5.47,3.79,11.29,6.34,16.94,7.68,10.7-11.23,19.47-24.18,25.95-38.34Z"/>
        <path class="cls-2" d="m40.61,95.5l-.49-.12c-5.93-1.4-11.89-4.1-17.24-7.81-2.75-1.9-5.37-4.12-7.8-6.59l-.6-.61.6-.61c12-12.16,21.56-26.29,28.43-42l.35-.8.8.35c3.15,1.39,6.14,3.06,8.9,4.96,5.35,3.7,9.99,8.35,13.43,13.42l.27.4-.2.45c-6.53,14.27-15.31,27.25-26.11,38.58l-.34.36Zm-23.68-15.13c2.18,2.15,4.51,4.09,6.94,5.77,5.03,3.48,10.61,6.04,16.16,7.43,10.39-10.98,18.88-23.52,25.23-37.29-3.29-4.75-7.67-9.08-12.71-12.57-2.43-1.68-5.05-3.18-7.81-4.45-6.8,15.32-16.16,29.14-27.82,41.1Z"/>
      </g>
    </g>
    <g>
      <path class="cls-4" d="m50.85,40.61c3.28-14.88,39.62-27.22,52.24-12.61,7.9,9.15,6.5,28.86-4.74,37.84-13.59,10.85-34.77.61-43.21-11.78-2.12-3.1-5.48-8.04-4.28-13.45Z"/>
      <path class="cls-3" d="m84.77,71.29c-1.39,0-2.81-.11-4.26-.33-9.93-1.5-20.42-8.09-26.08-16.41-2.13-3.12-5.69-8.35-4.42-14.12h0c1.67-7.58,11.77-15.14,24.57-18.38,12.6-3.19,23.51-1.18,29.18,5.38,3.87,4.48,5.76,11.65,5.06,19.17-.76,8.23-4.38,15.49-9.92,19.92-3.95,3.15-8.77,4.77-14.13,4.77Zm-33.07-30.49h0c-1.11,5.05,2.06,9.7,4.15,12.77,5.41,7.94,15.42,14.24,24.91,15.67,6.57.99,12.46-.42,17.05-4.08,5.17-4.13,8.55-10.95,9.27-18.72.65-7.07-1.08-13.75-4.65-17.87-5.23-6.05-15.49-7.86-27.44-4.83-12.18,3.08-21.76,10.1-23.3,17.06Z"/>
    </g>
  </g>
</svg>