<?xml version="1.0" encoding="UTF-8"?>
<svg id="BeeNew" xmlns="http://www.w3.org/2000/svg" viewBox="0 0 189 107">
  <defs>
    <style>
      .cls-1 {
        fill: #9c4124;
      }

      .cls-2 {
        fill: #150700;
      }

      .cls-3 {
        fill: #0086c9;
      }

      .cls-4 {
        fill: #95c8dc;
      }

      .cls-5 {
        fill: #cf8638;
      }

      .cls-6 {
        fill: #7ab8d1;
      }

      .cls-7 {
        fill: #fdbe52;
      }

      .cls-8 {
        fill: #310;
      }

      .cls-9 {
        fill: #813800;
      }

      .cls-10 {
        fill: #ffaa59;
      }
    </style>
  </defs>
  <g>
    <path class="cls-9" d="m109.62,172.65c-18.47,0-33.49-15.02-33.49-33.49,0-12.63,7.15-24.16,18.36-29.85-3.42-5.07-5.21-10.92-5.21-17.03,0-11.84,6.76-22.51,17.36-27.63-2-3.78-3.06-7.98-3.06-12.24v-1.4c0-14.53,11.82-26.34,26.34-26.34h47.02c14.52,0,26.34,11.82,26.34,26.34v1.4c0,4.18-1.02,8.31-2.95,12.04,10.88,5.02,17.82,15.77,17.82,27.83,0,6.11-1.79,11.96-5.21,17.03,11.21,5.7,18.36,17.23,18.36,29.85,0,18.47-15.02,33.49-33.49,33.49h-88.17Z"/>
    <rect class="cls-5" x="91.69" y="64.02" width="124.04" height="56.53" rx="28.26" ry="28.26"/>
    <rect class="cls-10" x="105.98" y="27.07" width="94.9" height="49.28" rx="23.94" ry="23.94"/>
  </g>
  <g>
    <g>
      <polygon class="cls-8" points="121.46 78.35 133.96 94.19 113.45 90.17 121.46 78.35"/>
      <path class="cls-2" d="m136.24,95.59l-24.34-4.77,9.5-14.04,14.84,18.81Zm-21.23-6.05l16.67,3.27-10.17-12.88-6.51,9.61Z"/>
    </g>
    <g>
      <path class="cls-6" d="m93.03,38.11c-3.76-13.68,21.04-40.14,37.88-33.83,10.55,3.95,17.97,20.75,12.55,33.17-6.56,15-28.61,16.13-41.01,9.77-3.11-1.59-8.05-4.13-9.42-9.1Z"/>
      <path class="cls-3" d="m118.71,51.81c-5.89,0-11.85-1.28-16.69-3.76-3.15-1.61-8.41-4.32-9.89-9.68h0c-1.92-7,3.17-17.77,12.4-26.2,9.11-8.33,19.1-11.6,26.7-8.74,5.14,1.92,9.84,6.92,12.56,13.36,3.03,7.17,3.22,14.84.51,21.05-2.43,5.57-7.13,9.73-13.58,12.03-3.69,1.32-7.84,1.96-12.02,1.96Zm-24.79-13.94c1.26,4.58,5.88,6.95,8.94,8.52,7.85,4.03,18.8,4.72,27.24,1.71,5.95-2.12,10.27-5.93,12.5-11.02,2.51-5.74,2.32-12.88-.52-19.58-2.53-5.98-6.83-10.59-11.5-12.34-6.95-2.6-16.22.53-24.8,8.38-8.59,7.85-13.58,18.09-11.86,24.34h0Z"/>
    </g>
    <g>
      <g>
        <path class="cls-7" d="m93.58,34.63c-15.88-7.01-32.34-5.12-39.64,5.66-7.29,10.78-3.08,26.98,9.13,39.42,12.83-13,23.17-28.28,30.51-45.08Z"/>
        <path class="cls-1" d="m63.06,81.03l-.66-.67c-12.79-13.03-16.59-29.72-9.23-40.59,7.36-10.88,24.13-13.34,40.78-5.99l.85.37-.37.85c-7.41,16.97-17.74,32.23-30.7,45.36l-.66.67Zm12.12-49.61c-8.8,0-16.31,3.22-20.48,9.39-6.73,9.94-3.28,25.28,8.36,37.57,12.27-12.59,22.11-27.14,29.28-43.27-5.9-2.48-11.77-3.69-17.16-3.69Z"/>
      </g>
      <g>
        <path class="cls-7" d="m120.22,86.17c5.95-8.8,4.25-21.22-3.22-32.26-6.91,15.1-16.26,28.92-27.68,40.89,12.87,3.05,24.94.16,30.9-8.64Z"/>
        <path class="cls-1" d="m98.96,97.08c-3.16,0-6.48-.39-9.9-1.2l-1.86-.44,1.32-1.38c11.36-11.91,20.6-25.57,27.47-40.59l.81-1.77,1.09,1.61c7.98,11.8,9.21,24.63,3.22,33.49h0c-4.51,6.67-12.58,10.29-22.16,10.29Zm-7.51-2.93c12.09,2.32,22.65-.89,27.86-8.59h0c5.21-7.7,4.35-18.82-2.16-29.38-6.6,13.94-15.24,26.7-25.7,37.97Z"/>
      </g>
      <g>
        <path class="cls-8" d="m117,53.92c-3.5-5.17-8.25-10.04-14.09-14.08-3.04-2.1-6.18-3.82-9.33-5.21-7.34,16.8-17.68,32.08-30.51,45.08,2.43,2.47,5.14,4.81,8.18,6.92,5.84,4.04,12.04,6.76,18.07,8.19,11.42-11.97,20.77-25.8,27.68-40.89Z"/>
        <path class="cls-2" d="m89.62,95.84l-.52-.12c-6.32-1.5-12.68-4.38-18.39-8.33-2.93-2.03-5.73-4.39-8.32-7.03l-.64-.65.64-.65c12.8-12.97,23-28.04,30.32-44.8l.37-.85.85.38c3.36,1.48,6.55,3.26,9.49,5.3,5.71,3.95,10.66,8.9,14.33,14.32l.29.43-.22.47c-6.96,15.23-16.33,29.07-27.85,41.15l-.37.39Zm-25.25-16.14c2.32,2.29,4.81,4.36,7.4,6.16,5.36,3.71,11.31,6.45,17.24,7.92,11.09-11.71,20.14-25.09,26.92-39.78-3.51-5.06-8.18-9.69-13.55-13.4-2.59-1.79-5.39-3.39-8.33-4.74-7.26,16.34-17.24,31.09-29.68,43.84Z"/>
      </g>
    </g>
    <g>
      <path class="cls-4" d="m100.55,37.29c3.49-15.87,42.26-29.04,55.72-13.45,8.43,9.76,6.93,30.79-5.06,40.36-14.49,11.57-37.09.65-46.1-12.56-2.26-3.31-5.84-8.57-4.57-14.34Z"/>
      <path class="cls-3" d="m136.72,70.01c-1.48,0-3-.12-4.55-.35-10.6-1.59-21.78-8.63-27.82-17.5-2.27-3.33-6.07-8.9-4.71-15.07h0c1.78-8.09,12.56-16.14,26.21-19.6,13.44-3.4,25.08-1.26,31.13,5.74,4.13,4.78,6.14,12.42,5.4,20.45-.81,8.78-4.67,16.52-10.58,21.24-4.21,3.36-9.36,5.09-15.07,5.09Zm-35.27-32.52h0c-1.18,5.38,2.19,10.34,4.43,13.62,5.77,8.47,16.45,15.19,26.57,16.71,7,1.06,13.29-.45,18.18-4.35,5.52-4.41,9.12-11.68,9.89-19.96.7-7.54-1.15-14.67-4.96-19.07-5.58-6.46-16.52-8.38-29.27-5.15-13,3.29-23.21,10.77-24.85,18.2Z"/>
    </g>
  </g>
</svg>