<?xml version="1.0" encoding="UTF-8"?>
<svg id="Coyote" xmlns="http://www.w3.org/2000/svg" xmlns:xlink="http://www.w3.org/1999/xlink" viewBox="0 0 189 107">
  <defs>
    <style>
      .cls-1 {
        fill: #804332;
      }

      .cls-2, .cls-3 {
        fill: #eabc8d;
      }

      .cls-3, .cls-4, .cls-5, .cls-6, .cls-7, .cls-8 {
        stroke: #61290e;
        stroke-miterlimit: 10;
      }

      .cls-3, .cls-4, .cls-5, .cls-6, .cls-8 {
        stroke-width: 1.23px;
      }

      .cls-4, .cls-7 {
        fill: #cb8849;
      }

      .cls-5 {
        fill: #61290e;
      }

      .cls-9 {
        clip-path: url(#clippath-2);
      }

      .cls-10 {
        clip-path: url(#clippath-4);
      }

      .cls-6, .cls-11 {
        fill: none;
      }

      .cls-12 {
        clip-path: url(#clippath-3);
      }

      .cls-7 {
        stroke-width: 1.57px;
      }

      .cls-13 {
        clip-path: url(#clippath-5);
      }

      .cls-8 {
        fill: #fff;
      }
    </style>
    <clipPath id="clippath-2">
      <polygon class="cls-11" points="185.58 200.73 157.37 81.89 109.67 86.17 95.84 130.05 106.86 158.55 150.03 200.73 185.58 200.73"/>
    </clipPath>
    <clipPath id="clippath-3">
      <polygon class="cls-11" points="185.28 203.26 156.42 82.93 107.66 87.26 93.52 131.7 104.78 160.56 148.92 203.26 185.28 203.26"/>
    </clipPath>
    <clipPath id="clippath-4">
      <path class="cls-11" d="m93.03,63.38l-43.57-2.06,14.64,29.16,72.51,4.8,45.61-16.97c.22-.84,2.61-10.83-4.38-18.91-6.76-7.84-16.47-7.08-17.41-6.98l1.02-10.63L146.13,1.99l-14.64,39.79-33.01,1.37-5.45,20.24h0Z"/>
    </clipPath>
    <clipPath id="clippath-5">
      <path class="cls-11" d="m93.7,65.14l-43.25-2,14.53,28.43,71.96,4.68,45.27-16.56c.18-.67,2.72-10.59-4.34-18.44-7.23-8.04-17.7-6.3-18.29-6.19.49-3.73.99-7.46,1.48-11.2-4.88-12.87-9.77-25.73-14.67-38.6l-14.53,38.8-32.77,1.34-5.41,19.75h.01Z"/>
    </clipPath>
  </defs>
  <g id="Tail">
    <path class="cls-7" d="m238.45,105.19l-23.04,71-36.24,20.25,2.88,3.46c5.91,1.45,25.98,3.17,25.98,3.17l39.71-7.16,7.42-44.01s-11.86-35.14-16.71-46.71h0Z"/>
  </g>
  <g id="Body">
    <polygon class="cls-4" points="186.39 202.22 157.54 81.89 108.77 86.23 94.64 130.66 105.89 159.51 150.03 202.22 186.39 202.22"/>
    <g class="cls-9">
      <path class="cls-2" d="m104.31,86.73l40.63-1.14-12.69,44.75c2.07,8.82,4.14,17.66,6.2,26.48,9.41,11.59,18.81,23.19,28.23,34.78l-5.37,13.39-31-11.68-32.49-37.19-16.08-34.62,22.57-34.77h0Z"/>
    </g>
    <g class="cls-12">
      <polygon class="cls-1" points="167.51 104.2 159.55 139.47 182.74 153.52 167.51 104.2"/>
    </g>
  </g>
  <g id="Head">
    <path class="cls-4" d="m92.66,64.6l-44.27-2.07,14.87,29.28,73.67,4.83,46.35-17.06c-1.28-7.09-4.86-21.01-4.86-21.01,0,0-16.3-5.19-17.29-5.01l1.04-10.68-15.56-39.97-14.87,39.97-33.55,1.37-5.53,20.32h-.01Z"/>
    <g class="cls-10">
      <polygon class="cls-2" points="49.46 75.58 111.29 79.3 123.16 68.36 160.62 63.48 170.86 89.07 134.09 100.47 59.63 99.3 49.46 75.58"/>
    </g>
    <g class="cls-13">
      <path class="cls-1" d="m96.19,37.01l-5.6,12.38,33.93,10.43,49.55-13.08-2.55-4.39c-9.63-.15-19.28-.32-28.91-.47-3.69.21-7.4.43-11.09.63-11.77-1.82-23.55-3.66-35.32-5.49h-.01Z"/>
    </g>
    <polygon class="cls-3" points="131.81 42.73 150.48 42.73 145.97 4.51 131.81 42.73"/>
    <path class="cls-5" d="m50.01,63.57c2.72,5.65,5.45,11.32,8.16,16.97,3.6-5.53,7.2-11.05,10.8-16.58-6.33-.14-12.65-.27-18.96-.41h0Z"/>
  </g>
  <g id="Eyes">
    <path class="cls-8" d="m99.38,69.64l36.79-19.69c1.33,1.37,4.12,4.58,5.37,9.61,1.13,4.5.45,8.25,0,10.09h-42.15Z"/>
    <line class="cls-6" x1="115.79" y1="59.78" x2="116.45" y2="69.64"/>
  </g>
</svg>