<?xml version="1.0" encoding="UTF-8"?>
<svg id="Coyote" xmlns="http://www.w3.org/2000/svg" xmlns:xlink="http://www.w3.org/1999/xlink" viewBox="0 0 176 176">
  <defs>
    <style>
      .cls-1, .cls-2, .cls-3, .cls-4, .cls-5, .cls-6 {
        stroke: #61290e;
        stroke-miterlimit: 10;
      }

      .cls-1, .cls-2, .cls-3, .cls-4, .cls-6 {
        stroke-width: 1px;
      }

      .cls-1, .cls-5 {
        fill: #cb8849;
      }

      .cls-7 {
        fill: #804332;
      }

      .cls-2 {
        fill: #fff;
      }

      .cls-3, .cls-8 {
        fill: #eabc8d;
      }

      .cls-9 {
        clip-path: url(#clippath-2);
      }

      .cls-10 {
        clip-path: url(#clippath-6);
      }

      .cls-4 {
        fill: #61290e;
      }

      .cls-11 {
        clip-path: url(#clippath-1);
      }

      .cls-12 {
        clip-path: url(#clippath-4);
      }

      .cls-13 {
        clip-path: url(#clippath);
      }

      .cls-14, .cls-6 {
        fill: none;
      }

      .cls-15 {
        clip-path: url(#clippath-3);
      }

      .cls-5 {
        stroke-width: 1.28px;
      }

      .cls-16 {
        clip-path: url(#clippath-5);
      }
    </style>
    <clipPath id="clippath">
      <path class="cls-14" d="m157.69,85.32l-18.51,57.28-29.1,16.34,2.32,2.79c4.75,1.18,20.86,2.56,20.86,2.56l31.9-5.79,5.96-35.49s-9.53-28.36-13.42-37.68h-.01Z"/>
    </clipPath>
    <clipPath id="clippath-1">
      <path class="cls-14" d="m158.41,86.43c-5.95,19.14-11.92,38.28-17.87,57.43-10.15,5.24-20.3,10.49-30.46,15.72l2.3,2.81c4.72,1.18,20.75,2.58,20.75,2.58l31.74-5.83,5.94-35.82c-1.74-5.15-3.48-10.31-5.23-15.48-2.41-7.15-4.8-14.3-7.19-21.43h.01Z"/>
    </clipPath>
    <clipPath id="clippath-2">
      <polygon class="cls-14" points="115.3 163.08 92.34 66.35 53.52 69.84 42.26 105.55 51.23 128.75 86.36 163.08 115.3 163.08"/>
    </clipPath>
    <clipPath id="clippath-3">
      <polygon class="cls-14" points="115.05 165.13 91.57 67.2 51.87 70.72 40.37 106.89 49.53 130.38 85.46 165.13 115.05 165.13"/>
    </clipPath>
    <clipPath id="clippath-4">
      <path class="cls-14" d="m91.77,102.76c6.19,5.47,1.11,16.44-.71,47.09-.42,7.17-.54,13.17-.56,17.43-.96,1.82-1.93,3.64-2.89,5.46-.78-1.8-1.83-4.46-2.81-7.75-1.72-5.79-2.22-10.29-2.52-12.73,0,0-1.01-8.28-3.57-21.06-3.77-18.84-8.58-23.15-5.6-27.27,3.27-4.52,13.61-5.63,18.65-1.17h.02Z"/>
    </clipPath>
    <clipPath id="clippath-5">
      <path class="cls-14" d="m39.97,51.29l-35.46-1.68,11.92,23.73,59.01,3.91,37.12-13.82c.18-.68,2.12-8.81-3.56-15.39-5.51-6.38-13.4-5.76-14.17-5.68l.83-8.66L83.19,1.32l-11.92,32.39-26.87,1.12-4.43,16.47h0Z"/>
    </clipPath>
    <clipPath id="clippath-6">
      <path class="cls-14" d="m40.52,52.72l-35.2-1.63,11.83,23.14,58.57,3.81,36.84-13.48c.15-.55,2.21-8.62-3.53-15.01-5.89-6.54-14.41-5.13-14.89-5.04l1.21-9.11c-3.98-10.48-7.95-20.94-11.94-31.42l-11.83,31.58-26.67,1.09-4.4,16.07h.01Z"/>
    </clipPath>
  </defs>
  <g id="Tail">
    <path class="cls-5" d="m158.33,85.32l-18.75,57.78-29.5,16.48,2.35,2.81c4.81,1.18,21.14,2.58,21.14,2.58l32.32-5.83,6.04-35.82s-9.65-28.6-13.6-38.02h0Z"/>
    <g class="cls-13">
      <polygon class="cls-8" points="110.08 156.08 138.76 156.08 171.12 145.48 166.3 162.39 127.86 168.18 108.7 162.39 110.08 156.08"/>
    </g>
    <g class="cls-11">
      <polygon class="cls-7" points="141.01 120.44 154.96 139.03 176.7 124.27 161.47 82.76 155.31 79.62 141.01 120.44"/>
    </g>
  </g>
  <g id="Leg3">
    <polygon class="cls-3" points="67.81 130 53.01 135.63 47.37 155.6 74.62 166.87 52.54 162.88 42.92 171.8 84.95 172.74 95.21 172.74 86.43 160.52 96.99 157 86.43 130 67.81 130"/>
  </g>
  <g id="Leg4">
    <polygon class="cls-3" points="49.26 105.57 71.33 166.16 61.47 164.29 53.25 172.74 82.14 172.74 68.75 102.76 49.26 105.57"/>
  </g>
  <g id="Body">
    <polygon class="cls-1" points="115.96 164.29 92.47 66.35 52.78 69.88 41.28 106.04 50.43 129.53 86.36 164.29 115.96 164.29"/>
    <g class="cls-9">
      <path class="cls-8" d="m49.15,70.29l33.07-.93-10.33,36.42c1.69,7.18,3.37,14.37,5.05,21.55,7.66,9.44,15.31,18.87,22.97,28.31l-4.37,10.9-25.23-9.5-26.45-30.27-13.09-28.18,18.37-28.3h0Z"/>
    </g>
    <g class="cls-15">
      <polygon class="cls-7" points="100.59 84.51 94.11 113.21 112.99 124.65 100.59 84.51"/>
    </g>
  </g>
  <g id="Leg1">
    <polyline class="cls-1" points="72.5 103.93 84.49 167.1 87.47 172.74 91.77 167.57 91.77 102.76"/>
    <g class="cls-12">
      <polygon class="cls-8" points="73.73 125.15 95.56 166.55 76.75 165.13 73.73 125.15"/>
    </g>
    <polygon class="cls-3" points="75.86 174.62 96.99 174.62 91.83 164.99 81.73 164.99 75.86 174.62"/>
  </g>
  <g id="Leg2">
    <path class="cls-1" d="m117.83,130h-17.85c-2.35,3.21-4.7,6.42-7.05,9.63v19.25c2.74,3.64,5.48,7.28,8.22,10.92h8.92l10.57-9.98,1.17-23.02-3.99-6.81h0Z"/>
    <polygon class="cls-3" points="119.24 174.62 94.11 174.62 99.75 164.99 113.89 164.99 119.24 174.62"/>
  </g>
  <g id="Head">
    <path class="cls-1" d="m39.67,52.28l-36.03-1.69,12.11,23.83,59.96,3.93,37.73-13.88c-1.04-5.77-3.95-17.1-3.95-17.1,0,0-13.27-4.22-14.07-4.08l.85-8.69L83.59,2.08l-12.11,32.53-27.31,1.12-4.5,16.54h-.01Z"/>
    <g class="cls-16">
      <polygon class="cls-8" points="4.51 61.21 54.83 64.24 64.49 55.34 94.98 51.36 103.31 72.19 73.38 81.47 12.79 80.52 4.51 61.21"/>
    </g>
    <g class="cls-10">
      <path class="cls-7" d="m42.54,29.82l-4.56,10.07,27.62,8.49,40.33-10.64-2.08-3.57c-7.84-.12-15.69-.26-23.53-.38-3,.17-6.02.35-9.02.51-9.58-1.49-19.16-2.98-28.75-4.47h-.01Z"/>
    </g>
    <polygon class="cls-3" points="71.53 34.48 86.73 34.48 83.06 3.37 71.53 34.48"/>
    <path class="cls-4" d="m4.96,51.44c2.21,4.6,4.43,9.21,6.65,13.82,2.93-4.5,5.86-8.99,8.79-13.49-5.15-.11-10.3-.22-15.43-.34h0Z"/>
  </g>
  <g id="Eyes">
    <path class="cls-2" d="m45.14,56.38l29.94-16.03c1.08,1.12,3.35,3.73,4.37,7.82.92,3.66.37,6.71,0,8.21h-34.31Z"/>
    <line class="cls-6" x1="58.5" y1="48.36" x2="59.03" y2="56.38"/>
  </g>
</svg>