<?xml version="1.0" encoding="UTF-8"?>
<svg id="Deer" xmlns="http://www.w3.org/2000/svg" viewBox="0 0 189 107">
  <defs>
    <style>
      .cls-1, .cls-2 {
        fill: #fff;
      }

      .cls-3 {
        fill: #feecba;
        stroke: #b5875b;
        stroke-width: 1.09px;
      }

      .cls-3, .cls-2, .cls-4 {
        stroke-miterlimit: 10;
      }

      .cls-2, .cls-4 {
        stroke: #662f08;
        stroke-width: 1.29px;
      }

      .cls-5 {
        fill: #662f08;
      }

      .cls-4 {
        fill: #d1813e;
      }
    </style>
  </defs>
  <path class="cls-4" d="m126.51,36.17L143.77,3.59c1.52-2.25,5.12-2.42,6.97-.3,5.19,5.92,13.32,17.33,10.82,28.41-4.93,21.83-29.91,22.84-29.91,22.84l-5.13-18.37Z"/>
  <path class="cls-3" d="m106.05,15.38c-1.15.19-2.31.4-3.39.83-.8-3.1-2.01-6.98-3.34-10.11-1.61-3.8-4.41-4.7-6.66-4.3-1.86.33-4.76,1.54-6.26,5.44-1.04,2.71-1.13,7.66-.59,12.9-2.36,1.2-4.35,1.92-6.53,1.74-1.64-1.46-2.13-6.66-4.23-10.33-1.81-3.17-4.59-7.23-10.37-4.17-4.97,2.63-2.59,12.82-1.63,15.59,1.5,4.35,3.23,7.86,6.07,8.89,4.9,1.76,13.49-2.12,18.45-3.68,4.19,11.68,8.09,20.17,9.15,18.84.56.26,5.18.9,6.83-2.87,1.91-4.37.8-13.64.39-19.85,3.35-1.28,13.24-5.75,12.84-8.26-.27-1.67-5.68-1.5-10.73-.65Z"/>
  <path class="cls-4" d="m95.31,79.57c-3.85,1.83-6.69,5.78-6.16,10.01.48,3.82,3.08,70.65,20.54,77.74,13.01,5.28,81.35-3.64,108.65-15.82,2.24-1,3.53-14.86,2.92-25.11-.43-7.2-5.44-13.31-12.41-15.18-19.27-5.15-67.24-12.65-68.86-13.62-.56-.33-5.91-10.99-9.19-15.64s-25.23-7.28-35.49-2.39Z"/>
  <path class="cls-4" d="m140.76,67.55c.18-6.96-2.85-17.38-6.92-23.03s-8.67-8.9-19.85-9.96c-18.64-1.77-66.35,22.5-68.52,26.44-1.86,3.36-4.9,13.88,5.65,20.52,10.69,6.72,57.07,14.25,75.43,8.3,11.34-3.68,13.91-10.43,14.22-22.27Z"/>
  <path class="cls-2" d="m103.38,74.55l11.38-1.81c1.78-.28,3.23-1.57,3.71-3.31,1.94-7.01,3.03-25.02-15.05-22.01-15.61,2.6-11.28,19.91-5.34,24.88,1.6,1.33,3.25,2.58,5.3,2.25Z"/>
  <ellipse class="cls-5" cx="101.93" cy="61.41" rx="9.03" ry="12.71" transform="translate(-8.39 16.8) rotate(-9.05)"/>
  <ellipse class="cls-1" cx="109.35" cy="58.46" rx="6.35" ry="3.18" transform="translate(-7.83 17.92) rotate(-9.05)"/>
  <path class="cls-5" d="m42.07,70.34c-.49-6.69,1.52-12.65,6.92-12.87,4.07-.17,7.75,4.88,8.25,11.57s-2.4,12.35-6.46,12.65-8.21-4.65-8.7-11.34Z"/>
</svg>