<?xml version="1.0" encoding="UTF-8"?>
<svg id="Deer" xmlns="http://www.w3.org/2000/svg" viewBox="0 0 176 176">
  <defs>
    <style>
      .cls-1 {
        fill: #d1813e;
      }

      .cls-1, .cls-2, .cls-3 {
        stroke-width: 1px;
      }

      .cls-1, .cls-2, .cls-3, .cls-4 {
        stroke-miterlimit: 10;
      }

      .cls-1, .cls-3 {
        stroke: #662f08;
      }

      .cls-5, .cls-3 {
        fill: #fff;
      }

      .cls-2, .cls-6, .cls-4 {
        fill: #feecba;
      }

      .cls-2, .cls-4 {
        stroke: #b5875b;
      }

      .cls-7 {
        fill: #662f08;
      }

      .cls-4 {
        stroke-width: .85px;
      }
    </style>
  </defs>
  <path class="cls-1" d="m76.82,28.51l13.36-25.2c1.18-1.74,3.96-1.87,5.39-.23,4.01,4.58,10.31,13.41,8.37,21.98-3.82,16.89-23.14,17.67-23.14,17.67l-3.97-14.21Z"/>
  <path class="cls-4" d="m60.99,12.44c-.89.15-1.79.31-2.62.64-.62-2.39-1.56-5.4-2.59-7.82-1.25-2.94-3.41-3.64-5.15-3.33-1.44.25-3.69,1.19-4.84,4.21-.8,2.1-.88,5.93-.46,9.98-1.82.93-3.37,1.49-5.05,1.35-1.27-1.13-1.65-5.16-3.27-7.99-1.4-2.45-3.55-5.59-8.02-3.23-3.85,2.03-2,9.92-1.26,12.07,1.16,3.37,2.5,6.08,4.7,6.87,3.79,1.36,10.44-1.64,14.27-2.85,3.24,9.04,6.26,15.61,7.08,14.58.43.2,4.01.69,5.28-2.22,1.48-3.38.62-10.55.3-15.36,2.59-.99,10.24-4.45,9.93-6.39-.21-1.29-4.4-1.16-8.3-.5Z"/>
  <path class="cls-2" d="m144.25,89.24l8.38-23.43c.78-1.64,2.96-2.02,4.23-.72,3.55,3.65,9.26,10.81,8.46,18.53-1.57,15.21-16.73,17.73-16.73,17.73l-4.34-12.12Z"/>
  <path class="cls-1" d="m52.68,62.1c-2.98,1.42-5.18,4.47-4.77,7.74.37,2.96,2.39,54.66,15.89,60.15,10.06,4.09,62.94-2.82,84.06-12.24,1.74-.77,2.73-11.5,2.26-19.42-.33-5.57-4.21-10.3-9.6-11.74-14.91-3.99-52.02-9.79-53.28-10.54-.43-.26-4.57-8.5-7.11-12.1s-19.52-5.63-27.45-1.85Z"/>
  <path class="cls-6" d="m53.26,106.66c3.64-2.06,8.24-1.55,12.15-.05s7.41,3.89,11.23,5.6c9.72,4.35,20.93,4.06,31.38,1.98,10.45-2.08,20.49-5.84,30.87-8.24,2.42-.56,5.17-.99,7.23.4,2.29,1.55,2.77,4.91,1.7,7.46s-3.31,4.41-5.64,5.91c-10.77,6.94-23.92,6.68-36.98,8.61-11.22,1.66-22.14,2.26-33.48,2.17-3.21-.03-6.67.02-9.24-1.9-1.88-1.4-4.41-5.77-5.04-7.62-1.54-4.48-3.08-8.59-4.17-14.31Z"/>
  <path class="cls-1" d="m91.02,174.11c-2.26.05-4.34-1.24-5.3-3.29-5.09-10.82-20.99-44.27-20.58-56.58.49-14.73,8.44-23,16.41-20.44,7.97,2.56,13.47,9.46,14.74,35.74.95,19.64-.45,34.78-1.22,41.18-.23,1.9-1.82,3.35-3.74,3.39h-.3Z"/>
  <path class="cls-1" d="m146.95,124.25c10.34-32.96-2.17-37.21-11.92-38.85-9.75-1.64-19.84,10.73-22.48,26.41-2.64,15.68.81,25.36,18.06,32.33-.04.62-.08,1.22-.12,1.87-.84,12.38.41,21.93,1.09,25.96.2,1.2,1.63,2.11,3.34,2.13h.27c2.02.03,3.87-.78,4.73-2.07,4.54-6.82,18.74-27.91,18.37-35.66-.28-5.98-2.31-6.1-11.34-12.12Z"/>
  <path class="cls-1" d="m87.85,52.79c.14-5.38-2.2-13.45-5.36-17.81s-6.71-6.88-15.36-7.71c-14.42-1.37-51.33,17.41-53.01,20.46-1.44,2.6-3.79,10.74,4.37,15.87,8.27,5.2,44.15,11.03,58.36,6.42,8.78-2.84,10.77-8.07,11-17.23Z"/>
  <path class="cls-3" d="m58.92,58.21l8.8-1.4c1.38-.22,2.5-1.22,2.87-2.56,1.5-5.43,2.35-19.36-11.65-17.03-12.08,2.01-8.73,15.4-4.13,19.25,1.23,1.03,2.51,2,4.1,1.74Z"/>
  <ellipse class="cls-7" cx="57.81" cy="48.05" rx="6.99" ry="9.83" transform="translate(-6.84 9.69) rotate(-9.05)"/>
  <ellipse class="cls-5" cx="63.54" cy="45.76" rx="4.92" ry="2.46" transform="translate(-6.41 10.56) rotate(-9.05)"/>
  <path class="cls-7" d="m11.5,54.95c-.38-5.17,1.18-9.78,5.35-9.96,3.15-.13,6,3.78,6.38,8.95s-1.86,9.55-5,9.79-6.35-3.6-6.73-8.77Z"/>
</svg>