<?xml version="1.0" encoding="UTF-8"?>
<svg id="Hawk" xmlns="http://www.w3.org/2000/svg" viewBox="0 0 176 176">
  <defs>
    <style>
      .cls-1, .cls-2 {
        fill: #daa267;
      }

      .cls-1, .cls-3, .cls-4, .cls-5, .cls-6, .cls-7 {
        stroke-width: 1px;
      }

      .cls-1, .cls-3, .cls-4, .cls-6 {
        stroke: #3f1700;
      }

      .cls-1, .cls-3, .cls-4, .cls-6, .cls-7 {
        stroke-miterlimit: 10;
      }

      .cls-3, .cls-8 {
        fill: #604a35;
      }

      .cls-4 {
        fill: #fff;
      }

      .cls-9 {
        fill: #3f1700;
      }

      .cls-5 {
        fill: none;
        stroke: #daa267;
        stroke-linecap: round;
        stroke-linejoin: round;
      }

      .cls-6 {
        fill: #feedb3;
      }

      .cls-7 {
        fill: #c6601c;
        stroke: #8a2e00;
      }
    </style>
  </defs>
  <path class="cls-2" d="m61.13,79.7c3.64-1.93,4.23-8.26,1.78-15.16.9,1.21,1.73,2.55,2.49,3.98,4.46,8.42,4.51,17.14.12,19.47s-11.57-2.62-16.03-11.04"/>
  <path class="cls-6" d="m66.08,157.84l12.39-28.89-21.21-4.01,8.68,32.89c.02.07.11.08.14.01Z"/>
  <path class="cls-6" d="m66.15,158.13l-20.07-6.22c-2.1-.65-4.39-.04-5.89,1.56l-15.07,16.15c-.33.35.02.92.48.78l40.55-12.13c.07-.02.07-.12,0-.14Z"/>
  <path class="cls-9" d="m37.33,84.93c-.73-1.5-1.62-2.44-2.99-3.38-.37-.26-1.05-.5-1.5-.42-.43.07-.87.42-1.16.74-2.01,2.25-3.53,4.13-5.53,6.38,3.81-.82,7.16-2.06,11.18-3.32Z"/>
  <path class="cls-6" d="m65.41,158.28l10.21-3.28c1.07-.34,2.23-.02,3,.82l7.67,8.51c.17.19,0,.48-.25.41l-20.63-6.4s-.04-.06,0-.07Z"/>
  <path class="cls-9" d="m80.07,162.5c.37-.79.82-1.29,1.52-1.78.19-.14.54-.26.76-.22.22.04.44.22.59.39,1.02,1.18,1.8,2.18,2.82,3.36-1.94-.43-3.65-1.08-5.69-1.75Z"/>
  <polygon class="cls-7" points="173.57 143.61 107.48 133.44 145.1 157.03 173.57 143.61"/>
  <polygon class="cls-4" points="118.65 149.01 83.22 137.69 40.11 130.83 6.15 67.83 13.47 52.72 61.78 52.9 81.66 60.48 99.49 104.57 118.65 149.01"/>
  <polygon class="cls-8" points="23.14 97.78 31.76 107.59 30.12 94.1 22.01 84.82 23.14 97.78"/>
  <polygon class="cls-8" points="30.11 94.16 37.95 104.65 37 91.1 29.38 81.41 30.11 94.16"/>
  <polygon class="cls-8" points="36.99 91.07 44.77 101.61 43.9 88.05 36.33 78.32 36.99 91.07"/>
  <polygon class="cls-8" points="43.85 88.06 51.63 98.6 50.76 85.04 43.19 75.31 43.85 88.06"/>
  <path class="cls-2" d="m56.97,59.71c-.36.38-1.08.33-1.4,0,.74,2.25.77,4.76.05,7.02-.08.27-.2.57-.44.72-.42.3-1.01.02-1.41-.32-.72-.59-1.29-1.35-1.64-2.21.44,1.46.89,2.91,1.34,4.37.3.96.32,2.42-.69,2.55-.39.05-.77-.17-1.1-.38-2.25-1.49-4.05-3.65-5.13-6.11.53,2.19.38,4.55-.45,6.65-.36.93-.96,1.89-1.92,2.13-1.26.32-2.43-.75-3.23-1.77-1.89-2.48-3.29-5.33-4.04-8.34-.53,1.98-1.04,3.96-1.55,5.94-.14.51-.32,1.1-.8,1.34-.78.39-1.62-.38-2.1-1.08-1.07-1.58-1.89-3.3-2.45-5.13-.69,2.09-1.38,4.19-2.08,6.29-.11.32-.55.36-.71.06-1.28-2.39-2.31-4.93-3.04-7.54-.6,1.44-1.19,2.88-1.79,4.34-.18.44-.54.99-1.01.86-.27-.09-.42-.36-.54-.6-1.2-2.55-1.94-5.33-2.12-8.15-1.01.95-1.87,2.04-2.56,3.23-.2.34-.72.28-.85-.09-.38-1.15-.66-2.34-.84-3.55-.74.6-1.47,1.2-2.21,1.8-.17.12-.33.26-.53.27-1.77.2.23-5,2.19-8.56,5.7-.03,40.78.12,40.78.12.8.18,1.21.43,1.74.83.9.67.72,2.12.84,3.23.08.72.12,1.55-.38,2.07Z"/>
  <path class="cls-3" d="m120.67,151.66l-9.9-4.11-4.92-2.06h-.02l-2.76-1.14-1.97-.83-3.83-1.59h-.01l-.08-.03h-.01l-8.33-3.47h-.02l-.04-.02-.66-.29h-.06s-.02-.01-.02-.01l-4.4-1.83-.57-.24h-.02l-4.76-1.98-5.91-2.46-.36-.15-5.93-2.46-5-2.07-8.25-27.69-1.55-5.18-6.48-21.77-1.67-5.58-2.22-7.46.18-.15,1.91-1.49,8.75-6.84.39-.32.12-.09,5.15-4.02,6.14,3.36,3.17,1.74,12.25,6.72,1.22.68,1.13.62,2.79,1.53,1.73,4.29.27.66,2.55,6.32.41,1.01,1.86,4.61.11.27.09.23,2.46,6.12,2.52,6.26.33.84,1.23,3.03.32.77.26.65,1.38,3.41,2.16,5.33v.02l.39.98,2.69,6.66,1.1,2.73,1.31,3.21v.02l1.44,3.56.6,1.52,1.34,3.33h0s.08.18.08.18l3.45,8.55v.02l.53,1.32,4.92,12.17,1.07,2.64Z"/>
  <path class="cls-1" d="m67.67,47.3l-4.09-29.35L20.5,6.69l-10.97,45.28c-.12.45.21.89.68.88l67.72.45c.14,0,.2-.19.08-.26l-10.33-5.73Z"/>
  <path class="cls-6" d="m20.84,32.29l-4.28-5.3c-1.02-1.26-2.87-1.43-4.1-.38l-8.33,7.11c-2.27,1.94-3.23,5.01-2.47,7.89l3.61,13.64c.14.52.88.49.98-.03l.32-1.6c1.06-5.39,4.32-10.09,9-12.98l4.31-2.66c1.97-1.22,2.42-3.88.97-5.68Z"/>
  <path class="cls-9" d="m8.3,47.01l1.21-1.68c-1.21-1.41-5.53-4.08-6.73-2.33-.06.09-.09,0-.08.02l2.76,11.37c.21.83,1.09-3.22,1.49-3.98l1.35-3.4Z"/>
  <path class="cls-4" d="m25.11,28.27c-.13,0-.17-.19-.04-.24l18.17-7.35c2.01-.57,3.64,1.79,4.06,3.69l.21.96c.48,2.18-1.23,4.05-3.63,3.81l-18.77-.86Z"/>
  <ellipse class="cls-9" cx="31.8" cy="26.74" rx="2.04" ry="1.45" transform="translate(-3.64 48.42) rotate(-71.52)"/>
  <path class="cls-8" d="m82.04,103.78c-1.63,5.13-1.22,10.88,1.12,15.73.96,1.99,2.27,3.86,4.07,5.14,1.8,1.28,4.14,1.91,6.28,1.34,2.31-.62,4.11-2.58,4.95-4.82s.84-4.72.45-7.08c-.73-4.4-2.9-8.71-6.55-11.27-1.8-1.26-3.99-2.07-6.17-1.83s-3.82,1.75-4.15,2.78Z"/>
  <path class="cls-5" d="m49.4,75.14c2.01,4.26,5.54,6.46,8.39,5.37,3.15-1.2,4.07-5.94,3.85-8.19"/>
  <path class="cls-5" d="m59.72,61.49c1.97,4.28,5.49,6.5,8.35,5.44,3.16-1.18,4.12-5.91,3.92-8.16"/>
  <path class="cls-5" d="m69.72,77.16c1.96,4.28,5.48,6.51,8.34,5.45,3.16-1.17,4.13-5.9,3.93-8.15"/>
  <path class="cls-5" d="m58.49,94.41c1.89,4.31,5.37,6.6,8.25,5.59,3.18-1.12,4.22-5.83,4.06-8.09"/>
  <path class="cls-5" d="m79.33,97.47c1.98,4.27,5.5,6.49,8.36,5.42,3.16-1.18,4.1-5.92,3.9-8.17"/>
  <path class="cls-5" d="m71.99,116.44c2.14,4.19,5.75,6.27,8.56,5.09,3.11-1.3,3.87-6.07,3.58-8.31"/>
  <path class="cls-5" d="m91.39,128.25c2.51,3.99,6.28,5.74,8.98,4.31,2.98-1.58,3.32-6.39,2.83-8.6"/>
</svg>