<?xml version="1.0" encoding="UTF-8"?>
<svg id="Hawk" xmlns="http://www.w3.org/2000/svg" viewBox="0 0 189 107">
  <defs>
    <style>
      .cls-1 {
        fill: #fff;
      }

      .cls-1, .cls-2, .cls-3, .cls-4, .cls-5 {
        stroke-width: 1.3px;
      }

      .cls-1, .cls-3, .cls-4, .cls-5 {
        stroke: #3f1700;
        stroke-miterlimit: 10;
      }

      .cls-6, .cls-5 {
        fill: #daa267;
      }

      .cls-7 {
        fill: #3f1700;
      }

      .cls-2 {
        fill: none;
        stroke: #daa267;
        stroke-linecap: round;
        stroke-linejoin: round;
      }

      .cls-3 {
        fill: #feedb3;
      }

      .cls-8, .cls-4 {
        fill: #604a35;
      }
    </style>
  </defs>
  <path class="cls-6" d="m125.37,96.89c4.73-2.5,5.49-10.71,2.31-19.66,1.16,1.56,2.25,3.3,3.23,5.16,5.79,10.92,5.86,22.23.15,25.25-5.7,3.02-15.01-3.39-20.79-14.31"/>
  <path class="cls-7" d="m94.5,103.67c-.95-1.94-2.1-3.16-3.88-4.39-.49-.33-1.37-.64-1.95-.54-.55.1-1.13.54-1.5.96-2.6,2.92-4.58,5.36-7.18,8.28,4.94-1.06,9.29-2.67,14.5-4.31Z"/>
  <polygon class="cls-1" points="199.98 186.79 154.02 172.1 98.1 163.2 54.06 81.49 63.56 61.89 126.21 62.13 152 71.96 175.12 129.14 199.98 186.79"/>
  <polygon class="cls-8" points="76.1 120.35 87.28 133.06 85.15 115.57 74.63 103.53 76.1 120.35"/>
  <polygon class="cls-8" points="85.14 115.64 95.31 129.25 94.07 111.67 84.18 99.11 85.14 115.64"/>
  <polygon class="cls-8" points="94.07 111.63 104.15 125.3 103.02 107.72 93.2 95.1 94.07 111.63"/>
  <polygon class="cls-8" points="102.96 107.73 113.05 121.4 111.92 103.82 102.1 91.19 102.96 107.73"/>
  <path class="cls-6" d="m119.98,70.96c-.47.49-1.4.43-1.81,0,.95,2.92.99,6.17.06,9.11-.1.35-.25.74-.56.93-.54.39-1.3.02-1.83-.41-.93-.76-1.67-1.75-2.12-2.86.56,1.89,1.15,3.78,1.73,5.66.39,1.25.41,3.13-.9,3.31-.51.06-.99-.21-1.42-.49-2.92-1.93-5.26-4.73-6.66-7.92.68,2.84.49,5.9-.58,8.62-.47,1.21-1.25,2.45-2.49,2.76-1.63.41-3.15-.97-4.18-2.3-2.45-3.21-4.26-6.91-5.24-10.82-.68,2.57-1.34,5.14-2,7.71-.18.66-.41,1.42-1.03,1.73-1.01.51-2.1-.49-2.72-1.4-1.38-2.04-2.45-4.28-3.17-6.66-.89,2.71-1.79,5.44-2.69,8.16-.14.41-.71.47-.92.08-1.66-3.1-2.99-6.39-3.94-9.78-.78,1.87-1.54,3.74-2.32,5.63-.23.56-.7,1.28-1.3,1.11-.35-.12-.54-.47-.7-.78-1.56-3.31-2.51-6.91-2.74-10.57-1.31,1.23-2.43,2.65-3.32,4.19-.26.44-.94.37-1.1-.12-.5-1.49-.86-3.03-1.09-4.6-.95.78-1.91,1.56-2.86,2.34-.21.16-.43.33-.68.35-2.3.25.3-6.48,2.84-11.1,7.39-.04,52.9.16,52.9.16,1.04.23,1.57.56,2.26,1.08,1.16.87.93,2.74,1.09,4.18.1.93.16,2-.49,2.69Z"/>
  <path class="cls-4" d="m202.6,190.22l-12.85-5.33-6.38-2.67h-.02l-3.58-1.48-2.55-1.07-4.96-2.06h-.02l-.1-.04h-.02l-10.8-4.5h-.02l-.06-.02-.86-.37-.08-.02h-.02l-5.7-2.37-.74-.31h-.02l-6.17-2.57-7.67-3.19-.47-.19-7.69-3.19-6.48-2.69-10.71-35.91-2-6.71-8.41-28.24-2.16-7.24-2.88-9.67.23-.19,2.47-1.93,11.35-8.88.51-.41.16-.12,6.68-5.22,7.96,4.36,4.11,2.26,15.88,8.72,1.58.88,1.46.8,3.62,1.99,2.24,5.57.35.86,3.31,8.19.53,1.3,2.41,5.98.14.35.12.29,3.19,7.94,3.27,8.12.43,1.09,1.6,3.93.41.99.33.84,1.79,4.42,2.8,6.91v.02l.51,1.27,3.48,8.64,1.42,3.54,1.69,4.17v.02l1.87,4.61.78,1.97,1.73,4.32v.02l.1.21,4.48,11.09v.02l.68,1.71,6.38,15.79,1.38,3.43Z"/>
  <path class="cls-5" d="m133.85,54.86l-5.3-38.07L72.68,2.19l-14.23,58.73c-.16.58.28,1.15.88,1.15l87.83.58c.18,0,.25-.24.1-.34l-13.4-7.44Z"/>
  <path class="cls-3" d="m73.12,35.4l-5.55-6.87c-1.32-1.63-3.72-1.85-5.32-.49l-10.81,9.22c-2.95,2.51-4.19,6.49-3.2,10.24l4.68,17.69c.18.67,1.14.64,1.27-.04l.41-2.08c1.38-6.99,5.61-13.09,11.67-16.83l5.59-3.45c2.55-1.58,3.14-5.04,1.26-7.37Z"/>
  <path class="cls-7" d="m56.85,54.49l1.56-2.17c-1.57-1.83-7.17-5.29-8.72-3.02-.08.12-.12-.01-.11.03l3.58,14.75c.28,1.07,1.42-4.18,1.93-5.17l1.76-4.41Z"/>
  <path class="cls-1" d="m78.65,30.18c-.17,0-.22-.25-.05-.31l23.57-9.54c2.61-.74,4.72,2.32,5.27,4.79l.27,1.24c.63,2.83-1.6,5.25-4.71,4.94l-24.34-1.12Z"/>
  <ellipse class="cls-7" cx="87.33" cy="28.19" rx="2.64" ry="1.88" transform="translate(32.91 102.08) rotate(-71.52)"/>
  <path class="cls-2" d="m110.16,90.98c2.6,5.53,7.19,8.37,10.89,6.96,4.09-1.56,5.28-7.71,4.99-10.63"/>
  <path class="cls-2" d="m123.55,73.27c2.56,5.55,7.12,8.43,10.83,7.05,4.1-1.53,5.34-7.66,5.08-10.58"/>
  <path class="cls-2" d="m136.51,93.6c2.55,5.55,7.11,8.44,10.82,7.07,4.1-1.52,5.35-7.65,5.1-10.58"/>
</svg>