<?xml version="1.0" encoding="UTF-8"?>
<svg id="Lizard" xmlns="http://www.w3.org/2000/svg" viewBox="0 0 189 107">
  <defs>
    <style>
      .cls-1 {
        stroke-width: 1.17px;
      }

      .cls-1, .cls-2, .cls-3, .cls-4, .cls-5 {
        stroke: #1b1827;
        stroke-miterlimit: 10;
      }

      .cls-1, .cls-2, .cls-3, .cls-5 {
        fill: #333343;
      }

      .cls-6, .cls-4 {
        fill: #fff;
      }

      .cls-7 {
        fill: #1b1827;
      }

      .cls-2 {
        stroke-width: 1.14px;
      }

      .cls-3 {
        stroke-width: 1.1px;
      }

      .cls-4 {
        stroke-width: 1.28px;
      }

      .cls-8 {
        fill: #ccad60;
      }

      .cls-5 {
        stroke-width: 1.11px;
      }
    </style>
  </defs>
  <path class="cls-5" d="m192.92,62.48c3.76-.23,7.39,5.63,7.39,5.63,0,0,7.28-12.79,11.03-11.62s3.29,15.49,3.29,15.49c0,0,10.09-1.29,10.21,1.17.12,6.34-10.8,19.25-18.66,25.47s-18.89,11.38-23.12,9.86c-2.82-2.58,7.39-13.73,9.39-24.29,2-10.56-1.76-21.59.47-21.71Z"/>
  <path class="cls-3" d="m134.25,22.58c2.82-2.46,9.27-.12,9.27-.12,0,0-2.46-14.55,1.17-15.84s12.2,10.09,12.2,10.09c0,0,6.92-7.28,8.57-5.4,3.99,4.81,3.76,21.71,1.53,31.33-2.11,9.62-7.51,20.54-11.62,21.95-3.76-.23-2.93-15.26-7.98-24.76-5.05-9.51-14.79-15.73-13.14-17.25Z"/>
  <path class="cls-1" d="m196.44,194.51c-4.69,3.64-11.15,6.81-18.54,9.15-22.06,6.92-52.58,6.45-69.36-10.33-10.91-10.91-7.63-28.87-8.21-39.43-.7-11.15-5.05-14.55-8.8-15.02-5.63-.59-9.27,1.17-11.5,4.11h0c-2.58,3.4-2.93,8.57-1.88,13.61h0c.94,3.99,2.82,7.98,5.52,11.03-.82,1.76-12.67-6.34-13.85-20.77-1.29-14.43,8.45-19.36,11.74-20.54,9.15-3.52,20.54-1.76,27.46,6.1,12.91,14.67,2.82,30.63,11.85,42.6,8.1,10.68,25.58,11.15,39.9,3.76,1.76-.94,3.52-2,5.16-3.17,15.02-10.56,13.38-36.15,1.17-56.8-12.09-20.65-20.54-29.93-41.78-34.27s-61.73-8.45-73.35-28.87h0c1.76-4.93,4.46-9.62,8.33-13.73,2.23-2.23,4.69-4.34,7.63-6.1h0c8.33-5.05,19.72-7.86,34.85-6.45,29.81,2.82,52.93,12.91,72.29,28.05,9.15,7.16,25.58,18.07,33.68,40.37,8.1,22.3,19.72,71.47-12.32,96.7Z"/>
  <path class="cls-8" d="m52.57,55.56c.23-1.41,47.29,0,58.09,3.87,9.04,4.93,10.09,8.33,17.96,15.61,9.86,9.15,18.54,13.14,26.52,21.83s19.48,25.11,22.18,37.55,6.45,23.12-7.98,38.84c17.37-18.19,1.88-47.29-.47-53.63-3.76-4.69-16.55-29.69-36.5-33.92-13.26-2.23-44.71-8.92-55.16-12.67s-21.59-11.03-24.64-17.49h0Z"/>
  <path class="cls-8" d="m82.14,167.05c.82-.35-10.56-12.09-8.68-26.17,0-1.64,2.23-7.86,9.27-10.8,7.04-2.93,18.42-1.76,24.29,7.51,5.87,9.27,1.06,34.5,6.45,44.01s18.89,18.31,45.89,12.91c26.99-5.4,32.16-32.39,33.21-46.71,1.06-14.32-6.57-30.16-14.43-42.72-7.86-12.56-31.1-30.63-36.73-35.21s-18.42-20.42-31.45-24.64c-13.03-4.22-51.17-1.17-51.17-1.17l-1.53,2.58s45.3-2.58,52.11.12c6.81,2.7,21.36,19.95,28.75,25.23s29.93,24.53,36.5,34.15,15.49,32.39,14.9,41.54c-.59,9.15-1.29,32.16-30.28,43.66-23.82,2.58-31.22,1.06-42.72-11.03-5.99-14.79-.12-36.73-7.16-44.36-7.04-7.63-14.9-11.5-27.23-8.1-7.16,3.99-9.51,8.68-10.44,12.56-1.06,16.08,9.62,26.99,10.44,26.64h0Z"/>
  <path class="cls-8" d="m209.24,160.36c-1.53,9.39-4.93,17.25-9.98,23.47-5.52,6.81-13.61,12.09-24.06,15.73-8.21,2.82-17.02,4.22-25.82,4.22-7.28,0-14.55-.94-21.48-2.93-6.57-1.76-13.26-4.11-17.84-9.27-4.93-5.4-5.75-12.56-6.45-18.89-.12-1.29-.23-2.46-.47-3.64-.59-3.76-.7-7.63-.94-11.38-.12-1.29-.12-2.58-.23-3.99,0-.7-.12-1.29-.12-2-.12-3.64-.35-7.51-2.35-10.21-1.29-1.76-3.29-3.29-5.75-4.34-3.05-1.29-7.63-1.88-10.56.59-1.76,1.64-2.82,3.4-3.29,5.05h0c-2.58,3.4-2.93,8.57-1.88,13.61-1.88-2.93-2.93-6.1-3.29-9.39-.35-4.93,1.53-9.51,5.28-12.79s9.74-3.76,15.49-1.41c3.17,1.41,5.87,3.4,7.63,5.87,2.82,3.87,3.05,8.57,3.29,12.79,0,.59,0,1.29.12,1.88.12,1.29.12,2.7.23,3.99.23,3.64.35,7.39.94,11.03.23,1.29.35,2.58.47,3.76.7,5.87,1.41,11.97,5.28,16.2,3.99,4.34,10.21,6.34,15.73,7.86,14.67,3.99,30.51,3.52,44.59-1.29,9.62-3.29,16.9-8.1,21.95-14.32,4.46-5.52,7.51-12.79,8.92-21.24,3.05-18.19-.12-38.14-8.92-56.1-12.2-25-35.44-43.89-69.24-56.1-22.77-8.33-44.95-10.09-66.19-5.4l7.63-6.1h0c19.48-2.46,39.67-.12,60.2,7.39,34.5,12.56,59.38,32.86,71.82,58.56,9.15,18.78,12.56,39.67,9.27,58.79Z"/>
  <path class="cls-2" d="m97.28,90.77c-.23,3.99,5.63,7.75,5.63,7.75,0,0-12.91,7.63-11.62,11.38,1.17,3.87,15.49,3.4,15.49,3.4,0,0-1.41,10.56,1.17,10.68,10.09.23,39.67-27.34,35.68-38.96-2.46-2.93-8.68,4.22-18.89,4.93s-27.34-1.53-27.46.82Z"/>
  <path class="cls-4" d="m101.27,61.66l11.15-2.23c1.76-.35,3.17-1.64,3.52-3.4,1.64-7.04,2-24.88-15.73-21.12-15.37,3.17-10.44,20.19-4.34,24.76,1.64,1.17,3.29,2.35,5.4,2Z"/>
  <ellipse class="cls-7" cx="99.28" cy="48.76" rx="8.92" ry="12.56" transform="translate(-7.63 20.41) rotate(-11.31)"/>
  <ellipse class="cls-6" cx="106.55" cy="45.58" rx="6.34" ry="3.17" transform="translate(-6.86 21.76) rotate(-11.3)"/>
</svg>