<?xml version="1.0" encoding="UTF-8"?>
<svg id="Lizard" xmlns="http://www.w3.org/2000/svg" viewBox="0 0 177 177">
  <defs>
    <style>
      .cls-1, .cls-2 {
        fill: #fff;
      }

      .cls-3 {
        fill: #265b99;
      }

      .cls-4 {
        stroke-width: .95px;
      }

      .cls-4, .cls-2, .cls-5, .cls-6, .cls-7 {
        stroke: #1b1827;
        stroke-miterlimit: 10;
      }

      .cls-4, .cls-5, .cls-6, .cls-7 {
        fill: #333343;
      }

      .cls-2 {
        stroke-width: 1.09px;
      }

      .cls-5 {
        stroke-width: .97px;
      }

      .cls-6 {
        stroke-width: .94px;
      }

      .cls-8 {
        fill: #1b1827;
      }

      .cls-9 {
        fill: #ccad60;
      }
    </style>
  </defs>
  <path class="cls-4" d="m134.7,50.1c3.2-.2,6.3,4.8,6.3,4.8,0,0,6.2-10.9,9.4-9.9s2.8,13.2,2.8,13.2c0,0,8.6-1.1,8.7,1,.1,5.4-9.2,16.4-15.9,21.7s-16.1,9.7-19.7,8.4c-2.4-2.2,6.3-11.7,8-20.7s-1.5-18.4.4-18.5Z"/>
  <path class="cls-6" d="m84.7,16.1c2.4-2.1,7.9-.1,7.9-.1,0,0-2.1-12.4,1-13.5s10.4,8.6,10.4,8.6c0,0,5.9-6.2,7.3-4.6,3.4,4.1,3.2,18.5,1.3,26.7-1.8,8.2-6.4,17.5-9.9,18.7-3.2-.2-2.5-13-6.8-21.1s-12.6-13.4-11.2-14.7Z"/>
  <path class="cls-7" d="m137.7,162.6c-4,3.1-9.5,5.8-15.8,7.8-18.8,5.9-44.8,5.5-59.1-8.8-9.3-9.3-6.5-24.6-7-33.6-.6-9.5-4.3-12.4-7.5-12.8-4.8-.5-7.9,1-9.8,3.5h0c-2.2,2.9-2.5,7.3-1.6,11.6h0c.8,3.4,2.4,6.8,4.7,9.4-.7,1.5-10.8-5.4-11.8-17.7-1.1-12.3,7.2-16.5,10-17.5,7.8-3,17.5-1.5,23.4,5.2,11,12.5,2.4,26.1,10.1,36.3,6.9,9.1,21.8,9.5,34,3.2,1.5-.8,3-1.7,4.4-2.7,12.8-9,11.4-30.8,1-48.4-10.3-17.6-17.5-25.5-35.6-29.2s-52.6-7.2-62.5-24.6h0c1.5-4.2,3.8-8.2,7.1-11.7,1.9-1.9,4-3.7,6.5-5.2h0c7.1-4.3,16.8-6.7,29.7-5.5,25.4,2.4,45.1,11,61.6,23.9,7.8,6.1,21.8,15.4,28.7,34.4,6.9,19,16.8,60.9-10.5,82.4Z"/>
  <path class="cls-9" d="m15.1,44.2c.2-1.2,40.3,0,49.5,3.3,7.7,4.2,8.6,7.1,15.3,13.3,8.4,7.8,15.8,11.2,22.6,18.6s16.6,21.4,18.9,32,5.5,19.7-6.8,33.1c14.8-15.5,1.6-40.3-.4-45.7-3.2-4-14.1-25.3-31.1-28.9-11.3-1.9-38.1-7.6-47-10.8s-18.4-9.4-21-14.9h0Z"/>
  <path class="cls-9" d="m40.3,139.2c.7-.3-9-10.3-7.4-22.3,0-1.4,1.9-6.7,7.9-9.2s15.7-1.5,20.7,6.4.9,29.4,5.5,37.5,16.1,15.6,39.1,11c23-4.6,27.4-27.6,28.3-39.8s-5.6-25.7-12.3-36.4-26.5-26.1-31.3-30-15.7-17.4-26.8-21-43.6-1-43.6-1l-1.3,2.2s38.6-2.2,44.4.1c5.8,2.3,18.2,17,24.5,21.5s25.5,20.9,31.1,29.1,13.2,27.6,12.7,35.4c-.5,7.8-1.1,27.4-25.8,37.2-20.3,2.2-26.6.9-36.4-9.4-5.1-12.6-.1-31.3-6.1-37.8s-12.7-9.8-23.2-6.9c-6.1,3.4-8.1,7.4-8.9,10.7-.9,13.7,8.2,23,8.9,22.7h0Z"/>
  <path class="cls-9" d="m148.6,133.5c-1.3,8-4.2,14.7-8.5,20-4.7,5.8-11.6,10.3-20.5,13.4-7,2.4-14.5,3.6-22,3.6-6.2,0-12.4-.8-18.3-2.5-5.6-1.5-11.3-3.5-15.2-7.9-4.2-4.6-4.9-10.7-5.5-16.1-.1-1.1-.2-2.1-.4-3.1-.5-3.2-.6-6.5-.8-9.7-.1-1.1-.1-2.2-.2-3.4,0-.6-.1-1.1-.1-1.7-.1-3.1-.3-6.4-2-8.7-1.1-1.5-2.8-2.8-4.9-3.7-2.6-1.1-6.5-1.6-9,.5-1.5,1.4-2.4,2.9-2.8,4.3h0c-2.2,2.9-2.5,7.3-1.6,11.6-1.6-2.5-2.5-5.2-2.8-8-.3-4.2,1.3-8.1,4.5-10.9s8.3-3.2,13.2-1.2c2.7,1.2,5,2.9,6.5,5,2.4,3.3,2.6,7.3,2.8,10.9,0,.5,0,1.1.1,1.6.1,1.1.1,2.3.2,3.4.2,3.1.3,6.3.8,9.4.2,1.1.3,2.2.4,3.2.6,5,1.2,10.2,4.5,13.8,3.4,3.7,8.7,5.4,13.4,6.7,12.5,3.4,26,3,38-1.1,8.2-2.8,14.4-6.9,18.7-12.2,3.8-4.7,6.4-10.9,7.6-18.1,2.6-15.5-.1-32.5-7.6-47.8-10.4-21.3-30.2-37.4-59-47.8-19.4-7.1-38.3-8.6-56.4-4.6l6.5-5.2h0c16.6-2.1,33.8-.1,51.3,6.3,29.4,10.7,50.6,28,61.2,49.9,7.8,16,10.7,33.8,7.9,50.1Z"/>
  <path class="cls-3" d="m121.9,170.4c-18.8,5.9-44.8,5.5-59.1-8.8-9.3-9.3-6.5-24.6-7-33.6-.6-9.5-4.3-12.4-7.5-12.8-4.8-.5-7.9,1-9.8,3.5h0c-2.2,2.9-2.5,7.3-1.6,11.6h0c.8,3.4,2.4,6.8,4.7,9.4-.7,1.5-10.8-5.4-11.8-17.7-1.1-12.3,7.2-16.5,10-17.5,7.8-3,17.5-1.5,23.4,5.2,11,12.5,2.4,26.1,10.1,36.3,6.9,9.1,21.8,9.5,34,3.2.3.3.6.6.8,1,2.2,4.1-4.5,9.2-2.2,13.2.9,1.5,2.8,2.2,4.5,2.7,2.3.7,4.6,1.4,7,2,1.6.5,3.3,1.2,4.5,2.3Z"/>
  <path class="cls-5" d="m85.7,117.1c1.9,2.8,7.8,2.3,7.8,2.3,0,0-4.7,11.8-1.9,13.8,2.8,2,12.2-5.8,12.2-5.8,0,0,4.6,7.8,6.3,6.6,6.9-5.1,12.4-39.1,3.7-44.9-3.2-.7-3.7,7.4-10.2,13.1-6.4,5.7-19,13.3-17.9,14.9h0Z"/>
  <path class="cls-5" d="m53.2,74.2c-.2,3.4,4.8,6.6,4.8,6.6,0,0-11,6.5-9.9,9.7,1,3.3,13.2,2.9,13.2,2.9,0,0-1.2,9,1,9.1,8.6.2,33.8-23.3,30.4-33.2-2.1-2.5-7.4,3.6-16.1,4.2s-23.3-1.3-23.4.7Z"/>
  <path class="cls-2" d="m56.6,49.4l9.5-1.9c1.5-.3,2.7-1.4,3-2.9,1.4-6,1.7-21.2-13.4-18-13.1,2.7-8.9,17.2-3.7,21.1,1.4,1,2.8,2,4.6,1.7Z"/>
  <ellipse class="cls-8" cx="54.9" cy="38.4" rx="7.6" ry="10.7" transform="translate(-6.46 11.51) rotate(-11.31)"/>
  <ellipse class="cls-1" cx="61.1" cy="35.69" rx="5.4" ry="2.7" transform="translate(-5.81 12.66) rotate(-11.3)"/>
</svg>