<?xml version="1.0" encoding="UTF-8"?>
<svg id="Mouse" xmlns="http://www.w3.org/2000/svg" xmlns:xlink="http://www.w3.org/1999/xlink" viewBox="0 0 189 107">
  <defs>
    <style>
      .cls-1, .cls-2 {
        fill: #fff;
      }

      .cls-3 {
        stroke-width: 1.82px;
      }

      .cls-3, .cls-4, .cls-5, .cls-2, .cls-6 {
        stroke: #582c0e;
        stroke-miterlimit: 10;
      }

      .cls-3, .cls-7 {
        fill: #582c0e;
      }

      .cls-4 {
        fill: #f58f8a;
      }

      .cls-4, .cls-5, .cls-2, .cls-6 {
        stroke-width: 1.19px;
      }

      .cls-8 {
        fill: #e8e3cd;
      }

      .cls-9 {
        clip-path: url(#clippath-1);
      }

      .cls-10 {
        clip-path: url(#clippath);
      }

      .cls-11, .cls-6 {
        fill: none;
      }

      .cls-5 {
        fill: #854c20;
      }
    </style>
    <clipPath id="clippath">
      <path class="cls-11" d="m133.66,66.66c30.8-.4,62.46,28.35,60.37,54.41-.84,10.48-7.4,23.96-19.42,29.16-9.74,4.21-19.52,1.47-23.66.3-12.39-3.48-12.86-9.51-31.55-20.44-12.09-7.08-14.52-6.1-19.42-11.42-5.77-6.28-11.17-17.21-8.8-27.35,3.84-16.44,26.64-24.44,42.47-24.64h.01Z"/>
    </clipPath>
    <clipPath id="clippath-1">
      <path class="cls-11" d="m66.79,70.25c3.99-5.75.61-9.52,4.39-16.15,5.37-9.42,17.97-11.18,19.33-11.36,14.52-1.83,24.52,8.56,25.48,9.61,9.55,10.28,10.84,26.6,3.95,37.56-10.93,17.4-37.64,12.61-48.78,8.74-11.51-4.01-22.64-12.76-21.31-17.89,1.18-4.6,11.39-2.53,16.93-10.5h.01Z"/>
    </clipPath>
  </defs>
  <g>
    <g id="Tail">
      <path class="cls-4" d="m183.55,129.88c5.38-5.01,11.92-.15,21.68-3.83,7.19-2.7,14.01-9.26,15.94-16.58,2.17-8.23-2.57-12.54-9.25-28.06-4.21-9.8-9.56-25-6.69-41.45,1.18-6.77,3.52-20.17,14.67-25.5,7.97-3.81,19.42-3,26.46,4.15,10.06,10.22,4.82,27.05,3.83,27.1-.96.05,1.38-16.18-7.97-22.96-5.76-4.18-15.16-4.2-21.04,0-11.68,8.35-7.06,31.71-5.96,37.22,5.22,26.38,21.18,33.36,19.28,54.96-.76,8.71-3.89,13.59-5.36,15.58-5.5,7.49-13.51,9.72-21.04,12.12-4.06,1.28-22.87,7.27-27.42.32-2.24-3.43-.72-9.72,2.87-13.08h0Z"/>
    </g>
    <g id="Body">
      <path class="cls-5" d="m133.29,66.66c30.99-.41,62.84,28.58,60.74,54.86-.85,10.56-7.44,24.16-19.53,29.39-9.8,4.25-19.63,1.48-23.81.3-12.46-3.52-12.94-9.59-31.75-20.6-12.17-7.13-14.61-6.15-19.53-11.52-5.81-6.34-11.23-17.36-8.85-27.58,3.86-16.57,26.8-24.64,42.73-24.85h0Z"/>
      <g class="cls-10">
        <path class="cls-8" d="m92.81,82.75c7.84,3.13-.5,25.17,12.81,35.76,5.06,4.03,7.6,1.91,21.07,6.06,4.16,1.28,31.56,9.75,31.44,19.4-.09,7.55-17.03,12.74-18.01,13.03-23.96,7.12-46.26-8.91-49.75-11.52-7.68-5.71-24.58-18.26-22.89-35.76,1.56-16.15,18.31-29.77,25.33-26.97h0Z"/>
      </g>
    </g>
    <g id="Ear">
      <path class="cls-4" d="m118.18,45.7c2.38-2.88,7.33-8.87,7.65-17.21.46-12.09-8.95-24.87-19.91-26.24-.61-.07-9.19-1.02-13.56,4.55-3.2,4.09-2.38,9.44-1.91,12.44.82,5.3,2.79,6.93,7.97,15.94,6.97,12.14,7.63,16.58,11.16,16.9,3.1.27,5.72-2.88,8.61-6.38h-.01Z"/>
      <path class="cls-6" d="m108.33,49.93c1.47-3.1,4.65-10.94,3.37-21.12-1.06-8.31-5.68-14.97-9.27-20.48-1.53-2.34-2.93-4.21-3.91-5.46"/>
    </g>
    <g id="Head">
      <path class="cls-5" d="m65.59,69.97c4.21-6,.67-10.05,4.57-16.91,5.6-9.86,18.7-11.7,20.11-11.88,15.11-1.92,25.5,8.96,26.51,10.06,9.93,10.76,11.28,27.83,4.11,39.3-11.14,17.86-37.91,14.14-50.73,9.14-11.19-4.36-22.1-13.69-20.57-19.2,1.31-4.69,10.57-2.8,15.99-10.51Z"/>
      <g class="cls-9">
        <path class="cls-8" d="m64.67,59.05c7.25,4.69,2.03,16.58,10.08,22,8.75,5.9,19.21-5.27,32.55,0,7.97,3.14,15.88,11.73,14.67,18.34-2.46,13.35-43.44,25.05-71.97,9.62-2.77-1.5-24.93-13.47-22.92-29.34,2.04-16.12,27.86-26.92,37.59-20.63h0Z"/>
      </g>
      <path class="cls-4" d="m61.64,73.8c-.62-.24-2.42.74-5.97,2.69-5.1,2.8-5.63,3.55-5.86,4.35-.47,1.75.71,3.43,2.36,5.68,1.92,2.64,5.32,7.34,7.88,6.69,4.4-1.11,5.38-17.95,1.61-19.42h-.01Z"/>
    </g>
    <g id="Eye">
      <path class="cls-2" d="m81.32,77.34c.35.12.36.01,3.94-.61,4.31-.76,5.14-.75,7.85-1.36,2.57-.57,3.85-.86,4.31-1.16,5.37-3.47,3.53-22.8-5.33-26.33-3.73-1.48-7.24.76-7.54.96-9.52,6.29-7.9,26.9-3.23,28.49Z"/>
      <g id="Layer_9" data-name="Layer 9">
        <path class="cls-3" d="m82.58,69.22c3.73-1.81,4.76-7.95,3.4-12.29-.17-.55-1.13-3.63-2.56-3.65-1.38-.02-2.43,2.94-3.05,4.7-1.37,3.9-2.56,10.46-.3,11.59.87.44,1.94-.09,2.51-.35Z"/>
      </g>
    </g>
    <g id="Leg">
      <path class="cls-5" d="m147.51,123.5c6.21-16.69,31-24.36,43.68-14.67,6.67,5.09,9.21,14.4,8.29,22-1.61,13.25-13.56,19.69-17.85,22-4.47,2.42-13.25,7.15-21.68,3.83-12.2-4.81-16.68-21.76-12.44-33.16Z"/>
    </g>
  </g>
  <path class="cls-7" d="m77.51,65.56c0,7.52,2.23,13.05,6.72,11.54,4.15,0,7.52-5.3,7.52-12.82s-3.37-13.62-7.52-13.62-6.72,7.38-6.72,14.9Z"/>
  <ellipse class="cls-1" cx="91.11" cy="60.98" rx="6.75" ry="3.46"/>
</svg>