<?xml version="1.0" encoding="UTF-8"?>
<svg id="Mouse" xmlns="http://www.w3.org/2000/svg" xmlns:xlink="http://www.w3.org/1999/xlink" viewBox="0 0 176 176">
  <defs>
    <style>
      .cls-1, .cls-2 {
        fill: #fff;
      }

      .cls-3, .cls-4, .cls-5, .cls-2 {
        stroke-width: 1.01px;
      }

      .cls-3, .cls-4, .cls-5, .cls-2, .cls-6 {
        stroke: #582c0e;
        stroke-miterlimit: 10;
      }

      .cls-3, .cls-7 {
        fill: none;
      }

      .cls-4 {
        fill: #f58f8a;
      }

      .cls-5 {
        fill: #854c20;
      }

      .cls-8 {
        fill: #e8e3cd;
      }

      .cls-9 {
        clip-path: url(#clippath-1);
      }

      .cls-10, .cls-6 {
        fill: #582c0e;
      }

      .cls-11 {
        clip-path: url(#clippath);
      }

      .cls-6 {
        stroke-width: 1.55px;
      }
    </style>
    <clipPath id="clippath">
      <path class="cls-7" d="m73.39,71.51c26.21-.34,53.15,24.12,51.37,46.3-.71,8.92-6.3,20.39-16.53,24.81-8.28,3.59-16.61,1.25-20.13.25-10.54-2.96-10.95-8.09-26.85-17.4-10.29-6.03-12.36-5.19-16.53-9.72-4.91-5.35-9.5-14.65-7.49-23.27,3.27-13.99,22.67-20.8,36.14-20.97h.01Z"/>
    </clipPath>
    <clipPath id="clippath-1">
      <path class="cls-7" d="m16.48,74.57c3.39-4.89.52-8.1,3.73-13.75,4.57-8.02,15.3-9.51,16.45-9.66,12.36-1.56,20.87,7.29,21.68,8.18,8.13,8.75,9.23,22.64,3.36,31.96-9.3,14.81-32.03,10.73-41.51,7.44-9.79-3.42-19.26-10.86-18.14-15.22,1.01-3.91,9.7-2.15,14.41-8.93h.01Z"/>
    </clipPath>
  </defs>
  <g>
    <g id="Tail">
      <path class="cls-4" d="m115.84,125.31c4.58-4.26,10.14-.13,18.45-3.26,6.12-2.3,11.92-7.88,13.57-14.11,1.85-7-2.19-10.67-7.87-23.88-3.59-8.34-8.14-21.28-5.7-35.27,1.01-5.76,2.99-17.16,12.49-21.7,6.78-3.25,16.53-2.56,22.52,3.53,8.56,8.7,4.11,23.02,3.26,23.06-.82.04,1.18-13.77-6.78-19.54-4.9-3.55-12.9-3.57-17.91,0-9.94,7.11-6,26.99-5.07,31.67,4.44,22.45,18.02,28.39,16.41,46.77-.65,7.41-3.31,11.56-4.56,13.26-4.68,6.38-11.5,8.27-17.91,10.31-3.46,1.09-19.46,6.18-23.34.28-1.91-2.92-.62-8.27,2.44-11.13h0Z"/>
    </g>
    <g id="Body">
      <path class="cls-5" d="m73.07,71.51c26.37-.35,53.47,24.32,51.69,46.68-.72,8.98-6.33,20.56-16.62,25.01-8.34,3.62-16.71,1.26-20.26.25-10.61-2.99-11.01-8.16-27.02-17.53-10.35-6.07-12.43-5.23-16.62-9.8-4.94-5.4-9.56-14.78-7.53-23.47,3.29-14.1,22.81-20.97,36.36-21.15h0Z"/>
      <g class="cls-11">
        <path class="cls-8" d="m38.63,85.2c6.67,2.66-.42,21.42,10.9,30.43,4.31,3.43,6.47,1.62,17.93,5.16,3.54,1.09,26.86,8.3,26.75,16.51-.07,6.43-14.49,10.84-15.33,11.08-20.39,6.06-39.36-7.58-42.33-9.8-6.53-4.86-20.92-15.54-19.48-30.43,1.33-13.75,15.58-25.33,21.55-22.95h0Z"/>
      </g>
    </g>
    <g id="Ear">
      <path class="cls-4" d="m60.22,53.68c2.03-2.45,6.24-7.55,6.51-14.65.39-10.29-7.62-21.16-16.94-22.33-.52-.06-7.82-.87-11.54,3.87-2.73,3.48-2.03,8.03-1.62,10.59.7,4.51,2.38,5.9,6.78,13.57,5.93,10.33,6.49,14.11,9.49,14.38,2.64.23,4.87-2.45,7.33-5.43h-.01Z"/>
      <path class="cls-3" d="m51.84,57.28c1.25-2.64,3.96-9.31,2.86-17.97-.9-7.08-4.84-12.74-7.89-17.43-1.3-1.99-2.49-3.59-3.33-4.65"/>
    </g>
    <g id="Head">
      <path class="cls-5" d="m15.46,74.33c3.59-5.1.57-8.55,3.89-14.39,4.76-8.39,15.91-9.96,17.11-10.11,12.86-1.63,21.7,7.63,22.56,8.56,8.45,9.15,9.6,23.69,3.5,33.45-9.48,15.2-32.26,12.03-43.17,7.78-9.53-3.71-18.81-11.65-17.5-16.34,1.11-3.99,9-2.39,13.61-8.94Z"/>
      <g class="cls-9">
        <path class="cls-8" d="m14.68,65.04c6.17,3.99,1.73,14.11,8.58,18.72,7.45,5.02,16.35-4.49,27.7,0,6.78,2.67,13.51,9.98,12.49,15.6-2.09,11.36-36.97,21.32-61.25,8.19-2.35-1.27-21.22-11.47-19.51-24.97,1.74-13.72,23.71-22.91,31.99-17.56h0Z"/>
      </g>
      <path class="cls-4" d="m12.1,77.59c-.53-.2-2.06.63-5.08,2.29-4.34,2.39-4.79,3.02-4.99,3.7-.4,1.49.6,2.92,2,4.84,1.63,2.25,4.53,6.25,6.7,5.7,3.74-.94,4.58-15.27,1.37-16.53h-.01Z"/>
    </g>
    <g id="Eye">
      <path class="cls-2" d="m28.85,80.6c.3.11.31.01,3.35-.52,3.67-.65,4.37-.64,6.68-1.16,2.19-.49,3.28-.73,3.67-.99,4.57-2.95,3-19.4-4.54-22.4-3.17-1.26-6.16.65-6.42.82-8.1,5.36-6.73,22.89-2.75,24.25Z"/>
      <g id="Layer_9" data-name="Layer 9">
        <path class="cls-6" d="m29.92,73.7c3.17-1.54,4.05-6.77,2.9-10.46-.15-.47-.97-3.09-2.17-3.11-1.18-.02-2.07,2.5-2.6,4-1.17,3.32-2.17,8.9-.25,9.87.74.37,1.65-.07,2.13-.3Z"/>
      </g>
    </g>
    <g id="Hand">
      <path class="cls-4" d="m53.7,117.71c.97-2.31-1.77-5.79-4.22-7.48-3.88-2.66-9.47-2.5-13.31.27-3.17,2.29-5.8,6.83-4.43,9.11,1.06,1.77,4.6,1.45,11.67.82,6.35-.57,9.56-.89,10.31-2.72h-.01Z"/>
    </g>
    <g id="Leg">
      <path class="cls-5" d="m85.18,119.88c5.28-14.2,26.38-20.73,37.17-12.49,5.68,4.33,7.84,12.25,7.05,18.72-1.37,11.28-11.54,16.76-15.19,18.72-3.81,2.06-11.28,6.09-18.45,3.26-10.38-4.09-14.19-18.52-10.59-28.22Z"/>
      <path class="cls-4" d="m59.68,145.12c.64-.6,5.13-4.79,11.67-5.97,12.11-2.19,15.24,8.86,28.49,8.14,7.55-.41,12.39-4.32,17.36-1.08,1.35.88,3.67,2.91,3.26,4.61-.72,2.99-9.3,2.83-31.47,2.98-23.34.16-32.54.47-33.37-2.72-.43-1.67,1.62-3.64,4.07-5.97h-.01Z"/>
    </g>
  </g>
  <path class="cls-10" d="m25.6,70.58c0,6.4,1.9,11.11,5.72,9.82,3.53,0,6.4-4.51,6.4-10.91s-2.87-11.59-6.4-11.59-5.72,6.28-5.72,12.68Z"/>
  <ellipse class="cls-1" cx="37.18" cy="66.68" rx="5.75" ry="2.95"/>
</svg>