<?xml version="1.0" encoding="UTF-8"?>
<svg id="AnimalsOld" xmlns="http://www.w3.org/2000/svg" xmlns:xlink="http://www.w3.org/1999/xlink" viewBox="0 0 176 176">
  <defs>
    <style>
      .cls-1 {
        fill: #582c0e;
        stroke-width: 1.55px;
      }

      .cls-1, .cls-2, .cls-3, .cls-4, .cls-5 {
        stroke: #582c0e;
        stroke-miterlimit: 10;
      }

      .cls-6, .cls-2 {
        fill: #fff;
      }

      .cls-2, .cls-3, .cls-4, .cls-5 {
        stroke-width: 1.01px;
      }

      .cls-7 {
        fill: #e8e3cd;
      }

      .cls-3 {
        fill: #f58f8a;
      }

      .cls-8 {
        clip-path: url(#clippath-1);
      }

      .cls-4, .cls-9 {
        fill: none;
      }

      .cls-10 {
        clip-path: url(#clippath);
      }

      .cls-5 {
        fill: #854c20;
      }
    </style>
    <clipPath id="clippath">
      <path class="cls-9" d="m73.51,71.47c26.17-.34,53.08,24.09,51.3,46.24-.71,8.91-6.29,20.36-16.5,24.78-8.27,3.58-16.59,1.25-20.1.25-10.53-2.96-10.93-8.08-26.81-17.37-10.27-6.02-12.34-5.18-16.5-9.7-4.9-5.34-9.49-14.63-7.48-23.24,3.26-13.97,22.64-20.77,36.09-20.94h.01Z"/>
    </clipPath>
    <clipPath id="clippath-1">
      <path class="cls-9" d="m16.68,74.52c3.39-4.88.52-8.09,3.73-13.73,4.57-8.01,15.27-9.5,16.43-9.65,12.34-1.56,20.84,7.28,21.65,8.17,8.11,8.74,9.22,22.6,3.36,31.92-9.29,14.79-31.99,10.72-41.45,7.43-9.78-3.41-19.24-10.85-18.11-15.2,1.01-3.91,9.68-2.15,14.38-8.92h.01Z"/>
    </clipPath>
  </defs>
  <g id="Tail">
    <path class="cls-3" d="m115.9,125.19c4.58-4.26,10.13-.13,18.42-3.25,6.11-2.3,11.91-7.87,13.55-14.09,1.84-6.99-2.18-10.66-7.86-23.84-3.58-8.33-8.12-21.25-5.69-35.22,1.01-5.75,2.99-17.14,12.47-21.67,6.77-3.24,16.5-2.55,22.49,3.53,8.55,8.69,4.1,22.99,3.25,23.03-.82.04,1.18-13.75-6.77-19.51-4.89-3.55-12.88-3.57-17.88,0-9.93,7.1-6,26.95-5.06,31.63,4.44,22.41,18,28.35,16.39,46.7-.65,7.4-3.3,11.55-4.55,13.24-4.67,6.37-11.48,8.26-17.88,10.3-3.45,1.09-19.44,6.18-23.3.28-1.91-2.91-.61-8.26,2.44-11.11h0Z"/>
  </g>
  <g id="Body">
    <path class="cls-5" d="m73.2,71.47c26.33-.35,53.4,24.29,51.62,46.62-.72,8.97-6.32,20.53-16.6,24.98-8.33,3.61-16.68,1.26-20.23.25-10.59-2.99-11-8.15-26.98-17.51-10.34-6.06-12.41-5.22-16.6-9.79-4.94-5.39-9.54-14.76-7.52-23.44,3.28-14.08,22.77-20.94,36.31-21.12h0Z"/>
    <g class="cls-10">
      <path class="cls-7" d="m38.8,85.14c6.66,2.66-.42,21.39,10.89,30.39,4.3,3.42,6.46,1.62,17.9,5.15,3.54,1.09,26.82,8.28,26.71,16.48-.07,6.42-14.47,10.83-15.31,11.07-20.36,6.05-39.31-7.57-42.27-9.79-6.53-4.85-20.89-15.52-19.45-30.39,1.32-13.73,15.56-25.3,21.52-22.92h0Z"/>
    </g>
  </g>
  <g id="Ear">
    <path class="cls-3" d="m60.36,53.66c2.02-2.45,6.23-7.54,6.5-14.63.39-10.27-7.61-21.13-16.92-22.3-.52-.06-7.81-.87-11.52,3.87-2.72,3.47-2.02,8.02-1.62,10.57.7,4.5,2.37,5.89,6.77,13.55,5.92,10.32,6.48,14.09,9.48,14.36,2.64.23,4.86-2.45,7.32-5.42h-.01Z"/>
    <path class="cls-4" d="m51.99,57.25c1.25-2.64,3.95-9.3,2.86-17.94-.9-7.07-4.83-12.72-7.88-17.4-1.3-1.99-2.49-3.58-3.33-4.64"/>
  </g>
  <g id="Head">
    <path class="cls-5" d="m15.67,74.28c3.58-5.1.57-8.54,3.89-14.37,4.76-8.38,15.89-9.95,17.09-10.09,12.84-1.63,21.67,7.62,22.53,8.55,8.44,9.14,9.59,23.65,3.5,33.4-9.47,15.18-32.21,12.01-43.11,7.76-9.51-3.71-18.78-11.63-17.48-16.31,1.11-3.98,8.98-2.38,13.59-8.93Z"/>
    <g class="cls-8">
      <path class="cls-7" d="m14.88,65c6.16,3.98,1.73,14.09,8.57,18.7,7.44,5.01,16.32-4.48,27.66,0,6.77,2.67,13.49,9.97,12.47,15.58-2.09,11.34-36.92,21.29-61.16,8.18-2.35-1.27-21.19-11.45-19.48-24.93,1.74-13.7,23.67-22.88,31.95-17.53h0Z"/>
    </g>
    <path class="cls-3" d="m12.31,77.54c-.53-.2-2.05.62-5.07,2.29-4.33,2.38-4.79,3.02-4.98,3.7-.4,1.48.6,2.91,2,4.83,1.63,2.25,4.52,6.24,6.69,5.69,3.74-.94,4.58-15.25,1.37-16.5h-.01Z"/>
  </g>
  <g id="Eye">
    <path class="cls-2" d="m29.04,80.54c.3.11.31.01,3.35-.52,3.67-.65,4.36-.64,6.67-1.15,2.18-.49,3.27-.73,3.67-.99,4.57-2.94,3-19.37-4.53-22.37-3.17-1.26-6.15.65-6.41.82-8.09,5.35-6.72,22.86-2.74,24.21Z"/>
    <g id="Layer_9" data-name="Layer 9">
      <path class="cls-1" d="m30.1,73.65c3.17-1.54,4.05-6.76,2.89-10.44-.15-.47-.96-3.08-2.17-3.1-1.18-.02-2.07,2.5-2.6,3.99-1.17,3.32-2.17,8.89-.25,9.85.74.37,1.65-.07,2.13-.3Z"/>
      <path class="cls-6" d="m35.28,59.76c1.58,1.64.25,5.82-1.48,6.15-.84.17-1.68-.57-2.08-1.14-1.3-1.9.04-5.32,1.78-5.65.67-.13,1.37.2,1.78.64h0Z"/>
    </g>
  </g>
  <g id="Hand">
    <path class="cls-3" d="m53.85,117.6c.96-2.31-1.77-5.78-4.22-7.47-3.88-2.66-9.46-2.5-13.29.26-3.17,2.29-5.79,6.82-4.43,9.1,1.06,1.77,4.6,1.45,11.65.82,6.34-.57,9.54-.89,10.3-2.71h-.01Z"/>
  </g>
  <g id="Leg">
    <path class="cls-5" d="m85.28,119.77c5.28-14.18,26.34-20.7,37.12-12.47,5.67,4.32,7.83,12.23,7.04,18.7-1.37,11.26-11.52,16.74-15.17,18.7-3.8,2.05-11.26,6.08-18.42,3.25-10.37-4.09-14.17-18.49-10.57-28.18Z"/>
    <path class="cls-3" d="m59.82,144.97c.64-.6,5.13-4.79,11.65-5.96,12.1-2.18,15.22,8.84,28.45,8.12,7.54-.41,12.37-4.31,17.34-1.08,1.35.88,3.67,2.9,3.25,4.61-.72,2.99-9.29,2.83-31.43,2.98-23.3.16-32.5.47-33.32-2.71-.43-1.66,1.62-3.63,4.07-5.96h-.01Z"/>
  </g>
</svg>