<?xml version="1.0" encoding="UTF-8"?>
<svg id="Worm" xmlns="http://www.w3.org/2000/svg" viewBox="0 0 176 176">
  <defs>
    <style>
      .cls-1, .cls-2 {
        fill: #fff;
      }

      .cls-2, .cls-3 {
        stroke: #7b444d;
      }

      .cls-2, .cls-3, .cls-4 {
        stroke-miterlimit: 10;
        stroke-width: 1px;
      }

      .cls-5 {
        fill: #7b444d;
      }

      .cls-3 {
        fill: #f8af9c;
      }

      .cls-4 {
        fill: #e39477;
        stroke: #6c2d00;
      }
    </style>
  </defs>
  <path class="cls-3" d="m21.9,87.86c-1.49,13.47,7.64,26.8,20.03,32.3,12.39,5.5,24.05,6.04,36.26.17s18.54-8.55,26.77-19.31c3.12-4.08,10.23-8.83,15.28-7.92,5.91,1.07,11.61,7.37,15.08,11.16,8.66,9.42,14.24,12.03,24.91,9.14,10.67-2.9,17.34-15.86,13.49-26.22-1.79-4.81-8.61-4.53-13.59-3.29-4.98,1.23-11.74,1.71-13.73-3.02-5.56-13.19-19.65-22.29-33.96-21.93-14.31.36-27.93,10.14-32.83,23.6-3.58,9.83-18.83,12.53-25.57,4.53-7.82-9.29-24.61-8.43-32.13.81Z"/>
  <path class="cls-3" d="m58.89,90.62c-9.13,7.17-14.42,18.96-13.69,30.55"/>
  <path class="cls-3" d="m72.29,90.33c-2.18,9.83,1.01,21.48,7.77,28.94"/>
  <path class="cls-3" d="m87.14,70.46c1.51,11.67,8.89,23.2,19.32,28.65"/>
  <path class="cls-3" d="m119.95,59.53c5.06,10.29,4.85,23.54-.65,33.59"/>
  <path class="cls-3" d="m143.58,75.58c3.12,9.9.11,22.34-7.34,29.58"/>
  <path class="cls-4" d="m17.84,78.34c12.84-2.26,25.69-4.53,38.53-6.79,4.42-.78,8.17,4.52,7.07,8.87-1.1,4.35-5.5,7.2-9.92,7.98-4.42.79-8.94-.04-13.4-.6s-9.16-.8-13.25,1.04c-3.04,1.37-6.96.38-9-2.25s-2.51-7.81-.03-8.24Z"/>
  <path class="cls-3" d="m43.63,42.52c-11.85.84-23.42,5.32-32.74,12.69-3.72,2.94-7.19,6.49-8.69,10.98s-.54,10.07,3.29,12.87c2.46,1.8,5.7,2.21,8.74,1.99,8.53-.61,16.3-5.57,24.84-6.14,4.71-.31,9.54.72,14.11-.45,5.47-1.41,9.9-6.14,11.13-11.66s-.71-11.59-4.78-15.51-10.05-5.18-15.9-4.77Z"/>
  <path class="cls-2" d="m38.53,69.29l8.99-.67c1.41-.1,2.62-1.02,3.11-2.34,1.97-5.34,4-19.32-10.3-18.15-12.35,1-10.1,14.79-5.79,19.06,1.16,1.15,2.36,2.23,3.99,2.11Z"/>
  <ellipse class="cls-5" cx="38.26" cy="58.96" rx="7.07" ry="9.95" transform="translate(-4.26 3) rotate(-4.25)"/>
  <ellipse class="cls-1" cx="44.23" cy="57.14" rx="4.97" ry="2.49" transform="translate(-4.11 3.43) rotate(-4.25)"/>
</svg>