<?xml version="1.0" encoding="UTF-8"?>
<svg id="Worm" xmlns="http://www.w3.org/2000/svg" viewBox="0 0 189 107">
  <defs>
    <style>
      .cls-1, .cls-2 {
        fill: #fff;
      }

      .cls-3 {
        fill: #7b444d;
      }

      .cls-4 {
        fill: #e39477;
        stroke: #6c2d00;
      }

      .cls-4, .cls-2, .cls-5 {
        stroke-miterlimit: 10;
        stroke-width: 1.19px;
      }

      .cls-2, .cls-5 {
        stroke: #7b444d;
      }

      .cls-5 {
        fill: #f8af9c;
      }
    </style>
  </defs>
  <path class="cls-5" d="m71.13,61.68c-1.77,15.94,9.04,31.7,23.69,38.21s28.45,7.15,42.9.2,21.93-10.11,31.67-22.85c3.69-4.83,12.1-10.45,18.08-9.37,7,1.27,13.73,8.72,17.84,13.2,10.25,11.15,16.85,14.24,29.47,10.81,12.62-3.43,20.51-18.76,15.95-31.02-2.11-5.69-10.19-5.35-16.08-3.9-5.89,1.46-13.89,2.02-16.25-3.57-6.58-15.61-23.25-26.37-40.18-25.95-16.93.42-33.04,12-38.84,27.91-4.24,11.63-22.27,14.83-30.25,5.36-9.26-10.99-29.11-9.98-38.01.96Z"/>
  <path class="cls-5" d="m114.89,64.94c-10.8,8.48-17.06,22.43-16.2,36.14"/>
  <path class="cls-5" d="m130.74,64.59c-2.58,11.63,1.19,25.41,9.19,34.23"/>
  <path class="cls-5" d="m148.31,41.09c1.78,13.81,10.52,27.44,22.85,33.89"/>
  <path class="cls-5" d="m187.12,28.15c5.98,12.17,5.74,27.84-.77,39.74"/>
  <path class="cls-4" d="m66.33,50.41c15.19-2.68,30.39-5.36,45.58-8.04,5.23-.92,9.67,5.34,8.36,10.49-1.3,5.15-6.51,8.51-11.74,9.44-5.23.93-10.58-.05-15.85-.71s-10.83-.95-15.68,1.23c-3.6,1.62-8.23.45-10.65-2.67s-2.97-9.23-.03-9.75Z"/>
  <path class="cls-5" d="m96.84,8.03c-14.02,1-27.7,6.3-38.73,15.01-4.4,3.47-8.51,7.68-10.28,12.99s-.63,11.92,3.89,15.22c2.92,2.13,6.74,2.61,10.34,2.36,10.09-.72,19.29-6.59,29.39-7.26,5.57-.37,11.28.86,16.69-.54,6.47-1.67,11.71-7.26,13.17-13.79s-.84-13.71-5.65-18.35c-4.81-4.64-11.89-6.13-18.81-5.64Z"/>
  <path class="cls-2" d="m90.8,39.71l10.64-.79c1.66-.12,3.11-1.2,3.68-2.77,2.33-6.32,4.74-22.85-12.19-21.47-14.61,1.19-11.95,17.49-6.85,22.54,1.37,1.35,2.8,2.63,4.72,2.49Z"/>
  <ellipse class="cls-3" cx="90.48" cy="27.48" rx="8.36" ry="11.77" transform="translate(-1.79 6.78) rotate(-4.25)"/>
  <ellipse class="cls-1" cx="97.55" cy="25.33" rx="5.88" ry="2.94" transform="translate(-1.61 7.3) rotate(-4.25)"/>
</svg>