<?xml version="1.0" encoding="UTF-8"?>
<svg xmlns="http://www.w3.org/2000/svg" viewBox="0 0 175 175">
  <defs>
    <style>
      .cls-1 {
        fill: #8c6239;
      }

      .cls-2 {
        opacity: .34;
      }

      .cls-2, .cls-3 {
        fill: #7a5733;
      }

      .cls-2, .cls-4 {
        mix-blend-mode: multiply;
      }

      .cls-5 {
        fill: #fdd7c9;
      }

      .cls-6 {
        isolation: isolate;
      }

      .cls-7 {
        fill: #8191f2;
      }

      .cls-8 {
        fill: #a67c52;
      }

      .cls-9 {
        fill: #cf8638;
      }

      .cls-10 {
        fill: #242424;
      }

      .cls-11 {
        fill: #57745e;
      }

      .cls-4 {
        fill: #018a1a;
        opacity: .48;
      }

      .cls-12 {
        fill: #ffaa59;
      }
    </style>
  </defs>
  <g class="cls-6">
    <g id="Layer_27" data-name="Layer 27">
      <rect class="cls-7" x="0" width="175" height="175"/>
    </g>
    <g id="Layer_26" data-name="Layer 26">
      <g>
        <rect class="cls-5" x="26.57" y="7.96" width="121.87" height="25.21"/>
        <path class="cls-1" d="m146.43,9.96v21.21H28.57V9.96h117.87m4-4H24.57v29.21h125.87V5.96h0Z"/>
      </g>
    </g>
    <g id="beehive">
      <g id="Layer_7_copy_2" data-name="Layer 7 copy 2">
        <path class="cls-12" d="m110.6,114.25c1.28,6.84-6.43,18.15-17.97,20.3-11.54,2.16-22.55-5.65-23.83-12.5-1.28-6.84,7.04-14.14,18.59-16.29,11.54-2.16,21.94,1.65,23.21,8.49Z"/>
        <ellipse class="cls-9" cx="88.43" cy="109.98" rx="28.41" ry="15.24" transform="translate(-18.69 18.11) rotate(-10.58)"/>
        <ellipse class="cls-12" cx="86.46" cy="96.04" rx="35" ry="18.25" transform="translate(-11.52 11.79) rotate(-7.31)"/>
        <ellipse class="cls-9" cx="84.19" cy="84.45" rx="30.95" ry="17.22" transform="translate(-14.9 18.12) rotate(-11.29)"/>
        <ellipse class="cls-12" cx="80.11" cy="70.44" rx="19.54" ry="9.39" transform="translate(-14.57 21.29) rotate(-13.89)"/>
      </g>
      <g id="Layer_19" data-name="Layer 19">
        <ellipse cx="87.92" cy="110.04" rx="7.53" ry="12.04" transform="translate(-14.09 12.92) rotate(-7.78)"/>
      </g>
      <g id="Layer_19_copy" data-name="Layer 19 copy">
        <ellipse class="cls-10" cx="88.96" cy="109.56" rx="6.4" ry="11.37" transform="translate(-18.87 18.51) rotate(-10.75)"/>
      </g>
      <g id="Layer_23" data-name="Layer 23">
        <path class="cls-11" d="m69.06,32.65c4.38,3.13,9.79,10.5,7.49,13.72-2.3,3.22-13.3-1.33-17.68-4.46-4.38-3.13-9.64-13.61-8.76-14.98,1.09-1.67,14.57,2.58,18.95,5.71Z"/>
      </g>
      <g id="Layer_9_copy_2" data-name="Layer 9 copy 2">
        <g id="Layer_21_copy" data-name="Layer 21 copy">
          <path class="cls-2" d="m81.29,55.64c-.58.19-1.12.33-1.65.44-1.91.39-3.8.75-5.44.93-.41-1.02-.89-2.01-1.43-2.96,1.83-.58,4.17-1.15,6.62-1.58.25-.04.5-.09.73-.12.49,1.06.88,2.17,1.16,3.29Z"/>
        </g>
        <path class="cls-8" d="m80.91,65.68c-3.06,5.47-4.49-.21-5.01-3.12-.29-1.67-.75-3.3-1.37-4.88-.39-1.02-.86-2-1.38-2.95-.65-1.16-1.38-2.27-2.22-3.3-.69-.85-1.48-1.9-1.09-2.93.08-.23.22-.43.39-.61,1.21-1.39,3.4-1.58,5.08-.85,1.69.74,2.95,2.23,3.92,3.81.42.69.79,1.4,1.11,2.14.47,1.05.84,2.16,1.12,3.28.36,1.49.54,3.01.53,4.53,0,1.68-.26,3.41-1.08,4.87Z"/>
        <path class="cls-8" d="m93.95,45.63c-.1.42-.29.84-.6,1.27-1.78,2.55-7,5.47-10.08,6.67-5.81,2.25-12.29,3.04-18.48,2.24-2.99-.39-6-1.16-8.37-2.8-8.88-6.12,1.64-7.15,6.97-7.35,7.42-.27,16.63-1.47,22.13-6.28.8-.7,1.37-1.06,1.85-1.22,1-.33,1.56.29,2.71.86.38.2.7.46.98.76,1.77,1.87,3.42,3.79,2.9,5.85Z"/>
      </g>
      <g id="Layer_21" data-name="Layer 21">
        <path class="cls-3" d="m93.95,45.63s-.05.06-.08.08c-.55.47-2.46-.84-4.25-2.93-1.78-2.07-2.78-4.13-2.26-4.63,1-.33,1.56.29,2.71.86.38.2.7.46.98.76,1.77,1.87,3.42,3.79,2.9,5.85Z"/>
      </g>
      <path class="cls-4" d="m72.64,42.38c-1.97-3.06-5.27-5.73-8.95-7.94s-7.76-4.01-11.83-5.8c2.41.46,4.64,1.5,6.76,2.56,4.77,2.4,9.42,5.1,12.83,8.49,1.06,1.06,2.04,2.33,1.65,3.46-.37-.54-.74-1.09-.47-.77Z"/>
    </g>
    <g id="Layer_25" data-name="Layer 25">
      <g>
        <rect class="cls-5" x="7.84" y="121.14" width="159.32" height="46.45"/>
        <path class="cls-1" d="m165.16,123.14v42.45H9.84v-42.45h155.32m4-4H5.84v50.45h163.32v-50.45h0Z"/>
      </g>
    </g>
  </g>
</svg>