<?xml version="1.0" encoding="UTF-8"?><svg xmlns="http://www.w3.org/2000/svg" viewBox="0 0 1908.47 981.5"><defs><style>.cls-1{fill:#a5717a;}.cls-2{fill:#dfaa77;}.cls-3{fill:#6e4c54;}.cls-4{fill:#885561;}.cls-5{fill:#486e58;}.cls-6{fill:#79ad73;}.cls-7{fill:#4c9dbf;}.cls-8{stroke:#6e4c54;stroke-miterlimit:10;stroke-width:2px;}.cls-8,.cls-9{fill:none;}.cls-9{stroke:#3f76ba;stroke-linecap:round;stroke-linejoin:round;stroke-width:8px;}</style></defs><g id="pond"><polyline class="cls-2" points="556.91 950.42 520.47 894.5 615.47 849.5 719.85 849.5 819.61 793 1369.69 793 1451.47 839.5 1806.47 839.5 1908.47 913.5 1860.47 950.5 556.91 950.42"/><g><path class="cls-7" d="M1367.24,825.58l72.48,39.33c3.12,1.7,6.62,2.58,10.18,2.58h343.98c4.92,0,9.69,1.7,13.5,4.81l54.63,44.63c10.85,8.86,10.35,25.6-1,33.81l-36.92,26.7c-3.64,2.63-8.01,4.05-12.5,4.05H588.94c-7.16,0-13.84-3.59-17.79-9.56l-21.79-32.94c-7.6-11.48-2.49-27.05,10.44-31.8l59.71-21.93c2.29-.84,4.71-1.28,7.16-1.31l98.56-.91c3.77-.03,7.46-1.07,10.7-2.99l91.02-54.07c3.3-1.96,7.06-2.99,10.9-2.99h519.23c3.55,0,7.05,.89,10.18,2.58Z"/><path class="cls-9" d="M773.97,928.11c41,0,59.88-20.11,59.88-20.11,0,0,21.92,20.19,47.02,20.19s49.6-19.99,49.6-19.99c0,0,23.5,20.3,51,20.3s47-20.3,47-20.3c0,0,21.74,20.3,51,20.3"/><path class="cls-9" d="M1131.34,871.41c32.43,0,47.36-14.41,47.36-14.41,0,0,17.34,14.46,37.19,14.46s39.23-14.32,39.23-14.32c0,0,18.58,14.55,40.34,14.55s37.17-14.55,37.17-14.55c0,0,17.19,14.55,40.34,14.55"/><path class="cls-9" d="M1433.91,950.14c32.43,0,47.36-14.41,47.36-14.41,0,0,17.34,14.46,37.19,14.46s39.23-14.32,39.23-14.32c0,0,17.28,14.55,45.28,14.55"/></g></g><g id="stump"><g><path class="cls-3" d="M779.97,793H380.57c-2.69,0-5.37-.36-7.97-1.07l-82.36-22.49c-3.49-.95-7.1-1.44-10.72-1.44H13.47c-10.82,0-17.21-12.12-11.1-21.04l22.85-33.39c1.16-1.69,2.67-3.1,4.44-4.14l128.26-75.34c7.79-4.57,13.69-11.77,16.66-20.3l25.62-73.54c.5-1.44,1.56-2.61,2.94-3.25l39.3-18.28c1.02-.47,2.13-.73,3.25-.75l338.44-2.87c3.49-.06,6.62,2.14,7.75,5.44l45.55,130.2c3.56,10.41,11.13,18.96,21.03,23.75l102.47,49.61c5.22,2.53,9.42,6.76,11.92,11.99l18.53,38.86c4,8.38-2.11,18.06-11.39,18.06Z"/><path class="cls-1" d="M545.3,541H203.37c-1.95,0-2.72-2.51-1.12-3.61l31.4-18.64c4.13-2.45,8.85-3.75,13.66-3.75h336.75c1.26,0,1.81,1.6,.8,2.37l-24.01,18.36c-4.47,3.42-9.94,5.27-15.56,5.27Z"/><path class="cls-8" d="M251.86,520.07l-24.44,14.57c-.41,.24-.23,.87,.24,.87h295.27c.07,0,.15-.02,.22-.05l13.23-6.89c.07-.03,.14-.05,.22-.05h16.74c.09,0,.18-.03,.26-.08l11.13-7.57c.38-.26,.2-.85-.26-.85H252.1c-.08,0-.17,.02-.24,.07Z"/><path class="cls-8" d="M281.05,527.78l-17.85-.32c-.13,0-.25,.02-.37,.07l-5.68,3.39c-.27,.11-.2,.57,.09,.57h248.05s.06,0,.09-.02l14.71-5.85c.27-.11,.2-.57-.09-.57l-229.59-1.06s-.04,0-.06,0l-9.25,3.77s-.04,0-.06,0Z"/></g></g><g id="bush_1"><g><path class="cls-4" d="M1424.58,701h-83.14c-3.76,0-6.11-4.07-4.23-7.33l6.11-10.59c.43-.74,.65-1.59,.65-2.44v-142.75c0-2.7,2.19-4.89,4.89-4.89h68.22c2.7,0,4.89,2.19,4.89,4.89v142.45c0,.85,.22,1.68,.64,2.41l6.22,10.95c1.85,3.26-.5,7.3-4.25,7.3Z"/><path class="cls-6" d="M1571.62,553.39h-456.88c-15.81,0-28.63-12.82-28.63-28.63V84.55c0-43.93,35.62-79.55,79.55-79.55h355.03c43.93,0,79.55,35.62,79.55,79.55v440.21c0,15.81-12.82,28.63-28.63,28.63Z"/><path class="cls-6" d="M1554.89,137.68h122.85c42.73,0,77.42,34.69,77.42,77.42V509.34c0,24.31-19.74,44.05-44.05,44.05h-156.22c-42.73,0-77.42-34.69-77.42-77.42V215.1c0-42.73,34.69-77.42,77.42-77.42Z"/><path class="cls-6" d="M1005.28,227.79h111.8c44.32,0,80.31,35.98,80.31,80.31v196.01c0,27.2-22.08,49.29-49.29,49.29h-142.82c-44.32,0-80.31-35.98-80.31-80.31v-164.99c0-44.32,35.98-80.31,80.31-80.31Z"/><rect class="cls-6" x="1650.99" y="315.84" width="192.98" height="237.55" rx="60.57" ry="60.57"/><path class="cls-4" d="M1257.97,575.69v-208.7c0-11.12-8.64-20.58-19.75-20.98-11.66-.41-21.25,8.92-21.25,20.49v234h0c0,15.74,12.76,28.5,28.5,28.5h140.5v-41h-115.69c-6.8,0-12.31-5.51-12.31-12.31Z"/><path class="cls-4" d="M1505.73,399.01c-11.11,.4-19.75,9.86-19.75,20.98v201.11c0,6.57-5.33,11.9-11.9,11.9h-88.1v41h100.5c22.37,0,40.5-18.13,40.5-40.5h0v-214c0-11.57-9.59-20.9-21.25-20.49Z"/><path class="cls-4" d="M1385.1,475.5c-4.49,0-8.13-3.64-8.13-8.13v-44.87c0-11.32-9.18-20.5-20.5-20.5h0c-11.32,0-20.5,9.18-20.5,20.5v69.24c0,.05,0,.11,0,.16h0c0,13.58,11.01,24.6,24.6,24.6h143.9v-41h-119.37Z"/><path class="cls-4" d="M1174.97,392.14v-105.18c0-10.69-7.99-19.94-18.64-20.88-12.16-1.07-22.36,8.48-22.36,20.42v130.5h0c0,15.74,12.76,28.49,28.49,28.49h64.51v-41h-39.65c-6.82,0-12.35-5.53-12.35-12.35Z"/><path class="cls-4" d="M1298.73,284.01c-11.11,.4-19.75,9.86-19.75,20.98v56.48c0,3.05-2.47,5.52-5.52,5.52h-46.48v41h71.5c11.87,0,21.5-9.63,21.5-21.5h0v-82c0-11.57-9.59-20.9-21.25-20.49Z"/><path class="cls-4" d="M1585.73,316.01c-11.11,.4-19.75,9.86-19.75,20.98v100.75c0,5.2-4.22,9.42-9.42,9.42h-47.58v41h77.34c11.41,0,20.66-9.25,20.66-20.66h0v-131c0-11.57-9.59-20.9-21.25-20.49Z"/><path class="cls-4" d="M1552.97,328.61v-37.58c0-11.14-8.66-20.65-19.8-21.03s-21.2,8.93-21.2,20.49v57h0c0,16.29,13.21,29.5,29.5,29.5h51.45s.05-.02,.05-.05v-40.9s-.02-.05-.05-.05h-32.57c-4.08,0-7.39-3.31-7.39-7.39Z"/></g></g><g id="bush_2"><g><rect class="cls-5" x="318.97" y="56" width="269" height="328" rx="55.54" ry="55.54"/><rect class="cls-5" x="77.97" y="220" width="206" height="164" rx="42.02" ry="42.02"/><rect class="cls-5" x="293.97" width="185" height="185" rx="48.01" ry="48.01"/><path class="cls-5" d="M576.65,139h42.65c25.21,0,45.68,20.47,45.68,45.68v189.92c0,5.19-4.21,9.4-9.4,9.4h-115.2c-5.19,0-9.4-4.21-9.4-9.4V184.68c0-25.21,20.47-45.68,45.68-45.68Z"/><rect class="cls-5" x="617.97" y="265" width="119" height="119" rx="43.23" ry="43.23"/><rect class="cls-5" x="184.97" y="93" width="234" height="291" rx="57.7" ry="57.7"/><rect class="cls-5" x="193.97" y="242" width="361" height="185" rx="48.01" ry="48.01"/></g></g></svg>