<?xml version="1.0" encoding="UTF-8"?>
<svg id="Layer_1" data-name="Layer 1" xmlns="http://www.w3.org/2000/svg" viewBox="0 0 210 175">
  <defs>
    <style>
      .cls-1, .cls-2, .cls-3 {
        fill: #fff;
      }

      .cls-4 {
        letter-spacing: 0em;
      }

      .cls-5 {
        letter-spacing: 0em;
      }

      .cls-6 {
        letter-spacing: 0em;
      }

      .cls-7 {
        fill: #faa95c;
      }

      .cls-8 {
        fill: #231f20;
        font-size: 8.8px;
      }

      .cls-8, .cls-2, .cls-3 {
        font-family: MyriadPro-Regular, 'Myriad Pro';
      }

      .cls-9 {
        opacity: .34;
      }

      .cls-9, .cls-10 {
        isolation: isolate;
      }

      .cls-9, .cls-11 {
        fill: #7a5834;
      }

      .cls-12 {
        fill: #ebaf98;
      }

      .cls-13 {
        letter-spacing: 0em;
      }

      .cls-10 {
        fill: #128b44;
        opacity: .48;
      }

      .cls-14 {
        fill: #603913;
      }

      .cls-15 {
        fill: #a77d52;
      }

      .cls-16 {
        fill: #242424;
      }

      .cls-17 {
        letter-spacing: 0em;
      }

      .cls-2 {
        glyph-orientation-vertical: 0deg;
        text-orientation: upright;
        writing-mode: tb;
      }

      .cls-2, .cls-3 {
        font-size: 12px;
      }

      .cls-18 {
        fill: #58755f;
      }

      .cls-19 {
        fill: #cf8635;
      }

      .cls-20 {
        fill: #fdd8c9;
      }

      .cls-21 {
        letter-spacing: .01em;
      }

      .cls-22 {
        fill: #010101;
      }
    </style>
  </defs>
  <g id="Layer_27" data-name="Layer 27">
    <g>
      <rect class="cls-20" x="3" y="3.05" width="204" height="168.95"/>
      <path class="cls-14" d="m204,6.05v162.95H6V6.05h198M210,.05H0v174.95h210V.05h0Z"/>
    </g>
  </g>
  <g>
    <g id="beehive">
      <g id="Layer_7_copy_2" data-name="Layer 7 copy 2">
        <path class="cls-7" d="m194.95,148.47c1.55,8.29-7.79,21.99-21.77,24.6-13.98,2.62-27.32-6.85-28.87-15.15-1.55-8.29,8.53-17.13,22.52-19.74,13.98-2.62,26.58,2,28.12,10.29Z"/>
        <ellipse class="cls-19" cx="168.09" cy="143.3" rx="34.42" ry="18.47" transform="translate(-23.45 33.3) rotate(-10.58)"/>
        <ellipse class="cls-7" cx="165.7" cy="126.41" rx="42.41" ry="22.11" transform="translate(-14.74 22.11) rotate(-7.31)"/>
        <ellipse class="cls-19" cx="162.96" cy="112.36" rx="37.5" ry="20.86" transform="translate(-18.84 34.08) rotate(-11.29)"/>
        <ellipse class="cls-7" cx="158.01" cy="95.38" rx="23.68" ry="11.38" transform="translate(-18.28 40.72) rotate(-13.89)"/>
      </g>
      <g id="Layer_19" data-name="Layer 19">
        <ellipse class="cls-22" cx="167.47" cy="143.37" rx="9.12" ry="14.59" transform="translate(-17.87 23.99) rotate(-7.78)"/>
      </g>
      <g id="Layer_19_copy" data-name="Layer 19 copy">
        <ellipse class="cls-16" cx="168.74" cy="142.78" rx="7.75" ry="13.78" transform="translate(-23.67 33.98) rotate(-10.75)"/>
      </g>
      <g id="Layer_23" data-name="Layer 23">
        <path class="cls-18" d="m144.62,49.59c5.31,3.79,11.86,12.72,9.08,16.62s-16.11-1.61-21.42-5.4c-5.31-3.79-11.68-16.49-10.61-18.15,1.32-2.02,17.65,3.13,22.96,6.92h0Z"/>
      </g>
      <g id="Layer_9_copy_2" data-name="Layer 9 copy 2">
        <g id="Layer_21_copy" data-name="Layer 21 copy">
          <path class="cls-9" d="m159.44,77.45c-.7.23-1.36.4-2,.53-2.31.47-4.6.91-6.59,1.13-.5-1.24-1.08-2.44-1.73-3.59,2.22-.7,5.05-1.39,8.02-1.91.3-.05.61-.11.88-.15.59,1.28,1.07,2.63,1.41,3.99h.01Z"/>
        </g>
        <path class="cls-15" d="m158.98,89.62c-3.71,6.63-5.44-.25-6.07-3.78-.35-2.02-.91-4-1.66-5.91-.47-1.24-1.04-2.42-1.67-3.57-.79-1.41-1.67-2.75-2.69-4-.84-1.03-1.79-2.3-1.32-3.55.1-.28.27-.52.47-.74,1.47-1.68,4.12-1.91,6.16-1.03,2.05.9,3.57,2.7,4.75,4.62.51.84.96,1.7,1.34,2.59.57,1.27,1.02,2.62,1.36,3.97.44,1.81.65,3.65.64,5.49,0,2.04-.32,4.13-1.31,5.9h0Z"/>
        <path class="cls-15" d="m174.78,65.32c-.12.51-.35,1.02-.73,1.54-2.16,3.09-8.48,6.63-12.21,8.08-7.04,2.73-14.89,3.68-22.39,2.71-3.62-.47-7.27-1.41-10.14-3.39-10.76-7.42,1.99-8.66,8.45-8.91,8.99-.33,20.15-1.78,26.81-7.61.97-.85,1.66-1.28,2.24-1.48,1.21-.4,1.89.35,3.28,1.04.46.24.85.56,1.19.92,2.14,2.27,4.14,4.59,3.51,7.09h-.01Z"/>
      </g>
      <g id="Layer_21" data-name="Layer 21">
        <path class="cls-11" d="m174.78,65.32s-.06.07-.1.1c-.67.57-2.98-1.02-5.15-3.55-2.16-2.51-3.37-5-2.74-5.61,1.21-.4,1.89.35,3.28,1.04.46.24.85.56,1.19.92,2.14,2.27,4.14,4.59,3.51,7.09h0Z"/>
      </g>
      <path class="cls-10" d="m148.96,61.38c-2.39-3.71-6.39-6.94-10.84-9.62s-9.4-4.86-14.33-7.03c2.92.56,5.62,1.82,8.19,3.1,5.78,2.91,11.41,6.18,15.55,10.29,1.28,1.28,2.47,2.82,2,4.19-.45-.65-.9-1.32-.57-.93h.01Z"/>
    </g>
    <g>
      <g id="beehive-2" data-name="beehive">
        <g id="Layer_7_copy_2-2" data-name="Layer 7 copy 2">
          <path class="cls-7" d="m65.05,127.19c.37,1.98-1.86,5.24-5.19,5.87-3.33.62-6.52-1.63-6.89-3.61-.37-1.98,2.03-4.09,5.37-4.71,3.33-.62,6.34.48,6.71,2.45Z"/>
          <ellipse class="cls-19" cx="58.65" cy="125.96" rx="8.21" ry="4.4" transform="translate(-22.13 12.91) rotate(-10.58)"/>
          <ellipse class="cls-7" cx="58.08" cy="121.93" rx="10.11" ry="5.27" transform="translate(-15.04 8.38) rotate(-7.31)"/>
          <ellipse class="cls-19" cx="57.42" cy="118.58" rx="8.94" ry="4.98" transform="translate(-22.1 13.54) rotate(-11.29)"/>
          <ellipse class="cls-7" cx="56.24" cy="114.53" rx="5.65" ry="2.71" transform="translate(-25.85 16.85) rotate(-13.89)"/>
        </g>
        <g id="Layer_19-2" data-name="Layer 19">
          <ellipse class="cls-22" cx="58.5" cy="125.98" rx="2.18" ry="3.48" transform="translate(-16.51 9.08) rotate(-7.78)"/>
        </g>
        <g id="Layer_19_copy-2" data-name="Layer 19 copy">
          <ellipse class="cls-16" cx="58.8" cy="125.83" rx="1.85" ry="3.29" transform="translate(-22.44 13.18) rotate(-10.75)"/>
        </g>
        <g id="Layer_23-2" data-name="Layer 23">
          <path class="cls-18" d="m53.05,103.61c1.27.9,2.83,3.03,2.16,3.96s-3.84-.38-5.11-1.29c-1.27-.9-2.79-3.93-2.53-4.33.31-.48,4.21.75,5.48,1.65h0Z"/>
        </g>
        <g id="Layer_9_copy_2-2" data-name="Layer 9 copy 2">
          <g id="Layer_21_copy-2" data-name="Layer 21 copy">
            <path class="cls-9" d="m56.58,110.26c-.17.05-.32.1-.48.13-.55.11-1.1.22-1.57.27-.12-.29-.26-.58-.41-.86.53-.17,1.2-.33,1.91-.46.07-.01.14-.03.21-.03.14.31.25.63.34.95h0Z"/>
          </g>
          <path class="cls-15" d="m56.48,113.16c-.88,1.58-1.3-.06-1.45-.9-.08-.48-.22-.95-.4-1.41-.11-.29-.25-.58-.4-.85-.19-.34-.4-.66-.64-.95-.2-.25-.43-.55-.31-.85.02-.07.06-.12.11-.18.35-.4.98-.46,1.47-.25.49.21.85.64,1.13,1.1.12.2.23.4.32.62.14.3.24.62.32.95.1.43.16.87.15,1.31,0,.49-.08.99-.31,1.41h0Z"/>
          <path class="cls-15" d="m60.24,107.37c-.03.12-.08.24-.17.37-.51.74-2.02,1.58-2.91,1.93-1.68.65-3.55.88-5.34.65-.86-.11-1.73-.34-2.42-.81-2.57-1.77.47-2.07,2.01-2.12,2.14-.08,4.8-.42,6.39-1.81.23-.2.4-.31.53-.35.29-.1.45.08.78.25.11.06.2.13.28.22.51.54.99,1.1.84,1.69h0Z"/>
        </g>
        <g id="Layer_21-2" data-name="Layer 21">
          <path class="cls-11" d="m60.24,107.37s-.01.02-.02.02c-.16.14-.71-.24-1.23-.85-.51-.6-.8-1.19-.65-1.34.29-.1.45.08.78.25.11.06.2.13.28.22.51.54.99,1.1.84,1.69h0Z"/>
        </g>
        <path class="cls-10" d="m54.09,106.43c-.57-.88-1.52-1.66-2.59-2.29s-2.24-1.16-3.42-1.68c.7.13,1.34.43,1.95.74,1.38.69,2.72,1.47,3.71,2.45.31.31.59.67.48,1-.11-.16-.21-.31-.14-.22h0Z"/>
      </g>
      <g id="beehive-3" data-name="beehive">
        <g id="Layer_7_copy_2-3" data-name="Layer 7 copy 2">
          <path class="cls-7" d="m88.3,127.19c.37,1.98-1.86,5.24-5.19,5.87-3.33.62-6.52-1.63-6.89-3.61-.37-1.98,2.03-4.09,5.37-4.71,3.33-.62,6.34.48,6.71,2.45Z"/>
          <ellipse class="cls-19" cx="81.89" cy="125.96" rx="8.21" ry="4.4" transform="translate(-21.73 17.18) rotate(-10.58)"/>
          <ellipse class="cls-7" cx="81.32" cy="121.93" rx="10.11" ry="5.27" transform="translate(-14.85 11.34) rotate(-7.31)"/>
          <ellipse class="cls-19" cx="80.67" cy="118.58" rx="8.94" ry="4.98" transform="translate(-21.65 18.09) rotate(-11.29)"/>
          <ellipse class="cls-7" cx="79.49" cy="114.53" rx="5.65" ry="2.71" transform="translate(-25.17 22.43) rotate(-13.89)"/>
        </g>
        <g id="Layer_19-3" data-name="Layer 19">
          <ellipse class="cls-22" cx="81.74" cy="125.98" rx="2.18" ry="3.48" transform="translate(-16.3 12.23) rotate(-7.78)"/>
        </g>
        <g id="Layer_19_copy-3" data-name="Layer 19 copy">
          <ellipse class="cls-16" cx="82.05" cy="125.83" rx="1.85" ry="3.29" transform="translate(-22.03 17.51) rotate(-10.75)"/>
        </g>
        <g id="Layer_23-3" data-name="Layer 23">
          <path class="cls-18" d="m76.3,103.61c1.27.9,2.83,3.03,2.16,3.96s-3.84-.38-5.11-1.29c-1.27-.9-2.79-3.93-2.53-4.33.31-.48,4.21.75,5.48,1.65h0Z"/>
        </g>
        <g id="Layer_9_copy_2-3" data-name="Layer 9 copy 2">
          <g id="Layer_21_copy-3" data-name="Layer 21 copy">
            <path class="cls-9" d="m79.83,110.26c-.17.05-.32.1-.48.13-.55.11-1.1.22-1.57.27-.12-.29-.26-.58-.41-.86.53-.17,1.2-.33,1.91-.46.07-.01.14-.03.21-.03.14.31.25.63.34.95h0Z"/>
          </g>
          <path class="cls-15" d="m79.72,113.16c-.88,1.58-1.3-.06-1.45-.9-.08-.48-.22-.95-.4-1.41-.11-.29-.25-.58-.4-.85-.19-.34-.4-.66-.64-.95-.2-.25-.43-.55-.31-.85.02-.07.06-.12.11-.18.35-.4.98-.46,1.47-.25.49.21.85.64,1.13,1.1.12.2.23.4.32.62.14.3.24.62.32.95.1.43.16.87.15,1.31,0,.49-.08.99-.31,1.41h0Z"/>
          <path class="cls-15" d="m83.49,107.37c-.03.12-.08.24-.17.37-.51.74-2.02,1.58-2.91,1.93-1.68.65-3.55.88-5.34.65-.86-.11-1.73-.34-2.42-.81-2.57-1.77.47-2.07,2.01-2.12,2.14-.08,4.8-.42,6.39-1.81.23-.2.4-.31.53-.35.29-.1.45.08.78.25.11.06.2.13.28.22.51.54.99,1.1.84,1.69h0Z"/>
        </g>
        <g id="Layer_21-3" data-name="Layer 21">
          <path class="cls-11" d="m83.49,107.37s-.01.02-.02.02c-.16.14-.71-.24-1.23-.85-.51-.6-.8-1.19-.65-1.34.29-.1.45.08.78.25.11.06.2.13.28.22.51.54.99,1.1.84,1.69h0Z"/>
        </g>
        <path class="cls-10" d="m77.33,106.43c-.57-.88-1.52-1.66-2.59-2.29s-2.24-1.16-3.42-1.68c.7.13,1.34.43,1.95.74,1.38.69,2.72,1.47,3.71,2.45.31.31.59.67.48,1-.11-.16-.21-.31-.14-.22h0Z"/>
      </g>
      <g id="beehive-4" data-name="beehive">
        <g id="Layer_7_copy_2-4" data-name="Layer 7 copy 2">
          <path class="cls-7" d="m112.27,127.19c.37,1.98-1.86,5.24-5.19,5.87-3.33.62-6.52-1.63-6.89-3.61-.37-1.98,2.03-4.09,5.37-4.71,3.33-.62,6.34.48,6.71,2.45Z"/>
          <ellipse class="cls-19" cx="105.86" cy="125.96" rx="8.21" ry="4.4" transform="translate(-21.33 21.58) rotate(-10.58)"/>
          <ellipse class="cls-7" cx="105.29" cy="121.93" rx="10.11" ry="5.27" transform="translate(-14.66 14.39) rotate(-7.31)"/>
          <ellipse class="cls-19" cx="104.64" cy="118.58" rx="8.94" ry="4.98" transform="translate(-21.19 22.78) rotate(-11.29)"/>
          <ellipse class="cls-7" cx="103.46" cy="114.53" rx="5.65" ry="2.71" transform="translate(-24.47 28.19) rotate(-13.89)"/>
        </g>
        <g id="Layer_19-4" data-name="Layer 19">
          <ellipse class="cls-22" cx="105.72" cy="125.98" rx="2.18" ry="3.48" transform="translate(-16.08 15.47) rotate(-7.78)"/>
        </g>
        <g id="Layer_19_copy-4" data-name="Layer 19 copy">
          <ellipse class="cls-16" cx="106.02" cy="125.83" rx="1.85" ry="3.29" transform="translate(-21.61 21.98) rotate(-10.75)"/>
        </g>
        <g id="Layer_23-4" data-name="Layer 23">
          <path class="cls-18" d="m100.27,103.61c1.27.9,2.83,3.03,2.16,3.96s-3.84-.38-5.11-1.29c-1.27-.9-2.79-3.93-2.53-4.33.31-.48,4.21.75,5.48,1.65h0Z"/>
        </g>
        <g id="Layer_9_copy_2-4" data-name="Layer 9 copy 2">
          <g id="Layer_21_copy-4" data-name="Layer 21 copy">
            <path class="cls-9" d="m103.8,110.26c-.17.05-.32.1-.48.13-.55.11-1.1.22-1.57.27-.12-.29-.26-.58-.41-.86.53-.17,1.2-.33,1.91-.46.07-.01.14-.03.21-.03.14.31.25.63.34.95h0Z"/>
          </g>
          <path class="cls-15" d="m103.69,113.16c-.88,1.58-1.3-.06-1.45-.9-.08-.48-.22-.95-.4-1.41-.11-.29-.25-.58-.4-.85-.19-.34-.4-.66-.64-.95-.2-.25-.43-.55-.31-.85.02-.07.06-.12.11-.18.35-.4.98-.46,1.47-.25.49.21.85.64,1.13,1.1.12.2.23.4.32.62.14.3.24.62.32.95.1.43.16.87.15,1.31,0,.49-.08.99-.31,1.41h0Z"/>
          <path class="cls-15" d="m107.46,107.37c-.03.12-.08.24-.17.37-.51.74-2.02,1.58-2.91,1.93-1.68.65-3.55.88-5.34.65-.86-.11-1.73-.34-2.42-.81-2.57-1.77.47-2.07,2.01-2.12,2.14-.08,4.8-.42,6.39-1.81.23-.2.4-.31.53-.35.29-.1.45.08.78.25.11.06.2.13.28.22.51.54.99,1.1.84,1.69h0Z"/>
        </g>
        <g id="Layer_21-4" data-name="Layer 21">
          <path class="cls-11" d="m107.46,107.37s-.01.02-.02.02c-.16.14-.71-.24-1.23-.85-.51-.6-.8-1.19-.65-1.34.29-.1.45.08.78.25.11.06.2.13.28.22.51.54.99,1.1.84,1.69h0Z"/>
        </g>
        <path class="cls-10" d="m101.3,106.43c-.57-.88-1.52-1.66-2.59-2.29s-2.24-1.16-3.42-1.68c.7.13,1.34.43,1.95.74,1.38.69,2.72,1.47,3.71,2.45.31.31.59.67.48,1-.11-.16-.21-.31-.14-.22h0Z"/>
      </g>
      <g id="beehive-5" data-name="beehive">
        <g id="Layer_7_copy_2-5" data-name="Layer 7 copy 2">
          <path class="cls-7" d="m42.89,159.39c.37,1.98-1.86,5.24-5.19,5.87-3.33.62-6.52-1.63-6.89-3.61-.37-1.98,2.03-4.09,5.37-4.71,3.33-.62,6.34.48,6.71,2.45Z"/>
          <ellipse class="cls-19" cx="36.48" cy="158.16" rx="8.21" ry="4.4" transform="translate(-28.42 9.39) rotate(-10.58)"/>
          <ellipse class="cls-7" cx="35.91" cy="154.13" rx="10.11" ry="5.27" transform="translate(-19.32 5.82) rotate(-7.31)"/>
          <ellipse class="cls-19" cx="35.26" cy="150.78" rx="8.94" ry="4.98" transform="translate(-28.84 9.82) rotate(-11.29)"/>
          <ellipse class="cls-7" cx="34.08" cy="146.73" rx="5.65" ry="2.71" transform="translate(-34.23 12.47) rotate(-13.89)"/>
        </g>
        <g id="Layer_19-5" data-name="Layer 19">
          <ellipse class="cls-22" cx="36.34" cy="158.18" rx="2.18" ry="3.48" transform="translate(-21.08 6.37) rotate(-7.78)"/>
        </g>
        <g id="Layer_19_copy-5" data-name="Layer 19 copy">
          <ellipse class="cls-16" cx="36.64" cy="158.03" rx="1.85" ry="3.29" transform="translate(-28.83 9.61) rotate(-10.75)"/>
        </g>
        <g id="Layer_23-5" data-name="Layer 23">
          <path class="cls-18" d="m30.89,135.81c1.27.9,2.83,3.03,2.16,3.96s-3.84-.38-5.11-1.29c-1.27-.9-2.79-3.93-2.53-4.33.31-.48,4.21.75,5.48,1.65h0Z"/>
        </g>
        <g id="Layer_9_copy_2-5" data-name="Layer 9 copy 2">
          <g id="Layer_21_copy-5" data-name="Layer 21 copy">
            <path class="cls-9" d="m34.42,142.46c-.17.05-.32.1-.48.13-.55.11-1.1.22-1.57.27-.12-.29-.26-.58-.41-.86.53-.17,1.2-.33,1.91-.46.07-.01.14-.03.21-.03.14.31.25.63.34.95h0Z"/>
          </g>
          <path class="cls-15" d="m34.31,145.36c-.88,1.58-1.3-.06-1.45-.9-.08-.48-.22-.95-.4-1.41-.11-.29-.25-.58-.4-.85-.19-.34-.4-.66-.64-.95-.2-.25-.43-.55-.31-.85.02-.07.06-.12.11-.18.35-.4.98-.46,1.47-.25.49.21.85.64,1.13,1.1.12.2.23.4.32.62.14.3.24.62.32.95.1.43.16.87.15,1.31,0,.49-.08.99-.31,1.41h0Z"/>
          <path class="cls-15" d="m38.08,139.56c-.03.12-.08.24-.17.37-.51.74-2.02,1.58-2.91,1.93-1.68.65-3.55.88-5.34.65-.86-.11-1.73-.34-2.42-.81-2.57-1.77.47-2.07,2.01-2.12,2.14-.08,4.8-.42,6.39-1.81.23-.2.4-.31.53-.35.29-.1.45.08.78.25.11.06.2.13.28.22.51.54.99,1.1.84,1.69h0Z"/>
        </g>
        <g id="Layer_21-5" data-name="Layer 21">
          <path class="cls-11" d="m38.08,139.56s-.01.02-.02.02c-.16.14-.71-.24-1.23-.85-.51-.6-.8-1.19-.65-1.34.29-.1.45.08.78.25.11.06.2.13.28.22.51.54.99,1.1.84,1.69h0Z"/>
        </g>
        <path class="cls-10" d="m31.92,138.63c-.57-.88-1.52-1.66-2.59-2.29s-2.24-1.16-3.42-1.68c.7.13,1.34.43,1.95.74,1.38.69,2.72,1.47,3.71,2.45.31.31.59.67.48,1-.11-.16-.21-.31-.14-.22h0Z"/>
      </g>
      <g id="beehive-6" data-name="beehive">
        <g id="Layer_7_copy_2-6" data-name="Layer 7 copy 2">
          <path class="cls-7" d="m66.13,159.39c.37,1.98-1.86,5.24-5.19,5.87-3.33.62-6.52-1.63-6.89-3.61-.37-1.98,2.03-4.09,5.37-4.71,3.33-.62,6.34.48,6.71,2.45Z"/>
          <ellipse class="cls-19" cx="59.73" cy="158.16" rx="8.21" ry="4.4" transform="translate(-28.02 13.66) rotate(-10.58)"/>
          <ellipse class="cls-7" cx="59.16" cy="154.13" rx="10.11" ry="5.27" transform="translate(-19.13 8.78) rotate(-7.31)"/>
          <ellipse class="cls-19" cx="58.5" cy="150.78" rx="8.94" ry="4.98" transform="translate(-28.39 14.37) rotate(-11.29)"/>
          <ellipse class="cls-7" cx="57.32" cy="146.73" rx="5.65" ry="2.71" transform="translate(-33.55 18.05) rotate(-13.89)"/>
        </g>
        <g id="Layer_19-6" data-name="Layer 19">
          <ellipse class="cls-22" cx="59.58" cy="158.18" rx="2.18" ry="3.48" transform="translate(-20.86 9.52) rotate(-7.78)"/>
        </g>
        <g id="Layer_19_copy-6" data-name="Layer 19 copy">
          <ellipse class="cls-16" cx="59.88" cy="158.03" rx="1.85" ry="3.29" transform="translate(-28.43 13.94) rotate(-10.75)"/>
        </g>
        <g id="Layer_23-6" data-name="Layer 23">
          <path class="cls-18" d="m54.13,135.81c1.27.9,2.83,3.03,2.16,3.96s-3.84-.38-5.11-1.29c-1.27-.9-2.79-3.93-2.53-4.33.31-.48,4.21.75,5.48,1.65h0Z"/>
        </g>
        <g id="Layer_9_copy_2-6" data-name="Layer 9 copy 2">
          <g id="Layer_21_copy-6" data-name="Layer 21 copy">
            <path class="cls-9" d="m57.67,142.46c-.17.05-.32.1-.48.13-.55.11-1.1.22-1.57.27-.12-.29-.26-.58-.41-.86.53-.17,1.2-.33,1.91-.46.07-.01.14-.03.21-.03.14.31.25.63.34.95h0Z"/>
          </g>
          <path class="cls-15" d="m57.56,145.36c-.88,1.58-1.3-.06-1.45-.9-.08-.48-.22-.95-.4-1.41-.11-.29-.25-.58-.4-.85-.19-.34-.4-.66-.64-.95-.2-.25-.43-.55-.31-.85.02-.07.06-.12.11-.18.35-.4.98-.46,1.47-.25.49.21.85.64,1.13,1.1.12.2.23.4.32.62.14.3.24.62.32.95.1.43.16.87.15,1.31,0,.49-.08.99-.31,1.41h0Z"/>
          <path class="cls-15" d="m61.32,139.56c-.03.12-.08.24-.17.37-.51.74-2.02,1.58-2.91,1.93-1.68.65-3.55.88-5.34.65-.86-.11-1.73-.34-2.42-.81-2.57-1.77.47-2.07,2.01-2.12,2.14-.08,4.8-.42,6.39-1.81.23-.2.4-.31.53-.35.29-.1.45.08.78.25.11.06.2.13.28.22.51.54.99,1.1.84,1.69h0Z"/>
        </g>
        <g id="Layer_21-6" data-name="Layer 21">
          <path class="cls-11" d="m61.32,139.56s-.01.02-.02.02c-.16.14-.71-.24-1.23-.85-.51-.6-.8-1.19-.65-1.34.29-.1.45.08.78.25.11.06.2.13.28.22.51.54.99,1.1.84,1.69h0Z"/>
        </g>
        <path class="cls-10" d="m55.17,138.63c-.57-.88-1.52-1.66-2.59-2.29s-2.24-1.16-3.42-1.68c.7.13,1.34.43,1.95.74,1.38.69,2.72,1.47,3.71,2.45.31.31.59.67.48,1-.11-.16-.21-.31-.14-.22h0Z"/>
      </g>
      <g id="beehive-7" data-name="beehive">
        <g id="Layer_7_copy_2-7" data-name="Layer 7 copy 2">
          <path class="cls-7" d="m90.11,159.39c.37,1.98-1.86,5.24-5.19,5.87-3.33.62-6.52-1.63-6.89-3.61-.37-1.98,2.03-4.09,5.37-4.71,3.33-.62,6.34.48,6.71,2.45Z"/>
          <ellipse class="cls-19" cx="83.7" cy="158.16" rx="8.21" ry="4.4" transform="translate(-27.62 18.06) rotate(-10.58)"/>
          <ellipse class="cls-7" cx="83.13" cy="154.13" rx="10.11" ry="5.27" transform="translate(-18.94 11.83) rotate(-7.31)"/>
          <ellipse class="cls-19" cx="82.48" cy="150.78" rx="8.94" ry="4.98" transform="translate(-27.92 19.06) rotate(-11.29)"/>
          <ellipse class="cls-7" cx="81.3" cy="146.73" rx="5.65" ry="2.71" transform="translate(-32.85 23.81) rotate(-13.89)"/>
        </g>
        <g id="Layer_19-7" data-name="Layer 19">
          <ellipse class="cls-22" cx="83.55" cy="158.18" rx="2.18" ry="3.48" transform="translate(-20.64 12.77) rotate(-7.78)"/>
        </g>
        <g id="Layer_19_copy-7" data-name="Layer 19 copy">
          <ellipse class="cls-16" cx="83.86" cy="158.03" rx="1.85" ry="3.29" transform="translate(-28.01 18.41) rotate(-10.75)"/>
        </g>
        <g id="Layer_23-7" data-name="Layer 23">
          <path class="cls-18" d="m78.11,135.81c1.27.9,2.83,3.03,2.16,3.96s-3.84-.38-5.11-1.29c-1.27-.9-2.79-3.93-2.53-4.33.31-.48,4.21.75,5.48,1.65h0Z"/>
        </g>
        <g id="Layer_9_copy_2-7" data-name="Layer 9 copy 2">
          <g id="Layer_21_copy-7" data-name="Layer 21 copy">
            <path class="cls-9" d="m81.64,142.46c-.17.05-.32.1-.48.13-.55.11-1.1.22-1.57.27-.12-.29-.26-.58-.41-.86.53-.17,1.2-.33,1.91-.46.07-.01.14-.03.21-.03.14.31.25.63.34.95h0Z"/>
          </g>
          <path class="cls-15" d="m81.53,145.36c-.88,1.58-1.3-.06-1.45-.9-.08-.48-.22-.95-.4-1.41-.11-.29-.25-.58-.4-.85-.19-.34-.4-.66-.64-.95-.2-.25-.43-.55-.31-.85.02-.07.06-.12.11-.18.35-.4.98-.46,1.47-.25.49.21.85.64,1.13,1.1.12.2.23.4.32.62.14.3.24.62.32.95.1.43.16.87.15,1.31,0,.49-.08.99-.31,1.41h0Z"/>
          <path class="cls-15" d="m85.3,139.56c-.03.12-.08.24-.17.37-.51.74-2.02,1.58-2.91,1.93-1.68.65-3.55.88-5.34.65-.86-.11-1.73-.34-2.42-.81-2.57-1.77.47-2.07,2.01-2.12,2.14-.08,4.8-.42,6.39-1.81.23-.2.4-.31.53-.35.29-.1.45.08.78.25.11.06.2.13.28.22.51.54.99,1.1.84,1.69h0Z"/>
        </g>
        <g id="Layer_21-7" data-name="Layer 21">
          <path class="cls-11" d="m85.3,139.56s-.01.02-.02.02c-.16.14-.71-.24-1.23-.85-.51-.6-.8-1.19-.65-1.34.29-.1.45.08.78.25.11.06.2.13.28.22.51.54.99,1.1.84,1.69h0Z"/>
        </g>
        <path class="cls-10" d="m79.14,138.63c-.57-.88-1.52-1.66-2.59-2.29s-2.24-1.16-3.42-1.68c.7.13,1.34.43,1.95.74,1.38.69,2.72,1.47,3.71,2.45.31.31.59.67.48,1-.11-.16-.21-.31-.14-.22h0Z"/>
      </g>
    </g>
    <g>
      <g id="beehive-8" data-name="beehive">
        <g id="Layer_7_copy_2-8" data-name="Layer 7 copy 2">
          <path class="cls-7" d="m80.6,54.48c.37,1.98-1.86,5.24-5.19,5.87-3.33.62-6.52-1.63-6.89-3.61-.37-1.98,2.03-4.09,5.37-4.71,3.33-.62,6.34.48,6.71,2.45Z"/>
          <ellipse class="cls-19" cx="74.19" cy="53.25" rx="8.21" ry="4.4" transform="translate(-8.52 14.53) rotate(-10.58)"/>
          <ellipse class="cls-7" cx="73.62" cy="49.23" rx="10.11" ry="5.27" transform="translate(-5.67 9.77) rotate(-7.31)"/>
          <ellipse class="cls-19" cx="72.97" cy="45.88" rx="8.94" ry="4.98" transform="translate(-7.57 15.17) rotate(-11.29)"/>
          <ellipse class="cls-7" cx="71.79" cy="41.83" rx="5.65" ry="2.71" transform="translate(-7.94 18.46) rotate(-13.89)"/>
        </g>
        <g id="Layer_19-8" data-name="Layer 19">
          <ellipse class="cls-22" cx="74.04" cy="53.27" rx="2.18" ry="3.48" transform="translate(-6.53 10.51) rotate(-7.78)"/>
        </g>
        <g id="Layer_19_copy-8" data-name="Layer 19 copy">
          <ellipse class="cls-16" cx="74.35" cy="53.13" rx="1.85" ry="3.29" transform="translate(-8.6 14.8) rotate(-10.75)"/>
        </g>
        <g id="Layer_23-8" data-name="Layer 23">
          <path class="cls-18" d="m68.6,30.91c1.27.9,2.83,3.03,2.16,3.96s-3.84-.38-5.11-1.29c-1.27-.9-2.79-3.93-2.53-4.33.31-.48,4.21.75,5.48,1.65h0Z"/>
        </g>
        <g id="Layer_9_copy_2-8" data-name="Layer 9 copy 2">
          <g id="Layer_21_copy-8" data-name="Layer 21 copy">
            <path class="cls-9" d="m72.13,37.55c-.17.05-.32.1-.48.13-.55.11-1.1.22-1.57.27-.12-.29-.26-.58-.41-.86.53-.17,1.2-.33,1.91-.46.07-.01.14-.03.21-.03.14.31.25.63.34.95h0Z"/>
          </g>
          <path class="cls-15" d="m72.02,40.45c-.88,1.58-1.3-.06-1.45-.9-.08-.48-.22-.95-.4-1.41-.11-.29-.25-.58-.4-.85-.19-.34-.4-.66-.64-.95-.2-.25-.43-.55-.31-.85.02-.07.06-.12.11-.18.35-.4.98-.46,1.47-.25.49.21.85.64,1.13,1.1.12.2.23.4.32.62.14.3.24.62.32.95.1.43.16.87.15,1.31,0,.49-.08.99-.31,1.41h0Z"/>
          <path class="cls-15" d="m75.79,34.66c-.03.12-.08.24-.17.37-.51.74-2.02,1.58-2.91,1.93-1.68.65-3.55.88-5.34.65-.86-.11-1.73-.34-2.42-.81-2.57-1.77.47-2.07,2.01-2.12,2.14-.08,4.8-.42,6.39-1.81.23-.2.4-.31.53-.35.29-.1.45.08.78.25.11.06.2.13.28.22.51.54.99,1.1.84,1.69h0Z"/>
        </g>
        <g id="Layer_21-8" data-name="Layer 21">
          <path class="cls-11" d="m75.79,34.66s-.01.02-.02.02c-.16.14-.71-.24-1.23-.85-.51-.6-.8-1.19-.65-1.34.29-.1.45.08.78.25.11.06.2.13.28.22.51.54.99,1.1.84,1.69h0Z"/>
        </g>
        <path class="cls-10" d="m69.63,33.72c-.57-.88-1.52-1.66-2.59-2.29s-2.24-1.16-3.42-1.68c.7.13,1.34.43,1.95.74,1.38.69,2.72,1.47,3.71,2.45.31.31.59.67.48,1-.11-.16-.21-.31-.14-.22h0Z"/>
      </g>
      <g id="beehive-9" data-name="beehive">
        <g id="Layer_7_copy_2-9" data-name="Layer 7 copy 2">
          <path class="cls-7" d="m103.19,54.48c.37,1.98-1.86,5.24-5.19,5.87-3.33.62-6.52-1.63-6.89-3.61-.37-1.98,2.03-4.09,5.37-4.71,3.33-.62,6.34.48,6.71,2.45Z"/>
          <ellipse class="cls-19" cx="96.79" cy="53.25" rx="8.21" ry="4.4" transform="translate(-8.13 18.68) rotate(-10.58)"/>
          <ellipse class="cls-7" cx="96.22" cy="49.23" rx="10.11" ry="5.27" transform="translate(-5.48 12.64) rotate(-7.31)"/>
          <ellipse class="cls-19" cx="95.56" cy="45.88" rx="8.94" ry="4.98" transform="translate(-7.13 19.6) rotate(-11.29)"/>
          <ellipse class="cls-7" cx="94.38" cy="41.83" rx="5.65" ry="2.71" transform="translate(-7.28 23.88) rotate(-13.89)"/>
        </g>
        <g id="Layer_19-9" data-name="Layer 19">
          <ellipse class="cls-22" cx="96.64" cy="53.27" rx="2.18" ry="3.48" transform="translate(-6.32 13.57) rotate(-7.78)"/>
        </g>
        <g id="Layer_19_copy-9" data-name="Layer 19 copy">
          <ellipse class="cls-16" cx="96.94" cy="53.13" rx="1.85" ry="3.29" transform="translate(-8.21 19.01) rotate(-10.75)"/>
        </g>
        <g id="Layer_23-9" data-name="Layer 23">
          <path class="cls-18" d="m91.19,30.91c1.27.9,2.83,3.03,2.16,3.96s-3.84-.38-5.11-1.29c-1.27-.9-2.79-3.93-2.53-4.33.31-.48,4.21.75,5.48,1.65h0Z"/>
        </g>
        <g id="Layer_9_copy_2-9" data-name="Layer 9 copy 2">
          <g id="Layer_21_copy-9" data-name="Layer 21 copy">
            <path class="cls-9" d="m94.73,37.55c-.17.05-.32.1-.48.13-.55.11-1.1.22-1.57.27-.12-.29-.26-.58-.41-.86.53-.17,1.2-.33,1.91-.46.07-.01.14-.03.21-.03.14.31.25.63.34.95h0Z"/>
          </g>
          <path class="cls-15" d="m94.62,40.45c-.88,1.58-1.3-.06-1.45-.9-.08-.48-.22-.95-.4-1.41-.11-.29-.25-.58-.4-.85-.19-.34-.4-.66-.64-.95-.2-.25-.43-.55-.31-.85.02-.07.06-.12.11-.18.35-.4.98-.46,1.47-.25.49.21.85.64,1.13,1.1.12.2.23.4.32.62.14.3.24.62.32.95.1.43.16.87.15,1.31,0,.49-.08.99-.31,1.41h0Z"/>
          <path class="cls-15" d="m98.38,34.66c-.03.12-.08.24-.17.37-.51.74-2.02,1.58-2.91,1.93-1.68.65-3.55.88-5.34.65-.86-.11-1.73-.34-2.42-.81-2.57-1.77.47-2.07,2.01-2.12,2.14-.08,4.8-.42,6.39-1.81.23-.2.4-.31.53-.35.29-.1.45.08.78.25.11.06.2.13.28.22.51.54.99,1.1.84,1.69h0Z"/>
        </g>
        <g id="Layer_21-9" data-name="Layer 21">
          <path class="cls-11" d="m98.38,34.66s-.01.02-.02.02c-.16.14-.71-.24-1.23-.85-.51-.6-.8-1.19-.65-1.34.29-.1.45.08.78.25.11.06.2.13.28.22.51.54.99,1.1.84,1.69h0Z"/>
        </g>
        <path class="cls-10" d="m92.23,33.72c-.57-.88-1.52-1.66-2.59-2.29s-2.24-1.16-3.42-1.68c.7.13,1.34.43,1.95.74,1.38.69,2.72,1.47,3.71,2.45.31.31.59.67.48,1-.11-.16-.21-.31-.14-.22h0Z"/>
      </g>
      <g id="beehive-10" data-name="beehive">
        <g id="Layer_7_copy_2-10" data-name="Layer 7 copy 2">
          <path class="cls-7" d="m38.15,88.48c.37,1.98-1.86,5.24-5.19,5.87-3.33.62-6.52-1.63-6.89-3.61-.37-1.98,2.03-4.09,5.37-4.71,3.33-.62,6.34.48,6.71,2.45Z"/>
          <ellipse class="cls-19" cx="31.75" cy="87.25" rx="8.21" ry="4.4" transform="translate(-15.48 7.31) rotate(-10.58)"/>
          <ellipse class="cls-7" cx="31.18" cy="83.23" rx="10.11" ry="5.27" transform="translate(-10.34 4.64) rotate(-7.31)"/>
          <ellipse class="cls-19" cx="30.52" cy="79.88" rx="8.94" ry="4.98" transform="translate(-15.05 7.52) rotate(-11.29)"/>
          <ellipse class="cls-7" cx="29.34" cy="75.83" rx="5.65" ry="2.71" transform="translate(-17.34 9.26) rotate(-13.89)"/>
        </g>
        <g id="Layer_19-10" data-name="Layer 19">
          <ellipse class="cls-22" cx="31.6" cy="87.27" rx="2.18" ry="3.48" transform="translate(-11.52 5.08) rotate(-7.78)"/>
        </g>
        <g id="Layer_19_copy-10" data-name="Layer 19 copy">
          <ellipse class="cls-16" cx="31.9" cy="87.13" rx="1.85" ry="3.29" transform="translate(-15.69 7.48) rotate(-10.75)"/>
        </g>
        <g id="Layer_23-10" data-name="Layer 23">
          <path class="cls-18" d="m26.15,64.91c1.27.9,2.83,3.03,2.16,3.96s-3.84-.38-5.11-1.29c-1.27-.9-2.79-3.93-2.53-4.33.31-.48,4.21.75,5.48,1.65h0Z"/>
        </g>
        <g id="Layer_9_copy_2-10" data-name="Layer 9 copy 2">
          <g id="Layer_21_copy-10" data-name="Layer 21 copy">
            <path class="cls-9" d="m29.68,71.55c-.17.05-.32.1-.48.13-.55.11-1.1.22-1.57.27-.12-.29-.26-.58-.41-.86.53-.17,1.2-.33,1.91-.46.07-.01.14-.03.21-.03.14.31.25.63.34.95h0Z"/>
          </g>
          <path class="cls-15" d="m29.57,74.45c-.88,1.58-1.3-.06-1.45-.9-.08-.48-.22-.95-.4-1.41-.11-.29-.25-.58-.4-.85-.19-.34-.4-.66-.64-.95-.2-.25-.43-.55-.31-.85.02-.07.06-.12.11-.18.35-.4.98-.46,1.47-.25.49.21.85.64,1.13,1.1.12.2.23.4.32.62.14.3.24.62.32.95.1.43.16.87.15,1.31,0,.49-.08.99-.31,1.41h0Z"/>
          <path class="cls-15" d="m33.34,68.66c-.03.12-.08.24-.17.37-.51.74-2.02,1.58-2.91,1.93-1.68.65-3.55.88-5.34.65-.86-.11-1.73-.34-2.42-.81-2.57-1.77.47-2.07,2.01-2.12,2.14-.08,4.8-.42,6.39-1.81.23-.2.4-.31.53-.35.29-.1.45.08.78.25.11.06.2.13.28.22.51.54.99,1.1.84,1.69h0Z"/>
        </g>
        <g id="Layer_21-10" data-name="Layer 21">
          <path class="cls-11" d="m33.34,68.66s-.01.02-.02.02c-.16.14-.71-.24-1.23-.85-.51-.6-.8-1.19-.65-1.34.29-.1.45.08.78.25.11.06.2.13.28.22.51.54.99,1.1.84,1.69h0Z"/>
        </g>
        <path class="cls-10" d="m27.18,67.72c-.57-.88-1.52-1.66-2.59-2.29s-2.24-1.16-3.42-1.68c.7.13,1.34.43,1.95.74,1.38.69,2.72,1.47,3.71,2.45.31.31.59.67.48,1-.11-.16-.21-.31-.14-.22h0Z"/>
      </g>
      <g id="beehive-11" data-name="beehive">
        <g id="Layer_7_copy_2-11" data-name="Layer 7 copy 2">
          <path class="cls-7" d="m60.6,88.48c.37,1.98-1.86,5.24-5.19,5.87-3.33.62-6.52-1.63-6.89-3.61-.37-1.98,2.03-4.09,5.37-4.71,3.33-.62,6.34.48,6.71,2.45Z"/>
          <ellipse class="cls-19" cx="54.19" cy="87.25" rx="8.21" ry="4.4" transform="translate(-15.1 11.43) rotate(-10.58)"/>
          <ellipse class="cls-7" cx="53.62" cy="83.23" rx="10.11" ry="5.27" transform="translate(-10.15 7.5) rotate(-7.31)"/>
          <ellipse class="cls-19" cx="52.97" cy="79.88" rx="8.94" ry="4.98" transform="translate(-14.61 11.92) rotate(-11.29)"/>
          <ellipse class="cls-7" cx="51.79" cy="75.83" rx="5.65" ry="2.71" transform="translate(-16.69 14.65) rotate(-13.89)"/>
        </g>
        <g id="Layer_19-11" data-name="Layer 19">
          <ellipse class="cls-22" cx="54.04" cy="87.27" rx="2.18" ry="3.48" transform="translate(-11.32 8.12) rotate(-7.78)"/>
        </g>
        <g id="Layer_19_copy-11" data-name="Layer 19 copy">
          <ellipse class="cls-16" cx="54.35" cy="87.13" rx="1.85" ry="3.29" transform="translate(-15.3 11.67) rotate(-10.75)"/>
        </g>
        <g id="Layer_23-11" data-name="Layer 23">
          <path class="cls-18" d="m48.6,64.91c1.27.9,2.83,3.03,2.16,3.96s-3.84-.38-5.11-1.29c-1.27-.9-2.79-3.93-2.53-4.33.31-.48,4.21.75,5.48,1.65h0Z"/>
        </g>
        <g id="Layer_9_copy_2-11" data-name="Layer 9 copy 2">
          <g id="Layer_21_copy-11" data-name="Layer 21 copy">
            <path class="cls-9" d="m52.13,71.55c-.17.05-.32.1-.48.13-.55.11-1.1.22-1.57.27-.12-.29-.26-.58-.41-.86.53-.17,1.2-.33,1.91-.46.07-.01.14-.03.21-.03.14.31.25.63.34.95h0Z"/>
          </g>
          <path class="cls-15" d="m52.02,74.45c-.88,1.58-1.3-.06-1.45-.9-.08-.48-.22-.95-.4-1.41-.11-.29-.25-.58-.4-.85-.19-.34-.4-.66-.64-.95-.2-.25-.43-.55-.31-.85.02-.07.06-.12.11-.18.35-.4.98-.46,1.47-.25.49.21.85.64,1.13,1.1.12.2.23.4.32.62.14.3.24.62.32.95.1.43.16.87.15,1.31,0,.49-.08.99-.31,1.41h0Z"/>
          <path class="cls-15" d="m55.79,68.66c-.03.12-.08.24-.17.37-.51.74-2.02,1.58-2.91,1.93-1.68.65-3.55.88-5.34.65-.86-.11-1.73-.34-2.42-.81-2.57-1.77.47-2.07,2.01-2.12,2.14-.08,4.8-.42,6.39-1.81.23-.2.4-.31.53-.35.29-.1.45.08.78.25.11.06.2.13.28.22.51.54.99,1.1.84,1.69h0Z"/>
        </g>
        <g id="Layer_21-11" data-name="Layer 21">
          <path class="cls-11" d="m55.79,68.66s-.01.02-.02.02c-.16.14-.71-.24-1.23-.85-.51-.6-.8-1.19-.65-1.34.29-.1.45.08.78.25.11.06.2.13.28.22.51.54.99,1.1.84,1.69h0Z"/>
        </g>
        <path class="cls-10" d="m49.63,67.72c-.57-.88-1.52-1.66-2.59-2.29s-2.24-1.16-3.42-1.68c.7.13,1.34.43,1.95.74,1.38.69,2.72,1.47,3.71,2.45.31.31.59.67.48,1-.11-.16-.21-.31-.14-.22h0Z"/>
      </g>
      <g id="beehive-12" data-name="beehive">
        <g id="Layer_7_copy_2-12" data-name="Layer 7 copy 2">
          <path class="cls-7" d="m83.19,88.48c.37,1.98-1.86,5.24-5.19,5.87-3.33.62-6.52-1.63-6.89-3.61-.37-1.98,2.03-4.09,5.37-4.71,3.33-.62,6.34.48,6.71,2.45Z"/>
          <ellipse class="cls-19" cx="76.79" cy="87.25" rx="8.21" ry="4.4" transform="translate(-14.71 15.58) rotate(-10.58)"/>
          <ellipse class="cls-7" cx="76.22" cy="83.23" rx="10.11" ry="5.27" transform="translate(-9.97 10.37) rotate(-7.31)"/>
          <ellipse class="cls-19" cx="75.56" cy="79.88" rx="8.94" ry="4.98" transform="translate(-14.18 16.34) rotate(-11.29)"/>
          <ellipse class="cls-7" cx="74.38" cy="75.83" rx="5.65" ry="2.71" transform="translate(-16.03 20.07) rotate(-13.89)"/>
        </g>
        <g id="Layer_19-12" data-name="Layer 19">
          <ellipse class="cls-22" cx="76.64" cy="87.27" rx="2.18" ry="3.48" transform="translate(-11.11 11.18) rotate(-7.78)"/>
        </g>
        <g id="Layer_19_copy-12" data-name="Layer 19 copy">
          <ellipse class="cls-16" cx="76.94" cy="87.13" rx="1.85" ry="3.29" transform="translate(-14.9 15.88) rotate(-10.75)"/>
        </g>
        <g id="Layer_23-12" data-name="Layer 23">
          <path class="cls-18" d="m71.19,64.91c1.27.9,2.83,3.03,2.16,3.96s-3.84-.38-5.11-1.29c-1.27-.9-2.79-3.93-2.53-4.33.31-.48,4.21.75,5.48,1.65h0Z"/>
        </g>
        <g id="Layer_9_copy_2-12" data-name="Layer 9 copy 2">
          <g id="Layer_21_copy-12" data-name="Layer 21 copy">
            <path class="cls-9" d="m74.73,71.55c-.17.05-.32.1-.48.13-.55.11-1.1.22-1.57.27-.12-.29-.26-.58-.41-.86.53-.17,1.2-.33,1.91-.46.07-.01.14-.03.21-.03.14.31.25.63.34.95h0Z"/>
          </g>
          <path class="cls-15" d="m74.62,74.45c-.88,1.58-1.3-.06-1.45-.9-.08-.48-.22-.95-.4-1.41-.11-.29-.25-.58-.4-.85-.19-.34-.4-.66-.64-.95-.2-.25-.43-.55-.31-.85.02-.07.06-.12.11-.18.35-.4.98-.46,1.47-.25.49.21.85.64,1.13,1.1.12.2.23.4.32.62.14.3.24.62.32.95.1.43.16.87.15,1.31,0,.49-.08.99-.31,1.41h0Z"/>
          <path class="cls-15" d="m78.38,68.66c-.03.12-.08.24-.17.37-.51.74-2.02,1.58-2.91,1.93-1.68.65-3.55.88-5.34.65-.86-.11-1.73-.34-2.42-.81-2.57-1.77.47-2.07,2.01-2.12,2.14-.08,4.8-.42,6.39-1.81.23-.2.4-.31.53-.35.29-.1.45.08.78.25.11.06.2.13.28.22.51.54.99,1.1.84,1.69h0Z"/>
        </g>
        <g id="Layer_21-12" data-name="Layer 21">
          <path class="cls-11" d="m78.38,68.66s-.01.02-.02.02c-.16.14-.71-.24-1.23-.85-.51-.6-.8-1.19-.65-1.34.29-.1.45.08.78.25.11.06.2.13.28.22.51.54.99,1.1.84,1.69h0Z"/>
        </g>
        <path class="cls-10" d="m72.23,67.72c-.57-.88-1.52-1.66-2.59-2.29s-2.24-1.16-3.42-1.68c.7.13,1.34.43,1.95.74,1.38.69,2.72,1.47,3.71,2.45.31.31.59.67.48,1-.11-.16-.21-.31-.14-.22h0Z"/>
      </g>
      <g id="beehive-13" data-name="beehive">
        <g id="Layer_7_copy_2-13" data-name="Layer 7 copy 2">
          <path class="cls-7" d="m58.15,54.48c.37,1.98-1.86,5.24-5.19,5.87-3.33.62-6.52-1.63-6.89-3.61-.37-1.98,2.03-4.09,5.37-4.71,3.33-.62,6.34.48,6.71,2.45Z"/>
          <ellipse class="cls-19" cx="51.75" cy="53.25" rx="8.21" ry="4.4" transform="translate(-8.9 10.41) rotate(-10.58)"/>
          <ellipse class="cls-7" cx="51.18" cy="49.23" rx="10.11" ry="5.27" transform="translate(-5.85 6.91) rotate(-7.31)"/>
          <ellipse class="cls-19" cx="50.52" cy="45.88" rx="8.94" ry="4.98" transform="translate(-8 10.78) rotate(-11.29)"/>
          <ellipse class="cls-7" cx="49.34" cy="41.83" rx="5.65" ry="2.71" transform="translate(-8.6 13.07) rotate(-13.89)"/>
        </g>
        <g id="Layer_19-13" data-name="Layer 19">
          <ellipse class="cls-22" cx="51.6" cy="53.27" rx="2.18" ry="3.48" transform="translate(-6.74 7.48) rotate(-7.78)"/>
        </g>
        <g id="Layer_19_copy-13" data-name="Layer 19 copy">
          <ellipse class="cls-16" cx="51.9" cy="53.13" rx="1.85" ry="3.29" transform="translate(-9 10.61) rotate(-10.75)"/>
        </g>
        <g id="Layer_23-13" data-name="Layer 23">
          <path class="cls-18" d="m46.15,30.91c1.27.9,2.83,3.03,2.16,3.96s-3.84-.38-5.11-1.29c-1.27-.9-2.79-3.93-2.53-4.33.31-.48,4.21.75,5.48,1.65h0Z"/>
        </g>
        <g id="Layer_9_copy_2-13" data-name="Layer 9 copy 2">
          <g id="Layer_21_copy-13" data-name="Layer 21 copy">
            <path class="cls-9" d="m49.68,37.55c-.17.05-.32.1-.48.13-.55.11-1.1.22-1.57.27-.12-.29-.26-.58-.41-.86.53-.17,1.2-.33,1.91-.46.07-.01.14-.03.21-.03.14.31.25.63.34.95h0Z"/>
          </g>
          <path class="cls-15" d="m49.57,40.45c-.88,1.58-1.3-.06-1.45-.9-.08-.48-.22-.95-.4-1.41-.11-.29-.25-.58-.4-.85-.19-.34-.4-.66-.64-.95-.2-.25-.43-.55-.31-.85.02-.07.06-.12.11-.18.35-.4.98-.46,1.47-.25.49.21.85.64,1.13,1.1.12.2.23.4.32.62.14.3.24.62.32.95.1.43.16.87.15,1.31,0,.49-.08.99-.31,1.41h0Z"/>
          <path class="cls-15" d="m53.34,34.66c-.03.12-.08.24-.17.37-.51.74-2.02,1.58-2.91,1.93-1.68.65-3.55.88-5.34.65-.86-.11-1.73-.34-2.42-.81-2.57-1.77.47-2.07,2.01-2.12,2.14-.08,4.8-.42,6.39-1.81.23-.2.4-.31.53-.35.29-.1.45.08.78.25.11.06.2.13.28.22.51.54.99,1.1.84,1.69h0Z"/>
        </g>
        <g id="Layer_21-13" data-name="Layer 21">
          <path class="cls-11" d="m53.34,34.66s-.01.02-.02.02c-.16.14-.71-.24-1.23-.85-.51-.6-.8-1.19-.65-1.34.29-.1.45.08.78.25.11.06.2.13.28.22.51.54.99,1.1.84,1.69h0Z"/>
        </g>
        <path class="cls-10" d="m47.18,33.72c-.57-.88-1.52-1.66-2.59-2.29s-2.24-1.16-3.42-1.68c.7.13,1.34.43,1.95.74,1.38.69,2.72,1.47,3.71,2.45.31.31.59.67.48,1-.11-.16-.21-.31-.14-.22h0Z"/>
      </g>
    </g>
    <g id="FinalText">
      <g>
        <g>
          <path class="cls-1" d="m19.33,26.75c-1.27,0-2.45-.24-3.52-.71-1.11-.49-1.99-1.19-2.62-2.07-.65-.91-.98-1.97-.98-3.16v-1h4.72v1c0,.77.3,1.11.52,1.29.4.33,1.03.5,1.89.5.7,0,1.22-.12,1.51-.35.24-.19.34-.41.34-.74,0-.48-.17-.67-.34-.8-.26-.2-.88-.54-2.29-.96-1.36-.41-2.42-.86-3.25-1.38-1.71-1.07-2.61-2.58-2.61-4.35,0-1.58.65-2.89,1.92-3.9,1.2-.96,2.76-1.44,4.62-1.44,1.23,0,2.35.23,3.34.7,1.02.48,1.83,1.18,2.42,2.07.59.9.9,1.92.9,3.01v1h-4.71v-1c0-.7-.25-1.01-.44-1.18-.32-.29-.83-.44-1.53-.44-.66,0-1.15.12-1.46.36-.17.13-.35.33-.35.8,0,.18.05.38.38.62.3.22.95.56,2.32.97,1.32.39,2.36.83,3.18,1.35.87.55,1.53,1.2,1.96,1.94.43.75.65,1.62.65,2.6,0,1.62-.64,2.94-1.89,3.9-1.17.9-2.75,1.36-4.68,1.36Z"/>
          <path class="cls-12" d="m19.24,9.68c1.09,0,2.06.2,2.91.6.85.4,1.52.97,2.01,1.71.49.74.73,1.56.73,2.47h-2.71c0-.82-.26-1.46-.77-1.92-.51-.46-1.24-.69-2.2-.69-.89,0-1.58.19-2.07.57-.49.38-.74.91-.74,1.59,0,.57.26,1.05.79,1.43.53.38,1.4.76,2.62,1.12,1.22.36,2.19.77,2.93,1.24.74.46,1.28.99,1.62,1.59.34.6.52,1.3.52,2.1,0,1.3-.5,2.34-1.5,3.11-1,.77-2.35,1.15-4.07,1.15-1.13,0-2.17-.21-3.12-.63-.95-.42-1.69-1-2.21-1.73-.53-.74-.79-1.6-.79-2.58h2.72c0,.89.29,1.58.88,2.06.59.49,1.43.73,2.52.73.95,0,1.66-.19,2.13-.57.48-.38.71-.89.71-1.52,0-.69-.24-1.22-.73-1.59-.48-.37-1.36-.75-2.62-1.13-1.26-.38-2.26-.8-3.01-1.27-1.43-.9-2.14-2.06-2.14-3.5,0-1.26.51-2.3,1.54-3.12,1.03-.82,2.36-1.22,4-1.22m0-2c-2.1,0-3.86.56-5.25,1.66-1.5,1.19-2.3,2.81-2.3,4.68,0,1.37.45,3.25,2.48,4.79h-2.97v2c0,1.4.39,2.66,1.16,3.74.73,1.03,1.76,1.84,3.03,2.4,1.2.53,2.52.8,3.93.8,2.16,0,3.93-.53,5.29-1.57,1.49-1.15,2.28-2.77,2.28-4.69,0-1.15-.26-2.19-.78-3.1-.42-.72-1.01-1.37-1.77-1.93h2.54v-2c0-1.29-.36-2.49-1.06-3.56-.69-1.05-1.64-1.87-2.83-2.42-1.12-.53-2.38-.79-3.76-.79h0Zm-.69,6.25c.14-.04.36-.08.67-.08.49,0,.76.09.86.18.03.02.11.1.11.43v.12c-.91-.28-1.39-.51-1.64-.65h0Zm.79,7.68c-.83,0-1.15-.19-1.25-.27-.06-.05-.16-.13-.16-.52v-.21c.11.03.22.07.33.1,1.25.38,1.75.65,1.92.76,0,0,0,.01,0,.02-.11.05-.37.12-.85.12h0Z"/>
        </g>
        <g>
          <path class="cls-1" d="m30.62,26.75c-1.42,0-2.6-.42-3.53-1.26-.95-.86-1.44-1.94-1.44-3.21,0-1.55.62-2.82,1.8-3.66.18-.13.37-.25.57-.35h-2.12v-1c0-.86.28-1.66.84-2.39.52-.69,1.24-1.23,2.12-1.62.85-.37,1.8-.56,2.83-.56,1.6,0,2.91.42,3.9,1.26,1.04.88,1.57,2.1,1.6,3.63v5.26c0,.89.12,1.59.34,2.08l.1.2v1.41h-4.27l-.22-.42c-.75.42-1.6.63-2.53.63Zm1.56-5.67c-.94,0-1.4.18-1.61.33-.18.12-.3.27-.3.61,0,.27.08.38.17.45.05.05.22.19.67.19.35,0,.67-.08.97-.25.21-.12.38-.26.51-.42v-.9h-.41Zm-.63-4.39c-.37,0-.64.08-.84.23-.16.12-.19.22-.19.35v.26c.46-.06.95-.09,1.47-.09h.59c-.04-.33-.17-.47-.22-.53-.17-.18-.53-.22-.8-.22Z"/>
          <path class="cls-12" d="m31.7,13.7c1.36,0,2.45.34,3.25,1.03.81.68,1.22,1.65,1.25,2.88v5.24c0,1.05.15,1.88.44,2.5v.18h-2.66c-.11-.22-.21-.58-.3-1.08-.83.87-1.85,1.3-3.05,1.3s-2.12-.33-2.86-1c-.74-.67-1.11-1.49-1.11-2.47,0-1.24.46-2.19,1.38-2.85.92-.66,2.24-.99,3.95-.99h1.6v-.76c0-.6-.17-1.08-.5-1.44-.34-.36-.85-.54-1.54-.54-.59,0-1.08.15-1.46.45-.38.3-.57.68-.57,1.13h-2.61c0-.64.21-1.23.63-1.79.42-.55,1-.99,1.72-1.31.73-.31,1.54-.47,2.43-.47m-.59,9.96c.52,0,1-.12,1.46-.38.45-.25.8-.59,1.03-1.01v-2.19h-1.41c-.97,0-1.69.17-2.18.5-.49.34-.73.81-.73,1.43,0,.5.17.9.5,1.2.33.3.78.45,1.34.45m.59-11.96c-1.17,0-2.25.21-3.23.64-1.04.45-1.89,1.1-2.52,1.93-.69.91-1.04,1.92-1.04,3v2h.58c-.54.86-.82,1.87-.82,3.02,0,1.54.61,2.91,1.77,3.96,1.11,1,2.52,1.51,4.2,1.51.73,0,1.42-.12,2.07-.34l.07.13h5.88v-2.63l-.19-.41c-.09-.2-.25-.67-.25-1.65v-5.24c-.03-1.84-.71-3.36-1.95-4.41-1.18-.99-2.71-1.5-4.55-1.5h0Z"/>
        </g>
        <g>
          <rect class="cls-1" x="38.1" y="8.04" width="4.61" height="18.5"/>
          <path class="cls-12" d="m41.71,9.04v16.5h-2.61V9.04h2.61m2-2h-6.61v20.5h6.61V7.04h0Z"/>
        </g>
        <g>
          <path class="cls-1" d="m48.15,26.75c-1.42,0-2.6-.42-3.53-1.26-.95-.86-1.44-1.94-1.44-3.21,0-1.55.62-2.82,1.8-3.66.18-.13.37-.25.57-.35h-2.12v-1c0-.86.28-1.66.84-2.39.52-.69,1.24-1.23,2.12-1.62.85-.37,1.8-.56,2.83-.56,1.6,0,2.91.42,3.9,1.26,1.04.88,1.57,2.1,1.6,3.63v5.26c0,.89.12,1.59.34,2.08l.1.2v1.41h-4.27l-.22-.42c-.75.42-1.6.63-2.53.63Zm1.56-5.67c-.94,0-1.4.18-1.61.33-.18.12-.3.27-.3.61,0,.27.08.38.17.45.05.05.22.19.67.19.35,0,.67-.08.97-.25.21-.12.38-.26.51-.42v-.9h-.41Zm-.63-4.39c-.37,0-.64.08-.84.23-.16.12-.19.22-.19.35v.26c.46-.06.95-.09,1.47-.09h.59c-.04-.33-.17-.47-.22-.53-.17-.18-.53-.22-.8-.22Z"/>
          <path class="cls-12" d="m49.22,13.7c1.36,0,2.45.34,3.25,1.03.81.68,1.22,1.65,1.25,2.88v5.24c0,1.05.15,1.88.44,2.5v.18h-2.66c-.11-.22-.21-.58-.3-1.08-.83.87-1.85,1.3-3.05,1.3s-2.12-.33-2.86-1c-.74-.67-1.11-1.49-1.11-2.47,0-1.24.46-2.19,1.38-2.85.92-.66,2.24-.99,3.95-.99h1.6v-.76c0-.6-.17-1.08-.5-1.44-.34-.36-.85-.54-1.54-.54-.59,0-1.08.15-1.46.45-.38.3-.57.68-.57,1.13h-2.61c0-.64.21-1.23.63-1.79.42-.55,1-.99,1.72-1.31.73-.31,1.54-.47,2.43-.47m-.59,9.96c.52,0,1-.12,1.46-.38.45-.25.8-.59,1.03-1.01v-2.19h-1.41c-.97,0-1.69.17-2.18.5-.49.34-.73.81-.73,1.43,0,.5.17.9.5,1.2.33.3.78.45,1.34.45m.59-11.96c-1.17,0-2.25.21-3.23.64-1.04.45-1.89,1.1-2.52,1.93-.69.91-1.04,1.92-1.04,3v2h.58c-.54.86-.82,1.87-.82,3.02,0,1.54.61,2.91,1.77,3.96,1.11,1,2.52,1.51,4.2,1.51.73,0,1.42-.12,2.07-.34l.07.13h5.88v-2.63l-.19-.41c-.09-.2-.25-.67-.25-1.65v-5.24c-.03-1.84-.71-3.36-1.95-4.41-1.18-.99-2.71-1.5-4.55-1.5h0Z"/>
        </g>
        <g>
          <path class="cls-1" d="m69.31,26.54v-8.56c0-.64-.15-.87-.21-.94-.04-.05-.24-.2-.87-.2-.35,0-.62.08-.81.24-.2.17-.34.38-.44.65v8.81s-4.6,0-4.6,0v-8.65c-.02-.8-.28-1.05-1.09-1.05-.7,0-1.03.25-1.22.55v9.15h-4.61v-13.62h4.4l.02.3c.72-.34,1.55-.51,2.47-.51,1.58,0,2.61.53,3.28,1.2.93-.8,2.1-1.2,3.47-1.2,1.57,0,2.79.47,3.61,1.4.79.89,1.2,2.17,1.21,3.79v8.65h-4.61Z"/>
          <path class="cls-12" d="m69.09,13.7c1.28,0,2.24.35,2.86,1.06.63.71.95,1.75.96,3.14v7.64h-2.61v-7.56c0-.74-.16-1.28-.48-1.62s-.86-.52-1.6-.52c-.59,0-1.08.16-1.46.48-.38.32-.64.74-.79,1.25v7.97s-2.6,0-2.6,0v-7.65c-.04-1.37-.73-2.05-2.09-2.05-1.05,0-1.79.43-2.22,1.28v8.42h-2.61v-11.62h2.46l.08,1.21c.82-.95,1.93-1.43,3.35-1.43,1.55,0,2.62.59,3.19,1.78.84-1.19,2.03-1.78,3.57-1.78m0-2c-1.29,0-2.45.32-3.44.94-.9-.62-2.02-.94-3.32-.94-.63,0-1.22.07-1.78.21h-6.11v15.62h6.61v-9.69c.06,0,.13-.01.22-.01.03,0,.06,0,.09,0,0,.02,0,.05,0,.08v9.62h6.61v-2s-.01-7.6-.01-7.6c.03-.04.05-.07.08-.09,0,0,0,0,0,0,.01,0,.07-.01.16-.01.03,0,.06,0,.08,0,0,.04,0,.09,0,.14v9.56h6.61v-9.64c-.02-1.89-.51-3.39-1.46-4.46-1.02-1.15-2.49-1.74-4.36-1.74h0Z"/>
        </g>
        <g>
          <path class="cls-1" d="m79.19,26.75c-1.42,0-2.6-.42-3.53-1.26-.95-.86-1.44-1.94-1.44-3.21,0-1.55.62-2.82,1.8-3.66.18-.13.37-.25.57-.35h-2.12v-1c0-.86.28-1.66.84-2.39.52-.69,1.24-1.23,2.12-1.62.85-.37,1.8-.56,2.83-.56,1.6,0,2.91.42,3.9,1.26,1.04.88,1.57,2.1,1.6,3.63v5.26c0,.89.12,1.59.34,2.08l.1.2v1.41h-4.27l-.22-.42c-.75.42-1.6.63-2.53.63Zm1.56-5.67c-.94,0-1.4.18-1.61.33-.18.12-.3.27-.3.61,0,.27.08.38.17.45.05.05.22.19.67.19.35,0,.67-.08.97-.25.21-.12.38-.26.51-.42v-.9h-.41Zm-.63-4.39c-.37,0-.64.08-.84.23-.16.12-.19.22-.19.35v.26c.46-.06.95-.09,1.47-.09h.59c-.04-.33-.17-.47-.22-.53-.17-.18-.53-.22-.8-.22Z"/>
          <path class="cls-12" d="m80.26,13.7c1.36,0,2.45.34,3.25,1.03.81.68,1.22,1.65,1.25,2.88v5.24c0,1.05.15,1.88.44,2.5v.18h-2.66c-.11-.22-.21-.58-.3-1.08-.83.87-1.85,1.3-3.05,1.3s-2.12-.33-2.86-1c-.74-.67-1.11-1.49-1.11-2.47,0-1.24.46-2.19,1.38-2.85.92-.66,2.24-.99,3.95-.99h1.6v-.76c0-.6-.17-1.08-.5-1.44-.34-.36-.85-.54-1.54-.54-.59,0-1.08.15-1.46.45-.38.3-.57.68-.57,1.13h-2.61c0-.64.21-1.23.63-1.79.42-.55,1-.99,1.72-1.31.73-.31,1.54-.47,2.43-.47m-.59,9.96c.52,0,1-.12,1.46-.38.45-.25.8-.59,1.03-1.01v-2.19h-1.41c-.97,0-1.69.17-2.18.5-.49.34-.73.81-.73,1.43,0,.5.17.9.5,1.2.33.3.78.45,1.34.45m.59-11.96c-1.17,0-2.25.21-3.23.64-1.04.45-1.89,1.1-2.52,1.93-.69.91-1.04,1.92-1.04,3v2h.58c-.54.86-.82,1.87-.82,3.02,0,1.54.61,2.91,1.77,3.96,1.11,1,2.52,1.51,4.2,1.51.73,0,1.42-.12,2.07-.34l.07.13h5.88v-2.63l-.19-.41c-.09-.2-.25-.67-.25-1.65v-5.24c-.03-1.84-.71-3.36-1.95-4.41-1.18-.99-2.71-1.5-4.55-1.5h0Z"/>
        </g>
        <g>
          <path class="cls-1" d="m93.47,26.54v-8.53c0-.46-.08-.81-.22-.97-.11-.13-.41-.2-.82-.2-.61,0-1.03.21-1.35.7v9h-4.61v-13.62h4.41l.02.35c.74-.38,1.57-.57,2.49-.57,1.72,0,4.63.67,4.7,5.14v8.7h-4.61Z"/>
          <path class="cls-12" d="m93.38,13.7c2.42,0,3.65,1.39,3.7,4.16v7.68h-2.61v-7.53c0-.74-.16-1.28-.48-1.64-.32-.35-.84-.53-1.56-.53-1.05,0-1.84.48-2.35,1.43v8.27h-2.61v-11.62h2.46l.08,1.34c.86-1.04,1.99-1.56,3.38-1.56m0-2c-.6,0-1.18.07-1.72.21h-6.2v15.62h6.61v-9.63c.1-.06.2-.07.35-.07.01,0,.02,0,.04,0,0,.05,0,.1,0,.17v9.53h6.61v-9.68c-.06-3.87-2.19-6.16-5.7-6.16h0Z"/>
        </g>
        <g>
          <path class="cls-1" d="m103.81,26.75c-1.68,0-3.06-.68-4.1-2.03-.98-1.27-1.47-2.98-1.47-5.08s.49-3.66,1.45-4.92c1.03-1.34,2.42-2.02,4.13-2.02.72,0,1.39.12,1.99.37v-5.03h4.61v18.5h-4.26l-.03-.3c-.69.34-1.46.51-2.32.51Zm.69-9.92c-.51,0-.86.18-1.13.57-.34.49-.51,1.34-.51,2.46,0,.97.17,1.71.51,2.2.27.39.6.56,1.11.56.62,0,1.03-.21,1.34-.69v-4.43c-.3-.46-.71-.66-1.32-.66Z"/>
          <path class="cls-12" d="m109.43,9.04v16.5h-2.36l-.13-1.2c-.78.95-1.82,1.42-3.13,1.42s-2.46-.55-3.3-1.64c-.84-1.1-1.26-2.58-1.26-4.47s.42-3.23,1.25-4.31c.83-1.08,1.94-1.63,3.34-1.63,1.23,0,2.23.43,2.99,1.29v-5.95h2.61m-4.95,14.59c1.07,0,1.85-.48,2.34-1.43v-4.96c-.48-.93-1.25-1.4-2.32-1.4-.85,0-1.5.33-1.96,1-.46.67-.69,1.68-.69,3.02,0,1.18.23,2.1.68,2.77.45.66,1.1.99,1.94.99m6.95-16.59h-6.61v4.73c-.32-.05-.65-.07-.99-.07-2.02,0-3.72.83-4.93,2.41-1.1,1.44-1.66,3.3-1.66,5.53s.56,4.24,1.68,5.69c1.22,1.59,2.91,2.43,4.89,2.43.59,0,1.16-.07,1.69-.21h5.93V7.04h0Zm-6.95,14.59c-.2,0-.22-.03-.29-.13-.12-.18-.33-.63-.33-1.63,0-1.3.26-1.78.34-1.89.07-.1.09-.13.3-.13.15,0,.25.01.32.05v3.68c-.08.05-.18.06-.34.06h0Z"/>
        </g>
        <g>
          <path class="cls-1" d="m117.27,26.75c-1.92,0-3.52-.63-4.73-1.86-1.21-1.23-1.83-2.87-1.83-4.86v-.32c0-1.31.26-2.5.77-3.55.53-1.08,1.29-1.93,2.25-2.54.97-.61,2.06-.92,3.24-.92,1.88,0,3.37.63,4.43,1.86,1.02,1.19,1.53,2.85,1.53,4.94v2.05h-1.84l1.96,1.87-.47.7c-.56.84-1.32,1.5-2.25,1.96-.91.45-1.94.68-3.06.68Zm-1.67-5.2c.1.22.24.41.4.57.38.37.83.55,1.42.55.89,0,1.57-.34,2.13-1.06l.04-.05h-3.99Zm2.6-3.91c-.07-.2-.17-.37-.28-.5-.13-.15-.38-.35-.96-.35-.43,0-.73.13-.98.41-.11.12-.2.27-.29.44h2.51Z"/>
          <path class="cls-12" d="m116.97,13.7c1.58,0,2.81.5,3.67,1.51.86,1.01,1.29,2.44,1.29,4.29v1.05h-7.59c.08.96.4,1.72.96,2.28.56.56,1.27.84,2.12.84,1.2,0,2.17-.48,2.92-1.45l1.41,1.34c-.47.69-1.09,1.23-1.86,1.62-.78.38-1.65.57-2.62.57-1.65,0-3-.52-4.02-1.56-1.03-1.04-1.54-2.43-1.54-4.16v-.32c0-1.16.22-2.2.67-3.11.45-.91,1.08-1.62,1.89-2.13.81-.51,1.71-.76,2.71-.76m-2.59,4.94h4.97v-.19c-.06-.87-.29-1.53-.7-1.98-.41-.45-.97-.67-1.7-.67s-1.29.25-1.73.75c-.44.5-.72,1.2-.84,2.09m2.59-6.94c-1.37,0-2.64.36-3.77,1.07-1.12.71-2.01,1.7-2.62,2.94-.58,1.19-.88,2.53-.88,3.99v.32c0,2.27.71,4.14,2.12,5.57,1.41,1.43,3.24,2.16,5.45,2.16,1.27,0,2.45-.26,3.5-.78,1.09-.54,1.98-1.31,2.64-2.3l.94-1.4-.76-.72h.34v-3.05c0-2.33-.6-4.21-1.77-5.58-.86-1.01-2.47-2.22-5.19-2.22h0Z"/>
        </g>
        <g>
          <path class="cls-1" d="m122.95,26.54v-13.62h4.44v.16c.53-.25,1.11-.37,1.73-.37.51,0,.94.07,1.3.23l.62.26-.02,4.3-1.16-.19c-.29-.05-.59-.07-.9-.07-.86,0-1.22.29-1.42.62v8.71h-4.61Z"/>
          <path class="cls-12" d="m129.13,13.7c.37,0,.68.05.92.15v2.45c-.35-.06-.71-.09-1.07-.09-1.2,0-2,.46-2.42,1.38v7.95h-2.61v-11.62h2.49l.06,1.3c.63-1.01,1.5-1.51,2.62-1.51m0-2c-.52,0-1.02.07-1.49.21h-5.69v15.62h6.61v-9.28c.08-.03.21-.05.42-.05.25,0,.5.02.74.06l2.32.39v-2.35s.02-2.45.02-2.45v-1.35s-1.24-.51-1.24-.51c-.49-.2-1.04-.3-1.69-.3h0Z"/>
        </g>
      </g>
      <g>
        <g>
          <rect class="cls-1" x="12.18" y="118.71" width="7.64" height="4.11"/>
          <path class="cls-12" d="m18.82,119.71v2.11h-5.64v-2.11h5.64m2-2h-9.64v6.11h9.64v-6.11h0Z"/>
        </g>
        <g>
          <polygon class="cls-1" points="24.28 128.41 24.28 116.24 20.44 117.55 20.44 113.26 27.36 110.72 28.88 110.72 28.88 128.41 24.28 128.41"/>
          <path class="cls-12" d="m27.88,111.72v15.69h-2.6v-12.56l-3.83,1.31v-2.19l6.1-2.25h.33m2-2h-2.69l-.33.12-6.1,2.25-1.31.48v6.38l2.65-.9,1.19-.41v11.77h6.6v-19.69h0Z"/>
        </g>
        <g>
          <path class="cls-1" d="m38.4,128.63c-2.01,0-3.56-.69-4.61-2.06-.99-1.28-1.5-3.15-1.52-5.55v-2.72c0-2.49.48-4.34,1.46-5.66,1.04-1.39,2.6-2.09,4.65-2.09s3.59.68,4.62,2.03c.97,1.27,1.48,3.12,1.5,5.52v2.72c0,2.49-.48,4.35-1.46,5.68-1.04,1.41-2.6,2.12-4.65,2.12Zm-.02-13.98c-.64,0-.88.25-1.03.5-.21.34-.46,1.05-.48,2.52v3.53c0,1.59.26,2.39.48,2.77.23.4.54.57,1.05.57.61,0,.85-.26,1-.51.21-.35.47-1.08.49-2.61v-3.52c0-1.6-.25-2.36-.46-2.72-.15-.26-.4-.53-1.05-.53Z"/>
          <path class="cls-12" d="m38.38,111.56c1.71,0,2.99.55,3.83,1.64.84,1.1,1.27,2.74,1.29,4.92v2.71c0,2.25-.42,3.94-1.26,5.09-.84,1.14-2.12,1.71-3.84,1.71s-2.96-.56-3.82-1.67c-.86-1.11-1.29-2.76-1.32-4.95v-2.71c0-2.25.42-3.93,1.26-5.06.84-1.12,2.12-1.69,3.85-1.69m.02,13.99c.84,0,1.46-.33,1.86-.99.4-.66.61-1.7.63-3.11v-3.53c0-1.47-.2-2.54-.6-3.23-.4-.68-1.04-1.03-1.91-1.03s-1.48.32-1.88.97c-.4.65-.61,1.66-.63,3.03v3.54c0,1.46.2,2.55.61,3.27.41.72,1.05,1.07,1.92,1.07m-.02-15.99c-2.97,0-4.6,1.35-5.45,2.49-1.12,1.49-1.66,3.54-1.66,6.26v2.71c.03,2.68.59,4.69,1.73,6.17.86,1.12,2.49,2.45,5.4,2.45s4.6-1.37,5.45-2.53c1.11-1.51,1.65-3.56,1.65-6.27v-2.71c-.03-2.67-.58-4.68-1.71-6.14-.85-1.11-2.48-2.43-5.42-2.43h0Zm-.13,13.97s-.01-.02-.03-.05c-.11-.19-.35-.78-.35-2.28v-3.54c.02-1.37.26-1.86.33-1.98-.01,0,.04-.03.18-.03s.19.02.19.02c.07.15.32.69.32,2.23v3.53c-.02,1.43-.27,1.95-.34,2.07.01.01-.03.03-.15.03-.09,0-.13,0-.16-.01h0Z"/>
        </g>
      </g>
      <g>
        <g>
          <polygon class="cls-1" points="16.25 52.75 16.25 48.1 12.15 48.1 12.15 43.71 16.25 43.71 16.25 39.36 20.79 39.36 20.79 43.71 24.87 43.71 24.87 48.1 20.79 48.1 20.79 52.75 16.25 52.75"/>
          <path class="cls-12" d="m19.79,40.36v4.35h4.08v2.38h-4.08v4.65h-2.54v-4.65h-4.1v-2.38h4.1v-4.35h2.54m2-2h-6.54v4.35h-4.1v6.38h4.1v4.65h6.54v-4.65h4.08v-6.38h-4.08v-4.35h0Z"/>
        </g>
        <g>
          <path class="cls-1" d="m31.15,54.53c-1.67,0-3.09-.49-4.21-1.46-1.15-.99-1.78-2.31-1.88-3.92l-.06-1.06h4.46l.11.87c.07.52.23.89.5,1.14.26.23.6.35,1.07.35.49,0,.83-.15,1.09-.48.3-.39.46-.97.46-1.73,0-.71-.16-1.23-.49-1.6-.19-.21-.53-.5-1.29-.5-.35,0-.63.04-.85.12-.14.05-.38.19-.74.53l-.4.38-3.46-.86,1.04-9.65h10.3v4.26h-6.34l-.14,1.24c.41-.08.83-.12,1.27-.12,1.78,0,3.21.6,4.23,1.77.99,1.14,1.49,2.65,1.49,4.5s-.56,3.36-1.66,4.5c-1.11,1.14-2.62,1.71-4.49,1.71Z"/>
          <path class="cls-12" d="m35.79,37.68v2.26h-6.23l-.43,3.74c.72-.42,1.54-.62,2.45-.62,1.49,0,2.65.48,3.48,1.43.83.95,1.24,2.23,1.24,3.85s-.46,2.86-1.38,3.8c-.92.94-2.17,1.41-3.77,1.41-1.43,0-2.62-.41-3.56-1.22-.94-.81-1.45-1.89-1.53-3.22h2.52c.1.76.37,1.34.82,1.75.44.4,1.02.61,1.74.61.8,0,1.43-.29,1.87-.86.45-.57.67-1.35.67-2.34s-.25-1.71-.74-2.26c-.49-.55-1.17-.83-2.04-.83-.47,0-.87.06-1.2.19-.33.13-.69.37-1.07.74l-2.08-.52.85-7.88h8.4m2-2h-12.2l-.19,1.79-.85,7.88-.19,1.74h.05s-.48.01-.48.01l.12,2.12c.11,1.86.88,3.46,2.22,4.61,1.31,1.13,2.95,1.7,4.87,1.7,2.15,0,3.9-.68,5.2-2.02,1.29-1.32,1.94-3.07,1.94-5.19s-.58-3.83-1.73-5.16c-.43-.5-.93-.91-1.48-1.23h2.71v-6.26h0Zm-7.44,11.57s.06-.03.06-.03c.02,0,.16-.06.49-.06.4,0,.5.11.55.16.19.22.23.63.23.93,0,.51-.09.91-.25,1.11-.04.05-.07.09-.3.09-.11,0-.31-.01-.39-.08-.06-.06-.14-.22-.18-.53l-.21-1.59h0Z"/>
        </g>
      </g>
    </g>
  </g>
  <text class="cls-3" transform="translate(158.01 9.68)"><tspan x="0" y="0">210</tspan></text>
  <text class="cls-2" transform="translate(203.95 32.17)"><tspan x="0" y="0">175</tspan></text>
  <text class="cls-8" transform="translate(134.08 28.45)"><tspan class="cls-13" x="0" y="0">R</tspan><tspan x="4.77" y="0">obo</tspan><tspan class="cls-4" x="19.44" y="0">t</tspan><tspan class="cls-21" x="22.3" y="0">o</tspan><tspan class="cls-17" x="27.26" y="0">-</tspan><tspan class="cls-5" x="29.96" y="0">M</tspan><tspan class="cls-17" x="37.09" y="0">edium</tspan><tspan x="0" y="10.56">Si</tspan><tspan class="cls-6" x="6.4" y="10.56">z</tspan><tspan class="cls-17" x="10.1" y="10.56">e 22</tspan></text>
</svg>