<?xml version="1.0" encoding="UTF-8"?>
<svg xmlns="http://www.w3.org/2000/svg" viewBox="0 0 1280 1024">
  <defs>
    <style>
      .cls-1 {
        fill: #6e4c54;
      }

      .cls-2 {
        fill: #b0a444;
      }

      .cls-3 {
        fill: #885561;
      }

      .cls-4 {
        fill: #85a05b;
      }
    </style>
  </defs>
  <g id="tree_2" data-name="tree 2">
    <g id="tree_top" data-name="tree top">
      <rect class="cls-2" x="987.15" y="405.85" width="266.53" height="244.73" rx="55" ry="55"/>
      <rect class="cls-2" x="756.87" y="544.68" width="199.72" height="178.62" rx="55" ry="55"/>
    </g>
    <g id="trunk">
      <g id="Layer_31" data-name="Layer 31">
        <path class="cls-1" d="m1161.2,770.52v-254.57c0-11.25-9.12-20.38-20.38-20.38h-.03c-11.25,0-20.38,9.12-20.38,20.38v41.51h-48.52v-23.93c0-11.25-9.12-20.38-20.38-20.38h-.03c-11.25,0-20.38,9.12-20.38,20.38v34.49c0,1.69.23,3.33.62,4.91-.39,1.57-.62,3.21-.62,4.91v.03c0,11.25,9.12,20.38,20.38,20.38h68.93v151.9h-233.47v-116.75c0-11.25-9.12-20.38-20.38-20.38h-.03c-11.25,0-20.38,9.12-20.38,20.38v17.19h-49.99c-11.25,0-20.38,9.12-20.38,20.38v.03c0,11.25,9.12,20.38,20.38,20.38h49.99v79.19c0,11.25,9.12,20.38,20.38,20.38h106.7v100.98c0,14.65-5.45,28.77-15.29,39.61l-19.34,21.32c-9.18,10.12-3.5,26.69,10.04,28.54.91.12,1.84.19,2.79.19h127.49c.31,0,.62,0,.93-.02,14.54-.66,21.28-18.48,11.19-28.97l-20.7-21.52c-12.1-12.57-18.85-29.34-18.85-46.79v-93.34h89.33c11.25,0,20.38-9.12,20.38-20.38v-.03h0Z"/>
      </g>
    </g>
  </g>
  <g id="tree_1" data-name="tree 1">
    <path id="tree_top-2" data-name="tree top" class="cls-4" d="m634.43,563.83h-44.37v-32.15c0-30.38-24.62-55-55-55h-246.53c-30.38,0-55,24.62-55,55v32.15h-120.43c-29.75,0-53.88,24.12-53.88,53.88l-1.55,135.78c0,29.75,24.12,53.88,53.88,53.88h521.33c29.75,0,53.88-24.12,53.88-53.88l1.55-135.78c0-29.75-24.12-53.88-53.88-53.88Z"/>
    <path id="trunk-2" data-name="trunk" class="cls-3" d="m584.87,611.21h-6.24c-9.22,0-16.69,7.47-16.69,16.69v89.46s-.02.05-.05.05h-114.35s-.05-.02-.05-.05v-146.67c0-9.22-7.47-16.69-16.69-16.69h-6.24c-9.22,0-16.69,7.47-16.69,16.69v146.67s-.02.05-.05.05h-117.16s-.05-.02-.05-.05v-95.37c0-11.19-9.07-20.25-20.25-20.25h-.69c-11.19,0-20.25,9.07-20.25,20.25v30.59s-.03.05-.05.05c-.76-.11-1.53-.18-2.32-.18h-27.88s-.05-.02-.05-.05v-23.91c0-9.19-7.19-17.09-16.37-17.23-9.31-.15-16.9,7.36-16.9,16.64,0,0,0,45.41,0,45.52,0,26.41,45.21,15.48,61.2,15.48.79,0,1.56-.07,2.32-.18.03,0,.05.02.05.05v52.77c0,11.19,9.07,20.25,20.25,20.25h.74c1.5,0,2.96-.18,4.37-.49,0,0,.01,0,.02,0,1.26.31,2.57.49,3.93.49h40.01c9.85,0,17.83,7.98,17.83,17.83v87.3c0,21.7-10.72,39.97-27.01,53.69-16.91,14.25-38.72,19.93-55.91,32.78-11.25,8.41-5.75,23.97,8.44,23.92,0,0,213.36-.79,214.71-.79,8.67-.03,21.44-7.8,18.76-18.01-3.93-14.92-30.61-20.45-41.64-28.89-22.04-16.88-34.97-43.06-34.97-70.83v-83.12c0-7.66,6.21-13.87,13.87-13.87h142.22c.64,0,1.27-.04,1.9-.12.54.05,1.08.08,1.64.08h6.29c9.22,0,16.69-7.47,16.69-16.69v-117.16c0-9.22-7.47-16.69-16.69-16.69Z"/>
  </g>
</svg>