<?xml version="1.0" encoding="UTF-8"?>
<svg xmlns="http://www.w3.org/2000/svg" viewBox="0 0 1280 1024">
  <defs>
    <style>
      .cls-1 {
        fill: #8b6f9a;
      }

      .cls-2 {
        fill: #925624;
      }

      .cls-3 {
        isolation: isolate;
      }

      .cls-4 {
        fill: #fdbe11;
      }

      .cls-5 {
        fill: #bba9e7;
      }

      .cls-6 {
        fill: #57745e;
      }

      .cls-7 {
        fill: #372943;
      }

      .cls-8 {
        fill: #018a1a;
        mix-blend-mode: multiply;
        opacity: .48;
      }

      .cls-9 {
        fill: #eb94cd;
      }

      .cls-10 {
        fill: #fdcc02;
      }
    </style>
  </defs>
  <g class="cls-3">
    <g id="yellow_flower" data-name="yellow flower">
      <rect class="cls-6" x="592.67" y="510.42" width="27.86" height="384.53" rx="5" ry="5"/>
      <path class="cls-6" d="m613.39,718.37c-7.94-2.83,6.04-82.51,27.43-114.65,21.39-32.14,51.83-42.86,67.97-23.93,16.15,18.92,11.9,60.32-9.49,92.46-21.39,32.14-78.2,48.87-85.91,46.12Z"/>
      <path class="cls-4" d="m581.65,436.86c5.48,6.47-31.01,55.03-72.34,71.39-41.33,16.37-104.19,26.88-106.52,2.53-2.34-24.35,32.25-58.56,73.58-74.93,41.33-16.37,99.96-5.28,105.28,1.01Z"/>
      <path class="cls-4" d="m611.65,425.93c8.16,2.29,5.1,62.96-19.99,99.65-25.09,36.7-71.29,80.59-86.86,61.72-15.56-18.87-6.05-66.58,19.04-103.28,25.09-36.7,79.88-60.32,87.81-58.09Z"/>
      <path class="cls-4" d="m639.13,452.71c-1.33-8.37,55.04-30.98,98.87-23.55,43.83,7.43,103.03,31.03,92.4,53.06-10.63,22.03-57.94,33.36-101.77,25.93-43.83-7.43-88.21-47.31-89.51-55.44Z"/>
      <path class="cls-4" d="m599.57,449.13c3.21-7.85,63.13,2.1,96.73,31.21,33.6,29.11,71.95,80.01,51.43,93.32-20.52,13.31-66.84-1.57-100.44-30.68-33.6-29.11-50.83-86.23-47.72-93.85Z"/>
      <path class="cls-4" d="m626.32,428.38c8.28-1.81,34.12,53.15,29.24,97.34-4.88,44.19-24.99,104.66-47.61,95.33-22.61-9.33-36.66-55.91-31.79-100.09,4.88-44.19,42.11-90.81,50.15-92.57Z"/>
      <path class="cls-6" d="m608.32,768.86c-1.65,10.69-62.43-3.04-87.9-29.44-25.47-26.4-35.36-66.07-22.09-88.59,13.26-22.53,44.66-19.39,70.13,7.01,25.47,26.4,41.46,100.63,39.86,111.02Z"/>
      <ellipse class="cls-7" cx="624.64" cy="444.62" rx="66.88" ry="47.37"/>
      <path class="cls-8" d="m586.1,746.57c-7.26-18.31-20.61-33.7-35.88-46.13-15.28-12.43-32.53-22.16-49.69-31.83,10.49,1.97,19.87,7.64,28.78,13.52,20.03,13.22,39.35,28.35,52.86,48.18,4.21,6.18,7.95,13.76,5.66,20.88-1.38-3.25-2.77-6.5-1.73-4.63Z"/>
      <path class="cls-8" d="m703.2,607.4c-19.21,9.15-34.52,24.31-46.38,41.2-11.86,16.89-20.54,35.57-29.15,54.15.96-11,6.09-21.19,11.51-30.92,12.18-21.86,26.53-43.16,46.69-58.91,6.28-4.9,14.15-9.45,22.2-7.73-3.4,1.72-6.79,3.44-4.86,2.21Z"/>
    </g>
    <g id="pink_flower" data-name="pink flower">
      <rect class="cls-6" x="216.11" y="422.83" width="27.86" height="430.76" rx="5" ry="5"/>
      <path class="cls-6" d="m236.83,655.77c-7.94-3.17,6.04-92.43,27.43-128.43,21.39-36.01,51.83-48.01,67.97-26.81,16.15,21.2,11.9,67.57-9.49,103.58-21.39,36.01-78.2,54.74-85.91,51.66Z"/>
      <path class="cls-6" d="m231.76,712.34c-1.65,11.97-62.43-3.4-87.9-32.98-25.47-29.58-35.36-74.01-22.09-99.24,13.26-25.24,44.66-21.72,70.13,7.86,25.47,29.58,41.46,112.73,39.86,124.37Z"/>
      <path class="cls-8" d="m204.54,688.79c-3.48-19.38-13.51-37.12-26.02-52.33-12.51-15.21-27.49-28.17-42.39-41.05,9.89,4.01,17.96,11.43,25.53,18.96,17.01,16.93,32.94,35.59,42.26,57.71,2.9,6.89,5.06,15.07,1.41,21.59-.71-3.46-1.42-6.92-.78-4.88Z"/>
      <path class="cls-8" d="m323.65,532.18c-19.21,9.15-34.52,24.31-46.38,41.2-11.86,16.89-20.54,35.57-29.15,54.15.96-11,6.09-21.19,11.51-30.92,12.18-21.86,26.53-43.16,46.69-58.91,6.28-4.9,14.15-9.45,22.2-7.73-3.4,1.72-6.79,3.44-4.86,2.21Z"/>
      <path class="cls-9" d="m185.98,367.69c5.48,6.47-31.01,55.03-72.34,71.39-41.33,16.37-104.19,26.88-106.52,2.53-2.34-24.35,32.25-58.56,73.58-74.93,41.33-16.37,99.96-5.28,105.28,1.01Z"/>
      <path class="cls-9" d="m215.97,356.77c8.16,2.29,5.1,62.96-19.99,99.65-25.09,36.7-71.29,80.59-86.86,61.72-15.56-18.87-6.05-66.58,19.04-103.28,25.09-36.7,79.88-60.32,87.81-58.09Z"/>
      <path class="cls-9" d="m434.72,413.05c-10.63,22.03-57.94,33.36-101.77,25.93-43.83-7.43-88.21-47.31-89.51-55.44-1.33-8.37,55.04-30.98,98.87-23.55,43.83,7.43,103.03,31.03,92.4,53.06"/>
      <path class="cls-9" d="m203.9,379.96c3.21-7.85,63.13,2.1,96.73,31.21,33.6,29.11,71.95,80.01,51.43,93.32-20.52,13.31-66.84-1.57-100.44-30.68-33.6-29.11-50.83-86.23-47.72-93.85Z"/>
      <path class="cls-9" d="m230.64,359.21c8.28-1.81,34.12,53.15,29.24,97.34-4.88,44.19-24.99,104.66-47.61,95.33-22.61-9.33-36.66-55.91-31.79-100.09,4.88-44.19,42.11-90.81,50.15-92.57Z"/>
      <path class="cls-2" d="m162.08,375.46c0-26.16,32.73-72.45,69.66-72.45s64.09,46.29,64.09,72.45-29.94,47.37-66.88,47.37-66.88-21.21-66.88-47.37Z"/>
    </g>
    <g id="purple_flower" data-name="purple flower">
      <rect class="cls-6" x="1088.97" y="510.42" width="27.86" height="384.53" rx="5" ry="5"/>
      <path class="cls-6" d="m1109.69,718.37c-7.94-2.83,6.04-82.51,27.43-114.65,21.39-32.14,51.83-42.86,67.97-23.93,16.15,18.92,11.9,60.32-9.49,92.46-21.39,32.14-78.2,48.87-85.91,46.12Z"/>
      <path class="cls-6" d="m1104.62,768.86c-1.65,10.69-62.43-3.04-87.9-29.44-25.47-26.4-35.36-66.07-22.09-88.59,13.26-22.53,44.66-19.39,70.13,7.01,25.47,26.4,41.46,100.63,39.86,111.02Z"/>
      <path class="cls-8" d="m1189.89,606.83c-18.38,10.71-32.4,27.08-42.82,44.89-10.42,17.81-17.53,37.15-24.58,56.38.04-11.04,4.32-21.63,8.91-31.76,10.33-22.79,22.88-45.21,41.66-62.56,5.85-5.41,13.32-10.58,21.49-9.54-3.24,2-6.48,3.99-4.66,2.6Z"/>
      <path class="cls-8" d="m1088.31,746.57c-7.26-18.31-20.61-33.7-35.88-46.13-15.28-12.43-32.53-22.16-49.69-31.83,10.49,1.97,19.87,7.64,28.78,13.52,20.03,13.22,39.35,28.35,52.86,48.18,4.21,6.18,7.95,13.76,5.66,20.88-1.38-3.25-2.77-6.5-1.73-4.63Z"/>
      <ellipse class="cls-5" cx="1057.54" cy="395.68" rx="20.56" ry="101.72" transform="translate(-68.29 482.14) rotate(-24.9)"/>
      <ellipse class="cls-5" cx="1138.48" cy="570.04" rx="20.56" ry="101.72" transform="translate(-134.18 532.44) rotate(-24.9)"/>
      <path class="cls-5" d="m905.41,568.63c-4.99-10.76,30.52-37.8,79.33-60.41,48.81-22.61,92.42-32.21,97.41-21.46,4.99,10.76-30.52,37.8-79.33,60.41-48.81,22.61-92.42,32.21-97.41,21.46"/>
      <ellipse class="cls-5" cx="1180.7" cy="438.38" rx="97.39" ry="21.47" transform="translate(-74.91 536.8) rotate(-24.85)"/>
      <ellipse class="cls-5" cx="1175.9" cy="503.94" rx="21.15" ry="98.86" transform="translate(454.95 1560.8) rotate(-78.9)"/>
      <path class="cls-5" d="m914.46,428.06c2.8-11.3,47.71-7.93,100.29,7.54,52.59,15.47,92.94,37.18,90.14,48.48-2.8,11.3-47.71,7.93-100.29-7.54-52.59-15.47-92.94-37.18-90.14-48.48"/>
      <ellipse class="cls-5" cx="1061.13" cy="566.91" rx="99.08" ry="21.11" transform="translate(99.01 1289.2) rotate(-65.01)"/>
      <ellipse class="cls-5" cx="1128.19" cy="401.17" rx="99.08" ry="21.11" transform="translate(287.96 1254.27) rotate(-65.01)"/>
      <ellipse class="cls-10" cx="1099.63" cy="486.36" rx="39.9" ry="39.32" transform="translate(-102.68 473.22) rotate(-23.23)"/>
      <ellipse class="cls-1" cx="1057.54" cy="395.68" rx="20.56" ry="101.72" transform="translate(-68.29 482.14) rotate(-24.9)"/>
      <ellipse class="cls-1" cx="1138.48" cy="570.04" rx="20.56" ry="101.72" transform="translate(-134.18 532.44) rotate(-24.9)"/>
      <path class="cls-1" d="m905.41,568.63c-4.99-10.76,30.52-37.8,79.33-60.41,48.81-22.61,92.42-32.21,97.41-21.46,4.99,10.76-30.52,37.8-79.33,60.41-48.81,22.61-92.42,32.21-97.41,21.46"/>
      <ellipse class="cls-1" cx="1180.7" cy="438.38" rx="97.39" ry="21.47" transform="translate(-74.91 536.8) rotate(-24.85)"/>
      <ellipse class="cls-1" cx="1175.9" cy="503.94" rx="21.15" ry="98.86" transform="translate(454.95 1560.8) rotate(-78.9)"/>
      <path class="cls-1" d="m914.46,428.06c2.8-11.3,47.71-7.93,100.29,7.54,52.59,15.47,92.94,37.18,90.14,48.48-2.8,11.3-47.71,7.93-100.29-7.54-52.59-15.47-92.94-37.18-90.14-48.48"/>
      <ellipse class="cls-1" cx="1061.13" cy="566.91" rx="99.08" ry="21.11" transform="translate(99.01 1289.2) rotate(-65.01)"/>
      <ellipse class="cls-1" cx="1128.19" cy="401.17" rx="99.08" ry="21.11" transform="translate(287.96 1254.27) rotate(-65.01)"/>
      <ellipse class="cls-4" cx="1099.63" cy="486.36" rx="39.9" ry="39.32" transform="translate(-102.68 473.22) rotate(-23.23)"/>
    </g>
  </g>
</svg>