<?xml version="1.0" encoding="UTF-8"?>
<svg id="Layer_1" data-name="Layer 1" xmlns="http://www.w3.org/2000/svg" viewBox="0 0 256.16 264.11">
  <defs>
    <style>
      .cls-1 {
        fill: #8dc63f;
      }
    </style>
  </defs>
  <circle class="cls-1" cx="130.25" cy="138.4" r="102.43"/>
  <path class="cls-1" d="m161.38,6.34s-18.12.56-24.63,11.19-6.51,18.43-6.51,18.43c0,0-.78-7.62-13.27-21.98C105.31.59,87.87,0,87.87,0c0,0,9.51,11.19,10.45,20.52s-3.59,21.77-3.59,21.77c0,0-21.6-6.34-28.13-24.97-7.46,24.97,0,40.82,0,40.82,0,0-5.78-7.02-21.27-8.52s-26.12,8.52-26.12,8.52c0,0,23.69-3.97,25.37,24.07-16.77,4.73-29.48,11.07-29.48,11.07,0,0,12.67,8.9,15.26,22.31-11.9,8.28-30.37-2.54-30.37-2.54,0,0,0,25.34,27.82,25.34-14.95,11.23-18.31,30.26-18.31,30.26,0,0,12.98-12.2,21.04-6.66-5.74,10.77-14.51,29.8-12.65,45.28,9.91-16.23,24.16-16.74,24.16-16.74,0,0,5.88,11.33-4.94,23.27s-9.31,9.7-9.31,9.7c0,0,18.45,2.57,26.84.17s11.13-5.68,11.13-5.68c0,0-4.22,18.95,8.65,33.5,0,0,1.44-17.8,10.89-21.03,7.77,10.36,11.88,21.03,11.88,21.03,0,0,2.05,5.97.37,11.19s17.35-4.37,25-21.87c16.79,5.07,22.76,16.27,22.76,16.27,0,0,5.9-8.39,6.96-18.66,6.47,8.02,34.08,11.19,34.08,11.19,0,0-3.36-16.22,0-25.55,11.19,3.16,36.94-3.92,36.94-3.92,0,0-17.91-2.7-6.67-26.74s29.8,5.47,29.8,5.47c0,0,6.95-35.63-13.78-52.24,18.26-8.25,23.49-18.41,23.49-18.41,0,0-9.28,4.42-23.49-2.86,10.05-14.93,13.04-32.09,13.04-32.09,0,0-16.23,10.07-29.48-8.96-3.36-21.27,19.03-16.04,19.03-16.04,0,0-26.28-21.77-48.1-15.06-5.04-16.23,12.28-20.39,12.28-20.39,0,0-32.84-7.84-41.79,7.46,0,0-14.18-17.16,3.73-33.96Z"/>
</svg>