<?xml version="1.0" encoding="UTF-8"?>
<svg id="WinTree" xmlns="http://www.w3.org/2000/svg" viewBox="0 0 384 1080">
  <defs>
    <style>
      .cls-1 {
        fill: #8b8e3e;
        stroke: #506022;
        stroke-width: 6px;
      }

      .cls-1, .cls-2 {
        stroke-miterlimit: 10;
      }

      .cls-2 {
        fill: #a97c50;
        stroke: #754c29;
        stroke-width: 4px;
      }
    </style>
  </defs>
  <path class="cls-1" d="m347.41,821.44h-7.86v-162.16c0-6.6-5.4-12-12-12h-16.94c.03-.35.05-.7.05-1.05v-177.57c0-6.6-5.4-12-12-12h-16.51v-175.45c0-6.6-5.4-12-12-12H118.57c-6.6,0-12,5.4-12,12v175.45h-21.9c-6.6,0-12,5.4-12,12v177.57c0,.35.02.7.05,1.05h-11.56c-6.6,0-12,5.4-12,12v162.16h-13.25c-6.6,0-12,5.4-12,12v133.48c0,6.6,5.4,12,12,12h311.5c6.6,0,12-5.4,12-12v-133.48c0-6.6-5.4-12-12-12Z"/>
  <path class="cls-2" d="m311.51,862.26h-30.55v-361.77c0-6.6-5.4-12-12-12h-8.78c-6.6,0-12,5.4-12,12v37.23h-39.94v-217.43c0-6.6-5.4-12-12-12h-6.6c-6.6,0-12,5.4-12,12v230.83c0,.54.05,1.07.12,1.6v10.27c0,6.6,5.4,12,12,12h58.43v38.03h-43.24c-6.6,0-12,5.4-12,12v10.28c0,6.6,5.4,12,12,12h43.24v264.94h-120.93v-112.71h42.46c6.6,0,12-5.4,12-12v-8.09c.35-1.12.54-2.31.54-3.54v-91.28c0-6.6-5.4-12-12-12h-4.78c-6.6,0-12,5.4-12,12v77.65h-26.22v-77.65c0-6.6-5.4-12-12-12h-6.04c-6.6,0-12,5.4-12,12v252.88c0,6.6,5.4,12,12,12h58.64v87.18s-4.05,33.35-22.52,44.72c0,0-4,2.68-4,11.48,0,14.36,15.26,14.36,15.26,14.36h75.52s15.26,0,15.26-14.36c0-8.8-4-11.48-4-11.48-18.14-11.17-22.37-43.52-22.51-44.67v-87.24h48.09c6.6,0,12-5.4,12-12v-37.97h30.55c6.6,0,12-5.4,12-12v-13.26c0-6.6-5.4-12-12-12Z"/>
</svg>