<?xml version="1.0" encoding="UTF-8"?>
<svg xmlns="http://www.w3.org/2000/svg" xmlns:xlink="http://www.w3.org/1999/xlink" viewBox="0 0 2020 1713.09">
  <defs>
    <style>
      .cls-1 {
        fill: #514a3f;
      }

      .cls-2 {
        fill: #8c8e3e;
      }

      .cls-2, .cls-3 {
        opacity: .96;
      }

      .cls-3 {
        fill: #cebe48;
      }

      .cls-4 {
        fill: url(#linear-gradient);
      }
    </style>
    <linearGradient id="linear-gradient" x1="-7322.16" y1="1115.93" x2="-6142.16" y2="1115.93" gradientTransform="translate(7742.16 7.16)" gradientUnits="userSpaceOnUse">
      <stop offset="0" stop-color="#b8cb4c"/>
      <stop offset="1" stop-color="#b5c974"/>
    </linearGradient>
  </defs>
  <g id="Layer_2" data-name="Layer 2">
    <rect class="cls-4" x="420" y="113.09" width="1180" height="2020" transform="translate(-113.09 2133.09) rotate(-90)"/>
  </g>
  <g id="Layer_5" data-name="Layer 5">
    <rect class="cls-1" x="424.6" y="632.68" width="1171.63" height="977.93"/>
  </g>
  <g id="Layer_4" data-name="Layer 4">
    <rect class="cls-3" x="437.91" y="646.29" width="185.95" height="185.95"/>
    <rect class="cls-2" x="631.23" y="646.29" width="185.95" height="185.95"/>
    <rect class="cls-3" x="823.23" y="646.29" width="185.95" height="185.95"/>
    <rect class="cls-2" x="1015.23" y="646.29" width="185.95" height="185.95"/>
    <rect class="cls-3" x="1206.19" y="646.29" width="185.95" height="185.95"/>
    <rect class="cls-2" x="1397.79" y="646.29" width="185.95" height="185.95"/>
    <rect class="cls-3" x="1397.79" y="838.27" width="185.95" height="185.95" transform="translate(2981.53 1862.48) rotate(180)"/>
    <rect class="cls-2" x="1204.47" y="838.27" width="185.95" height="185.95" transform="translate(2594.89 1862.48) rotate(180)"/>
    <rect class="cls-3" x="1012.47" y="838.27" width="185.95" height="185.95" transform="translate(2210.89 1862.48) rotate(180)"/>
    <rect class="cls-2" x="820.47" y="838.27" width="185.95" height="185.95" transform="translate(1826.89 1862.48) rotate(180)"/>
    <rect class="cls-3" x="629.51" y="838.27" width="185.95" height="185.95" transform="translate(1444.97 1862.48) rotate(180)"/>
    <rect class="cls-2" x="437.91" y="838.27" width="185.95" height="185.95" transform="translate(1061.77 1862.48) rotate(180)"/>
    <rect class="cls-3" x="437.91" y="1030.27" width="185.95" height="185.95"/>
    <rect class="cls-2" x="631.23" y="1030.27" width="185.95" height="185.95"/>
    <rect class="cls-3" x="823.23" y="1030.27" width="185.95" height="185.95"/>
    <rect class="cls-2" x="1015.23" y="1030.27" width="185.95" height="185.95"/>
    <rect class="cls-3" x="1206.19" y="1030.27" width="185.95" height="185.95"/>
    <rect class="cls-2" x="1397.79" y="1030.27" width="185.95" height="185.95"/>
    <rect class="cls-3" x="1397.79" y="1222.27" width="185.95" height="185.95" transform="translate(2981.53 2630.48) rotate(180)"/>
    <rect class="cls-2" x="1204.47" y="1222.27" width="185.95" height="185.95" transform="translate(2594.89 2630.48) rotate(180)"/>
    <rect class="cls-3" x="1012.47" y="1222.27" width="185.95" height="185.95" transform="translate(2210.89 2630.48) rotate(180)"/>
    <rect class="cls-2" x="820.47" y="1222.27" width="185.95" height="185.95" transform="translate(1826.89 2630.49) rotate(180)"/>
    <rect class="cls-3" x="629.51" y="1222.27" width="185.95" height="185.95" transform="translate(1444.97 2630.49) rotate(180)"/>
    <rect class="cls-2" x="437.91" y="1222.27" width="185.95" height="185.95" transform="translate(1061.77 2630.49) rotate(180)"/>
    <rect class="cls-3" x="436.26" y="1414.27" width="185.95" height="185.95"/>
    <rect class="cls-2" x="629.58" y="1414.27" width="185.95" height="185.95"/>
    <rect class="cls-3" x="821.58" y="1414.27" width="185.95" height="185.95"/>
    <rect class="cls-2" x="1013.58" y="1414.27" width="185.95" height="185.95"/>
    <rect class="cls-3" x="1204.54" y="1414.27" width="185.95" height="185.95"/>
    <rect class="cls-2" x="1396.14" y="1414.27" width="185.95" height="185.95"/>
  </g>
</svg>