<svg id="bush_1" data-name="bush 1" xmlns="http://www.w3.org/2000/svg" viewBox="0 0 175 175"><defs><style>.cls-1{fill:#486e58;stroke:#2f4237;stroke-miterlimit:10;}</style></defs><path class="cls-1" d="M146.14,87.56h-5.88V71.11a9.37,9.37,0,0,0-9.36-9.36h-6.42V56.13A11.38,11.38,0,0,0,113.1,44.75H102.15V43.11a9.83,9.83,0,0,0-9.83-9.83H74.08a9.83,9.83,0,0,0-9.83,9.83v9.22H53.74A11.82,11.82,0,0,0,41.92,64.15V78.34H28.61A8.61,8.61,0,0,0,20,87v16.38a8.6,8.6,0,0,0,8.61,8.61h15.2a9.84,9.84,0,0,0,9.78,8.81h54.29a9.83,9.83,0,0,0,9.78-8.8h20.67a1.84,1.84,0,0,0,.41,0c.25,0,.49,0,.74,0h6.66a8.86,8.86,0,0,0,8.86-8.86V96.42A8.86,8.86,0,0,0,146.14,87.56Z"/></svg>