<?xml version="1.0" encoding="UTF-8"?><svg id="bush_2" xmlns="http://www.w3.org/2000/svg" viewBox="0 0 175 175"><defs><style>.cls-1{fill:#486e58;}</style></defs><rect class="cls-1" x="70.87" y="77.5" width="55.11" height="67.19" rx="11.38" ry="11.38"/><rect class="cls-1" x="21.5" y="111.09" width="42.2" height="33.6" rx="8.61" ry="8.61"/><rect class="cls-1" x="65.75" y="66.03" width="37.9" height="37.9" rx="9.83" ry="9.83"/><path class="cls-1" d="M123.66,94.5h8.74c5.16,0,9.36,4.19,9.36,9.36v38.91c0,1.06-.86,1.93-1.93,1.93h-23.6c-1.06,0-1.93-.86-1.93-1.93v-38.91c0-5.16,4.19-9.36,9.36-9.36Z"/><rect class="cls-1" x="132.12" y="120.31" width="24.38" height="24.38" rx="8.86" ry="8.86"/><rect class="cls-1" x="43.42" y="85.08" width="47.94" height="59.61" rx="11.82" ry="11.82"/><rect class="cls-1" x="45.26" y="115.6" width="73.95" height="37.9" rx="9.83" ry="9.83"/></svg>