<?xml version="1.0" encoding="UTF-8"?><svg id="stump" xmlns="http://www.w3.org/2000/svg" viewBox="0 0 175 175"><defs><style>.cls-1{fill:#a5717a;}.cls-2{fill:#6e4c54;}.cls-3{fill:none;stroke:#6e4c54;stroke-miterlimit:10;stroke-width:.36px;}</style></defs><path class="cls-2" d="M161.2,147.5H88.66c-.49,0-.98-.07-1.45-.19l-14.96-4.09c-.63-.17-1.29-.26-1.95-.26H21.97c-1.96,0-3.13-2.2-2.02-3.82l4.15-6.07c.21-.31,.49-.56,.81-.75l23.3-13.69c1.41-.83,2.49-2.14,3.03-3.69l4.65-13.36c.09-.26,.28-.47,.53-.59l7.14-3.32c.19-.09,.39-.13,.59-.14l61.48-.52c.63-.01,1.2,.39,1.41,.99l8.27,23.65c.65,1.89,2.02,3.44,3.82,4.31l18.61,9.01c.95,.46,1.71,1.23,2.17,2.18l3.37,7.06c.73,1.52-.38,3.28-2.07,3.28Z"/><path class="cls-1" d="M118.58,101.73H56.47c-.35,0-.49-.46-.2-.66l5.7-3.39c.75-.45,1.61-.68,2.48-.68h61.17c.23,0,.33,.29,.15,.43l-4.36,3.33c-.81,.62-1.81,.96-2.83,.96Z"/><path class="cls-3" d="M65.28,97.92l-4.44,2.65c-.07,.04-.04,.16,.04,.16h53.63s.03,0,.04,0l2.4-1.25s.03,0,.04,0h3.04s.03,0,.05-.01l2.02-1.37c.07-.05,.04-.15-.05-.15h-56.74s-.03,0-.04,.01Z"/><path class="cls-3" d="M70.58,99.32l-3.24-.06s-.05,0-.07,.01l-1.03,.62s-.04,.1,.02,.1h45.07l2.67-1.07s.04-.1-.02-.1l-41.7-.19h-.01l-1.68,.69h-.01Z"/></svg>