<?xml version="1.0" encoding="UTF-8"?><svg id="pond" xmlns="http://www.w3.org/2000/svg" viewBox="0 0 175 175"><defs><style>.cls-1{fill:#dfaa77;}.cls-2{fill:#4c9dbf;}.cls-3{fill:none;stroke:#3f76ba;stroke-linecap:round;stroke-linejoin:round;stroke-width:1px;}</style></defs><path class="cls-1" d="M5.5,128.12l-3.77-5.78c-.42-.64-.17-1.49,.51-1.82l10.31-4.89c.17-.08,.35-.12,.54-.12h12.43c.22,0,.43-.06,.62-.16l11.89-6.73c.19-.11,.4-.16,.62-.16H106.7c.22,0,.43,.06,.62,.16l9.64,5.48c.19,.11,.4,.16,.62,.16h43.61c.26,0,.52,.08,.74,.24l11.05,8.02c.68,.49,.69,1.5,.03,2.01l-4.33,3.34c-.22,.17-.49,.26-.77,.26H5.5"/><g><path class="cls-2" d="M106.73,112.52l9.05,4.91c.39,.21,.83,.32,1.27,.32h42.97c.61,0,1.21,.21,1.69,.6l6.82,5.58c1.36,1.11,1.29,3.2-.12,4.22l-4.61,3.34c-.45,.33-1,.51-1.56,.51H9.5c-.89,0-1.73-.45-2.22-1.19l-2.72-4.11c-.95-1.43-.31-3.38,1.3-3.97l7.46-2.74c.29-.11,.59-.16,.89-.16l12.31-.11c.47,0,.93-.13,1.34-.37l11.37-6.75c.41-.24,.88-.37,1.36-.37H105.46c.44,0,.88,.11,1.27,.32Z"/><path class="cls-3" d="M32.62,125.33c5.12,0,7.48-2.51,7.48-2.51,0,0,2.74,2.52,5.87,2.52s6.2-2.5,6.2-2.5c0,0,2.94,2.54,6.37,2.54s5.87-2.54,5.87-2.54c0,0,2.72,2.54,6.37,2.54"/><path class="cls-3" d="M77.26,118.25c4.05,0,5.92-1.8,5.92-1.8,0,0,2.17,1.81,4.65,1.81s4.9-1.79,4.9-1.79c0,0,2.32,1.82,5.04,1.82s4.64-1.82,4.64-1.82c0,0,2.15,1.82,5.04,1.82"/><path class="cls-3" d="M115.06,128.08c4.05,0,5.92-1.8,5.92-1.8,0,0,2.17,1.81,4.65,1.81s4.9-1.79,4.9-1.79c0,0,2.16,1.82,5.66,1.82"/></g></svg>