<?xml version="1.0" encoding="UTF-8"?><svg id="bush_1" xmlns="http://www.w3.org/2000/svg" viewBox="0 0 175 175"><defs><style>.cls-1{fill:#885561;}.cls-2{fill:#79ad73;}</style></defs><path class="cls-1" d="M93.43,150.5h-12.3c-.56,0-.9-.6-.63-1.09l.9-1.57c.06-.11,.1-.23,.1-.36v-21.13c0-.4,.32-.72,.72-.72h10.1c.4,0,.72,.32,.72,.72v21.08c0,.13,.03,.25,.09,.36l.92,1.62c.27,.48-.07,1.08-.63,1.08Z"/><path class="cls-2" d="M115.2,128.66H47.58c-2.34,0-4.24-1.9-4.24-4.24V59.27c0-6.5,5.27-11.77,11.77-11.77h52.54c6.5,0,11.77,5.27,11.77,11.77V124.42c0,2.34-1.9,4.24-4.24,4.24Z"/><path class="cls-2" d="M112.72,67.14h18.18c6.32,0,11.46,5.13,11.46,11.46v43.54c0,3.6-2.92,6.52-6.52,6.52h-23.12c-6.32,0-11.46-5.13-11.46-11.46v-38.61c0-6.32,5.13-11.46,11.46-11.46Z"/><path class="cls-2" d="M31.38,80.47h16.54c6.56,0,11.88,5.33,11.88,11.88v29.01c0,4.03-3.27,7.29-7.29,7.29H31.38c-6.56,0-11.88-5.33-11.88-11.88v-24.42c0-6.56,5.33-11.88,11.88-11.88Z"/><rect class="cls-2" x="126.94" y="93.5" width="28.56" height="35.15" rx="8.96" ry="8.96"/><path class="cls-1" d="M68.78,131.96v-30.88c0-1.65-1.28-3.05-2.92-3.1-1.73-.06-3.14,1.32-3.14,3.03v34.63h0c0,2.33,1.89,4.22,4.22,4.22h20.79v-6.07h-17.12c-1.01,0-1.82-.82-1.82-1.82Z"/><path class="cls-1" d="M105.44,105.81c-1.64,.06-2.92,1.46-2.92,3.1v29.76c0,.97-.79,1.76-1.76,1.76h-13.04v6.07h14.87c3.31,0,5.99-2.68,5.99-5.99h0v-31.67c0-1.71-1.42-3.09-3.14-3.03Z"/><path class="cls-1" d="M87.59,117.13c-.66,0-1.2-.54-1.2-1.2v-6.64c0-1.68-1.36-3.03-3.03-3.03h0c-1.68,0-3.03,1.36-3.03,3.03v10.27h0c0,2.01,1.63,3.64,3.64,3.64h21.3v-6.07h-17.67Z"/><path class="cls-1" d="M56.5,104.79v-15.57c0-1.58-1.18-2.95-2.76-3.09-1.8-.16-3.31,1.26-3.31,3.02v19.31h0c0,2.33,1.89,4.22,4.22,4.22h9.55v-6.07h-5.87c-1.01,0-1.83-.82-1.83-1.83Z"/><path class="cls-1" d="M74.81,88.79c-1.64,.06-2.92,1.46-2.92,3.1v8.36c0,.45-.37,.82-.82,.82h-6.88v6.07h10.58c1.76,0,3.18-1.42,3.18-3.18h0v-12.14c0-1.71-1.42-3.09-3.14-3.03Z"/><path class="cls-1" d="M117.28,93.53c-1.64,.06-2.92,1.46-2.92,3.1v14.91c0,.77-.62,1.39-1.39,1.39h-7.04v6.07h11.44c1.69,0,3.06-1.37,3.06-3.06h0v-19.39c0-1.71-1.42-3.09-3.14-3.03Z"/><path class="cls-1" d="M112.44,95.39v-5.56c0-1.65-1.28-3.06-2.93-3.11s-3.14,1.32-3.14,3.03v8.44h0c0,2.41,1.95,4.37,4.37,4.37h7.61s0,0,0,0v-6.05s0,0,0,0h-4.82c-.6,0-1.09-.49-1.09-1.09Z"/></svg>