<svg xmlns="http://www.w3.org/2000/svg" viewBox="0 0 175 175"><defs><style>.cls-1{fill:#b0a444;stroke:#9e8c00;}.cls-1,.cls-2,.cls-3,.cls-4{stroke-miterlimit:10;stroke-width:0.96px;}.cls-2{fill:#6e4c54;stroke:#38001b;}.cls-3{fill:#85a05b;stroke:#40571b;}.cls-4{fill:#885561;stroke:#541f2c;}</style></defs><g id="tree_2" data-name="tree 2"><g id="tree_top" data-name="tree top"><rect class="cls-1" x="132.85" y="52.75" width="36.47" height="33.48" rx="16.74"/><rect class="cls-1" x="101.35" y="71.74" width="27.33" height="24.44" rx="12.22"/></g><g id="trunk"><g id="Layer_31" data-name="Layer 31"><path class="cls-2" d="M153.88,65h0a2.79,2.79,0,0,0-2.79,2.79v5.68h-6.64V70.22a2.79,2.79,0,0,0-5.58,0v4.71a2.54,2.54,0,0,0,.09.68,2.46,2.46,0,0,0-.09.67,2.79,2.79,0,0,0,2.79,2.79h9.43V99.85H119.14v-16a2.79,2.79,0,0,0-5.58,0v2.35h-6.84a2.79,2.79,0,1,0,0,5.58h6.84v10.83a2.79,2.79,0,0,0,2.79,2.79H131v13.82a8.1,8.1,0,0,1-2.09,5.42l-2.65,2.92a2.34,2.34,0,0,0,1.37,3.9l.39,0h17.57a2.34,2.34,0,0,0,1.53-4l-2.83-2.94a9.22,9.22,0,0,1-2.58-6.4V105.43h12.22a2.78,2.78,0,0,0,2.79-2.79V67.81A2.79,2.79,0,0,0,153.88,65Z"/></g></g></g><g id="tree_1" data-name="tree 1"><path id="tree_top-2" data-name="tree top" class="cls-3" d="M84.59,74.36H78.52V70A7.52,7.52,0,0,0,71,62.44H37.27A7.53,7.53,0,0,0,29.74,70v4.4H13.26a7.37,7.37,0,0,0-7.37,7.37l-.21,18.58a7.37,7.37,0,0,0,7.37,7.37H84.38a7.37,7.37,0,0,0,7.37-7.37L92,81.73A7.37,7.37,0,0,0,84.59,74.36Z"/><path id="trunk-2" data-name="trunk" class="cls-4" d="M77.81,80.84H77a2.29,2.29,0,0,0-2.28,2.29V95.37H59V75.3A2.29,2.29,0,0,0,56.73,73h-.85A2.28,2.28,0,0,0,53.6,75.3V95.37H37.55V82.32a2.77,2.77,0,0,0-2.77-2.77h-.09a2.77,2.77,0,0,0-2.78,2.77V86.5h0l-.32,0H27.77V83.21a2.33,2.33,0,0,0-2.24-2.36,2.28,2.28,0,0,0-2.32,2.28v6.22c0,3.62,6.19,2.12,8.38,2.12l.32,0h0v7.23a2.77,2.77,0,0,0,2.78,2.77h.1a2.88,2.88,0,0,0,.59-.07h0a2.35,2.35,0,0,0,.54.07H41.4a2.44,2.44,0,0,1,2.44,2.44v11.94a9.56,9.56,0,0,1-3.7,7.35c-2.31,1.95-5.29,2.72-7.65,4.48a1.78,1.78,0,0,0,1.16,3.27L63,130.82c1.18,0,2.93-1.06,2.56-2.46-.53-2-4.18-2.8-5.69-4a12.21,12.21,0,0,1-4.79-9.69V103.34a1.9,1.9,0,0,1,1.9-1.89H76.47l.26,0h1.08a2.29,2.29,0,0,0,2.29-2.28v-16A2.3,2.3,0,0,0,77.81,80.84Z"/></g></svg>