<svg xmlns="http://www.w3.org/2000/svg" viewBox="0 0 175 175"><defs><style>.cls-1{isolation:isolate;}.cls-2{fill:#57745e;stroke:#154d22;}.cls-2,.cls-4,.cls-5,.cls-6,.cls-8{stroke-miterlimit:10;stroke-width:0.89px;}.cls-3{fill:#018a1a;mix-blend-mode:multiply;opacity:0.48;}.cls-4{fill:#eb94cd;stroke:#a6076e;}.cls-5{fill:#925624;stroke:#5c2b04;}.cls-6{fill:#fdbe11;stroke:#e38f29;}.cls-7{fill:#372943;}.cls-8{fill:#8b6f9a;stroke:#560085;}</style></defs><g class="cls-1"><g id="pink_flower" data-name="pink flower"><rect class="cls-2" x="33.89" y="69.03" width="3.52" height="54.48" rx="1.76"/><path class="cls-2" d="M36.51,98.49c-1-.4.76-11.69,3.47-16.25s6.55-6.07,8.59-3.39,1.51,8.55-1.2,13.1S37.48,98.88,36.51,98.49Z"/><path class="cls-2" d="M35.87,105.64c-.21,1.52-7.9-.43-11.12-4.17S20.28,92.11,22,88.92s5.64-2.75,8.86,1S36.07,104.17,35.87,105.64Z"/><path class="cls-3" d="M32.42,102.67a14.58,14.58,0,0,0-3.29-6.62,42.41,42.41,0,0,0-5.36-5.19A10.17,10.17,0,0,1,27,93.25a23.32,23.32,0,0,1,5.34,7.3,3.18,3.18,0,0,1,.18,2.73C32.43,102.84,32.34,102.41,32.42,102.67Z"/><rect class="cls-2" x="33.89" y="69.03" width="3.52" height="54.48" rx="1.76"/><path class="cls-2" d="M36.51,98.49c-1-.4.76-11.69,3.47-16.25s6.55-6.07,8.59-3.39,1.51,8.55-1.2,13.1S37.48,98.88,36.51,98.49Z"/><path class="cls-2" d="M35.87,105.64c-.21,1.52-7.9-.43-11.12-4.17S20.28,92.11,22,88.92s5.64-2.75,8.86,1S36.07,104.17,35.87,105.64Z"/><path class="cls-3" d="M32.42,102.67a14.58,14.58,0,0,0-3.29-6.62,42.41,42.41,0,0,0-5.36-5.19A10.17,10.17,0,0,1,27,93.25a23.32,23.32,0,0,1,5.34,7.3,3.18,3.18,0,0,1,.18,2.73C32.43,102.84,32.34,102.41,32.42,102.67Z"/><path class="cls-3" d="M47.49,82.86a15.38,15.38,0,0,0-5.87,5.21,43.46,43.46,0,0,0-3.69,6.85A10.11,10.11,0,0,1,39.39,91a24,24,0,0,1,5.9-7.45,3.58,3.58,0,0,1,2.81-1C47.67,82.8,47.24,83,47.49,82.86Z"/><rect class="cls-2" x="83.93" y="74.37" width="3.52" height="54.48" rx="1.76"/><path class="cls-2" d="M86.55,103.83c-1-.4.77-11.69,3.47-16.24s6.56-6.08,8.6-3.4,1.5,8.55-1.2,13.11S87.53,104.22,86.55,103.83Z"/><path class="cls-2" d="M85.91,111c-.21,1.52-7.89-.43-11.12-4.17S70.32,97.45,72,94.26s5.65-2.75,8.87,1S86.11,109.51,85.91,111Z"/><path class="cls-3" d="M82.47,108a14.68,14.68,0,0,0-3.29-6.62,43.09,43.09,0,0,0-5.36-5.19A10,10,0,0,1,77,98.59a23.46,23.46,0,0,1,5.35,7.3,3.18,3.18,0,0,1,.18,2.73C82.48,108.19,82.39,107.75,82.47,108Z"/><rect class="cls-2" x="83.93" y="74.37" width="3.52" height="54.48" rx="1.76"/><path class="cls-2" d="M86.55,103.83c-1-.4.77-11.69,3.47-16.24s6.56-6.08,8.6-3.4,1.5,8.55-1.2,13.11S87.53,104.22,86.55,103.83Z"/><path class="cls-2" d="M85.91,111c-.21,1.52-7.89-.43-11.12-4.17S70.32,97.45,72,94.26s5.65-2.75,8.87,1S86.11,109.51,85.91,111Z"/><path class="cls-3" d="M82.47,108a14.68,14.68,0,0,0-3.29-6.62,43.09,43.09,0,0,0-5.36-5.19A10,10,0,0,1,77,98.59a23.46,23.46,0,0,1,5.35,7.3,3.18,3.18,0,0,1,.18,2.73C82.48,108.19,82.39,107.75,82.47,108Z"/><path class="cls-3" d="M97.53,88.2a15.43,15.43,0,0,0-5.86,5.21A43.9,43.9,0,0,0,88,100.26a10.09,10.09,0,0,1,1.45-3.91,23.86,23.86,0,0,1,5.91-7.45,3.56,3.56,0,0,1,2.81-1C97.72,88.14,97.29,88.36,97.53,88.2Z"/><rect class="cls-2" x="143.07" y="74.57" width="3.52" height="54.48" rx="1.76"/><path class="cls-2" d="M145.69,104c-1-.4.77-11.69,3.47-16.25s6.56-6.07,8.6-3.39,1.51,8.55-1.2,13.1S146.67,104.43,145.69,104Z"/><path class="cls-2" d="M145.05,111.19c-.21,1.52-7.89-.43-11.11-4.17s-4.48-9.36-2.8-12.55,5.65-2.75,8.87,1S145.26,109.72,145.05,111.19Z"/><path class="cls-3" d="M141.61,108.21a14.78,14.78,0,0,0-3.29-6.62A44.57,44.57,0,0,0,133,96.4a10.36,10.36,0,0,1,3.23,2.4,23.48,23.48,0,0,1,5.34,7.3,3.18,3.18,0,0,1,.18,2.73C141.62,108.39,141.53,108,141.61,108.21Z"/><rect class="cls-2" x="143.07" y="74.57" width="3.52" height="54.48" rx="1.76"/><path class="cls-2" d="M145.69,104c-1-.4.77-11.69,3.47-16.25s6.56-6.07,8.6-3.39,1.51,8.55-1.2,13.1S146.67,104.43,145.69,104Z"/><path class="cls-2" d="M145.05,111.19c-.21,1.52-7.89-.43-11.11-4.17s-4.48-9.36-2.8-12.55,5.65-2.75,8.87,1S145.26,109.72,145.05,111.19Z"/><path class="cls-3" d="M141.61,108.21a14.78,14.78,0,0,0-3.29-6.62A44.57,44.57,0,0,0,133,96.4a10.36,10.36,0,0,1,3.23,2.4,23.48,23.48,0,0,1,5.34,7.3,3.18,3.18,0,0,1,.18,2.73C141.62,108.39,141.53,108,141.61,108.21Z"/><path class="cls-3" d="M156.67,88.41a15.42,15.42,0,0,0-5.86,5.21,43.46,43.46,0,0,0-3.69,6.85,9.9,9.9,0,0,1,1.46-3.91,23.83,23.83,0,0,1,5.9-7.45,3.54,3.54,0,0,1,2.81-1C156.86,88.34,156.43,88.56,156.67,88.41Z"/><path class="cls-4" d="M49.85,61.08C45,60.26,39,62.32,37.63,63.57c-.73-1.64-1.49-2.68-1.91-2.59a4.06,4.06,0,0,0-1.36,1.18c-.06-.86-.23-1.42-.49-1.49-.43-.12-2,.37-3.85,1.34-.87-.8-8.12-2.12-13.26-.08s-9.6,6.39-9.31,9.47,8.25,1.75,13.48-.32l.14-.06c-1.83,4-2.28,8.17-.71,10.06s5.73-1.34,8.93-5.12c.21,4.44,1.81,8.44,4.11,9.39S38,81,39,76c4.18,3.33,9.61,5,12.08,3.36,1.91-1.23-.21-5-3.16-8.44.25.06.5.12.75.16,5.54.94,11.52-.49,12.87-3.28S55.39,62,49.85,61.08Z"/><path class="cls-5" d="M27.05,63c0-3.3,4.14-9.16,8.81-9.16S44,59.73,44,63s-3.79,6-8.46,6S27.05,66.34,27.05,63Z"/></g><g id="yellow_flower" data-name="yellow flower"><path class="cls-6" d="M80.12,70.8c.69.82-3.92,7-9.15,9s-13.18,3.4-13.47.32,4.08-7.41,9.3-9.48S79.45,70,80.12,70.8Z"/><path class="cls-6" d="M83.91,69.42c1,.29.65,8-2.52,12.6s-9,10.2-11,7.81-.76-8.42,2.41-13.06S82.91,69.14,83.91,69.42Z"/><path class="cls-6" d="M87.39,72.81c-.17-1.06,7-3.92,12.5-3s13,3.92,11.69,6.71-7.33,4.22-12.87,3.28S87.55,73.83,87.39,72.81Z"/><path class="cls-6" d="M82.39,72.35c.4-1,8,.27,12.23,4s9.1,10.12,6.51,11.8-8.46-.2-12.71-3.88S82,73.32,82.39,72.35Z"/><path class="cls-6" d="M85.77,69.73c1-.23,4.32,6.72,3.7,12.31s-3.16,13.24-6,12.06-4.64-7.07-4-12.66S84.75,70,85.77,69.73Z"/><ellipse class="cls-7" cx="85.56" cy="71.78" rx="8.46" ry="5.99"/></g><g id="purple_flower" data-name="purple flower"><path class="cls-8" d="M155.68,76.64c-1.77-.35-3.46-.59-5-.74A48.47,48.47,0,0,0,157,73.46c6.17-2.86,10.67-6.28,10-7.64s-6.14-.15-12.32,2.71a51.16,51.16,0,0,0-5,2.66c.63-1.13,1.27-2.36,1.89-3.67,2.93-6.26,4.25-11.9,2.94-12.58s-4.75,3.85-7.68,10.11c-.8,1.7-1.47,3.35-2,4.87a55.23,55.23,0,0,0-2.2-5.42c-3-6.44-6.47-11.18-7.78-10.58S135,60.24,138,66.69A54.46,54.46,0,0,0,141.37,73a53.28,53.28,0,0,0-6.47-2.36c-6.65-2-12.33-2.38-12.69-1s4.75,4.17,11.4,6.13c1.78.52,3.49.93,5,1.23a44.89,44.89,0,0,0-7.56,2.78c-6.17,2.86-10.66,6.28-10,7.64s6.15.14,12.32-2.72a39.92,39.92,0,0,0,8.11-4.81l.13.17A50,50,0,0,0,138.39,86c-2.93,6.26-4.25,11.89-2.94,12.58s4.75-3.85,7.68-10.11a50.09,50.09,0,0,0,2.49-6.3,53.1,53.1,0,0,0,2.57,6.55c3,6.44,6.47,11.18,7.77,10.58s-.06-6.32-3.05-12.77a57.65,57.65,0,0,0-3.14-5.86,51.84,51.84,0,0,0,5.11,1.24c6.78,1.32,12.45,1.2,12.67-.26S162.46,78,155.68,76.64Z"/><ellipse class="cls-6" cx="145.38" cy="75.93" rx="5.05" ry="4.97" transform="translate(-18.16 63.51) rotate(-23.23)"/></g></g></svg>